<svg width="26" height="19" viewBox="0 0 26 19" fill="none" xmlns="http://www.w3.org/2000/svg">
<path fill-rule="evenodd" clip-rule="evenodd" d="M9.07154 9.46041C8.38952 9.04493 6.77737 8.22132 6.13768 8.29657C4.97747 8.34361 2.56292 7.99083 1.66926 6.32107C1.07347 5.46659 0.32873 3.26374 2.1867 1.80564C3.10384 0.982515 6.04358 0.0653207 8.34836 3.07561C8.60703 3.41345 8.95979 4.34558 9.05392 4.95703C9.92403 5.82721 11.8995 7.40291 12.5816 7.73214C15.7095 6.07021 22.4403 2.89686 24.3405 3.49892C24.5443 3.56948 24.9614 3.75292 24.999 3.92224C25.0069 3.96144 24.9708 4.07276 24.7638 4.20446C21.8947 5.68609 15.9727 8.8516 15.3518 9.47247C15.9727 10.0933 21.8888 13.2468 24.758 14.7284C24.9649 14.8601 25.001 14.9714 24.9931 15.0106C24.9555 15.18 24.5385 15.3634 24.3346 15.434C22.4344 16.036 15.7036 12.8627 12.5757 11.2007C11.8937 11.53 9.91815 13.1057 9.04804 13.9758C8.95392 14.5873 8.60115 15.5194 8.34248 15.8573C6.0377 18.8676 3.09796 17.9504 2.18082 17.1272C0.32285 15.6691 1.06759 13.4663 1.66338 12.6118C2.55704 10.942 4.97159 10.5893 6.1318 10.6363C6.77149 10.7116 8.38952 9.87589 9.07154 9.46041ZM5.97302 3.00506C7.66631 4.13392 7.21163 5.48228 6.77263 6.01535C5.51205 7.06895 4.13078 6.43867 3.59772 5.99183C2.37479 4.86297 2.82163 3.73411 3.19791 3.31079C4.19507 2.35126 5.46347 2.70716 5.97302 3.00506ZM11.5184 9.48996C11.5184 9.16071 11.683 8.45517 12.5816 8.40814C12.9294 8.38993 13.6115 8.69035 13.6115 9.47247C13.6115 10.2546 12.953 10.5718 12.5757 10.5422C11.683 10.5422 11.5184 9.7957 11.5184 9.48996ZM5.96714 15.9278C7.66043 14.799 7.20575 13.4506 6.76675 12.9175C5.50617 11.8639 4.1249 12.4942 3.59184 12.941C2.36891 14.0699 2.81575 15.1988 3.19203 15.6221C4.18919 16.5816 5.45759 16.2257 5.96714 15.9278Z" fill="#BC9284" stroke="#BC9284"/>
</svg>
