<svg width="526" height="376" viewBox="0 0 526 376" fill="none" xmlns="http://www.w3.org/2000/svg">
<path fill-rule="evenodd" clip-rule="evenodd" d="M179.604 187.872C165.104 179.038 130.829 161.528 117.229 163.128C92.5626 164.128 41.2283 156.628 22.2287 121.128C9.56207 102.961 -6.27149 56.1281 33.2297 25.1282C52.7285 7.62827 115.229 -11.8717 164.229 52.1282C169.729 59.3109 177.229 79.1283 179.23 92.1281C197.729 110.628 239.604 137.5 254.104 144.5C320.604 109.167 463.829 48.3281 504.229 61.1281C508.563 62.6281 517.429 66.5281 518.229 70.1281C518.396 70.9614 517.629 73.3281 513.229 76.1281C452.229 107.628 326.325 174.928 313.125 188.128C326.325 201.328 452.104 268.372 513.104 299.872C517.504 302.672 518.271 305.038 518.104 305.872C517.304 309.472 508.438 313.372 504.104 314.872C463.704 327.672 320.604 267.833 254.104 232.5C239.604 239.5 197.604 265.372 179.105 283.872C177.104 296.872 169.604 316.689 164.104 323.872C115.104 387.872 52.6035 368.372 33.1047 350.872C-6.39649 319.872 9.43707 273.038 22.1037 254.872C41.1033 219.372 92.4376 211.872 117.104 212.872C130.704 214.472 165.104 196.705 179.604 187.872ZM113.729 50.6283C149.729 74.6283 140.062 103.295 130.729 114.628C103.928 137.028 74.5616 123.628 63.2285 114.128C37.2285 90.1283 46.7285 66.1283 54.7285 57.1283C75.9285 36.7283 102.895 44.295 113.729 50.6283ZM231.625 188.5C231.625 181.5 235.125 166.5 254.229 165.5C261.625 165.113 276.125 171.5 276.125 188.128C276.125 204.756 262.125 211.5 254.104 210.872C235.125 210.872 231.625 195 231.625 188.5ZM113.604 325.371C149.604 301.371 139.937 272.705 130.604 261.372C103.803 238.972 74.4366 252.372 63.1035 261.872C37.1035 285.872 46.6035 309.871 54.6035 318.871C75.8035 339.271 102.77 331.705 113.604 325.371Z" fill="white" stroke="#BC9284" stroke-width="15"/>
</svg>
