<svg width="654" height="654" viewBox="0 0 654 654" fill="none" xmlns="http://www.w3.org/2000/svg">
<path d="M316.393 621.864C310.536 627.721 310.536 637.219 316.393 643.077C322.251 648.935 331.749 648.935 337.607 643.077L316.393 621.864ZM337.607 643.077L546.91 433.773L525.697 412.56L316.393 621.864L337.607 643.077Z" fill="#BC9284"/>
<path d="M208.206 355.284C202.348 349.426 192.851 349.426 186.993 355.284C181.135 361.142 181.135 370.64 186.993 376.497L208.206 355.284ZM186.993 376.497L377.912 567.416L399.125 546.203L208.206 355.284L186.993 376.497Z" fill="#BC9284"/>
<path d="M464.886 374.376C470.744 368.518 470.744 359.021 464.886 353.163C459.028 347.305 449.531 347.305 443.673 353.163L464.886 374.376ZM443.673 353.163L252.754 544.082L273.967 565.295L464.886 374.376L443.673 353.163Z" fill="#BC9284"/>
<path d="M316.393 643.077C322.251 648.935 331.749 648.935 337.606 643.077C343.464 637.219 343.464 627.721 337.606 621.864L316.393 643.077ZM107.09 433.773L316.393 643.077L337.606 621.864L128.303 412.56L107.09 433.773Z" fill="#BC9284"/>
<path d="M278.917 284.574C273.059 278.716 263.562 278.716 257.704 284.574C251.846 290.431 251.846 299.929 257.704 305.787L278.917 284.574ZM257.704 305.787L448.623 496.706L469.836 475.492L278.917 284.574L257.704 305.787Z" fill="#BC9284"/>
<path d="M394.882 304.373C400.74 298.515 400.74 289.017 394.882 283.159C389.024 277.301 379.527 277.301 373.669 283.159L394.882 304.373ZM373.669 283.159L182.75 474.078L203.963 495.291L394.882 304.373L373.669 283.159Z" fill="#BC9284"/>
<mask id="path-7-inside-1_233_7063" fill="white">
<path d="M327 213.863C385.579 155.284 481.261 154.577 539.839 213.156L547.618 220.934C606.196 279.513 605.489 375.194 546.911 433.773V433.773L327 213.863V213.863Z"/>
</mask>
<path d="M306.494 191.943C376.789 121.648 490.758 121.648 561.053 191.943L568.831 199.721C639.125 270.015 639.125 383.985 568.831 454.279L526.404 411.853C573.267 364.99 573.267 289.01 526.404 242.147L518.626 234.369C471.763 187.506 395.784 187.506 348.921 234.369L306.494 191.943ZM546.911 433.773L327 213.863L546.911 433.773ZM305.787 192.65L306.494 191.943C376.789 121.648 490.758 121.648 561.053 191.943L518.626 234.369C471.763 187.506 395.784 187.506 348.921 234.369L348.214 235.076L305.787 192.65ZM568.831 199.721C639.125 270.015 639.125 383.985 568.831 454.279L568.124 454.986L525.697 412.56L526.404 411.853C573.267 364.99 573.267 289.01 526.404 242.147L568.831 199.721Z" fill="#BC9284" mask="url(#path-7-inside-1_233_7063)"/>
<mask id="path-9-inside-2_233_7063" fill="white">
<path d="M107.09 433.773C48.5109 375.194 47.8038 279.513 106.382 220.934L114.161 213.156C172.739 154.577 268.421 155.284 327 213.863V213.863L107.09 433.773V433.773Z"/>
</mask>
<path d="M85.1692 454.279C14.8748 383.985 14.8748 270.015 85.1692 199.721L92.9474 191.943C163.242 121.648 277.211 121.648 347.506 191.943L305.079 234.369C258.217 187.506 182.237 187.506 135.374 234.369L127.596 242.147C80.7327 289.01 80.7327 364.99 127.596 411.853L85.1692 454.279ZM327 213.863L107.09 433.773L327 213.863ZM85.8763 454.986L85.1692 454.279C14.8748 383.985 14.8748 270.015 85.1692 199.721L127.596 242.147C80.7327 289.01 80.7327 364.99 127.596 411.853L128.303 412.56L85.8763 454.986ZM92.9474 191.943C163.242 121.648 277.211 121.648 347.506 191.943L348.213 192.65L305.787 235.076L305.079 234.369C258.217 187.506 182.237 187.506 135.374 234.369L92.9474 191.943Z" fill="#BC9284" mask="url(#path-9-inside-2_233_7063)"/>
<path d="M327 213.863L348.213 235.076L334.071 249.218C330.166 253.123 323.834 253.123 319.929 249.218L305.787 235.076L327 213.863Z" fill="#BC9284"/>
</svg>
