<svg width="1217" height="1217" viewBox="0 0 1217 1217" fill="none" xmlns="http://www.w3.org/2000/svg">
<path d="M1025.54 414.954C845.653 257.128 671.044 369.464 606.226 445.36L224.035 831.794L606.58 1214.34L893.665 927.253C850.06 966.38 808.459 1001.71 990.893 830.026C1173.33 658.341 1090.01 481.776 1025.54 414.954Z" fill="white"/>
<path d="M197.263 413.415C33.2142 583.121 146.823 764.612 224.133 834.144L320.3 737.977L418.234 835.911C385.707 796.596 403.739 756.361 416.82 741.159C449.064 704.389 491.773 720.888 509.098 733.734L416.82 641.457L511.926 546.351L609.86 644.285L706.734 547.411L608.8 449.477C426.366 265.912 258.428 348.951 197.263 413.415Z" fill="#BC9284"/>
<path d="M507.349 732.562L607.052 832.264L702.511 736.805C737.866 696.358 715.593 654.663 700.037 638.871C663.833 599.273 622.255 623.315 605.991 640.285C566.676 604.364 528.091 623.668 513.713 637.81C477.792 670.903 494.504 714.767 507.349 732.562Z" fill="#BC9284"/>
<path d="M798.323 1022.83L702.863 927.371C747.835 964.423 786.655 941.867 800.444 925.957C834.668 895.693 812.818 851.121 797.616 832.619L893.075 928.078L798.323 1022.83Z" fill="#BC9284"/>
<path d="M704.632 1118.64L607.405 1215.87L510.532 1119L607.759 1021.77C589.374 1037.09 544.261 1058.54 510.885 1021.77C469.166 975.807 496.39 947.17 512.299 926.31L607.052 831.558L702.511 927.017C718.892 945.991 741.826 991.788 702.511 1023.18C653.367 1062.43 622.255 1036.27 607.759 1021.77L695.087 1109.1L704.632 1118.64Z" fill="#BC9284"/>
<path d="M321.027 928.785L417.194 832.619C405.88 843.932 369.111 880.702 414.719 926.31C451.206 962.797 494.504 941.984 511.593 927.017L415.426 1023.18L321.027 928.785Z" fill="#BC9284"/>
<path d="M799.383 640.639L893.429 734.684L797.262 830.851C833.466 787.293 813.29 750.005 798.676 736.806C765.301 696.076 723.959 717.007 707.459 732.563L799.383 640.639Z" fill="#BC9284"/>
</svg>
