<svg width="272" height="427" viewBox="0 0 272 427" fill="none" xmlns="http://www.w3.org/2000/svg">
<path d="M237.5 145.92V425.921M237.5 425.921H271.5V131.92C258.3 18.3202 174.667 -2.41289 134.5 1.42056C31.3 1.02056 2.5 90.9206 1 135.921V425.921H152.5M237.5 425.921H152.5M152.5 425.921V360.42C150.167 361.087 140.6 368.32 121 391.92C126.833 380.587 137.2 352.52 132 330.92C123.5 339.587 106.6 356.72 107 355.92C107.5 354.92 117.5 325.42 113 302.92C106.333 310.087 93 323.92 93 321.92C95 311.92 97.8 288.42 93 274.42L79 288.92C80.1667 280.587 80.9 260.32 74.5 245.92C71.3333 248.087 64.8 252.82 64 254.42C63 256.42 65 233.92 56 217.42C54.1667 218.42 50.3 221.02 49.5 223.42C47.8333 215.92 42.7 198.52 35.5 188.92V145.92" stroke="black"/>
</svg>
