<svg width="169" height="172" viewBox="0 0 169 172" fill="none" xmlns="http://www.w3.org/2000/svg">
<rect width="11.0051" height="117.665" transform="matrix(0.997957 0.063894 0.0428592 -0.999081 152.975 161.297)" fill="#9D7A6E"/>
<rect x="0.520408" y="-0.467594" width="10.0051" height="116.665" transform="matrix(0.997957 0.063894 0.0428592 -0.999081 152.996 160.329)" stroke="black" stroke-opacity="0.5"/>
<rect width="131.972" height="119" transform="matrix(1 0 0 -1 32 162)" fill="#BC9284"/>
<rect x="0.5" y="-0.5" width="130.972" height="118" transform="matrix(1 0 0 -1 32 161)" stroke="black" stroke-opacity="0.5"/>
<rect x="46" y="36" width="111" height="136" fill="#D9D9D9" fill-opacity="0.3"/>
<rect x="46.5" y="36.5" width="110" height="135" stroke="#372316" stroke-opacity="0.2" stroke-linecap="round" stroke-linejoin="round"/>
<path d="M90.2285 87.9365V161.295" stroke="black"/>
<path d="M64 160.94H141" stroke="black"/>
<path d="M114.564 87.583V160.942" stroke="black"/>
<path d="M114.564 87.583V160.942" stroke="black"/>
<path d="M140 89.5V160H65V89.5C65 68.7893 81.7893 52 102.5 52C123.211 52 140 68.7893 140 89.5Z" stroke="black" stroke-width="2"/>
<path d="M89.5 161V123" stroke="black" stroke-width="3"/>
<path d="M15.0527 43.4253L58.1327 102.825C58.9327 96.8253 63.3861 96.7586 65.5527 97.4253C67.1527 91.8253 70.8861 91.7586 72.5527 92.4253C73.3527 88.0253 77.8861 87.2586 80.0527 87.4253L42.5527 25.4253C38.8134 26.1052 35.2801 27.4431 32.0527 29.1253C28.0236 31.2255 24.4714 33.8623 21.5908 36.4253C18.6335 39.0565 16.384 41.61 15.0527 43.4253Z" fill="#B0BFB4"/>
<path d="M72.5527 92.4253C73.3527 88.0253 77.8861 87.2586 80.0527 87.4253L42.5527 25.4253C38.8134 26.1052 35.2801 27.4431 32.0527 29.1253M72.5527 92.4253C70.8861 91.7586 67.1527 91.8253 65.5527 97.4253M72.5527 92.4253L32.0527 29.1253M65.5527 97.4253C63.3861 96.7586 58.9327 96.8253 58.1327 102.825L15.0527 43.4253C16.384 41.61 18.6335 39.0565 21.5908 36.4253M65.5527 97.4253C48.3845 73.6033 38.759 60.2473 21.5908 36.4253M21.5908 36.4253C24.4714 33.8623 28.0236 31.2255 32.0527 29.1253" stroke="black" stroke-width="0.5"/>
<path d="M33.5527 10.9253C18.3527 12.1253 8.2194 24.092 5.05273 29.9253L7.84195 33.6907L11.1698 38.1833L15.0527 43.4253C25.4527 30.6253 37.7194 26.092 42.5527 25.4253L39.0527 19.7864L36.3027 15.3558L33.5527 10.9253Z" fill="#9BABB0"/>
<path d="M39.0527 19.7864L42.5527 25.4253C37.7194 26.092 25.4527 30.6253 15.0527 43.4253L11.1698 38.1833M39.0527 19.7864C32.7975 21.1714 18.4635 26.7898 11.1698 38.1833M39.0527 19.7864L36.3027 15.3558M11.1698 38.1833L7.84195 33.6907M36.3027 15.3558L33.5527 10.9253C18.3527 12.1253 8.2194 24.092 5.05273 29.9253L7.84195 33.6907M36.3027 15.3558C30.0789 15.8893 15.6733 20.3031 7.84195 33.6907" stroke="black" stroke-width="0.5"/>
<path d="M12.5527 2.42539C22.9527 -2.37461 30.8861 6.09205 33.5527 10.9254C18.7527 12.1255 8.38607 24.198 5.05273 29.9253C-4.94727 14.3253 5.88607 5.09202 12.5527 2.42539Z" fill="#BC9284" fill-opacity="0.52"/>
<path d="M5.05273 29.9253C-4.94727 14.3253 5.88607 5.09202 12.5527 2.42539C22.9527 -2.37461 30.8861 6.09205 33.5527 10.9254C18.7527 12.1255 8.38607 24.198 5.05273 29.9253ZM5.05273 29.9253C15.0527 45.5253 9.2194 36.5313 5.05273 29.9253Z" stroke="black" stroke-width="0.5"/>
<path d="M25.5527 12.4253C10.3527 15.6253 4.7194 11.9253 4.05273 9.42529C-1.44727 16.9253 2.38607 25.9253 5.05273 29.4253C12.0527 18.4253 22.0527 13.4253 25.5527 12.4253Z" fill="#BC9284"/>
<path d="M76.0538 116.425C76.8538 110.025 83.0538 108.593 86.0538 108.927L89.4254 120.485C90.2254 123.685 87.0527 123.425 85.5584 122.425L76.0538 116.425Z" fill="#434F50" stroke="black" stroke-width="0.5"/>
<path d="M68.0527 67.9253C52.4527 75.9253 26.5194 54.9253 15.3527 43.4253L58.0527 102.925L80.0527 87.4253L68.0527 67.9253Z" fill="#8FA595"/>
<path d="M58.4527 103.425L76.0527 116.425C77.2527 110.025 83.2194 108.758 86.0527 108.925L80.3927 87.8252C75.5927 86.6252 73.2194 90.425 72.5527 92.4249C68.1527 91.2249 66.0527 95.2584 65.5527 97.4251C59.9527 95.8251 58.6194 100.925 58.4527 103.425Z" fill="#FBFAF5" stroke="black" stroke-width="0.3"/>
<path d="M21.5527 36.4253L65.5527 97.4253" stroke="black" stroke-width="0.5"/>
<path d="M32.0527 28.9253L72.5527 92.4253" stroke="black" stroke-width="0.5"/>
</svg>
