<svg version="1.1" id="Layer_1" xmlns="http://www.w3.org/2000/svg" xmlns:xlink="http://www.w3.org/1999/xlink" x="0px" y="0px"
	 width="100%" viewBox="0 0 843 367" enable-background="new 0 0 843 367" xml:space="preserve">
<path fill="#000000" opacity="1.000000" stroke="none" 
	d="
M643.000000,368.000000 
	C428.666656,368.000000 214.833328,368.000000 1.000000,368.000000 
	C1.000000,245.666672 1.000000,123.333336 1.000000,1.000000 
	C282.000000,1.000000 563.000000,1.000000 844.000000,1.000000 
	C844.000000,123.333336 844.000000,245.666672 844.000000,368.000000 
	C777.166687,368.000000 710.333313,368.000000 643.000000,368.000000 
M486.123627,191.652313 
	C486.669891,191.685745 487.216156,191.719177 487.762421,191.752594 
	C487.475464,191.306839 487.188538,190.861099 486.584259,189.883438 
	C485.680878,189.056717 484.777496,188.229996 483.497620,186.822296 
	C477.060913,179.657288 470.564423,172.544449 464.230988,165.289276 
	C462.714569,163.552200 461.531311,163.106186 459.726501,163.876999 
	C460.012970,156.747208 457.921722,151.020370 451.066162,147.514938 
	C448.695770,146.302917 446.903168,143.960907 445.003174,141.327942 
	C443.949127,139.437668 443.373871,138.418198 444.287079,135.398773 
	C446.576874,127.827507 453.636322,124.472351 456.891205,117.614632 
	C460.463684,110.087814 468.052856,104.271873 474.514191,98.394699 
	C477.720398,95.478333 482.147247,92.868271 486.327393,92.276001 
	C494.771729,91.079582 503.453186,90.793381 511.981293,91.226128 
	C517.472961,91.504791 522.885986,93.656898 528.291138,95.127739 
	C530.038818,95.603317 531.649536,96.582321 533.322876,97.331039 
	C533.565247,96.662209 533.807617,95.993378 534.049988,95.324539 
	C528.133911,93.566154 522.316772,91.208321 516.275024,90.211807 
	C509.756195,89.136620 502.998505,89.609970 496.396057,88.919838 
	C483.204895,87.541031 473.620972,94.369247 465.697357,103.272461 
	C456.648224,113.440430 448.781097,124.660385 440.069611,134.762833 
	C439.629486,134.172684 439.189362,133.582535 439.012848,132.324387 
	C440.299561,129.686768 443.338379,126.227203 442.556305,124.560104 
	C439.815338,118.717224 439.517334,113.146065 440.902313,107.055374 
	C441.711884,103.495247 441.783539,99.767326 442.187134,96.114891 
	C441.992065,94.208275 442.947845,92.387131 442.817413,90.647423 
	C442.630646,88.156151 441.263641,85.753632 441.075165,83.262184 
	C440.209686,71.821869 443.574677,59.842079 435.329651,49.441586 
	C431.868805,45.075935 430.639587,38.812199 426.880280,34.848911 
	C423.231750,31.002409 425.863617,30.894575 428.278046,30.055254 
	C434.290955,27.965004 440.365540,26.499365 446.896332,26.897152 
	C451.219971,27.160501 455.609406,26.343592 459.993988,26.858833 
	C460.079987,30.651237 456.755219,29.264515 455.795868,28.789185 
	C451.612427,26.716450 448.888336,28.911968 445.926910,31.667671 
	C448.926971,32.730183 452.522064,34.371147 454.848419,33.287758 
	C459.281189,31.223431 460.024109,32.597382 460.002533,36.512936 
	C459.977081,41.127632 459.996582,45.742577 459.996582,50.357414 
	C460.238312,50.347427 460.480042,50.337444 460.721771,50.327457 
	C460.721771,42.219151 460.721771,34.110844 460.530243,25.295235 
	C458.755280,22.872231 456.427124,22.596548 453.654724,23.241964 
	C450.491882,23.978273 447.226349,25.042814 444.065491,24.869455 
	C435.632019,24.406908 428.180573,27.277836 420.184357,30.646486 
	C424.279907,37.002247 428.625854,42.879295 432.003998,49.268097 
	C434.626129,54.227058 437.433105,59.750210 437.722687,65.153091 
	C438.505951,79.768242 438.062347,94.453819 437.890839,109.108940 
	C437.871704,110.744202 436.472351,112.363312 435.073792,113.988152 
	C434.649078,114.023552 434.224365,114.058945 433.182037,113.975243 
	C432.417084,113.043037 431.652130,112.110832 431.219391,110.661331 
	C431.797974,109.740105 432.376587,108.818878 433.004730,107.141914 
	C431.021973,104.740242 429.039215,102.338562 426.999329,99.996216 
	C426.999329,99.996216 427.067993,99.951172 427.020782,99.178680 
	C425.364960,97.430099 423.709106,95.681519 421.999146,93.997398 
	C421.999146,93.997398 422.062866,93.942940 421.848663,93.310249 
	C421.206909,93.256638 420.565155,93.203026 419.333832,92.805489 
	C409.105743,82.353317 395.561279,79.239571 382.078186,76.035881 
	C378.596222,75.208542 375.047516,74.179176 371.518921,74.137589 
	C365.267120,74.063911 358.910339,74.112228 352.779205,75.166412 
	C347.141907,76.135681 341.271545,77.659195 336.348633,80.436150 
	C328.533508,84.844574 324.949951,93.212646 320.680298,100.707268 
	C317.096863,106.997360 316.027985,114.008041 315.252167,121.531921 
	C315.146057,122.037270 315.039917,122.542610 315.016632,123.017570 
	C315.016632,123.017570 314.992706,122.932640 314.214325,123.137924 
	C313.119751,128.006668 311.894257,132.850754 310.971405,137.751816 
	C310.212891,141.779907 309.441284,145.867538 309.352448,149.943527 
	C309.248444,154.716019 309.877808,159.504471 310.239685,165.046906 
	C310.174622,167.600845 310.109589,170.154785 309.731476,172.752426 
	C309.731476,172.752426 309.659790,172.429382 309.659790,172.429382 
	C309.659790,172.429382 310.058929,172.516571 310.367645,173.754929 
	C310.465485,174.168930 310.563324,174.582932 310.593384,174.957321 
	C310.593384,174.957321 310.601074,174.998077 310.198120,175.862244 
	C310.616455,183.920517 313.937866,190.634842 319.617371,196.268433 
	C322.481781,199.109695 325.556244,201.530136 327.512817,205.446548 
	C329.537872,209.499985 331.033447,215.127472 337.887817,215.547928 
	C340.877319,219.377548 343.866821,223.207169 347.142151,227.705948 
	C349.116974,231.595734 351.951294,234.077759 356.036987,233.986649 
	C356.429901,235.417557 356.360748,237.357193 357.288208,238.199554 
	C365.316803,245.491577 373.524597,252.586243 381.296631,259.404205 
	C382.864563,258.109283 384.246094,256.968323 385.852448,255.641647 
	C383.788330,254.915085 381.784271,254.684479 380.395782,253.637482 
	C374.817444,249.431213 369.272675,245.151840 364.015839,240.555939 
	C358.800354,235.996201 359.018280,234.635727 365.413757,232.069977 
	C370.373077,230.080399 374.517639,227.126724 378.737396,223.934128 
	C382.997009,220.711365 388.110077,218.616669 393.170380,216.647415 
	C394.414581,217.728394 395.495728,219.152039 396.929596,219.834381 
	C405.820740,224.065308 409.464691,232.263458 412.772644,240.661224 
	C413.066284,241.406647 411.809662,243.687653 411.138123,243.747757 
	C402.828369,244.491394 397.762878,250.918121 391.409821,254.960098 
	C387.629852,257.365021 382.770050,260.645233 384.623627,265.881897 
	C385.978241,269.708832 389.278076,273.913940 392.836853,275.674957 
	C400.577637,279.505402 406.511078,285.464691 413.340210,290.335968 
	C415.902161,292.163452 418.512756,294.132965 422.595093,293.223083 
	C427.847717,292.052460 433.416168,292.298859 438.223358,292.469635 
	C436.160675,293.432159 434.097961,294.394684 430.878174,295.897156 
	C434.004669,296.282715 436.318848,297.330658 437.695435,296.603546 
	C443.151978,293.721375 448.250793,290.172455 453.603577,287.080811 
	C460.157928,283.295227 466.863464,279.772430 473.450439,276.042053 
	C483.478455,270.362885 493.165649,264.275208 501.518036,256.129761 
	C509.377472,248.465027 518.138611,241.708176 525.804504,233.868866 
	C529.522217,230.067078 531.537476,224.634537 534.512512,220.063354 
	C537.901794,214.855713 541.742310,209.930283 544.945557,204.616226 
	C548.451965,198.799194 551.815613,192.838562 554.565125,186.640488 
	C556.885132,181.410690 558.351440,175.785355 559.980713,170.271576 
	C561.206665,166.122604 562.080017,161.870026 563.132141,157.669022 
	C564.415100,152.546387 566.231628,147.492569 566.874023,142.292450 
	C567.522705,137.041351 567.109863,131.644806 566.946533,126.318588 
	C566.909485,125.112404 566.132629,123.836746 565.438538,122.759071 
	C562.688721,118.489777 559.891113,114.248550 556.995178,110.077522 
	C555.867859,108.453857 554.433472,107.043381 553.138977,105.535789 
	C552.784363,105.822701 552.429749,106.109619 552.075134,106.396530 
	C554.918396,110.610405 558.145020,114.624466 560.479553,119.103477 
	C562.239380,122.479919 563.752136,126.444145 563.783813,130.160294 
	C563.838318,136.545319 563.189392,143.054749 561.866333,149.306808 
	C559.581482,160.104034 557.729309,171.227524 553.569702,181.339584 
	C546.950623,197.430344 537.852844,212.358917 526.392578,225.978394 
	C526.392578,225.978394 525.930115,225.994904 525.680115,225.408630 
	C525.694275,224.777847 525.708435,224.147079 526.058105,222.843750 
	C526.589783,218.413467 524.314575,217.908524 520.240723,218.934906 
	C519.480530,218.299957 518.720337,217.664993 518.447754,216.662292 
	C517.977783,215.130081 517.507812,213.597885 517.006409,211.284958 
	C515.559448,209.854019 514.233398,208.266052 512.633118,207.034256 
	C510.867950,205.675568 508.589355,204.918579 507.003387,203.407333 
	C504.413269,200.939209 502.203217,198.072250 500.635559,196.287476 
	C498.188995,196.802628 496.729187,196.974228 495.359833,197.422256 
	C489.988159,199.179794 484.311279,200.392227 479.376068,202.997437 
	C473.248138,206.232239 468.618835,212.235916 461.005280,212.107407 
	C459.606903,208.596588 458.208527,205.085785 456.560883,200.949219 
	C456.118591,200.820496 454.578674,200.372345 453.004578,199.994568 
	C453.004578,199.994568 453.067810,199.948471 452.817566,199.284637 
	C451.886749,199.178314 450.955933,199.071991 449.758331,198.243713 
	C449.178040,197.788315 448.489960,197.420761 448.035400,196.862915 
	C445.561615,193.827072 446.176025,188.502396 441.033691,187.286987 
	C440.929565,187.262360 440.972595,184.060410 441.819702,183.199661 
	C442.929169,182.072327 444.881805,181.719696 446.521454,181.186630 
	C447.840240,180.757889 449.466370,179.949310 450.549530,180.366058 
	C453.989929,181.689774 457.179565,183.648788 460.575348,185.108093 
	C470.287231,189.281708 472.528961,189.088455 476.941528,183.985504 
	C478.927063,185.344559 480.923981,186.711411 482.992432,188.776871 
	C483.970215,189.545898 484.947998,190.314926 486.123627,191.652313 
M575.261597,276.217499 
	C564.745239,278.528198 554.228882,280.838928 544.006775,283.084991 
	C545.533020,284.955322 545.522278,284.935150 547.974243,283.626007 
	C548.523254,283.332886 549.166321,283.122345 549.783630,283.066010 
	C553.840149,282.695648 558.013733,282.851562 561.932495,281.922363 
	C566.742554,280.781830 571.340942,278.748810 576.836365,277.011719 
	C578.206482,277.341858 579.576599,277.671997 580.739990,277.952332 
	C580.739990,273.173340 580.739990,267.876984 580.739990,262.580597 
	C580.582153,262.569305 580.424377,262.558014 580.266541,262.546722 
	C580.049255,263.691437 579.831909,264.836182 579.586609,266.128235 
	C578.194580,265.215332 577.074951,264.481110 576.923462,264.381744 
	C576.618164,268.355438 576.318237,272.260437 575.261597,276.217499 
M203.846893,315.238464 
	C204.146149,317.013977 203.935974,319.119995 204.835251,320.506256 
	C208.231476,325.741699 208.425827,331.496124 207.855057,337.295929 
	C207.688370,338.989807 206.242752,341.488220 204.828079,341.962799 
	C199.583755,343.722229 194.107666,344.790741 189.155289,346.011200 
	C192.050186,346.011200 195.520538,346.033813 198.990509,346.006958 
	C209.398529,345.926453 215.718063,335.676910 210.682510,326.505920 
	C208.468872,322.474335 205.623550,318.879852 205.883835,313.940643 
	C205.899643,313.640686 204.670822,313.275116 204.008331,312.093964 
	C203.952957,309.625977 203.897568,307.157990 203.842194,304.690002 
	C206.504318,304.798340 209.166443,304.907013 211.828613,305.014130 
	C211.994720,305.020844 212.161316,305.015015 212.327682,305.015015 
	C222.107910,305.015015 231.888138,305.015015 241.668365,305.015015 
	C241.676605,304.732452 241.684845,304.449890 241.693085,304.167297 
	C227.842255,303.658783 213.991409,303.150238 199.498688,302.618134 
	C201.144882,307.085083 202.499924,310.761963 203.846893,315.238464 
M114.025940,237.201370 
	C113.211510,236.744629 112.397087,236.287888 111.582657,235.831131 
	C111.477631,236.087036 111.372597,236.342941 111.267570,236.598846 
	C111.945381,237.263565 112.623199,237.928284 113.671829,239.194427 
	C115.760948,243.505341 117.991196,247.754425 119.912018,252.139069 
	C125.122505,264.033051 130.137482,276.012939 135.381699,287.891785 
	C136.579788,290.605591 138.389343,293.049438 139.917480,295.617554 
	C139.918839,292.918030 138.943192,290.619293 138.022858,288.298645 
	C135.926407,283.012390 134.009308,277.649170 131.743332,272.437256 
	C127.710030,263.160370 123.598137,253.912186 119.238533,244.786041 
	C118.028748,242.253540 115.830231,240.193390 114.025940,237.201370 
M637.011902,288.527740 
	C640.191895,288.261261 643.371826,287.994751 646.551819,287.728271 
	C639.844238,287.014984 633.171021,287.226379 626.567932,288.020844 
	C606.067017,290.487488 585.293762,290.521545 565.368835,297.649475 
	C549.981323,303.154114 534.000488,307.143982 518.074951,310.930603 
	C511.590393,312.472412 504.542450,312.091400 497.772522,311.882599 
	C487.386505,311.562256 476.996918,310.865692 466.653442,309.866913 
	C461.517365,309.370941 456.480621,307.846619 451.398926,306.787567 
	C451.292084,307.356049 451.185242,307.924561 451.078400,308.493042 
	C459.880249,310.003876 468.631836,312.181335 477.497162,312.849518 
	C487.596741,313.610748 497.819763,313.438049 507.948029,312.898926 
	C516.513367,312.442993 525.151672,311.485138 533.516602,309.650330 
	C542.346619,307.713501 550.804565,304.134399 559.585022,301.902252 
	C568.191101,299.714417 575.891418,295.189667 585.260071,294.645386 
	C602.296509,293.655609 619.234314,290.966736 637.011902,288.527740 
M273.606598,313.014191 
	C287.749786,313.681183 301.891113,314.391785 316.037262,314.988129 
	C320.194672,315.163391 324.390900,314.715698 328.526398,315.063568 
	C352.981720,317.120819 376.476379,311.769196 399.931183,306.041443 
	C405.980774,304.564056 411.974915,302.840515 418.059418,301.531677 
	C422.546906,300.566406 427.139893,300.091522 431.685852,299.398132 
	C428.578522,298.410492 425.384430,297.921234 422.406158,298.514862 
	C416.652435,299.661682 411.048035,301.535156 405.331329,302.895599 
	C397.632568,304.727692 389.906219,306.457001 382.154846,308.051239 
	C373.641632,309.802124 365.118896,312.524139 356.543518,312.760254 
	C332.905396,313.411133 309.237152,313.056061 285.581787,312.926636 
	C280.549316,312.899139 275.520813,312.141388 270.490479,311.720062 
	C270.461884,312.063354 270.433289,312.406647 270.404694,312.749939 
	C271.179596,312.838013 271.954529,312.926056 273.606598,313.014191 
M463.990997,71.141602 
	C463.430664,73.531960 462.896118,75.928719 462.303467,78.311043 
	C461.557312,81.310600 460.851898,84.324615 459.970612,87.285286 
	C458.510956,92.188965 456.948547,97.062607 455.383606,101.934174 
	C454.374023,105.077011 453.282623,108.193550 452.227905,111.321877 
	C452.731018,111.497192 453.234131,111.672508 453.737244,111.847832 
	C456.809052,108.442154 459.880859,105.036484 463.469482,101.057785 
	C461.847931,101.268021 461.003510,101.377502 459.027008,101.633759 
	C460.433411,97.112175 462.079163,93.098045 462.890808,88.921799 
	C464.216217,82.102211 465.589355,75.201515 465.876434,68.290764 
	C466.360046,56.647202 466.003235,44.968967 466.017029,33.305336 
	C466.018616,31.985802 465.593048,30.116234 466.283691,29.441570 
	C469.377625,26.419165 465.577667,25.770611 463.991028,24.124454 
	C463.991028,39.487423 463.991028,54.850395 463.990997,71.141602 
M556.475952,228.023422 
	C557.345947,226.935303 558.216003,225.847168 559.085999,224.759048 
	C559.449646,224.947723 559.813354,225.136414 560.177002,225.325104 
	C560.177002,228.867691 560.177002,232.410294 560.177002,235.952881 
	C561.016541,233.146698 560.848938,230.329422 561.075623,227.544220 
	C561.226196,225.694534 561.789185,223.834732 562.438293,222.079529 
	C563.408081,219.457214 564.616089,216.923019 565.722839,214.351334 
	C564.967834,214.050888 564.212891,213.750443 563.457947,213.449997 
	C548.468323,226.371719 546.717285,244.935394 543.350342,262.975464 
	C547.069641,260.586548 548.937622,254.950592 548.192871,250.972473 
	C547.888184,249.345291 549.152527,247.373154 549.863037,245.622879 
	C550.458557,244.155991 551.476807,242.847183 551.975647,241.357162 
	C553.385193,237.147491 554.623901,232.880646 556.475952,228.023422 
M547.858887,265.902374 
	C544.961426,270.066681 542.063965,274.231018 539.166504,278.395325 
	C539.844177,278.887665 540.521851,279.380005 541.199524,279.872314 
	C543.465515,276.837372 545.582153,273.672882 548.057129,270.819305 
	C549.396667,269.274902 551.194092,267.618439 553.062073,267.171692 
	C555.349182,266.624756 557.369873,267.243805 558.329102,270.571899 
	C558.800964,272.209137 562.557983,273.486176 564.980774,273.819946 
	C567.758972,274.202667 570.706177,273.358948 573.701050,273.034943 
	C574.358093,266.782654 574.150208,265.894897 567.903076,265.357239 
	C561.524231,264.808258 555.044739,265.428375 547.858887,265.902374 
M564.980713,243.204697 
	C565.655518,241.277893 566.858643,239.364059 566.906311,237.421860 
	C567.050964,231.531082 566.822510,225.891281 570.500549,220.485046 
	C572.132080,218.086807 571.448486,213.787140 568.644287,211.077530 
	C569.334656,220.165985 562.441833,227.487549 563.303040,236.672943 
	C563.598145,239.820435 560.453674,243.475830 558.434753,246.612167 
	C555.251831,251.556870 551.692017,256.258972 548.291748,261.063782 
	C548.775940,261.497345 549.260071,261.930939 549.744263,262.364532 
	C550.715271,261.511688 551.856750,260.789764 552.628662,259.784119 
	C556.658447,254.534271 560.594299,249.212341 564.980713,243.204697 
M275.602905,272.012939 
	C279.364716,271.787842 284.230011,273.661407 284.890900,265.511658 
	C282.441010,267.489105 281.033142,269.558624 279.419800,269.733612 
	C276.050293,270.099121 272.529694,269.731903 269.146515,269.192902 
	C256.659515,267.203461 248.304382,271.663330 248.001511,283.350525 
	C247.911072,286.840393 248.205139,290.353912 247.897873,293.818909 
	C247.738541,295.615692 246.650253,297.330139 245.981628,299.081787 
	C247.601212,299.060333 249.658844,298.022247 249.846390,296.715698 
	C250.337570,293.293976 250.012344,289.755005 250.012466,286.262787 
	C250.012756,277.201935 256.274475,270.930176 265.437286,271.058350 
	C268.519440,271.101440 271.594116,271.679321 275.602905,272.012939 
M310.013947,240.586273 
	C308.884186,237.687286 308.022339,238.216644 306.860291,240.664932 
	C305.257599,244.041733 303.676636,247.494308 301.556976,250.546768 
	C297.033295,257.061127 291.939270,263.185730 287.542267,269.779053 
	C285.374237,273.029968 284.236389,276.967926 282.632385,280.595032 
	C284.001160,280.839386 284.705139,280.663177 284.941437,280.231140 
	C286.426514,277.515991 287.506195,274.526123 289.298950,272.045563 
	C291.561066,268.915558 294.781067,266.448181 296.871063,263.229553 
	C301.489868,256.116394 305.660217,248.712067 310.013947,240.586273 
M720.328491,272.988800 
	C717.002502,272.988800 713.676514,272.988953 710.350525,272.988678 
	C703.813416,272.988159 700.359375,276.281494 700.002319,282.926117 
	C699.913269,284.584351 700.192261,286.286346 699.915955,287.902191 
	C699.731506,288.980743 698.863708,289.942444 698.301758,290.956451 
	C697.538635,289.948242 696.205872,288.987335 696.117493,287.923096 
	C695.834412,284.515381 696.012329,281.069397 696.012329,277.638214 
	C695.725891,277.651794 695.439392,277.665344 695.152954,277.678925 
	C695.152954,282.304626 695.152954,286.930298 695.152954,291.832581 
	C697.121582,292.851196 699.239441,293.946991 701.854431,295.300018 
	C702.281799,289.896332 701.911499,284.976746 703.267822,280.591156 
	C704.278748,277.322693 705.836365,273.175079 711.454346,273.862091 
	C717.025146,274.543365 722.819153,274.541351 728.363586,273.761292 
	C730.728577,273.428619 732.776062,270.426636 734.762817,268.433319 
	C734.969177,268.226318 733.776428,266.624817 732.977478,265.222076 
	C730.374207,270.901642 727.067627,273.978516 720.328491,272.988800 
M282.012115,289.402100 
	C283.039062,288.605255 284.046570,287.149078 285.096069,287.118195 
	C292.083527,286.912476 299.089844,287.210876 306.066467,286.867462 
	C307.753052,286.784424 309.378296,284.944519 310.945038,283.794403 
	C311.087830,283.689575 310.742096,282.417816 310.358582,282.230835 
	C309.928192,282.020996 308.664795,282.499329 308.672485,282.557037 
	C309.197906,286.495178 306.098145,284.872559 304.660889,284.904297 
	C296.695740,285.080170 288.724701,284.988586 280.593872,284.988586 
	C278.951355,291.322235 274.058899,296.592957 276.583801,303.687469 
	C278.271606,303.687469 279.868378,303.687469 281.465149,303.687469 
	C281.469269,303.519043 281.473389,303.350647 281.477539,303.182220 
	C280.398773,303.046173 279.320038,302.910126 277.689301,302.704437 
	C278.107544,300.654602 278.267609,298.770905 278.895966,297.059113 
	C279.746307,294.742737 280.955994,292.558289 282.012115,289.402100 
M211.012970,286.720062 
	C212.922150,283.464020 215.620453,285.426544 218.128937,285.525665 
	C223.661835,285.744293 229.926697,290.221161 234.327911,283.230316 
	C235.299194,281.687561 235.979782,279.514496 235.698303,277.812927 
	C235.550369,276.918549 233.031769,276.416351 231.027252,275.476044 
	C233.080566,282.981354 231.588791,285.271820 225.076782,284.915833 
	C219.444275,284.607910 213.846970,283.655975 207.557816,282.908295 
	C208.087601,287.512482 208.576614,291.762268 209.065613,296.012054 
	C209.713593,295.959991 210.361557,295.907928 211.009537,295.855865 
	C211.009537,293.120850 211.009537,290.385803 211.012970,286.720062 
M668.975830,254.779449 
	C667.839722,254.126831 666.703613,253.474213 665.386475,252.717560 
	C664.012634,263.609589 655.412537,271.662323 655.986206,282.946716 
	C657.338074,282.874451 658.387146,282.818390 658.444824,282.815308 
	C658.056030,281.528564 657.087830,279.747772 657.471191,279.381500 
	C664.289917,272.866058 663.986145,262.941620 668.975830,254.779449 
M542.009338,294.411804 
	C542.077759,292.996613 542.146179,291.581390 542.211487,290.231903 
	C546.400940,292.094330 550.351746,293.850677 554.302551,295.607025 
	C554.443726,295.286041 554.584900,294.965027 554.726013,294.644043 
	C549.361511,291.080444 543.997009,287.516815 537.742310,283.361877 
	C537.742310,290.424072 537.742310,296.116882 537.742310,302.227814 
	C539.453430,301.705719 541.234253,301.162354 544.031860,300.308716 
	C536.177185,299.825684 542.384033,296.941956 542.009338,294.411804 
M593.128357,287.103180 
	C593.047302,287.248047 592.947205,287.385925 592.890625,287.539795 
	C592.835205,287.690582 592.824097,287.857635 592.793518,288.017548 
	C594.442749,288.017548 596.091980,288.017548 597.452698,288.017548 
	C597.990173,286.590759 598.113342,285.504303 598.703247,284.820618 
	C602.633850,280.265625 604.637390,275.129150 604.087219,269.036530 
	C604.028625,268.387695 604.966980,267.662048 605.411438,266.952362 
	C607.096558,264.261810 605.990967,260.685608 603.288269,259.431641 
	C602.004761,269.167511 601.078674,279.053253 593.128357,287.103180 
M323.093353,279.042328 
	C316.188446,281.502716 318.272522,287.458405 318.085236,292.397858 
	C318.028992,293.881836 319.163574,295.410950 319.752625,296.919403 
	C320.173340,296.752625 320.594086,296.585846 321.014801,296.419098 
	C321.014801,293.605133 321.299866,290.754608 320.944458,287.986298 
	C320.472992,284.313995 321.967499,281.486389 325.252441,281.165924 
	C330.401489,280.663544 335.663086,281.255646 340.873505,281.469116 
	C343.053101,281.558472 345.223755,281.865295 347.398499,282.073242 
	C347.442230,281.469147 347.485992,280.865082 347.529724,280.260986 
	C339.681488,279.837067 331.833252,279.413116 323.093353,279.042328 
M619.011169,277.433197 
	C618.684937,273.865723 618.127991,270.299774 618.104797,266.730347 
	C618.085999,263.834747 618.174194,260.706146 619.275818,258.135498 
	C619.810608,256.887695 622.778381,256.689697 624.637878,255.997925 
	C625.156006,255.805161 625.649597,255.546371 626.154419,255.317841 
	C626.207581,254.879852 626.260742,254.441849 626.313965,254.003845 
	C625.090637,253.579529 623.820923,252.734573 622.658508,252.862686 
	C621.712036,252.966980 621.005615,254.625168 619.997620,254.914612 
	C617.217773,255.712769 612.971741,262.335449 614.441101,264.802429 
	C617.466431,269.881927 616.919983,275.309937 617.011719,280.743134 
	C617.030396,281.849060 617.341553,282.950043 617.517944,284.053284 
	C618.015686,284.023529 618.513428,283.993744 619.011169,283.963989 
	C619.011169,282.104309 619.011169,280.244659 619.011169,277.433197 
M522.529419,300.883392 
	C521.031982,303.104584 519.534546,305.325775 518.037109,307.546997 
	C520.881592,306.417114 525.256104,307.778381 525.192078,302.679871 
	C525.173950,301.237793 526.176025,299.625946 527.088196,298.365570 
	C528.487244,296.432434 529.959167,293.899109 532.810913,296.493683 
	C532.810913,293.143585 532.810913,289.741058 532.810913,285.220703 
	C529.105957,290.806946 525.980957,295.518738 522.529419,300.883392 
M154.647232,314.210175 
	C149.745346,316.477539 144.843475,318.744904 139.941605,321.012299 
	C140.156540,321.527191 140.371490,322.042114 140.586441,322.557037 
	C152.163605,317.842285 163.740768,313.127533 175.317932,308.412750 
	C175.143646,307.922974 174.969360,307.433197 174.795074,306.943420 
	C168.328842,309.287811 161.862595,311.632202 154.647232,314.210175 
M147.007629,290.298889 
	C145.665283,292.051086 142.949890,294.065094 143.225204,295.508759 
	C144.256378,300.915894 146.265411,306.136505 147.907837,311.427063 
	C148.516464,311.228882 149.125092,311.030670 149.733719,310.832489 
	C148.715057,307.326416 148.075455,303.648926 146.586014,300.355804 
	C144.520401,295.788757 145.206879,293.458557 150.074539,292.041077 
	C153.703827,290.984222 157.387543,290.114288 160.601639,289.277130 
	C157.157242,287.231232 155.972687,287.265778 147.007629,290.298889 
M677.057861,280.572449 
	C679.584045,274.892853 684.502808,275.741180 689.292358,275.936920 
	C690.418396,275.982910 692.087158,275.427795 692.640991,274.582428 
	C694.918762,271.105774 692.401733,265.877655 688.402954,264.442749 
	C689.373657,267.099304 690.472168,270.105804 692.005127,274.301208 
	C685.279663,273.879700 680.287537,273.566833 674.109985,273.179657 
	C675.160400,276.200928 676.058167,278.783112 677.057861,280.572449 
M192.428055,305.016693 
	C193.827179,304.949219 195.226303,304.881714 196.625443,304.814209 
	C189.895554,300.961761 184.148117,305.235107 177.118729,306.270477 
	C179.070053,308.972229 180.458725,310.894897 182.057968,313.109192 
	C180.754150,313.608704 179.545624,314.071716 177.850510,314.721161 
	C180.602341,314.721161 182.775284,314.721161 185.838760,314.721161 
	C183.814041,312.008148 182.252319,309.915497 180.418182,307.457855 
	C184.704819,306.517792 188.127258,305.767242 192.428055,305.016693 
M194.104706,291.575348 
	C195.379974,294.410950 196.655243,297.246552 197.930511,300.082153 
	C199.173630,293.814331 190.980499,277.687408 187.400146,277.308044 
	C189.496124,281.851746 191.592102,286.395477 194.104706,291.575348 
M583.996521,274.477051 
	C583.996521,278.324768 583.996521,282.172455 583.996521,286.020172 
	C584.433716,285.975250 584.870911,285.930328 585.308105,285.885376 
	C585.308105,276.939758 585.308105,267.994141 585.308105,259.048523 
	C584.870911,259.053894 584.433655,259.059265 583.996460,259.064667 
	C583.996460,263.872284 583.996460,268.679932 583.996521,274.477051 
M692.962769,282.698761 
	C688.898804,285.822266 684.135498,284.873566 679.561096,284.977448 
	C677.062988,285.034180 674.562561,284.987549 672.063110,284.987549 
	C672.075989,285.662689 672.088806,286.337830 672.101685,287.012970 
	C677.504517,287.012970 682.912842,286.868408 688.307922,287.073181 
	C691.059326,287.177582 692.690552,286.416138 692.962769,282.698761 
M483.092834,177.420105 
	C480.763214,175.112213 478.433624,172.804337 476.104034,170.496460 
	C475.804535,170.840851 475.505066,171.185257 475.205566,171.529648 
	C479.460999,176.790298 483.716431,182.050949 487.971832,187.311584 
	C488.370056,186.995071 488.768280,186.678558 489.166504,186.362030 
	C487.308807,183.578766 485.451141,180.795517 483.092834,177.420105 
M346.929871,289.853607 
	C342.694275,289.853607 338.458679,289.853607 334.223083,289.853607 
	C334.238770,290.372589 334.254456,290.891571 334.270142,291.410553 
	C341.254852,290.948425 348.267700,290.731659 355.214050,289.935028 
	C359.597931,289.432312 360.219971,287.203888 357.254486,282.227570 
	C357.976044,288.427185 354.149536,288.845764 350.256256,289.224213 
	C349.433807,289.304169 348.628021,289.555420 346.929871,289.853607 
M352.871735,309.629700 
	C354.442139,308.138214 356.513977,306.904755 357.449615,305.086609 
	C358.499908,303.045715 358.641296,300.488251 358.876953,298.125458 
	C358.915863,297.735382 357.411224,297.191345 355.684418,296.159424 
	C358.006531,300.704285 356.891632,303.152344 353.672821,304.946899 
	C352.531006,305.583496 351.217163,306.228790 350.499634,307.238220 
	C349.275208,308.960754 349.505798,310.330170 352.871735,309.629700 
M767.473389,309.068878 
	C768.054016,307.865479 768.634644,306.662048 769.215271,305.458618 
	C762.278442,312.057220 754.775146,305.041809 748.256470,308.239288 
	C754.458191,308.718262 760.659851,309.197266 767.473389,309.068878 
M220.231857,273.957550 
	C220.742828,274.030273 221.253799,274.102966 221.764771,274.175659 
	C218.635910,272.677155 215.367950,272.097961 212.097549,272.083832 
	C210.739166,272.077972 208.406235,273.082153 208.225266,273.973877 
	C207.894470,275.603638 208.835297,277.491486 209.245773,279.271698 
	C209.760223,279.353210 210.274673,279.434692 210.789139,279.516174 
	C210.327255,273.191132 213.284470,272.207336 218.076401,274.002808 
	C218.508987,274.164886 219.057343,274.017914 220.231857,273.957550 
M228.834167,299.426178 
	C229.577286,299.941284 230.320419,300.456421 231.063538,300.971527 
	C232.163223,297.836639 238.000092,297.176605 235.001648,290.915131 
	C232.874451,293.893890 231.108139,296.367310 228.834167,299.426178 
M644.583557,272.037994 
	C645.080383,272.882782 645.577271,273.727570 646.074158,274.572327 
	C645.550537,268.107117 641.387939,262.485199 638.564148,262.407532 
	C640.351318,265.347229 642.218079,268.417755 644.583557,272.037994 
M677.182068,269.338104 
	C680.876770,268.125305 684.328613,268.634308 687.558716,270.782013 
	C687.589478,270.802429 687.769348,270.598419 687.879578,270.499146 
	C684.293457,265.182404 680.364685,264.496521 677.182068,269.338104 
M686.741638,296.019897 
	C690.029114,296.423523 693.316650,296.827148 696.604126,297.230774 
	C696.673950,296.841278 696.743774,296.451782 696.813660,296.062286 
	C691.231323,294.940613 685.648926,293.818970 680.066589,292.697296 
	C679.956787,292.895996 679.846985,293.094696 679.737183,293.293365 
	C681.789185,294.194397 683.841125,295.095428 686.741638,296.019897 
M433.517731,111.415710 
	C433.517731,111.415710 433.581146,111.522697 433.517731,111.415710 
z"/>
<path fill="#EC1D25" opacity="1.000000" stroke="none" 
	d="
M356.647858,233.509689 
	C351.951294,234.077759 349.116974,231.595734 347.094543,226.995728 
	C345.680420,222.989380 344.322784,219.689545 342.944641,216.398285 
	C341.763855,213.578278 339.949493,213.035004 337.488678,214.928085 
	C331.033447,215.127472 329.537872,209.499985 327.512817,205.446548 
	C325.556244,201.530136 322.481781,199.109695 319.617371,196.268433 
	C313.937866,190.634842 310.616455,183.920517 310.415741,175.491272 
	C310.633362,175.120316 310.661133,174.996948 310.661133,174.996948 
	C310.563324,174.582932 310.465485,174.168930 310.218933,173.183990 
	C310.070221,172.613037 310.044556,172.708725 310.044556,172.708725 
	C310.109589,170.154785 310.174622,167.600845 310.417297,164.292648 
	C310.714722,159.719940 310.551392,155.867157 311.009583,152.089752 
	C312.190643,142.352936 313.646606,132.649445 314.992737,122.932640 
	C314.992706,122.932640 315.016632,123.017570 315.172089,122.882278 
	C315.408722,122.207336 315.489899,121.667686 315.571075,121.128036 
	C316.027985,114.008041 317.096863,106.997360 320.680298,100.707268 
	C324.949951,93.212646 328.533508,84.844574 336.348633,80.436150 
	C341.271545,77.659195 347.141907,76.135681 352.779205,75.166412 
	C358.910339,74.112228 365.267120,74.063911 371.518921,74.137589 
	C375.047516,74.179176 378.596222,75.208542 382.078186,76.035881 
	C395.561279,79.239571 409.105743,82.353317 419.787903,93.332245 
	C420.848907,93.886986 421.455902,93.914963 422.062866,93.942940 
	C422.062866,93.942940 421.999146,93.997398 421.697266,94.228333 
	C423.286285,96.289894 425.177124,98.120537 427.067993,99.951172 
	C427.067993,99.951172 426.999329,99.996216 426.705505,100.193237 
	C426.939972,101.536362 427.468262,102.682480 427.670074,104.028748 
	C427.914001,104.791519 428.484406,105.354149 429.041016,105.944031 
	C429.027161,105.971275 429.083771,105.948166 428.747375,106.217804 
	C428.971893,106.985764 429.532806,107.484077 430.052856,107.987198 
	C430.012024,107.991989 430.074127,107.938049 429.786743,108.220016 
	C429.961975,109.394196 430.424591,110.286407 430.887177,111.178619 
	C431.652130,112.110832 432.417084,113.043037 433.704895,114.392815 
	C436.094055,120.025124 433.308746,126.283081 437.912109,131.188263 
	C438.241669,131.981155 438.495453,132.486771 438.749207,132.992401 
	C439.189362,133.582535 439.629486,134.172684 440.282532,135.434341 
	C440.153839,139.408844 441.830872,141.255035 444.846649,142.135056 
	C446.903168,143.960907 448.695770,146.302917 451.066162,147.514938 
	C457.921722,151.020370 460.012970,156.747208 459.720154,164.638062 
	C459.222748,166.420547 459.008301,167.859390 458.196777,168.397095 
	C451.964386,172.526550 445.616028,176.480988 438.908234,180.410233 
	C433.528992,181.113968 429.055695,179.896820 424.789520,176.689789 
	C423.322479,175.351334 422.104584,174.214966 420.955688,172.696304 
	C419.835602,167.697052 417.917542,163.985214 411.756073,165.018143 
	C410.658569,163.967102 409.899536,163.020126 408.628235,161.434113 
	C404.329498,166.810303 400.575836,172.140762 396.158905,176.848969 
	C391.795502,181.500076 387.183258,186.163010 381.901886,189.637741 
	C376.757965,193.022018 376.201141,192.858932 380.220337,197.471054 
	C381.088135,198.466843 382.046478,199.383682 382.949066,200.699615 
	C384.505310,204.523911 386.075592,207.985474 387.581726,211.841919 
	C387.289703,214.831390 386.913116,217.185791 383.469025,217.388336 
	C378.538849,217.678268 375.180023,220.545746 372.375671,224.382385 
	C371.367279,225.761932 369.998169,227.071838 368.502563,227.863434 
	C364.637543,229.909088 360.610321,231.648178 356.647858,233.509689 
M324.997192,123.572128 
	C324.997192,120.616638 324.997192,117.661148 324.997192,114.705658 
	C324.751373,114.707695 324.505554,114.709724 324.259735,114.711761 
	C324.259735,125.581223 324.259735,136.450684 324.259735,147.320160 
	C324.505554,147.323944 324.751373,147.327744 324.997192,147.331543 
	C324.997192,139.738052 324.997192,132.144562 324.997192,123.572128 
M318.002808,162.631897 
	C318.002808,167.808594 318.002808,172.985291 318.002808,178.161987 
	C318.353302,178.156509 318.703827,178.151047 319.054321,178.145584 
	C319.054321,170.496750 319.054321,162.847916 319.054321,155.199081 
	C318.703827,155.180145 318.353302,155.161209 318.002808,155.142273 
	C318.002808,157.321381 318.002808,159.500473 318.002808,162.631897 
z"/>
<path fill="#EB1D25" opacity="1.000000" stroke="none" 
	d="
M461.052734,212.889893 
	C468.618835,212.235916 473.248138,206.232239 479.376068,202.997437 
	C484.311279,200.392227 489.988159,199.179794 495.359833,197.422256 
	C496.729187,196.974228 498.188995,196.802628 500.635559,196.287476 
	C502.203217,198.072250 504.413269,200.939209 507.003387,203.407333 
	C508.589355,204.918579 510.867950,205.675568 512.633118,207.034256 
	C514.233398,208.266052 515.559448,209.854019 516.822876,211.912659 
	C517.079590,214.036926 517.519836,215.533493 517.960144,217.030045 
	C518.720337,217.664993 519.480530,218.299957 520.698608,219.307602 
	C522.678528,220.958969 524.200562,222.237640 525.722534,223.516296 
	C525.708435,224.147079 525.694275,224.777847 525.756531,225.986038 
	C525.851013,226.754822 525.869019,226.946198 525.830750,227.486298 
	C525.698792,232.910339 521.246948,234.244934 517.737793,236.746429 
	C516.579834,237.525665 515.842529,238.303406 515.067261,239.042084 
	C515.029358,239.003036 515.084106,239.096802 514.736084,238.910919 
	C514.268799,239.174454 514.149536,239.623901 514.017700,240.039642 
	C514.005188,240.005920 514.066040,240.044205 513.713501,239.886459 
	C509.563049,243.473129 505.765106,247.217560 501.577332,251.047501 
	C496.803406,252.599182 493.336426,252.182388 489.615997,248.525833 
	C486.203613,245.172043 481.287903,243.347809 476.988373,240.515808 
	C476.600433,240.131134 476.258698,240.080276 475.951660,240.014267 
	C475.986328,239.999115 475.947388,240.064011 476.283203,239.781082 
	C476.211945,238.411758 475.804932,237.325348 475.517822,235.879669 
	C474.647186,231.126770 471.386169,229.183411 467.208252,227.769531 
	C464.324402,224.762863 461.699890,221.936401 459.629211,219.706390 
	C447.110291,228.592392 435.513397,236.823944 423.680450,245.223038 
	C426.797058,248.926834 429.920746,252.639008 433.143433,256.660339 
	C434.591675,258.820374 435.940857,260.671234 437.469299,262.792297 
	C438.791046,263.982483 439.933533,264.902466 441.146545,266.130493 
	C444.577606,270.319427 447.938110,274.200287 451.277527,278.408386 
	C451.453857,279.780884 451.651276,280.826141 451.762238,282.265045 
	C451.611328,283.461426 451.546906,284.264191 451.344025,285.359009 
	C447.086578,287.745697 442.967590,289.840302 438.848572,291.934875 
	C433.416168,292.298859 427.847717,292.052460 422.595093,293.223083 
	C418.512756,294.132965 415.902161,292.163452 413.340210,290.335968 
	C406.511078,285.464691 400.577637,279.505402 392.836853,275.674957 
	C389.278076,273.913940 385.978241,269.708832 384.623627,265.881897 
	C382.770050,260.645233 387.629852,257.365021 391.409821,254.960098 
	C397.762878,250.918121 402.828369,244.491394 411.138123,243.747757 
	C411.809662,243.687653 413.066284,241.406647 412.772644,240.661224 
	C409.464691,232.263458 405.820740,224.065308 396.929596,219.834381 
	C395.495728,219.152039 394.414581,217.728394 393.084991,216.012299 
	C392.374542,214.530716 391.749451,213.684250 391.117493,212.415726 
	C391.050659,210.306732 390.990723,208.619781 391.092834,206.625595 
	C392.810028,205.425034 394.326019,204.453339 395.928009,203.653915 
	C399.837952,201.702774 403.787689,199.831406 408.073303,197.957397 
	C408.615936,197.632675 408.806702,197.278458 408.996155,196.958221 
	C408.994843,196.992218 408.930115,196.971268 409.290955,197.132843 
	C414.148682,195.011459 418.715881,192.851349 423.087463,190.349426 
	C424.045074,189.801361 424.305695,188.035477 424.922974,186.464294 
	C426.113281,185.328720 427.267914,184.559296 428.782135,183.817261 
	C430.371674,184.511124 432.347198,184.913071 432.694794,185.892700 
	C433.832916,189.099869 436.102814,188.925644 438.999573,188.731262 
	C440.567932,190.455811 441.649323,192.171112 442.978485,193.666077 
	C444.691925,195.593307 446.603821,197.344086 448.742584,199.480988 
	C450.392548,199.843567 451.730194,199.896011 453.067810,199.948471 
	C453.067810,199.948471 453.004578,199.994568 452.716125,200.330170 
	C452.656769,202.240845 453.006622,203.809845 453.086029,205.392410 
	C453.197998,207.624344 458.369415,212.595062 461.052734,212.889893 
z"/>
<path fill="#F6F5F5" opacity="1.000000" stroke="none" 
	d="
M438.535950,292.202271 
	C442.967590,289.840302 447.086578,287.745697 451.726532,285.297546 
	C458.353851,281.453796 464.248474,277.504120 470.611633,274.570984 
	C483.075684,268.825623 492.644043,259.219910 503.650146,251.021301 
	C507.331726,247.305450 510.698853,243.674805 514.066040,240.044189 
	C514.066040,240.044205 514.005188,240.005920 514.310669,240.017838 
	C514.772095,239.718781 514.928101,239.407791 515.084106,239.096802 
	C515.084106,239.096802 515.029358,239.003036 515.406555,239.067062 
	C516.575317,238.335709 517.366882,237.540329 518.158386,236.744934 
	C521.246948,234.244934 525.698792,232.910339 526.079468,227.366119 
	C526.541382,226.595840 526.698242,226.294434 526.855164,225.993027 
	C537.852844,212.358917 546.950623,197.430344 553.569702,181.339584 
	C557.729309,171.227524 559.581482,160.104034 561.866333,149.306808 
	C563.189392,143.054749 563.838318,136.545319 563.783813,130.160294 
	C563.752136,126.444145 562.239380,122.479919 560.479553,119.103477 
	C558.145020,114.624466 554.918396,110.610405 552.075134,106.396530 
	C552.429749,106.109619 552.784363,105.822701 553.138977,105.535789 
	C554.433472,107.043381 555.867859,108.453857 556.995178,110.077522 
	C559.891113,114.248550 562.688721,118.489777 565.438538,122.759071 
	C566.132629,123.836746 566.909485,125.112404 566.946533,126.318588 
	C567.109863,131.644806 567.522705,137.041351 566.874023,142.292450 
	C566.231628,147.492569 564.415100,152.546387 563.132141,157.669022 
	C562.080017,161.870026 561.206665,166.122604 559.980713,170.271576 
	C558.351440,175.785355 556.885132,181.410690 554.565125,186.640488 
	C551.815613,192.838562 548.451965,198.799194 544.945557,204.616226 
	C541.742310,209.930283 537.901794,214.855713 534.512512,220.063354 
	C531.537476,224.634537 529.522217,230.067078 525.804504,233.868866 
	C518.138611,241.708176 509.377472,248.465027 501.518036,256.129761 
	C493.165649,264.275208 483.478455,270.362885 473.450439,276.042053 
	C466.863464,279.772430 460.157928,283.295227 453.603577,287.080811 
	C448.250793,290.172455 443.151978,293.721375 437.695435,296.603546 
	C436.318848,297.330658 434.004669,296.282715 430.878174,295.897156 
	C434.097961,294.394684 436.160675,293.432159 438.535950,292.202271 
z"/>
<path fill="#FDFBFB" opacity="1.000000" stroke="none" 
	d="
M448.430237,199.170868 
	C446.603821,197.344086 444.691925,195.593307 442.978485,193.666077 
	C441.649323,192.171112 440.567932,190.455811 438.774231,188.536652 
	C436.988495,186.776276 435.804932,185.317734 434.446808,183.644150 
	C436.320770,182.427063 437.812225,181.458405 439.303650,180.489746 
	C445.616028,176.480988 451.964386,172.526550 458.196777,168.397095 
	C459.008301,167.859390 459.222748,166.420547 459.791138,165.106735 
	C461.531311,163.106186 462.714569,163.552200 464.230988,165.289276 
	C470.564423,172.544449 477.060913,179.657288 483.439240,187.269806 
	C483.227539,187.837631 483.074219,187.957932 482.920868,188.078247 
	C480.923981,186.711411 478.927063,185.344559 476.941528,183.985504 
	C472.528961,189.088455 470.287231,189.281708 460.575348,185.108093 
	C457.179565,183.648788 453.989929,181.689774 450.549530,180.366058 
	C449.466370,179.949310 447.840240,180.757889 446.521454,181.186630 
	C444.881805,181.719696 442.929169,182.072327 441.819702,183.199661 
	C440.972595,184.060410 440.929565,187.262360 441.033691,187.286987 
	C446.176025,188.502396 445.561615,193.827072 448.035400,196.862915 
	C448.489960,197.420761 449.178040,197.788315 449.492676,198.652954 
	C448.961426,199.098419 448.695862,199.134644 448.430237,199.170868 
z"/>
<path fill="#F9F9F9" opacity="1.000000" stroke="none" 
	d="
M438.881042,132.658386 
	C438.495453,132.486771 438.241669,131.981155 437.967529,130.732086 
	C437.437531,124.622925 439.778107,118.859169 435.713074,113.989914 
	C436.472351,112.363312 437.871704,110.744202 437.890839,109.108940 
	C438.062347,94.453819 438.505951,79.768242 437.722687,65.153091 
	C437.433105,59.750210 434.626129,54.227058 432.003998,49.268097 
	C428.625854,42.879295 424.279907,37.002247 420.184357,30.646486 
	C428.180573,27.277836 435.632019,24.406908 444.065491,24.869455 
	C447.226349,25.042814 450.491882,23.978273 453.654724,23.241964 
	C456.427124,22.596548 458.755280,22.872231 460.437958,25.655613 
	C460.345673,26.015989 459.969391,26.010292 459.969391,26.010294 
	C455.609406,26.343592 451.219971,27.160501 446.896332,26.897152 
	C440.365540,26.499365 434.290955,27.965004 428.278046,30.055254 
	C425.863617,30.894575 423.231750,31.002409 426.880280,34.848911 
	C430.639587,38.812199 431.868805,45.075935 435.329651,49.441586 
	C443.574677,59.842079 440.209686,71.821869 441.075165,83.262184 
	C441.263641,85.753632 442.630646,88.156151 442.817413,90.647423 
	C442.947845,92.387131 441.992065,94.208275 442.187134,96.114891 
	C441.783539,99.767326 441.711884,103.495247 440.902313,107.055374 
	C439.517334,113.146065 439.815338,118.717224 442.556305,124.560104 
	C443.338379,126.227203 440.299561,129.686768 438.881042,132.658386 
z"/>
<path fill="#F1F1F1" opacity="1.000000" stroke="none" 
	d="
M636.612549,288.757324 
	C619.234314,290.966736 602.296509,293.655609 585.260071,294.645386 
	C575.891418,295.189667 568.191101,299.714417 559.585022,301.902252 
	C550.804565,304.134399 542.346619,307.713501 533.516602,309.650330 
	C525.151672,311.485138 516.513367,312.442993 507.948029,312.898926 
	C497.819763,313.438049 487.596741,313.610748 477.497162,312.849518 
	C468.631836,312.181335 459.880249,310.003876 451.078400,308.493042 
	C451.185242,307.924561 451.292084,307.356049 451.398926,306.787567 
	C456.480621,307.846619 461.517365,309.370941 466.653442,309.866913 
	C476.996918,310.865692 487.386505,311.562256 497.772522,311.882599 
	C504.542450,312.091400 511.590393,312.472412 518.074951,310.930603 
	C534.000488,307.143982 549.981323,303.154114 565.368835,297.649475 
	C585.293762,290.521545 606.067017,290.487488 626.567932,288.020844 
	C633.171021,287.226379 639.844238,287.014984 646.551819,287.728271 
	C643.371826,287.994751 640.191895,288.261261 636.612549,288.757324 
z"/>
<path fill="#F6F6F6" opacity="1.000000" stroke="none" 
	d="
M273.168030,313.014160 
	C271.954529,312.926056 271.179596,312.838013 270.404694,312.749939 
	C270.433289,312.406647 270.461884,312.063354 270.490479,311.720062 
	C275.520813,312.141388 280.549316,312.899139 285.581787,312.926636 
	C309.237152,313.056061 332.905396,313.411133 356.543518,312.760254 
	C365.118896,312.524139 373.641632,309.802124 382.154846,308.051239 
	C389.906219,306.457001 397.632568,304.727692 405.331329,302.895599 
	C411.048035,301.535156 416.652435,299.661682 422.406158,298.514862 
	C425.384430,297.921234 428.578522,298.410492 431.685852,299.398132 
	C427.139893,300.091522 422.546906,300.566406 418.059418,301.531677 
	C411.974915,302.840515 405.980774,304.564056 399.931183,306.041443 
	C376.476379,311.769196 352.981720,317.120819 328.526398,315.063568 
	C324.390900,314.715698 320.194672,315.163391 316.037262,314.988129 
	C301.891113,314.391785 287.749786,313.681183 273.168030,313.014160 
z"/>
<path fill="#F4F2F2" opacity="1.000000" stroke="none" 
	d="
M444.924927,141.731506 
	C441.830872,141.255035 440.153839,139.408844 440.447876,135.764526 
	C448.781097,124.660385 456.648224,113.440430 465.697357,103.272461 
	C473.620972,94.369247 483.204895,87.541031 496.396057,88.919838 
	C502.998505,89.609970 509.756195,89.136620 516.275024,90.211807 
	C522.316772,91.208321 528.133911,93.566154 534.049988,95.324539 
	C533.807617,95.993378 533.565247,96.662209 533.322876,97.331039 
	C531.649536,96.582321 530.038818,95.603317 528.291138,95.127739 
	C522.885986,93.656898 517.472961,91.504791 511.981293,91.226128 
	C503.453186,90.793381 494.771729,91.079582 486.327393,92.276001 
	C482.147247,92.868271 477.720398,95.478333 474.514191,98.394699 
	C468.052856,104.271873 460.463684,110.087814 456.891205,117.614632 
	C453.636322,124.472351 446.576874,127.827507 444.287079,135.398773 
	C443.373871,138.418198 443.949127,139.437668 444.924927,141.731506 
z"/>
<path fill="#F3EBEB" opacity="1.000000" stroke="none" 
	d="
M391.124359,212.837784 
	C391.749451,213.684250 392.374542,214.530716 392.924438,215.702484 
	C388.110077,218.616669 382.997009,220.711365 378.737396,223.934128 
	C374.517639,227.126724 370.373077,230.080399 365.413757,232.069977 
	C359.018280,234.635727 358.800354,235.996201 364.015839,240.555939 
	C369.272675,245.151840 374.817444,249.431213 380.395782,253.637482 
	C381.784271,254.684479 383.788330,254.915085 385.852448,255.641647 
	C384.246094,256.968323 382.864563,258.109283 381.296631,259.404205 
	C373.524597,252.586243 365.316803,245.491577 357.288208,238.199554 
	C356.360748,237.357193 356.429901,235.417557 356.342407,233.748169 
	C360.610321,231.648178 364.637543,229.909088 368.502563,227.863434 
	C369.998169,227.071838 371.367279,225.761932 372.375671,224.382385 
	C375.180023,220.545746 378.538849,217.678268 383.469025,217.388336 
	C386.913116,217.185791 387.289703,214.831390 387.863098,211.747559 
	C389.180603,211.784836 390.152466,212.311310 391.124359,212.837784 
z"/>
<path fill="#F9F9F9" opacity="1.000000" stroke="none" 
	d="
M463.991028,70.677483 
	C463.991028,54.850395 463.991028,39.487423 463.991028,24.124454 
	C465.577667,25.770611 469.377625,26.419165 466.283691,29.441570 
	C465.593048,30.116234 466.018616,31.985802 466.017029,33.305336 
	C466.003235,44.968967 466.360046,56.647202 465.876434,68.290764 
	C465.589355,75.201515 464.216217,82.102211 462.890808,88.921799 
	C462.079163,93.098045 460.433411,97.112175 459.027008,101.633759 
	C461.003510,101.377502 461.847931,101.268021 463.469482,101.057785 
	C459.880859,105.036484 456.809052,108.442154 453.737244,111.847832 
	C453.234131,111.672508 452.731018,111.497192 452.227905,111.321877 
	C453.282623,108.193550 454.374023,105.077011 455.383606,101.934174 
	C456.948547,97.062607 458.510956,92.188965 459.970612,87.285286 
	C460.851898,84.324615 461.557312,81.310600 462.303467,78.311043 
	C462.896118,75.928719 463.430664,73.531960 463.991028,70.677483 
z"/>
<path fill="#F6F5F5" opacity="1.000000" stroke="none" 
	d="
M556.202942,228.329880 
	C554.623901,232.880646 553.385193,237.147491 551.975647,241.357162 
	C551.476807,242.847183 550.458557,244.155991 549.863037,245.622879 
	C549.152527,247.373154 547.888184,249.345291 548.192871,250.972473 
	C548.937622,254.950592 547.069641,260.586548 543.350342,262.975464 
	C546.717285,244.935394 548.468323,226.371719 563.457947,213.449997 
	C564.212891,213.750443 564.967834,214.050888 565.722839,214.351334 
	C564.616089,216.923019 563.408081,219.457214 562.438293,222.079529 
	C561.789185,223.834732 561.226196,225.694534 561.075623,227.544220 
	C560.848938,230.329422 561.016541,233.146698 560.177002,235.952881 
	C560.177002,232.410294 560.177002,228.867691 560.177002,225.325104 
	C559.813354,225.136414 559.449646,224.947723 559.085999,224.759048 
	C558.216003,225.847168 557.345947,226.935303 556.202942,228.329880 
z"/>
<path fill="#FAFAFA" opacity="1.000000" stroke="none" 
	d="
M548.234131,265.719513 
	C555.044739,265.428375 561.524231,264.808258 567.903076,265.357239 
	C574.150208,265.894897 574.358093,266.782654 573.701050,273.034943 
	C570.706177,273.358948 567.758972,274.202667 564.980774,273.819946 
	C562.557983,273.486176 558.800964,272.209137 558.329102,270.571899 
	C557.369873,267.243805 555.349182,266.624756 553.062073,267.171692 
	C551.194092,267.618439 549.396667,269.274902 548.057129,270.819305 
	C545.582153,273.672882 543.465515,276.837372 541.199524,279.872314 
	C540.521851,279.380005 539.844177,278.887665 539.166504,278.395325 
	C542.063965,274.231018 544.961426,270.066681 548.234131,265.719513 
z"/>
<path fill="#F7F7F7" opacity="1.000000" stroke="none" 
	d="
M564.771790,243.560089 
	C560.594299,249.212341 556.658447,254.534271 552.628662,259.784119 
	C551.856750,260.789764 550.715271,261.511688 549.744263,262.364532 
	C549.260071,261.930939 548.775940,261.497345 548.291748,261.063782 
	C551.692017,256.258972 555.251831,251.556870 558.434753,246.612167 
	C560.453674,243.475830 563.598145,239.820435 563.303040,236.672943 
	C562.441833,227.487549 569.334656,220.165985 568.644287,211.077530 
	C571.448486,213.787140 572.132080,218.086807 570.500549,220.485046 
	C566.822510,225.891281 567.050964,231.531082 566.906311,237.421860 
	C566.858643,239.364059 565.655518,241.277893 564.771790,243.560089 
z"/>
<path fill="#F1F1F1" opacity="1.000000" stroke="none" 
	d="
M114.085327,237.916534 
	C115.830231,240.193390 118.028748,242.253540 119.238533,244.786041 
	C123.598137,253.912186 127.710030,263.160370 131.743332,272.437256 
	C134.009308,277.649170 135.926407,283.012390 138.022858,288.298645 
	C138.943192,290.619293 139.918839,292.918030 139.917480,295.617554 
	C138.389343,293.049438 136.579788,290.605591 135.381699,287.891785 
	C130.137482,276.012939 125.122505,264.033051 119.912018,252.139069 
	C117.991196,247.754425 115.760948,243.505341 113.687378,238.730255 
	C113.830391,238.149582 113.957855,238.033066 114.085327,237.916534 
z"/>
<path fill="#F7F7F7" opacity="1.000000" stroke="none" 
	d="
M275.137573,272.012878 
	C271.594116,271.679321 268.519440,271.101440 265.437286,271.058350 
	C256.274475,270.930176 250.012756,277.201935 250.012466,286.262787 
	C250.012344,289.755005 250.337570,293.293976 249.846390,296.715698 
	C249.658844,298.022247 247.601212,299.060333 245.981628,299.081787 
	C246.650253,297.330139 247.738541,295.615692 247.897873,293.818909 
	C248.205139,290.353912 247.911072,286.840393 248.001511,283.350525 
	C248.304382,271.663330 256.659515,267.203461 269.146515,269.192902 
	C272.529694,269.731903 276.050293,270.099121 279.419800,269.733612 
	C281.033142,269.558624 282.441010,267.489105 284.890900,265.511658 
	C284.230011,273.661407 279.364716,271.787842 275.137573,272.012878 
z"/>
<path fill="#F6F5F5" opacity="1.000000" stroke="none" 
	d="
M310.013733,241.006393 
	C305.660217,248.712067 301.489868,256.116394 296.871063,263.229553 
	C294.781067,266.448181 291.561066,268.915558 289.298950,272.045563 
	C287.506195,274.526123 286.426514,277.515991 284.941437,280.231140 
	C284.705139,280.663177 284.001160,280.839386 282.632385,280.595032 
	C284.236389,276.967926 285.374237,273.029968 287.542267,269.779053 
	C291.939270,263.185730 297.033295,257.061127 301.556976,250.546768 
	C303.676636,247.494308 305.257599,244.041733 306.860291,240.664932 
	C308.022339,238.216644 308.884186,237.687286 310.013733,241.006393 
z"/>
<path fill="#F8F8F8" opacity="1.000000" stroke="none" 
	d="
M720.799255,272.988800 
	C727.067627,273.978516 730.374207,270.901642 732.977478,265.222076 
	C733.776428,266.624817 734.969177,268.226318 734.762817,268.433319 
	C732.776062,270.426636 730.728577,273.428619 728.363586,273.761292 
	C722.819153,274.541351 717.025146,274.543365 711.454346,273.862091 
	C705.836365,273.175079 704.278748,277.322693 703.267822,280.591156 
	C701.911499,284.976746 702.281799,289.896332 701.854431,295.300018 
	C699.239441,293.946991 697.121582,292.851196 695.152954,291.832581 
	C695.152954,286.930298 695.152954,282.304626 695.152954,277.678925 
	C695.439392,277.665344 695.725891,277.651794 696.012329,277.638214 
	C696.012329,281.069397 695.834412,284.515381 696.117493,287.923096 
	C696.205872,288.987335 697.538635,289.948242 698.301758,290.956451 
	C698.863708,289.942444 699.731506,288.980743 699.915955,287.902191 
	C700.192261,286.286346 699.913269,284.584351 700.002319,282.926117 
	C700.359375,276.281494 703.813416,272.988159 710.350525,272.988678 
	C713.676514,272.988953 717.002502,272.988800 720.799255,272.988800 
z"/>
<path fill="#F8F8F8" opacity="1.000000" stroke="none" 
	d="
M282.011810,289.859680 
	C280.955994,292.558289 279.746307,294.742737 278.895966,297.059113 
	C278.267609,298.770905 278.107544,300.654602 277.689301,302.704437 
	C279.320038,302.910126 280.398773,303.046173 281.477539,303.182220 
	C281.473389,303.350647 281.469269,303.519043 281.465149,303.687469 
	C279.868378,303.687469 278.271606,303.687469 276.583801,303.687469 
	C274.058899,296.592957 278.951355,291.322235 280.593872,284.988586 
	C288.724701,284.988586 296.695740,285.080170 304.660889,284.904297 
	C306.098145,284.872559 309.197906,286.495178 308.672485,282.557037 
	C308.664795,282.499329 309.928192,282.020996 310.358582,282.230835 
	C310.742096,282.417816 311.087830,283.689575 310.945038,283.794403 
	C309.378296,284.944519 307.753052,286.784424 306.066467,286.867462 
	C299.089844,287.210876 292.083527,286.912476 285.096069,287.118195 
	C284.046570,287.149078 283.039062,288.605255 282.011810,289.859680 
z"/>
<path fill="#F8F8F8" opacity="1.000000" stroke="none" 
	d="
M204.021118,312.940063 
	C204.670822,313.275116 205.899643,313.640686 205.883835,313.940643 
	C205.623550,318.879852 208.468872,322.474335 210.682510,326.505920 
	C215.718063,335.676910 209.398529,345.926453 198.990509,346.006958 
	C195.520538,346.033813 192.050186,346.011200 189.155289,346.011200 
	C194.107666,344.790741 199.583755,343.722229 204.828079,341.962799 
	C206.242752,341.488220 207.688370,338.989807 207.855057,337.295929 
	C208.425827,331.496124 208.231476,325.741699 204.835251,320.506256 
	C203.935974,319.119995 204.146149,317.013977 203.898758,314.464600 
	C203.974121,313.440521 203.997620,313.190277 204.021118,312.940063 
z"/>
<path fill="#F9F9F9" opacity="1.000000" stroke="none" 
	d="
M211.011261,287.185425 
	C211.009537,290.385803 211.009537,293.120850 211.009537,295.855865 
	C210.361557,295.907928 209.713593,295.959991 209.065613,296.012054 
	C208.576614,291.762268 208.087601,287.512482 207.557816,282.908295 
	C213.846970,283.655975 219.444275,284.607910 225.076782,284.915833 
	C231.588791,285.271820 233.080566,282.981354 231.027252,275.476044 
	C233.031769,276.416351 235.550369,276.918549 235.698303,277.812927 
	C235.979782,279.514496 235.299194,281.687561 234.327911,283.230316 
	C229.926697,290.221161 223.661835,285.744293 218.128937,285.525665 
	C215.620453,285.426544 212.922150,283.464020 211.011261,287.185425 
z"/>
<path fill="#F8F8F8" opacity="1.000000" stroke="none" 
	d="
M668.992371,255.197296 
	C663.986145,262.941620 664.289917,272.866058 657.471191,279.381500 
	C657.087830,279.747772 658.056030,281.528564 658.444824,282.815308 
	C658.387146,282.818390 657.338074,282.874451 655.986206,282.946716 
	C655.412537,271.662323 664.012634,263.609589 665.386475,252.717560 
	C666.703613,253.474213 667.839722,254.126831 668.992371,255.197296 
z"/>
<path fill="#F9F9F9" opacity="1.000000" stroke="none" 
	d="
M542.008545,294.835785 
	C542.384033,296.941956 536.177185,299.825684 544.031860,300.308716 
	C541.234253,301.162354 539.453430,301.705719 537.742310,302.227814 
	C537.742310,296.116882 537.742310,290.424072 537.742310,283.361877 
	C543.997009,287.516815 549.361511,291.080444 554.726013,294.644043 
	C554.584900,294.965027 554.443726,295.286041 554.302551,295.607025 
	C550.351746,293.850677 546.400940,292.094330 542.211487,290.231903 
	C542.146179,291.581390 542.077759,292.996613 542.008545,294.835785 
z"/>
<path fill="#F6F6F6" opacity="1.000000" stroke="none" 
	d="
M593.373108,286.892578 
	C601.078674,279.053253 602.004761,269.167511 603.288269,259.431641 
	C605.990967,260.685608 607.096558,264.261810 605.411438,266.952362 
	C604.966980,267.662048 604.028625,268.387695 604.087219,269.036530 
	C604.637390,275.129150 602.633850,280.265625 598.703247,284.820618 
	C598.113342,285.504303 597.990173,286.590759 597.452698,288.017548 
	C596.091980,288.017548 594.442749,288.017548 592.793518,288.017548 
	C592.824097,287.857635 592.835205,287.690582 592.890625,287.539795 
	C592.947205,287.385925 593.047302,287.248047 593.373108,286.892578 
z"/>
<path fill="#F6F6F6" opacity="1.000000" stroke="none" 
	d="
M323.539185,279.015747 
	C331.833252,279.413116 339.681488,279.837067 347.529724,280.260986 
	C347.485992,280.865082 347.442230,281.469147 347.398499,282.073242 
	C345.223755,281.865295 343.053101,281.558472 340.873505,281.469116 
	C335.663086,281.255646 330.401489,280.663544 325.252441,281.165924 
	C321.967499,281.486389 320.472992,284.313995 320.944458,287.986298 
	C321.299866,290.754608 321.014801,293.605133 321.014801,296.419098 
	C320.594086,296.585846 320.173340,296.752625 319.752625,296.919403 
	C319.163574,295.410950 318.028992,293.881836 318.085236,292.397858 
	C318.272522,287.458405 316.188446,281.502716 323.539185,279.015747 
z"/>
<path fill="#F8F8F8" opacity="1.000000" stroke="none" 
	d="
M619.011169,277.909088 
	C619.011169,280.244659 619.011169,282.104309 619.011169,283.963989 
	C618.513428,283.993744 618.015686,284.023529 617.517944,284.053284 
	C617.341553,282.950043 617.030396,281.849060 617.011719,280.743134 
	C616.919983,275.309937 617.466431,269.881927 614.441101,264.802429 
	C612.971741,262.335449 617.217773,255.712769 619.997620,254.914612 
	C621.005615,254.625168 621.712036,252.966980 622.658508,252.862686 
	C623.820923,252.734573 625.090637,253.579529 626.313965,254.003845 
	C626.260742,254.441849 626.207581,254.879852 626.154419,255.317841 
	C625.649597,255.546371 625.156006,255.805161 624.637878,255.997925 
	C622.778381,256.689697 619.810608,256.887695 619.275818,258.135498 
	C618.174194,260.706146 618.085999,263.834747 618.104797,266.730347 
	C618.127991,270.299774 618.684937,273.865723 619.011169,277.909088 
z"/>
<path fill="#F1F1F1" opacity="1.000000" stroke="none" 
	d="
M522.692688,300.556946 
	C525.980957,295.518738 529.105957,290.806946 532.810913,285.220703 
	C532.810913,289.741058 532.810913,293.143585 532.810913,296.493683 
	C529.959167,293.899109 528.487244,296.432434 527.088196,298.365570 
	C526.176025,299.625946 525.173950,301.237793 525.192078,302.679871 
	C525.256104,307.778381 520.881592,306.417114 518.037109,307.546997 
	C519.534546,305.325775 521.031982,303.104584 522.692688,300.556946 
z"/>
<path fill="#F5CBCD" opacity="1.000000" stroke="none" 
	d="
M314.603516,123.035278 
	C313.646606,132.649445 312.190643,142.352936 311.009583,152.089752 
	C310.551392,155.867157 310.714722,159.719940 310.391968,163.912201 
	C309.877808,159.504471 309.248444,154.716019 309.352448,149.943527 
	C309.441284,145.867538 310.212891,141.779907 310.971405,137.751816 
	C311.894257,132.850754 313.119751,128.006668 314.603516,123.035278 
z"/>
<path fill="#F6F6F6" opacity="1.000000" stroke="none" 
	d="
M204.014725,312.517029 
	C203.997620,313.190277 203.974121,313.440521 203.902802,314.064819 
	C202.499924,310.761963 201.144882,307.085083 199.498688,302.618134 
	C213.991409,303.150238 227.842255,303.658783 241.693085,304.167297 
	C241.684845,304.449890 241.676605,304.732452 241.668365,305.015015 
	C231.888138,305.015015 222.107910,305.015015 212.327682,305.015015 
	C212.161316,305.015015 211.994720,305.020844 211.828613,305.014130 
	C209.166443,304.907013 206.504318,304.798340 203.842194,304.690002 
	C203.897568,307.157990 203.952957,309.625977 204.014725,312.517029 
z"/>
<path fill="#EDEDED" opacity="1.000000" stroke="none" 
	d="
M155.021790,314.093384 
	C161.862595,311.632202 168.328842,309.287811 174.795074,306.943420 
	C174.969360,307.433197 175.143646,307.922974 175.317932,308.412750 
	C163.740768,313.127533 152.163605,317.842285 140.586441,322.557037 
	C140.371490,322.042114 140.156540,321.527191 139.941605,321.012299 
	C144.843475,318.744904 149.745346,316.477539 155.021790,314.093384 
z"/>
<path fill="#FDFBFB" opacity="1.000000" stroke="none" 
	d="
M459.981689,26.434563 
	C459.969391,26.010292 460.345673,26.015989 460.533722,26.009264 
	C460.721771,34.110844 460.721771,42.219151 460.721771,50.327457 
	C460.480042,50.337444 460.238312,50.347427 459.996582,50.357414 
	C459.996582,45.742577 459.977081,41.127632 460.002533,36.512936 
	C460.024109,32.597382 459.281189,31.223431 454.848419,33.287758 
	C452.522064,34.371147 448.926971,32.730183 445.926910,31.667671 
	C448.888336,28.911968 451.612427,26.716450 455.795868,28.789185 
	C456.755219,29.264515 460.079987,30.651237 459.981689,26.434563 
z"/>
<path fill="#F4F2F2" opacity="1.000000" stroke="none" 
	d="
M147.378540,290.154083 
	C155.972687,287.265778 157.157242,287.231232 160.601639,289.277130 
	C157.387543,290.114288 153.703827,290.984222 150.074539,292.041077 
	C145.206879,293.458557 144.520401,295.788757 146.586014,300.355804 
	C148.075455,303.648926 148.715057,307.326416 149.733719,310.832489 
	C149.125092,311.030670 148.516464,311.228882 147.907837,311.427063 
	C146.265411,306.136505 144.256378,300.915894 143.225204,295.508759 
	C142.949890,294.065094 145.665283,292.051086 147.378540,290.154083 
z"/>
<path fill="#F8F8F8" opacity="1.000000" stroke="none" 
	d="
M677.006897,280.968872 
	C676.058167,278.783112 675.160400,276.200928 674.109985,273.179657 
	C680.287537,273.566833 685.279663,273.879700 692.005127,274.301208 
	C690.472168,270.105804 689.373657,267.099304 688.402954,264.442749 
	C692.401733,265.877655 694.918762,271.105774 692.640991,274.582428 
	C692.087158,275.427795 690.418396,275.982910 689.292358,275.936920 
	C684.502808,275.741180 679.584045,274.892853 677.006897,280.968872 
z"/>
<path fill="#E8E8E8" opacity="1.000000" stroke="none" 
	d="
M576.030823,277.101593 
	C571.340942,278.748810 566.742554,280.781830 561.932495,281.922363 
	C558.013733,282.851562 553.840149,282.695648 549.783630,283.066010 
	C549.166321,283.122345 548.523254,283.332886 547.974243,283.626007 
	C545.522278,284.935150 545.533020,284.955322 544.006775,283.084991 
	C554.228882,280.838928 564.745239,278.528198 575.663818,276.425232 
	C576.065979,276.632965 576.030823,277.101593 576.030823,277.101593 
z"/>
<path fill="#F6F5F5" opacity="1.000000" stroke="none" 
	d="
M191.988892,305.016724 
	C188.127258,305.767242 184.704819,306.517792 180.418182,307.457855 
	C182.252319,309.915497 183.814041,312.008148 185.838760,314.721161 
	C182.775284,314.721161 180.602341,314.721161 177.850510,314.721161 
	C179.545624,314.071716 180.754150,313.608704 182.057968,313.109192 
	C180.458725,310.894897 179.070053,308.972229 177.118729,306.270477 
	C184.148117,305.235107 189.895554,300.961761 196.625443,304.814209 
	C195.226303,304.881714 193.827179,304.949219 191.988892,305.016724 
z"/>
<path fill="#F4F2F2" opacity="1.000000" stroke="none" 
	d="
M193.896393,291.257263 
	C191.592102,286.395477 189.496124,281.851746 187.395111,277.310425 
	C190.980499,277.687408 199.173630,293.814331 197.930511,300.082153 
	C196.655243,297.246552 195.379974,294.410950 193.896393,291.257263 
z"/>
<path fill="#FDFBFB" opacity="1.000000" stroke="none" 
	d="
M576.433594,277.056641 
	C576.030823,277.101593 576.065979,276.632965 576.042114,276.399200 
	C576.318237,272.260437 576.618164,268.355438 576.923462,264.381744 
	C577.074951,264.481110 578.194580,265.215332 579.586609,266.128235 
	C579.831909,264.836182 580.049255,263.691437 580.266541,262.546722 
	C580.424377,262.558014 580.582153,262.569305 580.739990,262.580597 
	C580.739990,267.876984 580.739990,273.173340 580.739990,277.952332 
	C579.576599,277.671997 578.206482,277.341858 576.433594,277.056641 
z"/>
<path fill="#FBF4F5" opacity="1.000000" stroke="none" 
	d="
M461.028992,212.498657 
	C458.369415,212.595062 453.197998,207.624344 453.086029,205.392410 
	C453.006622,203.809845 452.656769,202.240845 452.733215,200.294983 
	C454.578674,200.372345 456.118591,200.820496 456.560883,200.949219 
	C458.208527,205.085785 459.606903,208.596588 461.028992,212.498657 
z"/>
<path fill="#FDFBFB" opacity="1.000000" stroke="none" 
	d="
M583.996460,273.982300 
	C583.996460,268.679932 583.996460,263.872284 583.996460,259.064667 
	C584.433655,259.059265 584.870911,259.053894 585.308105,259.048523 
	C585.308105,267.994141 585.308105,276.939758 585.308105,285.885376 
	C584.870911,285.930328 584.433716,285.975250 583.996521,286.020172 
	C583.996521,282.172455 583.996521,278.324768 583.996460,273.982300 
z"/>
<path fill="#F7F7F7" opacity="1.000000" stroke="none" 
	d="
M692.984131,283.131653 
	C692.690552,286.416138 691.059326,287.177582 688.307922,287.073181 
	C682.912842,286.868408 677.504517,287.012970 672.101685,287.012970 
	C672.088806,286.337830 672.075989,285.662689 672.063110,284.987549 
	C674.562561,284.987549 677.062988,285.034180 679.561096,284.977448 
	C684.135498,284.873566 688.898804,285.822266 692.984131,283.131653 
z"/>
<path fill="#E8E8E8" opacity="1.000000" stroke="none" 
	d="
M483.343140,177.716187 
	C485.451141,180.795517 487.308807,183.578766 489.166504,186.362030 
	C488.768280,186.678558 488.370056,186.995071 487.971832,187.311584 
	C483.716431,182.050949 479.460999,176.790298 475.205566,171.529648 
	C475.505066,171.185257 475.804535,170.840851 476.104034,170.496460 
	C478.433624,172.804337 480.763214,175.112213 483.343140,177.716187 
z"/>
<path fill="#F1F1F1" opacity="1.000000" stroke="none" 
	d="
M347.372192,289.790680 
	C348.628021,289.555420 349.433807,289.304169 350.256256,289.224213 
	C354.149536,288.845764 357.976044,288.427185 357.254486,282.227570 
	C360.219971,287.203888 359.597931,289.432312 355.214050,289.935028 
	C348.267700,290.731659 341.254852,290.948425 334.270142,291.410553 
	C334.254456,290.891571 334.238770,290.372589 334.223083,289.853607 
	C338.458679,289.853607 342.694275,289.853607 347.372192,289.790680 
z"/>
<path fill="#F3EBEB" opacity="1.000000" stroke="none" 
	d="
M337.688232,215.238007 
	C339.949493,213.035004 341.763855,213.578278 342.944641,216.398285 
	C344.322784,219.689545 345.680420,222.989380 346.951599,226.661148 
	C343.866821,223.207169 340.877319,219.377548 337.688232,215.238007 
z"/>
<path fill="#F6F6F6" opacity="1.000000" stroke="none" 
	d="
M352.512360,309.807190 
	C349.505798,310.330170 349.275208,308.960754 350.499634,307.238220 
	C351.217163,306.228790 352.531006,305.583496 353.672821,304.946899 
	C356.891632,303.152344 358.006531,300.704285 355.684418,296.159424 
	C357.411224,297.191345 358.915863,297.735382 358.876953,298.125458 
	C358.641296,300.488251 358.499908,303.045715 357.449615,305.086609 
	C356.513977,306.904755 354.442139,308.138214 352.512360,309.807190 
z"/>
<path fill="#0E0808" opacity="1.000000" stroke="none" 
	d="
M435.393433,113.989029 
	C439.778107,118.859169 437.437531,124.622925 437.891754,130.444824 
	C433.308746,126.283081 436.094055,120.025124 434.013672,114.452362 
	C434.224365,114.058945 434.649078,114.023552 435.393433,113.989029 
z"/>
<path fill="#FAFAFA" opacity="1.000000" stroke="none" 
	d="
M767.167480,309.372559 
	C760.659851,309.197266 754.458191,308.718262 748.256470,308.239288 
	C754.775146,305.041809 762.278442,312.057220 769.215271,305.458618 
	C768.634644,306.662048 768.054016,307.865479 767.167480,309.372559 
z"/>
<path fill="#F1F1F1" opacity="1.000000" stroke="none" 
	d="
M219.891907,273.986023 
	C219.057343,274.017914 218.508987,274.164886 218.076401,274.002808 
	C213.284470,272.207336 210.327255,273.191132 210.789139,279.516174 
	C210.274673,279.434692 209.760223,279.353210 209.245773,279.271698 
	C208.835297,277.491486 207.894470,275.603638 208.225266,273.973877 
	C208.406235,273.082153 210.739166,272.077972 212.097549,272.083832 
	C215.367950,272.097961 218.635910,272.677155 221.764771,274.175659 
	C221.253799,274.102966 220.742828,274.030273 219.891907,273.986023 
z"/>
<path fill="#F9F9F9" opacity="1.000000" stroke="none" 
	d="
M229.087982,299.133484 
	C231.108139,296.367310 232.874451,293.893890 235.001648,290.915131 
	C238.000092,297.176605 232.163223,297.836639 231.063538,300.971527 
	C230.320419,300.456421 229.577286,299.941284 229.087982,299.133484 
z"/>
<path fill="#EDEDED" opacity="1.000000" stroke="none" 
	d="
M644.334167,271.763123 
	C642.218079,268.417755 640.351318,265.347229 638.564148,262.407532 
	C641.387939,262.485199 645.550537,268.107117 646.074158,274.572327 
	C645.577271,273.727570 645.080383,272.882782 644.334167,271.763123 
z"/>
<path fill="#F1F1F1" opacity="1.000000" stroke="none" 
	d="
M677.039795,268.960022 
	C680.364685,264.496521 684.293457,265.182404 687.879578,270.499146 
	C687.769348,270.598419 687.589478,270.802429 687.558716,270.782013 
	C684.328613,268.634308 680.876770,268.125305 677.039795,268.960022 
z"/>
<path fill="#F4F2F2" opacity="1.000000" stroke="none" 
	d="
M686.317383,296.008179 
	C683.841125,295.095428 681.789185,294.194397 679.737183,293.293365 
	C679.846985,293.094696 679.956787,292.895996 680.066589,292.697296 
	C685.648926,293.818970 691.231323,294.940613 696.813660,296.062286 
	C696.743774,296.451782 696.673950,296.841278 696.604126,297.230774 
	C693.316650,296.827148 690.029114,296.423523 686.317383,296.008179 
z"/>
<path fill="#F6F5F5" opacity="1.000000" stroke="none" 
	d="
M427.996552,103.828598 
	C427.468262,102.682480 426.939972,101.536362 426.734070,100.163567 
	C429.039215,102.338562 431.021973,104.740242 432.621460,107.565781 
	C431.516846,107.972450 430.795471,107.955246 430.074127,107.938049 
	C430.074127,107.938049 430.012024,107.991989 430.060486,107.655548 
	C429.767212,106.862129 429.425476,106.405151 429.083771,105.948166 
	C429.083771,105.948166 429.027161,105.971275 429.067993,105.610474 
	C428.738037,104.775986 428.367279,104.302292 427.996552,103.828598 
z"/>
<path fill="#0E0808" opacity="1.000000" stroke="none" 
	d="
M525.890320,223.180023 
	C524.200562,222.237640 522.678528,220.958969 520.990845,219.391037 
	C524.314575,217.908524 526.589783,218.413467 525.890320,223.180023 
z"/>
<path fill="#F6F5F5" opacity="1.000000" stroke="none" 
	d="
M427.044373,99.564926 
	C425.177124,98.120537 423.286285,96.289894 421.724365,94.196091 
	C423.709106,95.681519 425.364960,97.430099 427.044373,99.564926 
z"/>
<path fill="#0E0808" opacity="1.000000" stroke="none" 
	d="
M518.203979,216.846161 
	C517.519836,215.533493 517.079590,214.036926 516.838562,212.303024 
	C517.507812,213.597885 517.977783,215.130081 518.203979,216.846161 
z"/>
<path fill="#0E0808" opacity="1.000000" stroke="none" 
	d="
M429.786743,108.220016 
	C430.795471,107.955246 431.516846,107.972450 432.596680,107.943649 
	C432.376587,108.818878 431.797974,109.740105 431.053284,110.919968 
	C430.424591,110.286407 429.961975,109.394196 429.786743,108.220016 
z"/>
<path fill="#FDFBFB" opacity="1.000000" stroke="none" 
	d="
M483.627472,187.560287 
	C484.777496,188.229996 485.680878,189.056717 486.489441,190.302643 
	C486.238342,190.842529 486.082062,190.963242 485.925751,191.083954 
	C484.947998,190.314926 483.970215,189.545898 482.956665,188.427551 
	C483.074219,187.957932 483.227539,187.837631 483.627472,187.560287 
z"/>
<path fill="#F1F1F1" opacity="1.000000" stroke="none" 
	d="
M113.501968,238.429535 
	C112.623199,237.928284 111.945381,237.263565 111.267570,236.598846 
	C111.372597,236.342941 111.477631,236.087036 111.582657,235.831131 
	C112.397087,236.287888 113.211510,236.744629 114.055634,237.558960 
	C113.957855,238.033066 113.830391,238.149582 113.501968,238.429535 
z"/>
<path fill="#FBF4F5" opacity="1.000000" stroke="none" 
	d="
M448.742615,199.480988 
	C448.695862,199.134644 448.961426,199.098419 449.626068,199.013931 
	C450.955933,199.071991 451.886749,199.178314 452.942688,199.616547 
	C451.730194,199.896011 450.392548,199.843567 448.742615,199.480988 
z"/>
<path fill="#F5CBCD" opacity="1.000000" stroke="none" 
	d="
M315.411621,121.329979 
	C315.489899,121.667686 315.408722,122.207336 315.130676,122.897476 
	C315.039917,122.542610 315.146057,122.037270 315.411621,121.329979 
z"/>
<path fill="#F6F5F5" opacity="1.000000" stroke="none" 
	d="
M421.955750,93.626595 
	C421.455902,93.914963 420.848907,93.886986 420.082672,93.504211 
	C420.565155,93.203026 421.206909,93.256638 421.955750,93.626595 
z"/>
<path fill="#FDFBFB" opacity="1.000000" stroke="none" 
	d="
M486.648071,190.568588 
	C487.188538,190.861099 487.475464,191.306839 487.762421,191.752594 
	C487.216156,191.719177 486.669891,191.685745 486.024689,191.368134 
	C486.082062,190.963242 486.238342,190.842529 486.648071,190.568588 
z"/>
<path fill="#F5CBCD" opacity="1.000000" stroke="none" 
	d="
M310.627258,174.977142 
	C310.661133,174.996948 310.633362,175.120316 310.617218,175.059204 
	C310.601074,174.998077 310.593384,174.957321 310.627258,174.977142 
z"/>
<path fill="#0E0808" opacity="1.000000" stroke="none" 
	d="
M526.623901,225.985718 
	C526.698242,226.294434 526.541382,226.595840 526.135742,227.017410 
	C525.869019,226.946198 525.851013,226.754822 525.881531,226.279175 
	C525.930115,225.994904 526.392578,225.978394 526.623901,225.985718 
z"/>
<path fill="#F5CBCD" opacity="1.000000" stroke="none" 
	d="
M309.888000,172.730576 
	C310.044556,172.708725 310.070221,172.613037 310.064575,172.564804 
	C310.058929,172.516571 309.659790,172.429382 309.659790,172.429382 
	C309.659790,172.429382 309.731476,172.752426 309.888000,172.730576 
z"/>
<path fill="#0E0808" opacity="1.000000" stroke="none" 
	d="
M433.549438,111.469208 
	C433.581146,111.522697 433.517731,111.415710 433.549438,111.469208 
z"/>
<path fill="#FDFBFB" opacity="1.000000" stroke="none" 
	d="
M428.422577,183.789886 
	C427.267914,184.559296 426.113281,185.328720 424.562195,186.489273 
	C419.087219,190.244034 414.008667,193.607666 408.930115,196.971283 
	C408.930115,196.971268 408.994843,196.992218 408.702698,197.000610 
	C408.180847,197.315308 407.951141,197.621628 407.721436,197.927948 
	C403.787689,199.831406 399.837952,201.702774 395.928009,203.653915 
	C394.326019,204.453339 392.810028,205.425034 390.763885,206.579742 
	C387.836273,204.673050 385.399689,202.504959 382.963104,200.336884 
	C382.046478,199.383682 381.088135,198.466843 380.220337,197.471054 
	C376.201141,192.858932 376.757965,193.022018 381.901886,189.637741 
	C387.183258,186.163010 391.795502,181.500076 396.158905,176.848969 
	C400.575836,172.140762 404.329498,166.810303 408.628235,161.434113 
	C409.899536,163.020126 410.658569,163.967102 411.890076,165.310013 
	C415.203949,168.163498 418.045319,170.621048 420.886688,173.078583 
	C422.104584,174.214966 423.322479,175.351334 424.776855,177.052399 
	C426.027893,178.974686 427.117004,180.285156 428.019653,181.713455 
	C428.370544,182.268723 428.300720,183.089859 428.422577,183.789886 
z"/>
<path fill="#2D1415" opacity="1.000000" stroke="none" 
	d="
M428.782135,183.817261 
	C428.300720,183.089859 428.370544,182.268723 428.019653,181.713455 
	C427.117004,180.285156 426.027893,178.974686 425.026001,177.254501 
	C429.055695,179.896820 433.528992,181.113968 438.908234,180.410233 
	C437.812225,181.458405 436.320770,182.427063 434.446808,183.644150 
	C435.804932,185.317734 436.988495,186.776276 438.397430,188.429428 
	C436.102814,188.925644 433.832916,189.099869 432.694794,185.892700 
	C432.347198,184.913071 430.371674,184.511124 428.782135,183.817261 
z"/>
<path fill="#2D1415" opacity="1.000000" stroke="none" 
	d="
M382.949066,200.699615 
	C385.399689,202.504959 387.836273,204.673050 390.601807,206.886993 
	C390.990723,208.619781 391.050659,210.306732 391.117493,212.415726 
	C390.152466,212.311310 389.180603,211.784836 387.927307,211.352692 
	C386.075592,207.985474 384.505310,204.523911 382.949066,200.699615 
z"/>
<path fill="#F68D91" opacity="1.000000" stroke="none" 
	d="
M324.997192,124.061600 
	C324.997192,132.144562 324.997192,139.738052 324.997192,147.331543 
	C324.751373,147.327744 324.505554,147.323944 324.259735,147.320160 
	C324.259735,136.450684 324.259735,125.581223 324.259735,114.711761 
	C324.505554,114.709724 324.751373,114.707695 324.997192,114.705658 
	C324.997192,117.661148 324.997192,120.616638 324.997192,124.061600 
z"/>
<path fill="#170E0E" opacity="1.000000" stroke="none" 
	d="
M420.955688,172.696320 
	C418.045319,170.621048 415.203949,168.163498 412.228577,165.414093 
	C417.917542,163.985214 419.835602,167.697052 420.955688,172.696320 
z"/>
<path fill="#F68D91" opacity="1.000000" stroke="none" 
	d="
M318.002808,162.155731 
	C318.002808,159.500473 318.002808,157.321381 318.002808,155.142273 
	C318.353302,155.161209 318.703827,155.180145 319.054321,155.199081 
	C319.054321,162.847916 319.054321,170.496750 319.054321,178.145584 
	C318.703827,178.151047 318.353302,178.156509 318.002808,178.161987 
	C318.002808,172.985291 318.002808,167.808594 318.002808,162.155731 
z"/>
<path fill="#0E0808" opacity="1.000000" stroke="none" 
	d="
M427.670074,104.028748 
	C428.367279,104.302292 428.738037,104.775986 429.081818,105.583229 
	C428.484406,105.354149 427.914001,104.791519 427.670074,104.028748 
z"/>
<path fill="#0E0808" opacity="1.000000" stroke="none" 
	d="
M428.747375,106.217804 
	C429.425476,106.405151 429.767212,106.862129 430.101318,107.650757 
	C429.532806,107.484077 428.971893,106.985764 428.747375,106.217804 
z"/>
<path fill="#020202" opacity="1.000000" stroke="none" 
	d="
M503.335724,251.106506 
	C492.644043,259.219910 483.075684,268.825623 470.611633,274.570984 
	C464.248474,277.504120 458.353851,281.453796 451.864960,285.005432 
	C451.546906,284.264191 451.611328,283.461426 452.079468,282.116577 
	C455.083252,280.019348 457.683319,278.464203 459.853485,277.166168 
	C455.776337,271.793549 451.876251,267.052734 444.842926,266.733795 
	C443.460938,266.196045 442.268494,266.009247 441.076019,265.822449 
	C439.933533,264.902466 438.791046,263.982483 437.799561,262.521149 
	C438.148529,261.776031 438.346497,261.572235 438.781189,261.501648 
	C439.673553,261.529144 440.329224,261.423431 440.984894,261.317749 
	C439.997192,260.522644 439.009460,259.727509 438.011047,258.967346 
	C438.000305,259.002319 438.069122,258.980652 438.039673,258.604736 
	C436.407806,255.963837 434.805420,253.698837 433.366638,251.665115 
	C434.342010,250.801392 435.261108,249.987457 436.199371,249.156586 
	C431.660706,244.734512 432.031677,242.977524 437.740814,239.684021 
	C440.201965,238.264221 442.682526,236.827866 444.941467,235.117935 
	C449.954926,231.322922 454.833984,227.350372 459.449493,223.701843 
	C462.294525,225.792007 465.148743,227.888885 467.992920,230.374939 
	C468.033112,234.042358 469.821136,235.690887 472.980286,236.039856 
	C472.999817,236.007812 472.935638,236.046646 472.958435,236.412201 
	C473.969940,237.873154 474.958679,238.968582 475.947388,240.063995 
	C475.947388,240.064011 475.986328,239.999115 476.020386,240.289459 
	C476.381134,240.669739 476.707855,240.759689 477.034576,240.849640 
	C481.287903,243.347809 486.203613,245.172043 489.615997,248.525833 
	C493.336426,252.182388 496.803406,252.599182 501.917542,251.101730 
	C502.876892,251.082458 503.106293,251.094482 503.335724,251.106506 
z"/>
<path fill="#FBF4F5" opacity="1.000000" stroke="none" 
	d="
M468.002960,229.985779 
	C465.148743,227.888885 462.294525,225.792007 459.449493,223.701843 
	C454.833984,227.350372 449.954926,231.322922 444.941467,235.117935 
	C442.682526,236.827866 440.201965,238.264221 437.740814,239.684021 
	C432.031677,242.977524 431.660706,244.734512 436.199371,249.156586 
	C435.261108,249.987457 434.342010,250.801392 433.366638,251.665115 
	C434.805420,253.698837 436.407806,255.963837 437.853363,258.977600 
	C436.145813,258.601288 434.595123,257.476227 433.044403,256.351196 
	C429.920746,252.639008 426.797058,248.926834 423.680450,245.223038 
	C435.513397,236.823944 447.110291,228.592392 459.629211,219.706390 
	C461.699890,221.936401 464.324402,224.762863 467.365997,228.061127 
	C467.839111,228.746613 467.895203,228.960327 467.958282,229.377350 
	C467.965302,229.580658 468.002960,229.985779 468.002960,229.985779 
z"/>
<path fill="#E8E8E8" opacity="1.000000" stroke="none" 
	d="
M445.032440,267.084778 
	C451.876251,267.052734 455.776337,271.793549 459.853485,277.166168 
	C457.683319,278.464203 455.083252,280.019348 452.165955,281.722961 
	C451.651276,280.826141 451.453857,279.780884 451.610382,278.485291 
	C452.916565,278.144897 453.868805,278.054901 454.820984,277.964905 
	C454.420776,276.699554 454.392883,275.044281 453.551575,274.240906 
	C450.874786,271.684937 447.895081,269.446136 445.032440,267.084778 
z"/>
<path fill="#120D0D" opacity="1.000000" stroke="none" 
	d="
M444.842926,266.733795 
	C447.895081,269.446136 450.874786,271.684937 453.551575,274.240906 
	C454.392883,275.044281 454.420776,276.699554 454.820984,277.964905 
	C453.868805,278.054901 452.916565,278.144897 451.631470,278.158051 
	C447.938110,274.200287 444.577606,270.319427 441.146545,266.130493 
	C442.268494,266.009247 443.460938,266.196045 444.842926,266.733795 
z"/>
<path fill="#170E0E" opacity="1.000000" stroke="none" 
	d="
M409.290955,197.132858 
	C414.008667,193.607666 419.087219,190.244034 424.526550,186.855438 
	C424.305695,188.035477 424.045074,189.801361 423.087463,190.349426 
	C418.715881,192.851349 414.148682,195.011459 409.290955,197.132858 
z"/>
<path fill="#2D1415" opacity="1.000000" stroke="none" 
	d="
M503.650146,251.021301 
	C503.106293,251.094482 502.876892,251.082458 502.307343,251.016220 
	C505.765106,247.217560 509.563049,243.473129 513.713501,239.886444 
	C510.698853,243.674805 507.331726,247.305450 503.650146,251.021301 
z"/>
<path fill="#2D1415" opacity="1.000000" stroke="none" 
	d="
M467.951263,229.174042 
	C467.895203,228.960327 467.839111,228.746613 467.625305,228.241302 
	C471.386169,229.183411 474.647186,231.126770 475.186646,235.710449 
	C474.135559,235.949203 473.535583,235.997925 472.935638,236.046646 
	C472.935638,236.046646 472.999817,236.007812 473.316010,235.796326 
	C471.738556,233.447891 469.844910,231.310959 467.951263,229.174042 
z"/>
<path fill="#120D0D" opacity="1.000000" stroke="none" 
	d="
M433.143433,256.660339 
	C434.595123,257.476227 436.145813,258.601288 437.882812,259.353485 
	C438.069122,258.980652 438.000305,259.002319 437.640167,259.172607 
	C437.701508,260.018066 438.123016,260.693268 438.544495,261.368439 
	C438.346497,261.572235 438.148529,261.776031 437.620300,262.250946 
	C435.940857,260.671234 434.591675,258.820374 433.143433,256.660339 
z"/>
<path fill="#F4F2F2" opacity="1.000000" stroke="none" 
	d="
M472.958435,236.412201 
	C473.535583,235.997925 474.135559,235.949203 475.066711,236.069733 
	C475.804932,237.325348 476.211945,238.411758 476.283203,239.781067 
	C474.958679,238.968582 473.969940,237.873154 472.958435,236.412201 
z"/>
<path fill="#2D1415" opacity="1.000000" stroke="none" 
	d="
M517.737793,236.746429 
	C517.366882,237.540329 516.575317,238.335709 515.444458,239.106110 
	C515.842529,238.303406 516.579834,237.525665 517.737793,236.746429 
z"/>
<path fill="#F4F2F2" opacity="1.000000" stroke="none" 
	d="
M476.988373,240.515808 
	C476.707855,240.759689 476.381134,240.669739 475.985687,240.304611 
	C476.258698,240.080276 476.600433,240.131134 476.988373,240.515808 
z"/>
<path fill="#2D1415" opacity="1.000000" stroke="none" 
	d="
M514.736084,238.910919 
	C514.928101,239.407791 514.772095,239.718781 514.323181,240.051544 
	C514.149536,239.623901 514.268799,239.174454 514.736084,238.910919 
z"/>
<path fill="#170E0E" opacity="1.000000" stroke="none" 
	d="
M408.073303,197.957413 
	C407.951141,197.621628 408.180847,197.315308 408.704010,196.966614 
	C408.806702,197.278458 408.615936,197.632675 408.073303,197.957413 
z"/>
<path fill="#F4F2F2" opacity="1.000000" stroke="none" 
	d="
M467.958282,229.377350 
	C469.844910,231.310959 471.738556,233.447891 473.296448,235.828354 
	C469.821136,235.690887 468.033112,234.042358 467.992920,230.374939 
	C468.002960,229.985779 467.965302,229.580658 467.958282,229.377350 
z"/>
<path fill="#FBF4F5" opacity="1.000000" stroke="none" 
	d="
M438.781189,261.501648 
	C438.123016,260.693268 437.701508,260.018066 437.650879,259.137634 
	C439.009460,259.727509 439.997192,260.522644 440.984894,261.317749 
	C440.329224,261.423431 439.673553,261.529144 438.781189,261.501648 
z"/>
</svg>