<svg version="1.1" id="Layer_1" xmlns="http://www.w3.org/2000/svg" xmlns:xlink="http://www.w3.org/1999/xlink" x="0px" y="0px"
	 width="100%" viewBox="0 0 832 352" enable-background="new 0 0 832 352" xml:space="preserve">
<path fill="#000000" opacity="1.000000" stroke="none" 
	d="
M356.071350,309.623657 
	C377.582397,305.626892 398.693329,301.642517 419.800446,294.799622 
	C412.302704,291.391205 407.282501,285.749420 401.236847,281.517365 
	C391.021423,274.366394 383.371368,264.238770 373.448608,257.017456 
	C365.046143,250.902527 357.896179,243.545425 350.223907,236.773636 
	C347.194305,234.099625 344.408905,230.212448 341.903229,226.631592 
	C336.949524,219.552261 330.218414,213.801056 326.527557,205.787933 
	C323.994080,200.287582 319.354218,196.370819 315.680817,191.722687 
	C310.654785,185.363007 310.377747,177.154846 307.768585,169.845825 
	C304.775818,161.462143 305.828186,153.183517 307.060181,144.478149 
	C308.360870,135.287628 309.247559,126.123344 312.259277,117.292984 
	C314.447693,110.876495 317.811676,104.896172 318.868805,98.028915 
	C319.148743,96.210266 321.250977,94.524864 322.794312,93.073753 
	C329.084076,87.159805 333.120117,78.841942 342.480499,76.202339 
	C352.477875,73.383080 362.620361,73.133034 372.667175,74.119720 
	C385.039795,75.334816 397.372894,77.625046 408.223511,84.389000 
	C416.130127,89.317734 423.397705,95.044189 428.952576,102.677238 
	C430.118195,104.278893 431.230560,105.962166 433.372162,106.536224 
	C435.095337,104.917221 434.607941,102.817596 434.621918,100.906456 
	C434.682678,92.573738 434.083771,84.192215 434.785492,75.918404 
	C435.859436,63.255764 430.976593,52.995312 423.746307,43.284237 
	C421.399017,40.131535 419.543457,36.606083 417.541718,33.204769 
	C415.788696,30.226034 416.777161,28.044943 419.847717,26.870176 
	C427.300812,24.018713 434.696960,20.564547 442.974945,21.714773 
	C447.840576,22.390858 451.995880,19.749159 456.655273,19.517689 
	C461.518433,19.276100 464.152069,20.811396 464.217621,25.757294 
	C464.429565,41.753380 465.956879,57.995647 463.690643,73.667793 
	C462.193512,84.021088 460.813751,95.296860 454.911438,104.807350 
	C454.263336,105.851662 454.024811,106.915108 454.406250,108.682846 
	C461.467651,102.698700 467.388031,95.995667 474.772888,90.858910 
	C479.289673,87.717155 483.952606,85.981087 489.040894,85.794846 
	C500.005219,85.393539 511.151855,84.673981 521.820190,87.721542 
	C535.279053,91.566246 547.534424,97.673073 555.301270,110.214684 
	C555.652100,110.781189 555.960693,111.394516 556.405457,111.879105 
	C566.200500,122.551407 565.441589,134.915894 562.896179,147.956741 
	C561.752686,153.814697 560.325928,159.587448 559.155029,165.408813 
	C555.791077,182.132538 547.104919,196.306854 538.641602,210.605270 
	C534.264526,218.000229 527.956055,224.137909 524.697815,232.353088 
	C523.892029,234.384659 521.101807,235.706970 519.087219,237.166779 
	C512.968506,241.600540 509.039276,248.282684 502.917053,252.716110 
	C490.214355,261.914886 478.224640,271.954773 463.844757,278.924011 
	C454.106384,283.643707 445.319916,290.472321 435.072632,295.227386 
	C444.429291,298.602356 452.925507,303.445404 462.624908,305.813354 
	C477.769836,309.510712 493.032135,308.345062 508.286621,308.716125 
	C511.910217,308.804321 513.934937,307.910706 515.977234,304.400238 
	C521.406311,295.068604 527.638794,286.197235 533.695984,277.240387 
	C538.883362,269.569763 540.267212,260.851593 541.786621,251.962875 
	C544.059998,238.663986 547.588623,225.664902 556.494690,214.909042 
	C556.811462,214.526428 557.151855,214.127167 557.563660,213.865265 
	C560.533264,211.976624 563.715637,207.665237 567.033997,210.604965 
	C569.972961,213.208572 569.308228,218.410980 567.092163,221.752716 
	C564.682129,225.387100 564.120361,229.002197 564.334900,233.042831 
	C564.723633,240.364166 560.589355,245.603806 556.083130,250.596786 
	C553.463928,253.498932 551.688354,256.763062 550.593262,260.409973 
	C552.179871,262.205231 554.134705,261.547943 555.880859,261.623291 
	C560.368225,261.816925 564.927673,261.444305 569.336365,262.108337 
	C576.984070,263.260101 578.661377,266.218536 577.316650,273.924957 
	C576.869446,276.487671 575.011841,276.852295 573.162537,277.590729 
	C565.167175,280.783295 556.658691,281.291199 548.271301,282.441559 
	C547.476440,282.550568 546.685669,282.689209 545.399902,282.891785 
	C547.734436,286.952576 551.886597,287.840393 554.985046,290.011597 
	C557.244019,291.594543 560.276855,291.929504 562.449890,293.912811 
	C563.844849,295.185944 565.378052,294.273193 566.648804,293.629883 
	C571.294495,291.278015 576.232910,289.987732 581.390747,289.437714 
	C579.642700,281.858948 580.375793,262.016144 582.478394,259.234161 
	C585.051025,259.928070 584.280090,262.097870 584.304932,263.744141 
	C584.395447,269.742584 584.350586,275.743317 584.322937,281.743073 
	C584.314148,283.651794 584.402832,285.488464 586.548889,286.287109 
	C588.550537,287.031982 589.526855,285.426544 590.793030,284.393250 
	C595.080017,280.894684 596.573181,275.893250 597.516418,270.871185 
	C598.186523,267.303009 600.233398,264.108429 600.114380,260.356934 
	C600.101440,259.950470 600.987671,259.515411 601.469360,259.082367 
	C605.146790,263.917480 601.745300,277.324005 593.970093,287.825928 
	C600.842163,286.550446 607.263672,287.135071 613.846802,285.241486 
	C613.109985,278.743774 611.827881,272.489929 609.808594,266.380615 
	C609.710144,266.082764 609.350769,265.876465 609.230042,265.579865 
	C608.438599,263.635101 612.652832,255.141937 615.508179,252.883911 
	C617.714478,251.139175 620.063293,251.321243 623.920959,254.206039 
	C618.989258,254.787857 616.883972,257.804840 615.340027,261.440857 
	C614.867920,262.552612 614.210999,263.567169 614.919861,264.705597 
	C617.939636,269.555908 617.495789,274.957397 617.285156,280.254852 
	C617.142212,283.850098 618.619019,285.016907 622.012512,284.717468 
	C630.779175,283.943909 639.555969,283.284973 650.135376,282.435120 
	C640.994385,276.401062 639.121887,266.101288 630.774048,260.739777 
	C632.713562,257.868744 634.758850,258.496399 636.738464,260.063324 
	C638.981812,261.838928 640.673279,264.077118 641.943542,266.681763 
	C644.163635,271.234070 647.291992,275.066589 651.678833,278.264557 
	C655.484863,269.362274 659.216492,260.634247 663.218079,251.274567 
	C666.190186,254.699234 665.357544,257.213745 664.156921,259.868683 
	C661.704712,265.290985 659.252747,270.720581 657.055908,276.248627 
	C655.648560,279.789795 655.696899,282.045227 660.866699,282.974243 
	C668.930908,284.423401 677.413208,285.070770 684.555481,289.985168 
	C685.736450,290.797729 687.336243,291.158142 688.795654,291.385040 
	C702.202271,293.469543 715.131226,297.743408 728.612793,299.638855 
	C740.708618,301.339508 752.566711,304.780579 764.950256,304.166748 
	C766.155273,304.107056 766.943542,304.641144 767.042480,305.773407 
	C767.221802,307.825592 765.744629,308.142548 764.136780,308.337250 
	C758.931030,308.967651 753.776489,307.943359 748.762695,307.123901 
	C732.565979,304.476654 716.361023,301.689270 700.370911,298.031097 
	C688.213989,295.249847 676.397522,290.997253 664.396057,287.514923 
	C654.159241,284.544617 643.814087,287.031799 633.603943,287.625702 
	C619.705627,288.434113 605.923767,291.289062 592.025635,292.041901 
	C579.289978,292.731750 568.001343,298.318146 555.840881,300.755707 
	C544.257080,303.077698 533.572754,308.465942 521.931519,310.672821 
	C518.514404,311.320648 515.230286,312.454895 511.661682,312.402161 
	C503.996918,312.288879 496.326416,312.237579 488.663330,312.399231 
	C472.100952,312.748596 456.351074,309.526276 441.349457,302.423340 
	C431.393890,297.709564 421.419098,297.790466 411.120667,302.075897 
	C405.991516,304.210297 400.223206,304.799286 394.663086,305.807648 
	C383.785553,307.780365 373.217224,311.243622 362.211121,312.723206 
	C359.894470,313.034668 357.608521,313.348480 355.279144,313.349243 
	C333.446350,313.356354 311.613556,313.335754 289.780792,313.369293 
	C275.546570,313.391174 261.838623,310.438568 248.152679,306.787476 
	C232.777847,302.685760 216.982407,303.400879 200.276917,303.367035 
	C203.830658,310.497803 203.634033,317.692627 206.999008,323.957947 
	C209.655853,328.904694 208.914459,334.582947 207.894775,339.628601 
	C207.098373,343.569366 202.243286,344.550171 198.543701,345.113708 
	C189.092163,346.553375 180.600876,343.331604 172.439529,338.908966 
	C169.441925,337.284576 168.797012,333.829834 166.474091,331.695557 
	C166.152344,331.399963 166.187866,330.396271 166.421844,329.887878 
	C166.797852,329.070984 167.721069,328.716949 168.535507,329.081848 
	C169.572113,329.546265 170.889450,330.049896 171.394409,330.932281 
	C176.507385,339.866730 185.594391,340.759766 194.187119,341.459412 
	C202.928986,342.171204 207.242035,336.841309 204.240753,328.574677 
	C201.796844,321.843201 200.353714,314.876312 197.958054,308.166748 
	C196.389053,303.772491 193.498581,302.556915 189.466202,303.473511 
	C185.954681,304.271759 182.557388,305.572418 179.314270,306.587036 
	C178.882309,309.532104 181.594086,310.572937 182.020157,313.183075 
	C175.956238,316.601196 176.763382,309.438385 173.415527,307.601318 
	C164.476501,312.829163 153.331909,313.829773 144.127319,319.753296 
	C142.896072,320.545654 141.567307,321.964996 140.295059,320.161316 
	C139.177322,318.576691 140.243286,317.319275 141.712479,316.538422 
	C145.368683,314.595215 144.698608,312.621307 142.793549,309.355957 
	C132.492340,291.699310 124.129997,273.094757 116.913719,253.977173 
	C114.491096,247.559067 112.046455,241.187485 106.392159,236.749130 
	C105.451622,236.010864 104.507751,235.073853 105.430534,233.815109 
	C106.491692,232.367630 107.837509,233.068756 108.985802,233.768433 
	C112.542458,235.935654 114.857544,239.272903 116.467552,242.925247 
	C120.225029,251.449158 123.574738,260.151947 127.262306,268.707825 
	C130.077621,275.239929 133.162445,281.655762 136.118347,288.127441 
	C137.720627,291.635437 139.905991,291.958710 142.735336,289.446838 
	C153.311325,280.057465 168.361450,285.364960 174.468597,295.578979 
	C178.239822,301.886230 178.626389,303.340912 186.161621,300.182556 
	C186.910339,299.868774 187.776016,299.809082 188.596252,299.694885 
	C193.097687,299.068207 193.606995,297.971313 191.516800,293.990540 
	C189.047043,289.286865 186.727539,284.504333 184.332962,279.761017 
	C183.764984,278.635956 183.489365,277.470825 184.604630,276.598267 
	C186.123886,275.409637 186.953812,276.871674 187.966263,277.643036 
	C188.986755,278.420502 189.195847,279.557953 189.536850,280.674164 
	C191.335449,286.561462 195.048203,291.556793 197.148773,297.381256 
	C198.661255,301.575104 203.160553,299.175995 206.795242,299.467163 
	C203.135208,290.926270 205.094528,282.363708 204.743652,273.966187 
	C204.606430,270.682373 207.019501,269.143005 209.844299,268.828400 
	C217.785767,267.944031 225.020645,269.378967 230.804352,275.590454 
	C232.746765,277.676544 232.615814,279.917755 231.962646,282.067322 
	C231.291763,284.275238 229.328598,285.491425 226.880280,285.302399 
	C220.967392,284.846008 215.060486,284.311890 208.816177,283.780609 
	C208.371582,288.198181 206.872665,292.687164 211.092484,295.849396 
	C215.339706,299.032166 220.419769,297.922180 225.062790,297.079163 
	C226.685211,296.784607 227.824341,293.999084 229.256104,292.416138 
	C230.042450,291.546783 231.065887,290.602936 232.276352,291.408478 
	C233.714676,292.365662 233.177933,293.726959 232.478851,294.947113 
	C231.593536,296.492371 229.896027,297.614380 230.057724,300.360382 
	C248.238373,299.736603 264.742004,308.810150 283.057648,309.228699 
	C301.172180,309.642639 319.251770,309.210327 337.438507,309.239532 
	C330.801880,305.869904 323.474915,304.246613 317.542145,299.557404 
	C315.634277,298.049438 314.448486,296.687531 314.660919,294.269592 
	C315.063477,289.687714 313.956085,285.080200 315.940430,280.488342 
	C317.381012,277.154724 319.617889,275.902008 322.751892,275.741394 
	C331.589417,275.288483 340.389252,275.562622 349.011139,277.871857 
	C349.490112,278.000122 349.989746,278.154694 350.399719,278.420441 
	C353.299713,280.300323 357.815369,280.891785 357.205292,285.782410 
	C356.642242,290.295807 352.419586,289.356079 349.660431,289.840790 
	C344.570038,290.735046 339.345764,290.869263 334.258423,288.914764 
	C339.506714,284.884064 346.152527,288.331329 351.709595,284.784210 
	C350.515808,283.026123 348.758087,281.862152 346.434021,281.366425 
	C339.745117,279.939575 333.029022,279.143646 326.146240,279.267059 
	C321.255463,279.354797 319.243927,282.037262 318.471069,286.154327 
	C317.126678,293.316040 318.910645,296.841614 326.332550,300.109314 
	C331.797729,302.515503 337.524445,304.526245 343.326569,305.906311 
	C348.055603,307.031128 350.450531,302.665009 353.253448,299.824005 
	C354.098755,298.967224 353.988098,297.180603 356.187958,297.253479 
	C360.101074,303.382812 353.227356,304.946869 350.975983,308.268188 
	C352.317383,310.324463 354.144165,309.382812 356.071350,309.623657 
M552.714355,173.310516 
	C555.715393,162.789902 558.684814,152.241180 560.317444,141.419296 
	C561.105103,136.198120 562.167419,130.328918 559.859314,125.643410 
	C555.844666,117.493607 551.385132,109.247627 544.124023,103.383469 
	C527.623474,90.057480 508.322479,87.695091 488.033936,89.977890 
	C485.114960,90.306320 482.120300,90.744690 479.526093,92.526123 
	C464.312225,102.973427 453.673584,117.534019 443.372833,132.432785 
	C440.696442,136.303879 441.427429,139.244446 445.121521,141.728653 
	C456.864044,149.625275 465.081329,161.214340 475.324524,170.698776 
	C482.623199,177.456848 486.466766,187.809097 496.801117,191.523575 
	C496.924011,191.567764 496.962341,191.809875 497.074554,191.926498 
	C502.484772,197.547806 506.976257,204.229080 514.845337,206.997208 
	C516.100403,207.438721 516.769714,208.844543 517.119263,210.159286 
	C518.406921,215.002197 522.859619,216.492874 526.217163,219.707443 
	C538.389404,205.949753 545.975281,190.313171 552.714355,173.310516 
M436.003113,54.974617 
	C439.425507,63.943489 438.448151,73.318336 438.254639,82.551147 
	C438.036072,92.977554 438.614044,103.389565 437.734711,113.867661 
	C437.328400,118.708824 437.497009,124.430519 439.164825,130.726685 
	C442.478088,124.379272 446.803680,120.223022 448.153534,113.770836 
	C448.947601,109.975075 448.198730,105.394905 450.545807,102.349907 
	C457.482483,93.350586 458.193512,82.079933 459.951263,72.013939 
	C462.435242,57.789207 460.717377,42.808521 460.530151,28.154375 
	C460.480225,24.247528 457.488708,22.392212 453.927338,23.961737 
	C450.533325,25.457500 447.123779,25.468912 443.660645,25.312742 
	C437.163574,25.019756 431.183350,26.839457 425.280823,29.243172 
	C421.866058,30.633785 421.717926,32.304363 423.771729,35.317039 
	C427.969543,41.474716 431.737640,47.925354 436.003113,54.974617 
M434.406403,239.070419 
	C432.906128,239.778717 431.346802,240.385376 429.917755,241.216202 
	C426.813263,243.021118 424.568237,244.758301 427.694916,248.856094 
	C433.477020,256.434052 440.762573,262.393127 447.961365,268.394867 
	C451.372589,271.238800 454.595856,273.929352 456.236542,278.123474 
	C465.971222,273.184967 475.327637,267.890289 484.441162,262.184906 
	C491.238068,257.929840 491.603394,254.511261 486.061646,248.685257 
	C481.876282,244.285248 477.825897,239.705719 473.249542,235.744339 
	C469.307495,232.332031 467.002838,227.512299 462.782471,224.457565 
	C460.649963,222.914062 458.517975,220.995850 455.647339,223.157700 
	C448.775452,228.332840 441.885498,233.483963 434.406403,239.070419 
M479.983765,183.457458 
	C474.825378,176.381348 469.508545,169.461060 461.833740,164.749329 
	C455.116058,173.642822 444.909943,177.742874 435.641205,184.194107 
	C440.396637,187.985092 443.450439,192.159485 445.814819,196.885651 
	C446.259918,197.775314 447.565491,198.574951 448.595795,198.768921 
	C451.979279,199.405884 453.444092,201.280899 454.406219,204.623901 
	C456.588837,212.207565 460.712219,213.577286 467.408386,209.515869 
	C469.540924,208.222412 471.893860,207.135773 473.680450,205.458633 
	C478.477386,200.955505 485.131500,198.895035 489.551697,193.798477 
	C486.278015,190.322311 483.328278,187.190094 479.983765,183.457458 
M408.785583,236.526596 
	C403.151337,228.321838 396.470367,221.009933 390.620209,214.441116 
	C377.125153,219.073517 368.545929,229.981613 355.658508,234.607941 
	C356.754028,236.346115 357.063141,236.925613 357.454041,237.443390 
	C363.478119,245.423050 372.537872,249.889511 379.654419,256.607605 
	C381.314819,258.175049 382.857544,257.026093 384.144958,256.104797 
	C391.283417,250.996414 398.261719,245.684753 407.232727,243.976349 
	C408.591003,243.717667 410.493195,243.044876 411.179596,240.810822 
	C410.561157,239.723923 409.831787,238.442078 408.785583,236.526596 
M411.086487,165.679718 
	C407.199982,161.847153 405.433899,165.770981 403.848602,168.035812 
	C398.618958,175.507141 393.107422,182.669830 385.666473,188.099442 
	C378.891205,193.043365 378.758759,194.194305 384.565704,200.592178 
	C385.346985,201.452881 386.278076,202.185776 387.003174,203.087692 
	C389.003693,205.576019 390.894928,205.294113 393.853271,204.148346 
	C404.107788,200.176727 412.242676,192.890610 421.457184,187.322601 
	C427.736633,183.528122 427.837311,180.158493 422.225708,175.126068 
	C418.768219,172.025406 415.130859,169.125275 411.086487,165.679718 
M143.816284,299.728699 
	C144.844345,301.091217 144.792007,303.030060 145.608673,304.247101 
	C147.377029,306.882416 147.394989,312.149689 152.037827,311.201172 
	C159.592499,309.657837 166.701843,306.549377 173.391632,302.809937 
	C171.020493,295.773865 166.268005,291.722809 159.970596,289.176788 
	C152.501663,286.157166 143.310349,291.623047 143.816284,299.728699 
M544.607727,271.982147 
	C543.628662,274.108215 540.563232,274.957916 540.714539,278.643066 
	C551.351929,277.983368 561.662781,277.533325 571.523376,273.738831 
	C573.214233,273.088165 573.673096,271.868744 573.607605,270.215729 
	C573.522156,268.056976 572.313660,266.997253 570.345093,266.409485 
	C565.307739,264.905457 560.125854,265.715790 555.030029,265.286285 
	C550.024475,264.864410 546.669983,266.576843 544.607727,271.982147 
M549.883850,251.502533 
	C556.860107,243.978348 562.409241,235.887909 560.718994,224.825882 
	C560.436890,222.979477 561.862976,221.830566 562.847107,220.490936 
	C564.068176,218.828751 565.326233,217.054047 563.450684,213.920807 
	C550.411560,227.172760 546.884766,243.398209 545.128601,260.368744 
	C546.581482,257.615448 548.034302,254.862167 549.883850,251.502533 
M554.055359,296.940735 
	C554.796936,296.472412 556.148193,297.169067 556.452576,295.541962 
	C550.070007,293.459198 545.333801,288.393402 539.042664,285.321411 
	C537.798218,289.691132 538.566650,293.504181 538.359009,297.252625 
	C538.193787,300.234436 539.542603,301.095398 542.376770,300.222931 
	C546.016541,299.102539 549.714600,298.171234 554.055359,296.940735 
M217.675323,280.668701 
	C221.083664,279.911438 225.008759,283.865173 228.245712,279.585815 
	C225.939178,275.780609 222.396118,274.109802 218.516953,273.002350 
	C215.451828,272.127228 212.309418,271.550690 209.435898,273.530975 
	C208.398880,274.245667 208.109970,275.548859 208.756256,276.677460 
	C210.533203,279.780457 213.562561,280.499939 217.675323,280.668701 
M521.945251,302.985718 
	C521.412476,304.036713 520.072998,304.801758 520.678894,306.596954 
	C525.267700,304.404541 530.605652,305.480164 535.182312,302.318939 
	C530.773926,298.384888 533.802002,292.942169 531.852905,287.833099 
	C528.425110,293.083221 525.373291,297.757599 521.945251,302.985718 
z"/>
<path fill="#000000" opacity="1.000000" stroke="none" 
	d="
M278.405029,303.365356 
	C280.689484,304.012878 282.076538,302.076263 283.856262,302.178589 
	C285.664307,303.541321 285.760071,305.262482 284.552368,306.596741 
	C282.641327,308.708069 279.947968,308.057953 277.490692,307.784576 
	C274.849396,307.490753 273.098145,305.879608 272.839478,303.321899 
	C272.456207,299.531738 272.237274,295.690338 273.996277,292.055817 
	C274.913574,290.160492 276.108429,288.282928 275.770081,286.042358 
	C272.363922,284.286682 268.331726,286.658234 264.953064,283.977295 
	C266.437622,280.662384 269.331787,281.491180 271.427673,281.765076 
	C276.649780,282.447601 279.334564,280.308441 281.027527,275.471130 
	C284.549042,265.409119 292.061066,257.810333 298.004272,249.250961 
	C299.424866,247.205063 301.145203,245.419968 301.728058,242.866928 
	C302.222931,240.699539 303.338745,238.903488 305.620178,238.096512 
	C308.024597,239.383987 307.039459,240.906845 306.306305,242.703644 
	C302.678406,251.595093 295.920197,258.386749 290.668701,266.179413 
	C287.585907,270.754028 284.858582,275.342316 283.733154,281.106445 
	C292.223114,282.787018 300.860229,280.203979 309.224213,282.755066 
	C307.955444,286.028320 305.850433,285.288116 304.180817,285.310974 
	C297.688416,285.399811 291.193359,285.408661 284.700867,285.325073 
	C282.218109,285.293121 280.666809,286.078796 279.865692,288.601715 
	C278.912994,291.601929 277.310974,294.414612 276.544067,297.448486 
	C276.055511,299.381165 275.588013,301.840820 278.405029,303.365356 
z"/>
<path fill="#000000" opacity="1.000000" stroke="none" 
	d="
M681.923157,262.677795 
	C685.650513,262.577454 687.953064,264.305328 690.024170,266.656677 
	C691.690857,268.548981 691.633423,270.667999 690.925537,272.730957 
	C690.235229,274.742767 688.203430,274.272156 686.603333,274.342072 
	C683.140564,274.493347 679.681885,274.363129 676.317078,273.674835 
	C674.335144,280.127594 675.294617,281.628845 681.301514,281.639404 
	C683.623840,281.643494 685.953247,281.513855 688.266602,281.303925 
	C689.575806,281.185120 690.671082,281.305939 690.979309,282.744019 
	C691.281189,284.152405 690.442200,285.109436 689.127319,285.140808 
	C684.475464,285.251740 679.818542,285.253265 675.166687,285.152771 
	C674.468079,285.137695 673.468933,284.522766 673.146545,283.904816 
	C670.611328,279.044739 670.944641,273.724884 672.397949,268.886261 
	C673.536377,265.095886 676.606323,262.019379 681.923157,262.677795 
M682.130249,266.667938 
	C680.102417,266.139679 678.596680,266.507812 678.066040,269.014526 
	C680.930908,270.760315 683.692627,271.255737 686.730774,269.956726 
	C686.028931,267.679260 684.333130,267.385437 682.130249,266.667938 
z"/>
<path fill="#000000" opacity="1.000000" stroke="none" 
	d="
M715.931274,269.661316 
	C721.913879,270.389801 726.827698,269.142517 730.630554,264.551453 
	C732.601685,268.980042 729.769836,273.031281 725.079895,273.267303 
	C720.425842,273.501495 715.751648,273.335632 711.086243,273.341278 
	C704.245850,273.349579 700.988586,276.345886 700.380249,283.294037 
	C700.220764,285.115692 700.314575,286.958252 700.199951,288.785461 
	C700.120605,290.049561 699.587280,291.062958 698.104370,291.064606 
	C696.672729,291.066193 696.009583,290.121368 695.836853,288.865845 
	C694.797302,281.310181 695.888245,274.052124 699.177368,267.177826 
	C699.958252,265.545776 702.312744,265.131775 702.957825,266.270203 
	C706.095581,271.807495 711.219055,268.913239 715.931274,269.661316 
z"/>
<path fill="#000000" opacity="1.000000" stroke="none" 
	d="
M243.525345,278.649536 
	C242.463562,276.437469 239.328583,275.195892 241.660614,272.479767 
	C243.731125,271.326294 244.452805,274.180695 246.774612,273.702209 
	C251.873947,263.875488 261.343170,265.170013 270.445465,265.958862 
	C273.062927,266.185699 275.689026,266.605011 278.338776,266.716187 
	C279.699860,266.773315 281.217072,266.926971 281.033386,268.806396 
	C280.880981,270.366241 279.435791,270.180542 278.307068,270.331940 
	C273.121765,271.027374 268.103302,269.281036 262.952789,269.320557 
	C254.192612,269.387756 248.546585,274.917816 248.345123,283.844727 
	C248.251404,287.997498 248.242538,292.152374 248.120834,296.304169 
	C248.094666,297.196442 247.459106,297.785645 245.877014,297.976288 
	C242.736359,292.032898 246.378815,285.050903 243.525345,278.649536 
z"/>
</svg>