<svg width="174" height="7" viewBox="0 0 174 7" fill="none" xmlns="http://www.w3.org/2000/svg">
<path d="M150 3.5H173.5" stroke="black"/>
<path d="M125 3.5L147 3.5" stroke="black"/>
<path d="M100 3.5L122 3.5" stroke="black"/>
<path d="M50 3.5L72 3.5" stroke="black"/>
<path d="M25 3.5L47 3.5" stroke="black"/>
<path d="M0 3.5L22 3.5" stroke="black"/>
<path d="M75 3.5L97 3.5" stroke="black"/>
<path d="M0 1H22.5C23.0523 1 23.5 1.44772 23.5 2V5C23.5 5.55228 23.9477 6 24.5 6H47.5C48.0523 6 48.5 5.55228 48.5 5V2C48.5 1.44772 48.9477 1 49.5 1H72.5C73.0523 1 73.5 1.44772 73.5 2V5C73.5 5.55228 73.9477 6 74.5 6H97.5C98.0523 6 98.5 5.55228 98.5 5V2C98.5 1.44772 98.9477 1 99.5 1H122.5C123.052 1 123.5 1.44772 123.5 2V5C123.5 5.55228 123.948 6 124.5 6H147.5C148.052 6 148.5 5.55228 148.5 5V2C148.5 1.44772 148.948 1 149.5 1H173.5" stroke="#7D4D3D"/>
</svg>
