<svg width="1881" height="1881" viewBox="0 0 1881 1881" fill="none" xmlns="http://www.w3.org/2000/svg">
<path d="M953.835 585.536L300.115 1239.26L414.312 1353.45L459.214 1398.36L774.23 1713.37L813.828 1752.97L941.107 1880.25L1594.83 1226.53C1806.39 971.405 1664.59 720.947 1567.25 627.609C1329.1 386.062 1059.08 498.916 953.835 585.536Z" fill="white"/>
<path d="M324.208 615.536C84.0904 860.21 208.305 1133.91 300.428 1240.17L941.774 598.826C692.675 370.658 426.272 514.896 324.208 615.536Z" fill="#7D4D3D"/>
<path d="M940.647 1880L981.878 1838.77L1064.06 1756.44L1028.17 1721.83L859.879 1716.77L818.648 1758L940.647 1880Z" fill="#7D4D3D"/>
<path d="M939.999 597.999L981.23 639.23L1063.41 721.556L1027.52 756.167L859.231 761.229L818 719.998L939.999 597.999Z" fill="#7D4D3D"/>
<path d="M1225.27 1001.5L635.543 1002.22L930.045 1296.72L1225.27 1001.5Z" fill="#7D4D3D"/>
<path d="M988.931 1263.7L1230.28 1505.04L634.094 1497.86L869.148 1262.81L929.484 1323.14L988.931 1263.7Z" fill="#7D4D3D"/>
<path d="M1241.77 1493.53L1228.84 1023.76L1000.43 1252.18L1241.77 1493.53Z" fill="#7D4D3D"/>
<path d="M632.681 1476.28L632.681 1025.19L858.227 1250.74L632.681 1476.28Z" fill="#7D4D3D"/>
</svg>
