<svg xmlns="http://www.w3.org/2000/svg" fill="none" viewBox="181.79 474.7 1522.98 1405.55">
<path d="M324.409 616.466C88.627 856.804 214.179 1129.16 306.428 1235.3L936.302 605.429C687.39 377.073 424.66 517.639 324.409 616.466Z" fill="#7D4D3D" stroke="white" stroke-width="15"/>
<path d="M953.839 585.538L300.118 1239.26L414.316 1353.46L459.217 1398.36L774.234 1713.37L813.831 1752.97L941.111 1880.25L1594.83 1226.53C1806.4 971.407 1664.6 720.949 1567.25 627.611C1329.1 386.064 1059.08 498.918 953.839 585.538Z" fill="white"/>
<path d="M940.999 1869.48L982.23 1828.25L1064.41 1745.93L1028.52 1711.32L860.231 1706.25L819 1747.48L940.999 1869.48Z" fill="#7D4D3D" stroke="white" stroke-width="15"/>
<path d="M940.007 605.005L981.238 646.236L1063.42 728.562L1027.53 763.173L859.239 768.235L818.008 727.004L940.007 605.005Z" fill="#7D4D3D" stroke="white" stroke-width="10"/>
<path d="M1225.27 1001.51L635.547 1002.22L930.049 1296.73L1225.27 1001.51Z" fill="#7D4D3D"/>
<path d="M988.935 1263.7L1230.28 1505.05L634.098 1497.87L869.152 1262.81L929.488 1323.15L988.935 1263.7Z" fill="#7D4D3D"/>
<path d="M1241.78 1493.54L1228.85 1023.77L1000.43 1252.19L1241.78 1493.54Z" fill="#7D4D3D"/>
<path d="M632.685 1476.29L632.685 1025.19L858.23 1250.74L632.685 1476.29Z" fill="#7D4D3D"/>
</svg>