<svg xmlns="http://www.w3.org/2000/svg" fill="none" viewBox="31.16 -0.5 312.13 329.87">
<path d="M158.539 85.9268L186.608 113.997L82.3301 218.275L54.2604 190.205C25.4648 161.409 25.4648 114.722 54.2604 85.9268C83.0561 57.1312 129.743 57.1312 158.539 85.9268Z" fill="white" stroke="white" stroke-width="3"/>
<path d="M320.115 190.145L291.973 218.117L187.9 114.539L216.362 86.0768C245.056 57.3826 291.579 57.3826 320.273 86.0768C349.029 114.833 348.958 161.477 320.115 190.145Z" stroke="white" stroke-width="3"/>
<mask id="path-3-inside-1_330_3311" fill="white">
<path d="M81 219.066L117.533 182.533L154 219L117.467 255.533L81 219.066Z"/>
</mask>
<path d="M81 219.066L117.533 182.533L154 219L117.467 255.533L81 219.066Z" fill="white"/>
<path d="M81 219.066L79.5858 217.652L77.4645 219.773L78.8787 221.187L81 219.066ZM117.533 182.533L118.947 181.119L117.533 179.705L116.119 181.119L117.533 182.533ZM154 219L155.414 220.414L156.828 219L155.414 217.586L154 219ZM117.467 255.533L115.346 257.654L116.76 259.068L118.881 256.947L117.467 255.533ZM82.4142 220.48L118.947 183.947L116.119 181.119L79.5858 217.652L82.4142 220.48ZM116.119 183.947L152.586 220.414L155.414 217.586L118.947 181.119L116.119 183.947ZM152.586 217.586L116.053 254.119L118.881 256.947L155.414 220.414L152.586 217.586ZM119.588 253.412L83.1213 216.945L78.8787 221.187L115.346 257.654L119.588 253.412Z" fill="white" mask="url(#path-3-inside-1_330_3311)"/>
<rect x="117.77" y="183.711" width="48" height="48" transform="rotate(-45 117.77 183.711)" stroke="white" stroke-width="2"/>
<rect x="152.133" y="149.719" width="50.3194" height="49.3097" transform="rotate(-45 152.133 149.719)" fill="white" stroke="white" stroke-width="2"/>
<mask id="path-7-inside-2_330_3311" fill="white">
<path d="M116.355 254.421L151.711 219.066L187.066 254.421L151.711 289.776L116.355 254.421Z"/>
</mask>
<path d="M116.355 254.421L114.941 253.007L112.82 255.128L114.234 256.542L116.355 254.421ZM151.711 219.066L153.125 217.652L151.711 216.237L150.296 217.652L151.711 219.066ZM187.066 254.421L188.48 255.835L189.894 254.421L188.48 253.007L187.066 254.421ZM151.711 289.776L149.589 291.898L151.004 293.312L153.125 291.191L151.711 289.776ZM117.77 255.835L153.125 220.48L150.296 217.652L114.941 253.007L117.77 255.835ZM150.296 220.48L185.652 255.835L188.48 253.007L153.125 217.652L150.296 220.48ZM185.652 253.007L150.296 288.362L153.125 291.191L188.48 255.835L185.652 253.007ZM153.832 287.655L118.477 252.3L114.234 256.542L149.589 291.898L153.832 287.655Z" fill="white" mask="url(#path-7-inside-2_330_3311)"/>
<rect x="150.414" y="219" width="51.7401" height="51.7401" transform="rotate(-45 150.414 219)" fill="white" stroke="white" stroke-width="2"/>
<rect x="188.48" y="183.711" width="48" height="48" transform="rotate(-45 188.48 183.711)" stroke="white" stroke-width="2"/>
<mask id="path-11-inside-3_330_3311" fill="white">
<path d="M150.467 288.533L187 252L223.599 288.599L187.066 325.132L150.467 288.533Z"/>
</mask>
<path d="M150.467 288.533L187 252L223.599 288.599L187.066 325.132L150.467 288.533Z" fill="white"/>
<path d="M150.467 288.533L149.053 287.119L146.932 289.24L148.346 290.654L150.467 288.533ZM187 252L188.414 250.586L187 249.172L185.586 250.586L187 252ZM223.599 288.599L225.72 290.72L227.135 289.306L225.013 287.185L223.599 288.599ZM187.066 325.132L184.945 327.253L187.066 329.375L189.187 327.253L187.066 325.132ZM151.881 289.947L188.414 253.414L185.586 250.586L149.053 287.119L151.881 289.947ZM185.586 253.414L222.185 290.013L225.013 287.185L188.414 250.586L185.586 253.414ZM221.478 286.478L184.945 323.011L189.187 327.253L225.72 290.72L221.478 286.478ZM189.187 323.011L152.588 286.412L148.346 290.654L184.945 327.253L189.187 323.011Z" fill="white" mask="url(#path-11-inside-3_330_3311)"/>
<mask id="path-13-inside-4_330_3311" fill="white">
<path d="M187.066 254.421L222.421 219.066L257.777 254.421L222.421 289.776L187.066 254.421Z"/>
</mask>
<path d="M187.066 254.421L185.652 253.007L184.238 254.421L185.652 255.835L187.066 254.421ZM222.421 219.066L223.836 217.652L222.421 216.237L221.007 217.652L222.421 219.066ZM257.777 254.421L259.898 256.542L261.312 255.128L259.191 253.007L257.777 254.421ZM222.421 289.776L221.007 291.191L223.128 293.312L224.543 291.898L222.421 289.776ZM188.48 255.835L223.836 220.48L221.007 217.652L185.652 253.007L188.48 255.835ZM221.007 220.48L256.363 255.835L259.191 253.007L223.836 217.652L221.007 220.48ZM255.655 252.3L220.3 287.655L224.543 291.898L259.898 256.542L255.655 252.3ZM223.836 288.362L188.48 253.007L185.652 255.835L221.007 291.191L223.836 288.362Z" fill="white" mask="url(#path-13-inside-4_330_3311)"/>
<mask id="path-15-inside-5_330_3311" fill="white">
<path d="M220.452 218.986L256.752 182.686L293.132 219.066L256.832 255.366L220.452 218.986Z"/>
</mask>
<path d="M220.452 218.986L256.752 182.686L293.132 219.066L256.832 255.366L220.452 218.986Z" fill="white"/>
<path d="M220.452 218.986L219.038 217.572L217.623 218.986L219.038 220.401L220.452 218.986ZM256.752 182.686L258.166 181.272L256.752 179.858L255.338 181.272L256.752 182.686ZM293.132 219.066L295.253 221.187L296.668 219.773L294.546 217.652L293.132 219.066ZM256.832 255.366L255.418 256.781L257.539 258.902L258.953 257.488L256.832 255.366ZM221.866 220.401L258.166 184.1L255.338 181.272L219.038 217.572L221.866 220.401ZM255.338 184.1L291.718 220.48L294.546 217.652L258.166 181.272L255.338 184.1ZM291.011 216.945L254.711 253.245L258.953 257.488L295.253 221.187L291.011 216.945ZM258.246 253.952L221.866 217.572L219.038 220.401L255.418 256.781L258.246 253.952Z" fill="white" mask="url(#path-15-inside-5_330_3311)"/>
<line x1="173.5" y1="101.385" x2="173.5" y2="2.61674" stroke="white" stroke-width="3"/>
<path d="M201 102L201 1.00002" stroke="white" stroke-width="3"/>
<path d="M172 2L202.5 2" stroke="white" stroke-width="3"/>
</svg>