<svg width="1883" height="1882" viewBox="0 0 1883 1882" fill="none" xmlns="http://www.w3.org/2000/svg">
<path d="M954.878 586.05L299.97 1240.96L414.167 1355.16L459.069 1400.06L774.085 1715.07L813.683 1754.67L940.962 1881.95L1595.87 1227.04C1807.86 971.494 1666.16 720.938 1568.81 627.603C1330.66 386.053 1060.29 499.255 954.878 586.05Z" fill="#f9f7f5"/>
<path d="M326.619 614.706C88.9982 856.818 220.187 1134.49 310.99 1239.29L432.5 1122.82L552.5 1228.5C545.388 982.361 760.287 878.304 869 858.5L782.599 769.803L822.438 729.965L937.04 844.567L1060.59 721.019L936.654 597.085C691.017 372.16 427.615 515.113 326.619 614.706Z" fill="#7D4D3D"/>
<path d="M1104.31 765.044L1468 1136L1344.5 1255.38L1448.74 1358.27L1097.13 1709.89L1011 1622.5C1112.7 1599.88 1313.73 1488.95 1335.5 1246.5C1329.02 1137.63 1263.08 905.572 1019.95 849.407L1104.31 765.044Z" fill="#7D4D3D"/>
<path d="M1335.5 1246.5C1329.02 1137.63 1263.08 905.572 1019.95 849.407L1104.31 765.044L1468 1136L1344.5 1255.38L1335.5 1246.5ZM1335.5 1246.5L1448.74 1358.27L1097.13 1709.89L1011 1622.5C1112.7 1599.88 1313.73 1488.95 1335.5 1246.5ZM310.99 1239.29C220.188 1134.49 88.9982 856.818 326.619 614.706C427.615 515.113 691.017 372.16 936.654 597.085L1060.59 721.019L937.04 844.567L822.438 729.965L782.599 769.803L869 858.5C760.287 878.304 545.388 982.361 552.5 1228.5L432.5 1122.82L310.99 1239.29Z" stroke="#f9f7f5" stroke-width="15"/>
<path d="M946 926L865 853C933.165 838.009 1002.1 843.143 1024.73 849.507L946 926Z" fill="#7D4D3D"/>
<path d="M940.502 1546.5L1019.22 1625.01C953.736 1655.52 878.097 1638.88 855.537 1631.82L940.502 1546.5Z" fill="#7D4D3D"/>
<path d="M853.439 1629.51C601.955 1551.3 540.811 1322.5 543.134 1220.41L420.641 1343.9L779.8 1703.15L853.439 1629.51Z" fill="#7D4D3D"/>
<path d="M941.401 1857.78L1044.97 1754.21L934.944 1644.19L831.379 1747.76L941.401 1857.78Z" fill="#7D4D3D"/>
<path d="M867.727 118.006V539.006L945.727 605.506L1003.73 557.506V118.006L867.727 118.006Z" stroke="#f9f7f5" stroke-width="15"/>
<path d="M848.389 1012.38L871.043 1128.19C870.269 1139.27 845.373 1159.97 832.383 1167.95C821.727 1174.5 817.035 1180.76 817.227 1181.5C823.205 1248.9 900.41 1325.98 937.888 1355.45C951.727 1366.33 962.123 1368.37 967.099 1367.01C974.339 1364 999.017 1343.37 1010.45 1333.43C1024.92 1319.22 1035.97 1321.06 1039.68 1323.76L1120.96 1386.56C1133.84 1395.07 1135.29 1401.47 1134.41 1403.61C1121.88 1490.6 1037.44 1495.43 996.785 1486.97C912.092 1450.01 859.26 1404.87 843.43 1386.92C768.855 1322.54 725.873 1200.78 713.704 1147.94C699.755 1062.62 756.383 1012.29 786.44 997.8C799.835 990.536 820.093 998.201 828.548 1002.94C842.118 1001.55 847.43 1008.65 848.389 1012.38Z" fill="#7D4D3D"/>
<path d="M303.59 1243.91L943 604.5" stroke="#f9f7f5" stroke-width="20"/>
</svg>
