<svg width="376" height="303" viewBox="0 0 376 303" fill="none" xmlns="http://www.w3.org/2000/svg">
<path d="M158.846 63.5277L186.07 90.7513L82.1254 194.696L54.9018 167.472C26.1982 138.769 26.1982 92.2312 54.9018 63.5277C83.6053 34.8241 130.143 34.8241 158.846 63.5277Z" fill="white" stroke="white" stroke-width="3"/>
<path d="M321.098 167.472L293.874 194.696L189.93 90.7514L217.153 63.5277C245.857 34.8242 292.394 34.8242 321.098 63.5277C349.801 92.2313 349.801 138.769 321.098 167.472Z" stroke="white" stroke-width="3"/>
<mask id="path-3-inside-1_98_392" fill="white">
<path d="M81.8081 196.5L117.163 161.145L152.519 196.5L117.163 231.855L81.8081 196.5Z"/>
</mask>
<path d="M81.8081 196.5L117.163 161.145L152.519 196.5L117.163 231.855L81.8081 196.5Z" fill="white"/>
<path d="M81.8081 196.5L80.3939 195.086L78.2726 197.207L79.6868 198.621L81.8081 196.5ZM117.163 161.145L118.578 159.73L117.163 158.316L115.749 159.73L117.163 161.145ZM152.519 196.5L153.933 197.914L155.347 196.5L153.933 195.086L152.519 196.5ZM117.163 231.855L115.042 233.977L116.456 235.391L118.578 233.27L117.163 231.855ZM83.2223 197.914L118.578 162.559L115.749 159.73L80.3939 195.086L83.2223 197.914ZM115.749 162.559L151.105 197.914L153.933 195.086L118.578 159.73L115.749 162.559ZM151.105 195.086L115.749 230.441L118.578 233.27L153.933 197.914L151.105 195.086ZM119.285 229.734L83.9294 194.379L79.6868 198.621L115.042 233.977L119.285 229.734Z" fill="white" mask="url(#path-3-inside-1_98_392)"/>
<rect x="118.578" y="161.145" width="48" height="48" transform="rotate(-45 118.578 161.145)" stroke="white" stroke-width="2"/>
<rect x="153.933" y="125.789" width="48" height="48" transform="rotate(-45 153.933 125.789)" fill="white" stroke="white" stroke-width="2"/>
<mask id="path-7-inside-2_98_392" fill="white">
<path d="M117.164 231.855L152.519 196.5L187.874 231.855L152.519 267.211L117.164 231.855Z"/>
</mask>
<path d="M117.164 231.855L115.749 230.441L113.628 232.562L115.042 233.977L117.164 231.855ZM152.519 196.5L153.933 195.086L152.519 193.672L151.105 195.086L152.519 196.5ZM187.874 231.855L189.288 233.27L190.703 231.855L189.288 230.441L187.874 231.855ZM152.519 267.211L150.398 269.332L151.812 270.746L153.933 268.625L152.519 267.211ZM118.578 233.27L153.933 197.914L151.105 195.086L115.749 230.441L118.578 233.27ZM151.105 197.914L186.46 233.27L189.288 230.441L153.933 195.086L151.105 197.914ZM186.46 230.441L151.105 265.796L153.933 268.625L189.288 233.27L186.46 230.441ZM154.64 265.089L119.285 229.734L115.042 233.977L150.398 269.332L154.64 265.089Z" fill="white" mask="url(#path-7-inside-2_98_392)"/>
<rect x="153.933" y="196.5" width="48" height="48" transform="rotate(-45 153.933 196.5)" fill="white" stroke="white" stroke-width="2"/>
<rect x="189.288" y="161.145" width="48" height="48" transform="rotate(-45 189.288 161.145)" stroke="white" stroke-width="2"/>
<mask id="path-11-inside-3_98_392" fill="white">
<path d="M152.519 267.211L187.874 231.855L223.229 267.211L187.874 302.566L152.519 267.211Z"/>
</mask>
<path d="M152.519 267.211L187.874 231.855L223.229 267.211L187.874 302.566L152.519 267.211Z" fill="white"/>
<path d="M152.519 267.211L151.104 265.796L148.983 267.918L150.397 269.332L152.519 267.211ZM187.874 231.855L189.288 230.441L187.874 229.027L186.46 230.441L187.874 231.855ZM223.229 267.211L225.351 269.332L226.765 267.918L224.643 265.796L223.229 267.211ZM187.874 302.566L185.753 304.687L187.874 306.809L189.995 304.687L187.874 302.566ZM153.933 268.625L189.288 233.27L186.46 230.441L151.104 265.796L153.933 268.625ZM186.46 233.27L221.815 268.625L224.643 265.796L189.288 230.441L186.46 233.27ZM221.108 265.089L185.753 300.445L189.995 304.687L225.351 269.332L221.108 265.089ZM189.995 300.445L154.64 265.089L150.397 269.332L185.753 304.687L189.995 300.445Z" fill="white" mask="url(#path-11-inside-3_98_392)"/>
<mask id="path-13-inside-4_98_392" fill="white">
<path d="M187.874 231.855L223.229 196.5L258.585 231.855L223.229 267.211L187.874 231.855Z"/>
</mask>
<path d="M187.874 231.855L186.46 230.441L185.046 231.855L186.46 233.27L187.874 231.855ZM223.229 196.5L224.644 195.086L223.229 193.672L221.815 195.086L223.229 196.5ZM258.585 231.855L260.706 233.977L262.12 232.562L259.999 230.441L258.585 231.855ZM223.229 267.211L221.815 268.625L223.936 270.746L225.351 269.332L223.229 267.211ZM189.288 233.27L224.644 197.914L221.815 195.086L186.46 230.441L189.288 233.27ZM221.815 197.914L257.17 233.27L259.999 230.441L224.644 195.086L221.815 197.914ZM256.463 229.734L221.108 265.089L225.351 269.332L260.706 233.977L256.463 229.734ZM224.644 265.796L189.288 230.441L186.46 233.27L221.815 268.625L224.644 265.796Z" fill="white" mask="url(#path-13-inside-4_98_392)"/>
<mask id="path-15-inside-5_98_392" fill="white">
<path d="M223.229 196.5L258.585 161.145L293.94 196.5L258.585 231.855L223.229 196.5Z"/>
</mask>
<path d="M223.229 196.5L258.585 161.145L293.94 196.5L258.585 231.855L223.229 196.5Z" fill="white"/>
<path d="M223.229 196.5L221.815 195.086L220.401 196.5L221.815 197.914L223.229 196.5ZM258.585 161.145L259.999 159.73L258.585 158.316L257.171 159.73L258.585 161.145ZM293.94 196.5L296.061 198.621L297.476 197.207L295.354 195.086L293.94 196.5ZM258.585 231.855L257.171 233.27L259.292 235.391L260.706 233.977L258.585 231.855ZM224.644 197.914L259.999 162.559L257.171 159.73L221.815 195.086L224.644 197.914ZM257.171 162.559L292.526 197.914L295.354 195.086L259.999 159.73L257.171 162.559ZM291.819 194.379L256.464 229.734L260.706 233.977L296.061 198.621L291.819 194.379ZM259.999 230.441L224.644 195.086L221.815 197.914L257.171 233.27L259.999 230.441Z" fill="white" mask="url(#path-15-inside-5_98_392)"/>
<line x1="174.308" y1="79.4394" x2="174.308" y2="4.09834" stroke="white" stroke-width="3"/>
<line x1="199.308" y1="79.4394" x2="199.308" y2="4.09834" stroke="white" stroke-width="3"/>
<path d="M172.808 2.43408L200.808 2.43408" stroke="white" stroke-width="3"/>
</svg>
