<svg width="152" height="217" viewBox="0 0 152 217" fill="none" xmlns="http://www.w3.org/2000/svg">
<mask id="path-1-inside-1_65_253" fill="white">
<path d="M1.09583 75.5C1.09583 34.0787 34.6745 0.500031 76.0958 0.500031C117.517 0.500031 151.096 34.0787 151.096 75.5V115.5L1.09583 115.5L1.09583 75.5Z"/>
</mask>
<path d="M-1.90417 75.5C-1.90417 32.4218 33.0176 -2.49997 76.0958 -2.49997C119.174 -2.49997 154.096 32.4218 154.096 75.5H148.096C148.096 35.7355 115.86 3.50003 76.0958 3.50003C36.3313 3.50003 4.09583 35.7355 4.09583 75.5H-1.90417ZM151.096 115.5L1.09583 115.5L151.096 115.5ZM-1.90417 115.5L-1.90417 75.5C-1.90417 32.4218 33.0176 -2.49997 76.0958 -2.49997V3.50003C36.3313 3.50003 4.09583 35.7355 4.09583 75.5L4.09583 115.5H-1.90417ZM76.0958 -2.49997C119.174 -2.49997 154.096 32.4218 154.096 75.5V115.5H148.096V75.5C148.096 35.7355 115.86 3.50003 76.0958 3.50003V-2.49997Z" fill="white" mask="url(#path-1-inside-1_65_253)"/>
<path d="M2.40417 115.308L2.40417 215.308" stroke="white" stroke-width="3"/>
<path d="M52.4042 76.3084L52.4042 216.308" stroke="white" stroke-width="3"/>
<path d="M0.904175 215.308H150.904" stroke="white" stroke-width="3"/>
<path d="M99.4042 75.3084L99.4042 215.308" stroke="white" stroke-width="3"/>
<path d="M149.404 115.308V215.308" stroke="white" stroke-width="3"/>
</svg>
