<svg width="375" height="294" viewBox="0 0 375 294" fill="none" xmlns="http://www.w3.org/2000/svg">
<path d="M158.038 54.0936L185.262 81.3172L81.3173 185.262L54.0937 158.038C25.3901 129.335 25.3901 82.7971 54.0937 54.0936C82.7972 25.39 129.335 25.39 158.038 54.0936Z" stroke="white" stroke-width="3"/>
<path d="M320.29 158.038L293.066 185.262L189.121 81.3173L216.345 54.0937C245.049 25.3901 291.586 25.3901 320.29 54.0937C348.993 82.7972 348.993 129.335 320.29 158.038Z" stroke="white" stroke-width="3"/>
<mask id="path-3-inside-1_106_447" fill="white">
<path d="M81 187.066L116.355 151.711L151.711 187.066L116.355 222.421L81 187.066Z"/>
</mask>
<path d="M81 187.066L80.2929 186.359L78.1716 188.48L78.8787 189.187L81 187.066ZM116.355 151.711L117.77 150.296L117.062 149.589L115.648 151.003L116.355 151.711ZM151.711 187.066L153.125 188.48L154.539 187.066L153.125 185.652L151.711 187.066ZM116.355 222.421L114.234 224.543L115.648 225.957L117.77 223.835L116.355 222.421ZM81.7071 187.773L117.062 152.418L115.648 151.003L80.2929 186.359L81.7071 187.773ZM114.941 153.125L150.296 188.48L153.125 185.652L117.77 150.296L114.941 153.125ZM150.296 185.652L114.941 221.007L117.77 223.835L153.125 188.48L150.296 185.652ZM118.477 220.3L83.1213 184.945L78.8787 189.187L114.234 224.543L118.477 220.3Z" fill="white" mask="url(#path-3-inside-1_106_447)"/>
<mask id="path-5-inside-2_106_447" fill="white">
<path d="M116.355 151.711L151.711 116.355L187.066 151.711L151.711 187.066L116.355 151.711Z"/>
</mask>
<path d="M187.066 151.711L188.48 153.125L189.894 151.711L188.48 150.296L187.066 151.711ZM151.711 187.066L150.296 188.48L151.711 189.894L153.125 188.48L151.711 187.066ZM150.296 117.77L185.652 153.125L188.48 150.296L153.125 114.941L150.296 117.77ZM185.652 150.296L150.296 185.652L153.125 188.48L188.48 153.125L185.652 150.296ZM153.125 185.652L117.769 150.296L114.941 153.125L150.296 188.48L153.125 185.652Z" fill="white" mask="url(#path-5-inside-2_106_447)"/>
<mask id="path-7-inside-3_106_447" fill="white">
<path d="M151.711 116.355L187.066 80.9999L222.421 116.355L187.066 151.711L151.711 116.355Z"/>
</mask>
<path d="M151.711 116.355L151.004 115.648L149.589 117.062L150.296 117.769L151.711 116.355ZM187.066 80.9999L187.773 80.2928L187.066 79.5857L186.359 80.2928L187.066 80.9999ZM222.421 116.355L223.836 117.769L224.543 117.062L223.128 115.648L222.421 116.355ZM187.066 151.711L185.652 153.125L187.066 154.539L188.48 153.125L187.066 151.711ZM152.418 117.062L187.773 81.707L186.359 80.2928L151.004 115.648L152.418 117.062ZM186.359 81.707L221.714 117.062L223.128 115.648L187.773 80.2928L186.359 81.707ZM221.007 114.941L185.652 150.296L188.48 153.125L223.836 117.769L221.007 114.941ZM188.48 150.296L153.125 114.941L150.296 117.769L185.652 153.125L188.48 150.296Z" fill="white" mask="url(#path-7-inside-3_106_447)"/>
<mask id="path-9-inside-4_106_447" fill="white">
<path d="M116.355 222.421L151.711 187.066L187.066 222.421L151.711 257.776L116.355 222.421Z"/>
</mask>
<path d="M116.355 222.421L114.941 221.007L112.82 223.128L114.234 224.542L116.355 222.421ZM151.711 187.066L153.125 185.652L151.711 184.237L150.296 185.652L151.711 187.066ZM187.066 222.421L188.48 223.835L189.894 222.421L188.48 221.007L187.066 222.421ZM151.711 257.776L149.589 259.898L151.003 261.312L153.125 259.191L151.711 257.776ZM117.769 223.835L153.125 188.48L150.296 185.652L114.941 221.007L117.769 223.835ZM150.296 188.48L185.652 223.835L188.48 221.007L153.125 185.652L150.296 188.48ZM185.652 221.007L150.296 256.362L153.125 259.191L188.48 223.835L185.652 221.007ZM153.832 255.655L118.477 220.3L114.234 224.542L149.589 259.898L153.832 255.655Z" fill="white" mask="url(#path-9-inside-4_106_447)"/>
<rect x="153.125" y="187.066" width="48" height="48" transform="rotate(-45 153.125 187.066)" stroke="white" stroke-width="2"/>
<mask id="path-12-inside-5_106_447" fill="white">
<path d="M187.066 151.711L222.421 116.355L257.777 151.711L222.421 187.066L187.066 151.711Z"/>
</mask>
<path d="M187.066 151.711L185.652 150.296L184.237 151.711L185.652 153.125L187.066 151.711ZM222.421 116.355L223.128 115.648L221.714 114.234L221.007 114.941L222.421 116.355ZM257.777 151.711L259.191 153.125L259.898 152.418L258.484 151.004L257.777 151.711ZM222.421 187.066L221.007 188.48L222.421 189.894L223.835 188.48L222.421 187.066ZM188.48 153.125L223.835 117.77L221.007 114.941L185.652 150.296L188.48 153.125ZM221.714 117.062L257.069 152.418L258.484 151.004L223.128 115.648L221.714 117.062ZM256.362 150.296L221.007 185.652L223.835 188.48L259.191 153.125L256.362 150.296ZM223.835 185.652L188.48 150.296L185.652 153.125L221.007 188.48L223.835 185.652Z" fill="white" mask="url(#path-12-inside-5_106_447)"/>
<mask id="path-14-inside-6_106_447" fill="white">
<path d="M151.711 257.777L187.066 222.421L222.421 257.777L187.066 293.132L151.711 257.777Z"/>
</mask>
<path d="M151.711 257.777L150.296 256.362L148.175 258.484L149.589 259.898L151.711 257.777ZM187.066 222.421L188.48 221.007L187.066 219.593L185.652 221.007L187.066 222.421ZM222.421 257.777L224.543 259.898L225.957 258.484L223.836 256.362L222.421 257.777ZM187.066 293.132L184.945 295.253L187.066 297.375L189.187 295.253L187.066 293.132ZM153.125 259.191L188.48 223.835L185.652 221.007L150.296 256.362L153.125 259.191ZM185.652 223.835L221.007 259.191L223.836 256.362L188.48 221.007L185.652 223.835ZM220.3 255.655L184.945 291.011L189.187 295.253L224.543 259.898L220.3 255.655ZM189.187 291.011L153.832 255.655L149.589 259.898L184.945 295.253L189.187 291.011Z" fill="white" mask="url(#path-14-inside-6_106_447)"/>
<mask id="path-16-inside-7_106_447" fill="white">
<path d="M187.066 222.421L222.421 187.066L257.777 222.421L222.421 257.776L187.066 222.421Z"/>
</mask>
<path d="M187.066 222.421L185.652 221.007L184.237 222.421L185.652 223.835L187.066 222.421ZM222.421 187.066L223.835 185.652L222.421 184.237L221.007 185.652L222.421 187.066ZM257.777 222.421L259.898 224.542L261.312 223.128L259.191 221.007L257.777 222.421ZM222.421 257.776L221.007 259.191L223.128 261.312L224.543 259.898L222.421 257.776ZM188.48 223.835L223.835 188.48L221.007 185.652L185.652 221.007L188.48 223.835ZM221.007 188.48L256.362 223.835L259.191 221.007L223.835 185.652L221.007 188.48ZM255.655 220.3L220.3 255.655L224.543 259.898L259.898 224.542L255.655 220.3ZM223.835 256.362L188.48 221.007L185.652 223.835L221.007 259.191L223.835 256.362Z" fill="white" mask="url(#path-16-inside-7_106_447)"/>
<mask id="path-18-inside-8_106_447" fill="white">
<path d="M222.421 187.066L257.777 151.711L293.132 187.066L257.777 222.421L222.421 187.066Z"/>
</mask>
<path d="M222.421 187.066L221.007 185.652L219.593 187.066L221.007 188.48L222.421 187.066ZM257.777 151.711L258.484 151.003L257.07 149.589L256.363 150.296L257.777 151.711ZM293.132 187.066L295.253 189.187L295.96 188.48L293.839 186.359L293.132 187.066ZM257.777 222.421L256.363 223.835L258.484 225.957L259.898 224.543L257.777 222.421ZM223.836 188.48L259.191 153.125L256.363 150.296L221.007 185.652L223.836 188.48ZM257.07 152.418L292.425 187.773L293.839 186.359L258.484 151.003L257.07 152.418ZM291.011 184.945L255.655 220.3L259.898 224.543L295.253 189.187L291.011 184.945ZM259.191 221.007L223.836 185.652L221.007 188.48L256.363 223.835L259.191 221.007Z" fill="white" mask="url(#path-18-inside-8_106_447)"/>
</svg>
