<svg width="432" height="218" viewBox="0 0 432 218" fill="none" xmlns="http://www.w3.org/2000/svg">
<path d="M141 58.3738L140.179 57.8027L139.618 58.6092L140.415 59.1845L141 58.3738ZM249.004 42.876L249.65 42.1127L249.637 42.1017L249.624 42.0911L249.004 42.876ZM262.081 54.8714C262.632 54.8256 263.041 54.3423 262.995 53.7919L262.249 44.8229C262.203 44.2725 261.72 43.8634 261.169 43.9092C260.619 43.955 260.21 44.4383 260.256 44.9887L260.919 52.9611L252.946 53.6242C252.396 53.67 251.987 54.1533 252.033 54.7037C252.078 55.254 252.562 55.6631 253.112 55.6173L262.081 54.8714ZM149.001 46.8738L148.254 46.2092L148.215 46.2538L148.18 46.3027L149.001 46.8738ZM239.504 35.376L240.124 34.5911L240.101 34.5733L240.077 34.5567L239.504 35.376ZM205.504 21.376L205.662 20.3885L205.583 20.376L205.504 20.376L205.504 21.376ZM218.004 23.376L218.366 22.444L218.267 22.4054L218.162 22.3885L218.004 23.376ZM227.004 26.876L227.559 26.0439L227.468 25.9835L227.366 25.944L227.004 26.876ZM191.504 21.376L191.504 20.376L191.427 20.376L191.352 20.3876L191.504 21.376ZM164.998 30.8748L164.513 30.0005L164.42 30.0523L164.339 30.1225L164.998 30.8748ZM178.504 23.376L178.352 22.3876L178.175 22.4148L178.018 22.5017L178.504 23.376ZM157.004 37.876L156.345 37.1237L156.298 37.1648L156.257 37.2114L157.004 37.876ZM234.504 31.876L235.077 31.0567L235.068 31.0502L235.059 31.0439L234.504 31.876ZM141.589 57.5652L141.588 57.5647L140.417 59.1861L140.418 59.1866L141.589 57.5652ZM141.587 57.5636L141.586 57.5631L140.415 59.1845L140.416 59.185L141.587 57.5636ZM141.821 58.9449L142.821 57.5074L141.18 56.3652L140.179 57.8027L141.821 58.9449ZM144.822 54.6324L146.822 51.7574L145.18 50.6152L143.18 53.4902L144.822 54.6324ZM148.822 48.8824L149.822 47.4449L148.18 46.3027L147.18 47.7402L148.822 48.8824ZM149.749 47.5384L150.749 46.4137L149.254 45.0845L148.254 46.2092L149.749 47.5384ZM152.75 44.1642L154.75 41.9147L153.256 40.5856L151.255 42.8351L152.75 44.1642ZM156.751 39.6653L157.751 38.5405L156.257 37.2114L155.256 38.3361L156.751 39.6653ZM157.663 38.6283L159.661 36.878L158.344 35.3734L156.345 37.1237L157.663 38.6283ZM163.659 33.3774L165.657 31.6271L164.339 30.1225L162.341 31.8728L163.659 33.3774ZM165.484 31.7491L167.172 30.8117L166.201 29.0632L164.513 30.0005L165.484 31.7491ZM170.548 28.937L173.925 27.0623L172.954 25.3138L169.577 27.1885L170.548 28.937ZM177.301 25.1876L178.989 24.2503L178.018 22.5017L176.33 23.4391L177.301 25.1876ZM178.656 24.3643L180.281 24.1143L179.977 22.1376L178.352 22.3876L178.656 24.3643ZM183.531 23.6143L186.781 23.1143L186.477 21.1376L183.227 21.6376L183.531 23.6143ZM190.031 22.6143L191.656 22.3643L191.352 20.3876L189.727 20.6376L190.031 22.6143ZM191.504 22.376L193.254 22.376L193.254 20.376L191.504 20.376L191.504 22.376ZM196.754 22.376L200.254 22.376L200.254 20.376L196.754 20.376L196.754 22.376ZM203.754 22.376L205.504 22.376L205.504 20.376L203.754 20.376L203.754 22.376ZM205.346 22.3634L206.908 22.6134L207.224 20.6385L205.662 20.3885L205.346 22.3634ZM210.033 23.1134L213.158 23.6134L213.474 21.6385L210.349 21.1385L210.033 23.1134ZM216.283 24.1134L217.846 24.3634L218.162 22.3885L216.599 22.1385L216.283 24.1134ZM217.641 24.308L219.891 25.183L220.616 23.319L218.366 22.444L217.641 24.308ZM224.391 26.933L226.641 27.808L227.366 25.944L225.116 25.069L224.391 26.933ZM226.449 27.708L228.324 28.958L229.434 27.2939L227.559 26.0439L226.449 27.708ZM232.074 31.458L233.949 32.708L235.059 31.0439L233.184 29.7939L232.074 31.458ZM233.93 32.6952L235.18 33.5702L236.327 31.9317L235.077 31.0567L233.93 32.6952ZM237.68 35.3202L238.93 36.1952L240.077 34.5567L238.827 33.6817L237.68 35.3202ZM238.884 36.1609L240.072 37.0984L241.311 35.5286L240.124 34.5911L238.884 36.1609ZM242.447 38.9734L244.822 40.8484L246.061 39.2786L243.686 37.4036L242.447 38.9734ZM247.197 42.7234L248.384 43.6609L249.624 42.0911L248.436 41.1536L247.197 42.7234ZM248.358 43.6393L249.982 45.0141L251.274 43.4876L249.65 42.1127L248.358 43.6393ZM253.231 47.7638L256.479 50.5135L257.771 48.987L254.523 46.2373L253.231 47.7638ZM259.728 53.2632L261.352 54.6381L262.644 53.1115L261.02 51.7367L259.728 53.2632ZM141 58.3738L140.179 57.8027L139.618 58.6092L140.415 59.1845L141 58.3738ZM249.004 42.876L249.65 42.1127L249.637 42.1017L249.624 42.0911L249.004 42.876ZM262.081 54.8714C262.632 54.8256 263.041 54.3423 262.995 53.7919L262.249 44.8229C262.203 44.2725 261.72 43.8634 261.169 43.9092C260.619 43.955 260.21 44.4383 260.256 44.9887L260.919 52.9611L252.946 53.6242C252.396 53.67 251.987 54.1533 252.033 54.7037C252.078 55.254 252.562 55.6631 253.112 55.6173L262.081 54.8714ZM149.001 46.8738L148.254 46.2092L148.215 46.2538L148.18 46.3027L149.001 46.8738ZM239.504 35.376L240.124 34.5911L240.101 34.5733L240.077 34.5567L239.504 35.376ZM205.504 21.376L205.662 20.3885L205.583 20.376L205.504 20.376L205.504 21.376ZM218.004 23.376L218.366 22.444L218.267 22.4054L218.162 22.3885L218.004 23.376ZM227.004 26.876L227.559 26.0439L227.468 25.9835L227.366 25.944L227.004 26.876ZM191.504 21.376L191.504 20.376L191.427 20.376L191.352 20.3876L191.504 21.376ZM164.998 30.8748L164.513 30.0005L164.42 30.0523L164.339 30.1225L164.998 30.8748ZM178.504 23.376L178.352 22.3876L178.175 22.4148L178.018 22.5017L178.504 23.376ZM157.004 37.876L156.345 37.1237L156.298 37.1648L156.257 37.2114L157.004 37.876ZM234.504 31.876L235.077 31.0567L235.068 31.0502L235.059 31.0439L234.504 31.876ZM141.589 57.5652L141.588 57.5647L140.417 59.1861L140.418 59.1866L141.589 57.5652ZM141.587 57.5636L141.586 57.5631L140.415 59.1845L140.416 59.185L141.587 57.5636ZM141.821 58.9449L142.821 57.5074L141.18 56.3652L140.179 57.8027L141.821 58.9449ZM144.822 54.6324L146.822 51.7574L145.18 50.6152L143.18 53.4902L144.822 54.6324ZM148.822 48.8824L149.822 47.4449L148.18 46.3027L147.18 47.7402L148.822 48.8824ZM149.749 47.5384L150.749 46.4137L149.254 45.0845L148.254 46.2092L149.749 47.5384ZM152.75 44.1642L154.75 41.9147L153.256 40.5856L151.255 42.8351L152.75 44.1642ZM156.751 39.6653L157.751 38.5405L156.257 37.2114L155.256 38.3361L156.751 39.6653ZM157.663 38.6283L159.661 36.878L158.344 35.3734L156.345 37.1237L157.663 38.6283ZM163.659 33.3774L165.657 31.6271L164.339 30.1225L162.341 31.8728L163.659 33.3774ZM165.484 31.7491L167.172 30.8117L166.201 29.0632L164.513 30.0005L165.484 31.7491ZM170.548 28.937L173.925 27.0623L172.954 25.3138L169.577 27.1885L170.548 28.937ZM177.301 25.1876L178.989 24.2503L178.018 22.5017L176.33 23.4391L177.301 25.1876ZM178.656 24.3643L180.281 24.1143L179.977 22.1376L178.352 22.3876L178.656 24.3643ZM183.531 23.6143L186.781 23.1143L186.477 21.1376L183.227 21.6376L183.531 23.6143ZM190.031 22.6143L191.656 22.3643L191.352 20.3876L189.727 20.6376L190.031 22.6143ZM191.504 22.376L193.254 22.376L193.254 20.376L191.504 20.376L191.504 22.376ZM196.754 22.376L200.254 22.376L200.254 20.376L196.754 20.376L196.754 22.376ZM203.754 22.376L205.504 22.376L205.504 20.376L203.754 20.376L203.754 22.376ZM205.346 22.3634L206.908 22.6134L207.224 20.6385L205.662 20.3885L205.346 22.3634ZM210.033 23.1134L213.158 23.6134L213.474 21.6385L210.349 21.1385L210.033 23.1134ZM216.283 24.1134L217.846 24.3634L218.162 22.3885L216.599 22.1385L216.283 24.1134ZM217.641 24.308L219.891 25.183L220.616 23.319L218.366 22.444L217.641 24.308ZM224.391 26.933L226.641 27.808L227.366 25.944L225.116 25.069L224.391 26.933ZM226.449 27.708L228.324 28.958L229.434 27.2939L227.559 26.0439L226.449 27.708ZM232.074 31.458L233.949 32.708L235.059 31.0439L233.184 29.7939L232.074 31.458ZM233.93 32.6952L235.18 33.5702L236.327 31.9317L235.077 31.0567L233.93 32.6952ZM237.68 35.3202L238.93 36.1952L240.077 34.5567L238.827 33.6817L237.68 35.3202ZM238.884 36.1609L240.072 37.0984L241.311 35.5286L240.124 34.5911L238.884 36.1609ZM242.447 38.9734L244.822 40.8484L246.061 39.2786L243.686 37.4036L242.447 38.9734ZM247.197 42.7234L248.384 43.6609L249.624 42.0911L248.436 41.1536L247.197 42.7234ZM248.358 43.6393L249.982 45.0141L251.274 43.4876L249.65 42.1127L248.358 43.6393ZM253.231 47.7638L256.479 50.5135L257.771 48.987L254.523 46.2373L253.231 47.7638ZM259.728 53.2632L261.352 54.6381L262.644 53.1115L261.02 51.7367L259.728 53.2632Z" fill="black"/>
<path d="M280.954 69.5H423V211.408H280.954C241.767 211.408 210 179.641 210 140.454C210 101.267 241.767 69.5 280.954 69.5Z" fill="#9D7A6E" stroke="black" stroke-width="2"/>
<path d="M281 69H423.5V212H281C241.512 212 209.5 179.988 209.5 140.5C209.5 101.012 241.512 69 281 69Z" fill="#9D7A6E" stroke="black"/>
<path d="M281 163.479H424" stroke="black"/>
<path d="M280.309 118L423.309 118" stroke="black"/>
<path d="M279.5 72.4541V215H422.408V72.4541C422.408 32.9911 390.417 1 350.954 1C311.491 1 279.5 32.9911 279.5 72.4541Z" fill="#E3DDDD" stroke="black"/>
<path d="M287.5 74.4541V217H430.408V74.4541C430.408 34.9911 398.417 3 358.954 3C319.491 3 287.5 34.9911 287.5 74.4541Z" fill="white" stroke="black"/>
<path d="M287.954 74.5H430V216.408H287.954C248.767 216.408 217 184.641 217 145.454C217 106.267 248.767 74.5 287.954 74.5Z" fill="#BC9284" stroke="black" stroke-width="2"/>
<path d="M287.954 74H430.5V216.908H287.954C248.491 216.908 216.5 184.917 216.5 145.454C216.5 105.991 248.491 74 287.954 74Z" fill="#BC9284" stroke="black"/>
<path d="M288 168.479H431" stroke="black"/>
<path d="M287.309 123L430.309 123" stroke="black"/>
<mask id="path-12-inside-1_274_13539" fill="white">
<path d="M338 217.5H287V73.5H338V217.5Z"/>
</mask>
<path d="M338 217.5H287V73.5H338V217.5Z" fill="white"/>
<path d="M338 217.5H287V73.5H338V217.5Z" fill="white"/>
<path d="M338 217.5H287V73.5H338V217.5Z" fill="white"/>
<path d="M338 217.5H287V73.5H338V217.5Z" fill="white"/>
<path d="M338 217.5V218.5H339V217.5H338ZM287 217.5H286V218.5H287V217.5ZM338 216.5H287V218.5H338V216.5ZM288 217.5V73.5H286V217.5H288ZM337 73.5V217.5H339V73.5H337Z" fill="#372316" mask="url(#path-12-inside-1_274_13539)"/>
<path d="M287.954 74.5H430V216.408H287.954C248.767 216.408 217 184.641 217 145.454C217 106.267 248.767 74.5 287.954 74.5Z" fill="#BC9284" stroke="black" stroke-width="2"/>
<path d="M288 74H430.5V217H288C248.512 217 216.5 184.988 216.5 145.5C216.5 106.012 248.512 74 288 74Z" fill="#BC9284" stroke="black"/>
<path d="M288 168.479H431" stroke="black"/>
<path d="M287.309 123L430.309 123" stroke="black"/>
<path d="M339.5 170.5L287.5 168.5V164.5V162V159.5L287.741 153.5V128.5L288.139 108.693L288.313 74.4999H339.5V170.5Z" fill="white"/>
<path d="M287.5 168.5L339.5 170.5V74.4999H288.313M287.5 168.5C287.5 165 288.013 152.5 288.313 74.4999M287.5 168.5V164.5V162V159.5L287.741 153.5V128.5L288.139 108.693L288.313 74.4999" stroke="black"/>
<rect x="339" y="73.5" width="50" height="1" transform="rotate(180 339 73.5)" fill="white"/>
<path d="M430.514 216.5V167.972H420.561H411.093H390.662H363.754H337.841H287V216.5H430.514Z" fill="#BC9284"/>
<path d="M430.514 167.972V216.5H287V167.972M430.514 167.972C427.537 168.5 404.615 167.5 287 167.972M430.514 167.972H420.561H411.093H390.662H363.754H337.841H287" stroke="black"/>
<path d="M339 75V72H315.5L301.77 72.5L288 72.6667V73.6667V74.5H317L338 75H339Z" fill="white"/>
<line x1="339.5" y1="75.5" x2="339.5" y2="71.5" stroke="black"/>
<path d="M285 168H287.5" stroke="black"/>
<path d="M285.5 122.499L339 122.999" stroke="black"/>
<path d="M287 73.9988L340.001 73.9799" stroke="black"/>
<path d="M342 122.5L286.306 122L286 100L287.798 74.5H303.71H340.508L341.005 101L342 122.005V122.5Z" fill="#BC9284"/>
<path d="M430.5 216.5H286.001V194L286.097 168.5H286.95H288.921L288.948 195L430.5 214V216.5Z" fill="#BC9284"/>
<mask id="path-30-inside-2_274_13539" fill="white">
<path d="M385 123.5H339V72.5H385V123.5Z"/>
</mask>
<path d="M385 123.5H339V72.5H385V123.5Z" fill="white"/>
<path d="M385 123.5H339V72.5H385V123.5Z" fill="white"/>
<path d="M385 123.5H339V72.5H385V123.5Z" fill="white"/>
<path d="M385 123.5H339V72.5H385V123.5Z" fill="white"/>
<path d="M385 123.5V124.5H386V123.5H385ZM339 123.5H338V124.5H339V123.5ZM385 122.5H339V124.5H385V122.5ZM340 123.5V72.5H338V123.5H340ZM384 72.5V123.5H386V72.5H384Z" fill="black" mask="url(#path-30-inside-2_274_13539)"/>
<mask id="path-32-inside-3_274_13539" fill="white">
<path d="M385 217.5H339V168.5H385V217.5Z"/>
</mask>
<path d="M385 217.5H339V168.5H385V217.5Z" fill="white"/>
<path d="M385 217.5H339V168.5H385V217.5Z" fill="white"/>
<path d="M385 217.5H339V168.5H385V217.5Z" fill="white"/>
<path d="M385 217.5H339V168.5H385V217.5Z" fill="white"/>
<path d="M385 217.5V218.5H386V217.5H385ZM339 217.5H338V218.5H339V217.5ZM385 216.5H339V218.5H385V216.5ZM340 217.5V168.5H338V217.5H340ZM384 168.5V217.5H386V168.5H384Z" fill="black" mask="url(#path-32-inside-3_274_13539)"/>
<mask id="path-34-inside-4_274_13539" fill="white">
<path d="M431 168.5H384V123.5H431V168.5Z"/>
</mask>
<path d="M431 168.5H384V123.5H431V168.5Z" fill="white"/>
<path d="M431 168.5H384V123.5H431V168.5Z" fill="white"/>
<path d="M431 168.5H384V123.5H431V168.5Z" fill="white"/>
<path d="M431 168.5H384V123.5H431V168.5Z" fill="white"/>
<path d="M431 168.5V169.5H432V168.5H431ZM384 168.5H383V169.5H384V168.5ZM431 167.5H384V169.5H431V167.5ZM385 168.5V123.5H383V168.5H385ZM430 123.5V168.5H432V123.5H430Z" fill="black" mask="url(#path-34-inside-4_274_13539)"/>
<path d="M119.553 14.5C129.553 88.9 132.833 159.667 132.5 180.5H116.053H100C103.6 105.3 94.7194 34.1667 91.0527 14.5H119.553Z" fill="#BC9284" stroke="black"/>
<path d="M96.4997 177.5C94.0997 162.3 90.5456 58.3333 91.0456 14.5C102.045 83 101.834 154.667 100 177.5H96.4997Z" fill="#E3DDDD" stroke="black"/>
<line y1="-0.75" x2="17.5225" y2="-0.75" transform="matrix(-0.704005 0.710195 -0.768078 -0.640356 119.57 159.631)" stroke="black" stroke-width="1.5"/>
<line y1="-0.5" x2="17.5225" y2="-0.5" transform="matrix(-0.704005 0.710195 -0.768078 -0.640356 124.504 161.894)" stroke="black"/>
<path d="M126.303 165.092L114.634 174.796" stroke="black"/>
<path d="M123.888 160.197L109.537 174.719" stroke="black"/>
<path d="M126.971 166.419L118.801 174.714" stroke="black"/>
<line y1="-0.5" x2="11.7869" y2="-0.5" transform="matrix(-0.704005 0.710195 -0.768078 -0.640356 115.531 160.763)" stroke="black"/>
<line y1="-0.75" x2="10.3981" y2="-0.75" transform="matrix(-0.593203 0.805053 -0.850009 -0.526769 112.168 158.5)" stroke="black" stroke-width="1.5"/>
<path d="M83.8935 144.346C82.1973 155.62 74.8361 161.903 71.3675 163.635M83.8935 144.346C80.8038 145.856 73.9731 151.826 71.3675 163.635M83.8935 144.346L71.5293 136.317M71.3675 163.635L59.4979 155.927M59.4979 155.927C59.7849 152.597 62.5931 144.014 71.5293 136.317M59.4979 155.927L10.5352 124.13M71.5293 136.317L23.0612 104.841M23.0612 104.841L15.148 99.7025C11.5638 100.891 4.04071 106.412 2.62197 118.991L10.5352 124.13M23.0612 104.841C19.1066 106.961 11.0649 113.786 10.5352 124.13" stroke="black"/>
<path d="M59.4975 155.927C61.0265 147.076 66.8334 140.3 71.5285 136.318L70.5393 135.675L23.0604 104.842C15.4231 109.023 10.3098 119.063 10.5344 124.131L59.4975 155.927Z" fill="#B0BFB4" fill-opacity="0.74" stroke="black"/>
<path d="M3.23468 115.876L10.6533 120.694M11.7646 117.9L4.346 113.082M4.96275 109.967L12.8759 115.106M6.56865 107.494L14.4818 112.633M8.17454 105.021L16.0877 110.16M18.1882 108.008L10.275 102.869M20.7832 106.178L12.87 101.039" stroke="black"/>
<path d="M83.8935 144.346C82.1973 155.62 74.8361 161.903 71.3675 163.635M83.8935 144.346C80.8038 145.856 73.9731 151.826 71.3675 163.635M83.8935 144.346L71.5293 136.317M71.3675 163.635L59.4979 155.927M59.4979 155.927C59.7849 152.597 62.5931 144.014 71.5293 136.317M59.4979 155.927L10.5352 124.13M71.5293 136.317L23.0612 104.841M23.0612 104.841L15.148 99.7025C11.5638 100.891 4.04071 106.412 2.62197 118.991L10.5352 124.13M23.0612 104.841C19.1066 106.961 11.0649 113.786 10.5352 124.13" stroke="black"/>
<path d="M59.4975 155.927C61.0265 147.076 66.8334 140.3 71.5285 136.318L70.5393 135.675L23.0604 104.842C15.4231 109.023 10.3098 119.063 10.5344 124.131L59.4975 155.927Z" fill="#B0BFB4" fill-opacity="0.74" stroke="black"/>
<path d="M3.23468 115.876L10.6533 120.694M11.7646 117.9L4.346 113.082M4.96275 109.967L12.8759 115.106M6.56865 107.494L14.4818 112.633M8.17454 105.021L16.0877 110.16M18.1882 108.008L10.275 102.869M20.7832 106.178L12.87 101.039" stroke="black"/>
</svg>
