<svg width="312" height="371" viewBox="0 0 312 371" fill="none" xmlns="http://www.w3.org/2000/svg">
<path d="M156.321 159.46L256.763 259.901L156.419 360.246L55.977 259.804C28.2677 232.095 28.2677 187.169 55.977 159.46C83.6863 131.75 128.612 131.75 156.321 159.46Z" fill="#9D7A6E" stroke="black" stroke-width="2"/>
<path d="M156.708 159.139L257.47 259.901L156.354 361.018L55.5914 260.255C27.6689 232.332 27.6689 187.061 55.5914 159.139C83.5139 131.216 128.785 131.216 156.708 159.139Z" fill="#9D7A6E" stroke="black"/>
<path d="M89.9004 225.946L191.017 327.062" stroke="black"/>
<path d="M121.57 193.299L222.687 294.415" stroke="black"/>
<path d="M153.204 160.52L52.409 261.315L153.46 362.367L254.255 261.572C282.16 233.667 282.16 188.425 254.256 160.52C226.351 132.616 181.109 132.616 153.204 160.52Z" fill="#E3DDDD" stroke="black"/>
<path d="M157.446 167.591L56.6512 268.386L157.703 369.438L258.498 268.642C286.402 240.738 286.402 195.496 258.498 167.591C230.593 139.686 185.351 139.686 157.446 167.591Z" fill="white" stroke="black"/>
<path d="M157.735 167.945L258.177 268.387L157.833 368.731L57.391 268.289C29.6817 240.58 29.6817 195.654 57.391 167.945C85.1003 140.236 130.026 140.236 157.735 167.945Z" fill="#BC9284" stroke="black" stroke-width="2"/>
<path d="M158.089 167.592L258.884 268.387L157.833 369.438L57.0375 268.643C29.1329 240.738 29.1329 195.496 57.0375 167.592C84.942 139.687 130.184 139.687 158.089 167.592Z" fill="#BC9284" stroke="black"/>
<path d="M91.3145 234.431L192.431 335.547" stroke="black"/>
<path d="M122.984 201.784L224.101 302.9" stroke="black"/>
<mask id="path-11-inside-1_274_13538" fill="white">
<path d="M92.0078 304.449L55.9454 268.387L157.769 166.563L193.831 202.626L92.0078 304.449Z"/>
</mask>
<path d="M92.0078 304.449L55.9454 268.387L157.769 166.563L193.831 202.626L92.0078 304.449Z" fill="white"/>
<path d="M92.0078 304.449L55.9454 268.387L157.769 166.563L193.831 202.626L92.0078 304.449Z" fill="white"/>
<path d="M92.0078 304.449L55.9454 268.387L157.769 166.563L193.831 202.626L92.0078 304.449Z" fill="white"/>
<path d="M92.0078 304.449L55.9454 268.387L157.769 166.563L193.831 202.626L92.0078 304.449Z" fill="white"/>
<path d="M92.0078 304.449L91.3007 305.156L92.0078 305.863L92.7149 305.156L92.0078 304.449ZM55.9454 268.387L55.2383 267.68L54.5312 268.387L55.2383 269.094L55.9454 268.387ZM92.7149 303.742L56.6525 267.68L55.2383 269.094L91.3007 305.156L92.7149 303.742ZM56.6525 269.094L158.476 167.271L157.062 165.856L55.2383 267.68L56.6525 269.094ZM193.124 201.919L91.3007 303.742L92.7149 305.156L194.538 203.333L193.124 201.919Z" fill="#372316" mask="url(#path-11-inside-1_274_13538)"/>
<path d="M157.735 167.945L258.177 268.387L157.833 368.731L57.391 268.289C29.6817 240.58 29.6817 195.654 57.391 167.945C85.1003 140.236 130.026 140.236 157.735 167.945Z" fill="#BC9284" stroke="black" stroke-width="2"/>
<path d="M158.122 167.624L258.884 268.387L157.768 369.503L57.0055 268.74C29.083 240.818 29.083 195.546 57.0055 167.624C84.928 139.702 130.199 139.702 158.122 167.624Z" fill="#BC9284" stroke="black"/>
<path d="M91.3145 234.431L192.431 335.547" stroke="black"/>
<path d="M122.984 201.784L224.101 302.9" stroke="black"/>
<path d="M126.301 272.275L90.9454 234.092L93.7739 231.263L95.5416 229.495L97.3094 227.728L101.722 223.655L119.4 205.978L133.687 192.254L157.988 168.198L194.183 204.393L126.301 272.275Z" fill="white"/>
<path d="M90.9454 234.092L126.301 272.275L194.183 204.393L157.988 168.198M90.9454 234.092C93.4203 231.617 102.622 223.14 157.988 168.198M90.9454 234.092L93.7739 231.263L95.5416 229.495L97.3094 227.728L101.722 223.655L119.4 205.978L133.687 192.254L157.988 168.198" stroke="black"/>
<rect x="194.537" y="203.333" width="50" height="1" transform="rotate(-135 194.537 203.333)" fill="white"/>
<path d="M158.131 369.159L192.445 334.844L185.408 327.807L178.713 321.112L164.266 306.665L145.239 287.638L126.916 269.315L90.9659 233.365L56.6514 267.679L158.131 369.159Z" fill="#BC9284"/>
<path d="M192.445 334.844L158.131 369.159L56.6514 267.679L90.9659 233.365M192.445 334.844C189.967 333.113 174.466 316.197 90.9659 233.365M192.445 334.844L185.408 327.807L178.713 321.112L164.266 306.665L145.239 287.638L126.916 269.315L90.9659 233.365" stroke="black"/>
<path d="M193.477 204.394L195.598 202.272L178.981 185.655L168.919 176.3L159.064 166.681L158.357 167.388L157.768 167.978L178.274 188.484L192.769 203.686L193.477 204.394Z" fill="white"/>
<line x1="193.477" y1="205.101" x2="196.305" y2="202.272" stroke="black"/>
<path d="M89.5312 231.971L91.299 233.738" stroke="black"/>
<path d="M122.06 200.15L159.536 238.334" stroke="black"/>
<path d="M157.415 166.916L194.906 204.379" stroke="black"/>
<path d="M162.01 240.102L122.982 200.367L138.322 184.594L157.624 167.834L168.876 179.086L194.896 205.106L176.509 224.196L162.36 239.752L162.01 240.102Z" fill="#BC9284"/>
<path d="M158.121 369.149L55.9449 266.973L71.8548 251.063L89.9541 233.1L90.5569 233.703L91.9508 235.097L73.2314 253.854L159.889 367.382L158.121 369.149Z" fill="#BC9284"/>
<mask id="path-29-inside-2_274_13538" fill="white">
<path d="M191.709 271.215L159.182 238.688L195.245 202.625L227.771 235.152L191.709 271.215Z"/>
</mask>
<path d="M191.709 271.215L159.182 238.688L195.245 202.625L227.771 235.152L191.709 271.215Z" fill="white"/>
<path d="M191.709 271.215L159.182 238.688L195.245 202.625L227.771 235.152L191.709 271.215Z" fill="white"/>
<path d="M191.709 271.215L159.182 238.688L195.245 202.625L227.771 235.152L191.709 271.215Z" fill="white"/>
<path d="M191.709 271.215L159.182 238.688L195.245 202.625L227.771 235.152L191.709 271.215Z" fill="white"/>
<path d="M191.709 271.215L191.002 271.922L191.709 272.629L192.416 271.922L191.709 271.215ZM159.182 238.688L158.475 237.981L157.768 238.688L158.475 239.395L159.182 238.688ZM192.416 270.508L159.889 237.981L158.475 239.395L191.002 271.922L192.416 270.508ZM159.889 239.395L195.952 203.333L194.537 201.918L158.475 237.981L159.889 239.395ZM227.064 234.445L191.002 270.508L192.416 271.922L228.479 235.86L227.064 234.445Z" fill="black" mask="url(#path-29-inside-2_274_13538)"/>
<mask id="path-31-inside-3_274_13538" fill="white">
<path d="M125.24 337.683L92.7133 305.156L127.362 270.508L159.888 303.035L125.24 337.683Z"/>
</mask>
<path d="M125.24 337.683L92.7133 305.156L127.362 270.508L159.888 303.035L125.24 337.683Z" fill="white"/>
<path d="M125.24 337.683L92.7133 305.156L127.362 270.508L159.888 303.035L125.24 337.683Z" fill="white"/>
<path d="M125.24 337.683L92.7133 305.156L127.362 270.508L159.888 303.035L125.24 337.683Z" fill="white"/>
<path d="M125.24 337.683L92.7133 305.156L127.362 270.508L159.888 303.035L125.24 337.683Z" fill="white"/>
<path d="M125.24 337.683L124.533 338.39L125.24 339.097L125.947 338.39L125.24 337.683ZM92.7133 305.156L92.0062 304.449L91.2991 305.156L92.0062 305.863L92.7133 305.156ZM125.947 336.976L93.4204 304.449L92.0062 305.863L124.533 338.39L125.947 336.976ZM93.4204 305.863L128.069 271.215L126.654 269.801L92.0062 304.449L93.4204 305.863ZM159.181 302.328L124.533 336.976L125.947 338.39L160.596 303.742L159.181 302.328Z" fill="black" mask="url(#path-31-inside-3_274_13538)"/>
<mask id="path-33-inside-4_274_13538" fill="white">
<path d="M192.416 335.562L159.182 302.328L191.002 270.508L224.236 303.742L192.416 335.562Z"/>
</mask>
<path d="M192.416 335.562L159.182 302.328L191.002 270.508L224.236 303.742L192.416 335.562Z" fill="white"/>
<path d="M192.416 335.562L159.182 302.328L191.002 270.508L224.236 303.742L192.416 335.562Z" fill="white"/>
<path d="M192.416 335.562L159.182 302.328L191.002 270.508L224.236 303.742L192.416 335.562Z" fill="white"/>
<path d="M192.416 335.562L159.182 302.328L191.002 270.508L224.236 303.742L192.416 335.562Z" fill="white"/>
<path d="M192.416 335.562L191.709 336.269L192.416 336.976L193.123 336.269L192.416 335.562ZM159.182 302.328L158.475 301.62L157.768 302.328L158.475 303.035L159.182 302.328ZM193.123 334.854L159.889 301.62L158.475 303.035L191.709 336.269L193.123 334.854ZM159.889 303.035L191.709 271.215L190.295 269.801L158.475 301.62L159.889 303.035ZM223.529 303.035L191.709 334.854L193.123 336.269L224.943 304.449L223.529 303.035Z" fill="black" mask="url(#path-33-inside-4_274_13538)"/>
<path d="M161 1C171 75.4 172.833 135.667 172.5 156.5C170.9 156.5 161.833 163.5 157.5 167C151.1 160.6 145 156.667 141.5 155C145.1 79.8 136.167 20.6667 132.5 1H161Z" fill="#BC9284" stroke="black"/>
<path d="M135.497 152C136.996 137.5 133.5 45.5 132.498 1C143.498 69.5 142.831 132.167 140.998 155L135.497 152Z" fill="#E3DDDD" stroke="black"/>
<line y1="-0.75" x2="18.0234" y2="-0.75" transform="matrix(-0.668521 0.743694 -0.736159 -0.676808 156.254 175.719)" stroke="black" stroke-opacity="0.2" stroke-width="1.5"/>
<line y1="-0.5" x2="18.0234" y2="-0.5" transform="matrix(-0.668521 0.743694 -0.736159 -0.676808 161.074 178.156)" stroke="black" stroke-opacity="0.2"/>
<path d="M162.832 181.6L151.434 192.053" stroke="black" stroke-opacity="0.2"/>
<path d="M160.47 176.328L146.453 191.97" stroke="black" stroke-opacity="0.2"/>
<path d="M163.483 183.03L155.504 191.964" stroke="black" stroke-opacity="0.2"/>
<line y1="-0.5" x2="12.1238" y2="-0.5" transform="matrix(-0.668521 0.743694 -0.736159 -0.676808 152.311 176.937)" stroke="black" stroke-opacity="0.2"/>
<line y1="-0.75" x2="10.844" y2="-0.75" transform="matrix(-0.555578 0.831464 -0.825619 -0.564228 149.025 174.5)" stroke="black" stroke-opacity="0.2" stroke-width="1.5"/>
<line y1="-0.75" x2="18.0234" y2="-0.75" transform="matrix(-0.668521 0.743694 -0.736159 -0.676808 156.254 175.719)" stroke="black" stroke-opacity="0.2" stroke-width="1.5"/>
<line y1="-0.5" x2="18.0234" y2="-0.5" transform="matrix(-0.668521 0.743694 -0.736159 -0.676808 161.074 178.156)" stroke="black" stroke-opacity="0.2"/>
<path d="M162.832 181.6L151.434 192.053" stroke="black" stroke-opacity="0.2"/>
<path d="M160.47 176.328L146.453 191.97" stroke="black" stroke-opacity="0.2"/>
<path d="M163.483 183.03L155.504 191.964" stroke="black" stroke-opacity="0.2"/>
<line y1="-0.5" x2="12.1238" y2="-0.5" transform="matrix(-0.668521 0.743694 -0.736159 -0.676808 152.311 176.937)" stroke="black" stroke-opacity="0.2"/>
<line y1="-0.75" x2="10.844" y2="-0.75" transform="matrix(-0.555578 0.831464 -0.825619 -0.564228 149.025 174.5)" stroke="black" stroke-opacity="0.2" stroke-width="1.5"/>
<path d="M172.5 156.5C172.667 163.333 172.5 181 170.5 197H139.5M139.5 197C140.167 187.167 141 165 141 155L135.5 152.5L133.5 185L140.117 185.5C140.093 186 139.5 195.8 139.5 197Z" stroke="black" stroke-opacity="0.2" stroke-dasharray="2 2"/>
</svg>
