<svg width="193" height="198" viewBox="0 0 193 198" fill="none" xmlns="http://www.w3.org/2000/svg">
<path d="M1.09375 130.161C1.09375 166.792 30.7886 196.486 67.4191 196.486C104.05 196.486 133.744 166.791 133.744 130.161V5.48703H1.09375L1.09375 130.161Z" fill="white" stroke="black" stroke-width="2"/>
<path d="M0.59375 130.161C0.59375 167.068 30.5125 196.986 67.4191 196.986C104.326 196.986 134.244 167.068 134.244 130.161V4.98703H0.59375L0.59375 130.161Z" fill="white" stroke="black"/>
<path d="M45.8691 132.854L45.8691 4.48725" stroke="black"/>
<path d="M88.4219 133.474L88.4219 5.10687" stroke="black"/>
<path d="M125.675 5.57373C162.305 5.57373 192 35.2686 192 71.8991C192 108.53 162.305 138.224 125.675 138.224H1.00069V5.57373L125.675 5.57373Z" fill="#BC9284" stroke="black" stroke-width="2"/>
<path d="M125.675 5.07373C162.581 5.07373 192.5 34.9925 192.5 71.8991C192.5 108.806 162.581 138.724 125.675 138.724H0.500687V5.07373L125.675 5.07373Z" fill="#BC9284" stroke="black"/>
<path d="M128.367 50.3547L0.000216186 50.3547" stroke="black"/>
<path d="M128.99 92.9075L0.623263 92.9075" stroke="black"/>
<path d="M5.72266 12.3335C5.69531 12.3335 5.65625 12.2827 5.60547 12.1812C5.60547 12.1694 5.67578 12.1187 5.81641 12.0288C5.95703 11.9351 6.23633 11.7026 6.6543 11.3315C7.07227 10.9604 7.41797 10.6108 7.69141 10.2827H8.01953C8.07031 10.2827 8.10156 10.2905 8.11328 10.3062C8.125 10.3218 8.13086 10.3511 8.13086 10.394V17.5425C8.13086 17.7886 8.15625 17.9272 8.20703 17.9585C8.39844 18.0718 8.78711 18.1284 9.37305 18.1284C9.4043 18.1284 9.41992 18.144 9.41992 18.1753V18.3159C9.41992 18.3472 9.4043 18.3628 9.37305 18.3628H5.8457C5.81445 18.3628 5.79883 18.3472 5.79883 18.3159V18.1753C5.79883 18.144 5.81445 18.1284 5.8457 18.1284C6.04102 18.1167 6.21094 18.1089 6.35547 18.105C6.5 18.0972 6.65234 18.0854 6.8125 18.0698C6.97266 18.0542 7.08398 18.0288 7.14648 17.9937C7.21289 17.9585 7.25195 17.9058 7.26367 17.8354C7.27539 17.7651 7.28125 17.6733 7.28125 17.5601V11.3198C7.28516 11.312 7.24219 11.3433 7.15234 11.4136C6.64453 11.8198 6.17969 12.1245 5.75781 12.3276L5.72266 12.3335Z" fill="black"/>
<path d="M5.24805 55.8083L5.10742 55.8259C5.06836 55.8259 5.04883 55.8142 5.04883 55.7908C5.04883 55.6814 5.11328 55.4412 5.24219 55.0701C5.37109 54.6951 5.51953 54.4197 5.6875 54.2439C6.25391 53.6619 6.89062 53.3708 7.59766 53.3708C8.30469 53.3708 8.87305 53.5935 9.30273 54.0388C9.73242 54.4802 9.94727 55.0369 9.94727 55.7087C9.94727 56.3767 9.51367 57.115 8.64648 57.9236C8.37305 58.1814 8.14453 58.3884 7.96094 58.5447C7.72656 58.7439 7.3125 59.1326 6.71875 59.7107C6.12891 60.2849 5.83398 60.6013 5.83398 60.6599H9.13281C9.41797 60.6599 9.61914 60.5798 9.73633 60.4197C9.80664 60.3259 9.89648 60.0779 10.0059 59.6755H10.2285L9.97656 61.2576C9.95703 61.3474 9.91211 61.4119 9.8418 61.4509H4.9668C4.94727 61.4509 4.9375 61.4001 4.9375 61.2986C4.9375 61.2009 5.02734 61.0486 5.20703 60.8416C5.39062 60.6345 5.62305 60.3904 5.9043 60.1091C6.18945 59.824 6.57617 59.4353 7.06445 58.9431C8.30664 57.6814 8.92773 56.6716 8.92773 55.9138C8.92773 55.449 8.75781 55.0291 8.41797 54.6541C8.08203 54.2751 7.68945 54.0857 7.24023 54.0857C6.79492 54.0857 6.39648 54.2361 6.04492 54.5369C5.70117 54.8376 5.46875 55.2263 5.34766 55.7029C5.33203 55.7732 5.29883 55.8083 5.24805 55.8083Z" fill="black"/>
<path d="M7.94922 99.6694C7.99609 99.6616 8.06641 99.6577 8.16016 99.6577C8.61328 99.6577 9.0293 99.8472 9.4082 100.226C9.78711 100.605 9.97656 101.089 9.97656 101.679C9.97656 102.265 9.82031 102.783 9.50781 103.232C9.19922 103.681 8.8125 104.039 8.34766 104.304C7.88672 104.566 7.43945 104.697 7.00586 104.697C6.05664 104.697 5.41016 104.505 5.06641 104.123C4.97656 104.025 4.91211 103.908 4.87305 103.771C4.87305 103.509 5.03516 103.378 5.35938 103.378C5.44141 103.378 5.60547 103.476 5.85156 103.671C6.10156 103.863 6.33594 104.021 6.55469 104.146C6.77344 104.271 7.01953 104.33 7.29297 104.322C7.80469 104.306 8.2207 104.06 8.54102 103.583C8.86523 103.103 9.02734 102.58 9.02734 102.013C9.02734 101.443 8.88672 101.013 8.60547 100.724C8.32422 100.435 7.99023 100.291 7.60352 100.291C7.39648 100.291 7.22461 100.33 7.08789 100.408C6.95117 100.482 6.87109 100.535 6.84766 100.566C6.82422 100.597 6.80273 100.613 6.7832 100.613C6.76758 100.613 6.74609 100.597 6.71875 100.566C6.69141 100.535 6.67773 100.507 6.67773 100.484C6.67773 100.46 6.68945 100.437 6.71289 100.414C6.74023 100.386 6.77148 100.359 6.80664 100.332C6.8418 100.3 6.87695 100.271 6.91211 100.244C7.88477 99.4858 8.37109 98.8218 8.37109 98.2515C8.37109 97.9233 8.24805 97.6499 8.00195 97.4312C7.75586 97.2124 7.49414 97.103 7.2168 97.103C6.49805 97.103 5.91797 97.5073 5.47656 98.3159C5.47266 98.3198 5.45703 98.3218 5.42969 98.3218C5.40625 98.3218 5.36914 98.3101 5.31836 98.2866C5.26758 98.2632 5.24219 98.2456 5.24219 98.2339C5.24219 98.2222 5.24609 98.2046 5.25391 98.1812C5.26562 98.1577 5.29688 98.0815 5.34766 97.9526C5.39844 97.8237 5.50391 97.6597 5.66406 97.4604C5.82812 97.2573 6.00781 97.0815 6.20312 96.9331C6.62109 96.6167 6.99805 96.4585 7.33398 96.4585C7.95117 96.4585 8.41992 96.5815 8.74023 96.8276C9.06055 97.0737 9.2207 97.4175 9.2207 97.8589C9.2207 98.2964 8.98242 98.7534 8.50586 99.23C8.42383 99.2925 8.30664 99.3765 8.1543 99.4819C8.00586 99.5835 7.93164 99.644 7.93164 99.6636V99.6694H7.94922Z" fill="black"/>
</svg>
