<svg width="439" height="217" viewBox="0 0 439 217" fill="none" xmlns="http://www.w3.org/2000/svg">
<path d="M149.096 142V3H1.0957L1.0957 142C1.0957 182.869 34.2266 216 75.0957 216C115.965 216 149.096 182.869 149.096 142Z" fill="white" stroke="black" stroke-width="2"/>
<path d="M149.596 142V2.5H0.595703L0.595703 142C0.595703 183.145 33.9505 216.5 75.0957 216.5C116.241 216.5 149.596 183.145 149.596 142Z" fill="white" stroke="black"/>
<path d="M51.0957 145L51.0957 2.00001" stroke="black"/>
<path d="M98.5 145.69L98.5 2.68995" stroke="black"/>
<path d="M364 150.096H225V2.0957L364 2.0957C404.869 2.0957 438 35.2266 438 76.0957C438 116.965 404.869 150.096 364 150.096Z" fill="#BC9284" stroke="black" stroke-width="2"/>
<path d="M364 150.596H224.5V1.5957L364 1.5957C405.145 1.5957 438.5 34.9505 438.5 76.0957C438.5 117.241 405.145 150.596 364 150.596Z" fill="#BC9284" stroke="black"/>
<path d="M367 52.0957L224 52.0957" stroke="black"/>
<path d="M367.689 99.5L224.689 99.5" stroke="black"/>
<path d="M57.1143 20C57.0804 20 57.0635 19.9831 57.0635 19.9492V19.7969C57.0635 19.763 57.0931 19.7461 57.1523 19.7461C57.3512 19.7461 57.5713 19.7249 57.8125 19.6826C58.5869 19.5514 58.9741 19.2848 58.9741 18.8828V12.186C58.9318 11.6444 58.6842 11.3503 58.2314 11.3037C58.096 11.2868 57.9458 11.2783 57.7808 11.2783H57.4189C57.3851 11.2783 57.3682 11.2614 57.3682 11.2275V11.0688C57.3682 11.035 57.3851 11.0181 57.4189 11.0181L57.6982 11.0117L58.79 11.0054L61.0498 10.9355C63.4704 10.9355 64.6807 11.6507 64.6807 13.0811C64.6807 13.6862 64.3675 14.1898 63.7412 14.5918C63.6439 14.6553 63.5592 14.7018 63.4873 14.7314C63.4196 14.7611 63.3815 14.778 63.373 14.7822C63.9316 15.0954 64.3696 15.4466 64.687 15.8359C65.0086 16.2253 65.1694 16.6908 65.1694 17.2324C65.1694 18.3877 64.6235 19.1917 63.5317 19.6445C62.9689 19.8815 62.3574 20 61.6973 20H57.1143ZM60.3262 15.0488C60.2712 15.0488 60.2437 15.0721 60.2437 15.1187V18.5972C60.2437 18.8976 60.3833 19.1388 60.6626 19.3208C60.9461 19.5028 61.2508 19.5938 61.5767 19.5938C62.203 19.5938 62.7362 19.3716 63.1763 18.9272C63.6164 18.4787 63.8364 17.9285 63.8364 17.2769C63.8364 16.6209 63.5994 16.0856 63.1255 15.6709C62.6558 15.2562 62.0591 15.0488 61.3354 15.0488H60.3262ZM60.231 14.5347C60.231 14.6151 60.2796 14.6553 60.377 14.6553H61.9385C62.3447 14.6553 62.6854 14.505 62.9604 14.2046C63.2397 13.9041 63.3794 13.5677 63.3794 13.1953C63.3794 12.5309 63.1911 12.0506 62.8145 11.7544C62.4378 11.4539 61.9364 11.3037 61.3101 11.3037C61.1196 11.3164 60.9863 11.3228 60.9102 11.3228C60.8382 11.3228 60.762 11.3228 60.6816 11.3228C60.6012 11.3185 60.5208 11.3228 60.4404 11.3354C60.36 11.3481 60.305 11.3757 60.2754 11.418C60.2458 11.4603 60.231 11.5301 60.231 11.6274V14.5347Z" fill="black"/>
<path d="M113.538 19.7588C113.516 19.7926 113.464 19.8011 113.379 19.7842C113.299 19.763 113.203 19.7524 113.093 19.7524C112.983 19.7524 112.827 19.7757 112.624 19.8223C112.425 19.8646 112.109 19.9323 111.678 20.0254C111.246 20.1227 110.853 20.1714 110.497 20.1714C109.693 20.1714 108.912 19.9831 108.155 19.6064C107.402 19.2256 106.799 18.6882 106.346 17.9941C105.893 17.2959 105.667 16.4876 105.667 15.5693C105.667 14.651 105.893 13.8195 106.346 13.0747C107.006 11.9829 108 11.272 109.329 10.9419C109.752 10.8361 110.175 10.7832 110.599 10.7832C111.178 10.7832 111.866 10.8805 112.662 11.0752C112.903 11.1344 113.106 11.1958 113.271 11.2593C113.44 11.3228 113.544 11.3545 113.582 11.3545L113.772 11.3037H113.969C114.02 11.3037 114.045 11.3397 114.045 11.4116V13.3857C114.045 13.4281 114.007 13.4492 113.931 13.4492C113.855 13.4492 113.811 13.4408 113.798 13.4238C113.785 13.4027 113.772 13.3794 113.76 13.354C113.747 13.3244 113.732 13.2948 113.715 13.2651C113.703 13.2355 113.688 13.208 113.671 13.1826C113.658 13.1572 113.65 13.1382 113.646 13.1255C113.011 11.8517 112.048 11.2148 110.757 11.2148C109.594 11.2148 108.684 11.5851 108.028 12.3257C107.372 13.0662 107.044 14.048 107.044 15.271C107.044 16.4897 107.404 17.5371 108.123 18.4131C108.847 19.2891 109.828 19.7271 111.068 19.7271C111.745 19.7271 112.361 19.526 112.916 19.124C113.474 18.722 113.912 18.229 114.229 17.645C114.238 17.6196 114.263 17.6069 114.306 17.6069H114.388C114.431 17.6069 114.452 17.6323 114.452 17.6831C114.452 17.7339 114.439 17.7826 114.414 17.8291L113.538 19.7588Z" fill="black"/>
<path d="M9.37695 19.9492C9.37695 19.9831 9.36003 20 9.32617 20H6.08252C6.04867 20 6.03174 19.9831 6.03174 19.9492V19.7969C6.03174 19.763 6.05924 19.7461 6.11426 19.7461C6.69401 19.7207 7.08545 19.4118 7.28857 18.8193L9.87842 11.3228C9.88265 11.3143 9.88477 11.3037 9.88477 11.291L9.81494 11.0815C9.81494 11.0604 9.8234 11.0498 9.84033 11.0498H11.1099C11.1183 11.054 11.1289 11.0583 11.1416 11.0625C11.1585 11.0667 11.1712 11.0794 11.1797 11.1006L13.8647 18.6353C13.924 18.7495 13.9705 18.8532 14.0044 18.9463C14.0425 19.0394 14.0848 19.124 14.1313 19.2002C14.2329 19.3737 14.4001 19.507 14.6328 19.6001C14.8275 19.6974 15.0052 19.7461 15.166 19.7461C15.1999 19.7461 15.2168 19.7651 15.2168 19.8032V19.9492C15.2168 19.9831 15.1999 20 15.166 20H11.2812C11.2474 20 11.2305 19.9831 11.2305 19.9492V19.7969C11.2305 19.763 11.3088 19.7419 11.4653 19.7334C11.6219 19.7249 11.751 19.7165 11.8525 19.708C12.4408 19.6445 12.7349 19.4456 12.7349 19.1113C12.7349 19.0859 12.7306 19.0563 12.7222 19.0225L11.7637 16.3184C11.7594 16.3099 11.751 16.2909 11.7383 16.2612C11.6875 16.1174 11.5986 16.0454 11.4717 16.0454H9.21826C9.09131 16.0454 8.99186 16.1152 8.91992 16.2549C8.90723 16.2845 8.90088 16.3014 8.90088 16.3057L7.94873 19.0923V19.1494C7.94873 19.2594 8.00586 19.3589 8.12012 19.4478C8.37826 19.6466 8.72526 19.7461 9.16113 19.7461H9.32617C9.36003 19.7461 9.37695 19.763 9.37695 19.7969V19.9492ZM11.2559 15.3408C11.332 15.3408 11.3701 15.3091 11.3701 15.2456C11.3701 15.2118 11.3617 15.1737 11.3447 15.1313L10.3989 12.5288C10.3566 12.4146 10.3249 12.3574 10.3037 12.3574C10.2826 12.3574 10.2487 12.4167 10.2021 12.5352L9.31348 15.1313C9.29655 15.1737 9.28809 15.2202 9.28809 15.271C9.28809 15.3175 9.31982 15.3408 9.3833 15.3408H11.2559Z" fill="black"/>
<path d="M231.641 12.9609C231.604 12.9609 231.552 12.8932 231.484 12.7578C231.484 12.7422 231.578 12.6745 231.766 12.5547C231.953 12.4297 232.326 12.1198 232.883 11.625C233.44 11.1302 233.901 10.6641 234.266 10.2266H234.703C234.771 10.2266 234.812 10.237 234.828 10.2578C234.844 10.2786 234.852 10.3177 234.852 10.375V19.9062C234.852 20.2344 234.885 20.4193 234.953 20.4609C235.208 20.612 235.727 20.6875 236.508 20.6875C236.549 20.6875 236.57 20.7083 236.57 20.75V20.9375C236.57 20.9792 236.549 21 236.508 21H231.805C231.763 21 231.742 20.9792 231.742 20.9375V20.75C231.742 20.7083 231.763 20.6875 231.805 20.6875C232.065 20.6719 232.292 20.6615 232.484 20.6562C232.677 20.6458 232.88 20.6302 233.094 20.6094C233.307 20.5885 233.456 20.5547 233.539 20.5078C233.628 20.4609 233.68 20.3906 233.695 20.2969C233.711 20.2031 233.719 20.0807 233.719 19.9297V11.6094C233.724 11.599 233.667 11.6406 233.547 11.7344C232.87 12.276 232.25 12.6823 231.688 12.9531L231.641 12.9609Z" fill="black"/>
<path d="M230.819 61.8872L230.667 61.9062C230.624 61.9062 230.603 61.8936 230.603 61.8682C230.603 61.7497 230.673 61.4894 230.812 61.0874C230.952 60.6812 231.113 60.3828 231.295 60.1924C231.909 59.5618 232.598 59.2466 233.364 59.2466C234.13 59.2466 234.746 59.4878 235.211 59.9702C235.677 60.4484 235.91 61.0514 235.91 61.7793C235.91 62.5029 235.44 63.3027 234.5 64.1787C234.204 64.458 233.957 64.6823 233.758 64.8516C233.504 65.0674 233.055 65.4884 232.412 66.1147C231.773 66.7368 231.454 67.0796 231.454 67.1431H235.027C235.336 67.1431 235.554 67.0563 235.681 66.8828C235.757 66.7812 235.855 66.5125 235.973 66.0767H236.214L235.941 67.7905C235.92 67.8879 235.872 67.9577 235.795 68H230.514C230.493 68 230.482 67.945 230.482 67.835C230.482 67.7292 230.58 67.5641 230.774 67.3398C230.973 67.1156 231.225 66.8511 231.53 66.5464C231.839 66.2375 232.258 65.8164 232.787 65.2832C234.132 63.9163 234.805 62.8224 234.805 62.0015C234.805 61.4979 234.621 61.043 234.253 60.6367C233.889 60.2262 233.464 60.021 232.977 60.021C232.495 60.021 232.063 60.1839 231.682 60.5098C231.31 60.8356 231.058 61.2567 230.927 61.7729C230.91 61.8491 230.874 61.8872 230.819 61.8872Z" fill="black"/>
<path d="M233.745 110.725C233.796 110.717 233.872 110.712 233.974 110.712C234.465 110.712 234.915 110.918 235.326 111.328C235.736 111.739 235.941 112.263 235.941 112.902C235.941 113.537 235.772 114.098 235.434 114.584C235.099 115.071 234.68 115.458 234.177 115.746C233.677 116.03 233.193 116.171 232.723 116.171C231.695 116.171 230.994 115.964 230.622 115.549C230.525 115.444 230.455 115.317 230.413 115.168C230.413 114.885 230.588 114.743 230.939 114.743C231.028 114.743 231.206 114.849 231.473 115.061C231.743 115.268 231.997 115.439 232.234 115.575C232.471 115.71 232.738 115.774 233.034 115.765C233.589 115.748 234.039 115.482 234.386 114.965C234.737 114.445 234.913 113.878 234.913 113.264C234.913 112.646 234.761 112.181 234.456 111.868C234.151 111.555 233.79 111.398 233.371 111.398C233.146 111.398 232.96 111.44 232.812 111.525C232.664 111.605 232.577 111.662 232.552 111.696C232.526 111.73 232.503 111.747 232.482 111.747C232.465 111.747 232.442 111.73 232.412 111.696C232.382 111.662 232.368 111.633 232.368 111.607C232.368 111.582 232.38 111.557 232.406 111.531C232.435 111.502 232.469 111.472 232.507 111.442C232.545 111.409 232.583 111.377 232.622 111.347C233.675 110.526 234.202 109.807 234.202 109.189C234.202 108.833 234.069 108.537 233.802 108.3C233.536 108.063 233.252 107.945 232.952 107.945C232.173 107.945 231.545 108.383 231.066 109.259C231.062 109.263 231.045 109.265 231.016 109.265C230.99 109.265 230.95 109.252 230.895 109.227C230.84 109.202 230.812 109.183 230.812 109.17C230.812 109.157 230.817 109.138 230.825 109.113C230.838 109.087 230.872 109.005 230.927 108.865C230.982 108.726 231.096 108.548 231.27 108.332C231.447 108.112 231.642 107.922 231.854 107.761C232.306 107.418 232.715 107.247 233.079 107.247C233.747 107.247 234.255 107.38 234.602 107.646C234.949 107.913 235.123 108.285 235.123 108.764C235.123 109.238 234.864 109.733 234.348 110.249C234.259 110.317 234.132 110.408 233.967 110.522C233.806 110.632 233.726 110.698 233.726 110.719V110.725H233.745Z" fill="black"/>
<line x1="117" y1="126.5" x2="232" y2="126.5" stroke="black" stroke-opacity="0.5" stroke-dasharray="2 2"/>
<line y1="127.5" x2="103" y2="127.5" stroke="black" stroke-opacity="0.5" stroke-dasharray="2 2"/>
</svg>
