<svg width="215" height="221" viewBox="0 0 215 221" fill="none" xmlns="http://www.w3.org/2000/svg">
<path d="M143 149.046V7H1.0918L1.0918 149.046C1.0918 188.233 32.859 220 72.0459 220C111.233 220 143 188.233 143 149.046Z" fill="white" stroke="black" stroke-width="2"/>
<path d="M143.5 149.046V6.5H0.591797L0.591797 149.046C0.591797 188.509 32.5829 220.5 72.0459 220.5C111.509 220.5 143.5 188.509 143.5 149.046Z" fill="white" stroke="black"/>
<path d="M49.0215 149L49.0215 6.00001" stroke="black"/>
<path d="M94.5 149.69L94.5 6.68995" stroke="black"/>
<path d="M143.046 149H1V7.0918L143.046 7.0918C182.233 7.0918 214 38.859 214 78.0459C214 117.233 182.233 149 143.046 149Z" fill="#BC9284" stroke="black" stroke-width="2"/>
<path d="M143.046 149.5H0.5V6.5918L143.046 6.5918C182.509 6.5918 214.5 38.5829 214.5 78.0459C214.5 117.509 182.509 149.5 143.046 149.5Z" fill="#BC9284" stroke="black"/>
<path d="M143 55.0205L6.4373e-06 55.0205" stroke="black"/>
<path d="M143.691 100.5L0.691413 100.5" stroke="black"/>
<mask id="path-9-inside-1_271_12790" fill="white">
<path d="M93 6H144V150H93V6Z"/>
</mask>
<path d="M93 6H144V150H93V6Z" fill="white"/>
<path d="M93 6H144V150H93V6Z" fill="white"/>
<path d="M93 6H144V150H93V6Z" fill="white"/>
<path d="M93 6H144V150H93V6Z" fill="white"/>
<path d="M93 6V5H92V6H93ZM144 6H145V5H144V6ZM93 7H144V5H93V7ZM143 6V150H145V6H143ZM94 150V6H92V150H94Z" fill="#372316" mask="url(#path-9-inside-1_271_12790)"/>
<path d="M143 149.046V7H1.0918L1.0918 149.046C1.0918 188.233 32.859 220 72.0459 220C111.233 220 143 188.233 143 149.046Z" fill="white" stroke="black" stroke-width="2"/>
<path d="M143.5 149.046V6.5H0.591797L0.591797 149.046C0.591797 188.509 32.5829 220.5 72.0459 220.5C111.509 220.5 143.5 188.509 143.5 149.046Z" fill="white" stroke="black"/>
<path d="M49.0215 149L49.0215 6.00001" stroke="black"/>
<path d="M94.5 149.69L94.5 6.68995" stroke="black"/>
<path d="M143.046 149H1V7.0918L143.046 7.0918C182.233 7.0918 214 38.859 214 78.0459C214 117.233 182.233 149 143.046 149Z" fill="#BC9284" stroke="black" stroke-width="2"/>
<path d="M143.046 149.5H0.5V6.5918L143.046 6.5918C182.509 6.5918 214.5 38.5829 214.5 78.0459C214.5 117.509 182.509 149.5 143.046 149.5Z" fill="#BC9284" stroke="black"/>
<path d="M143 55.0205L6.4373e-06 55.0205" stroke="black"/>
<path d="M143.691 100.5L0.691413 100.5" stroke="black"/>
<path d="M145 44.5C145 14.9 143.578 6.16667 142.578 6C141.778 10.4 141.245 20.8333 141.078 25.5C140.678 33.1 141.911 111 142.578 149C143.778 117 144.5 83.5 145 44.5Z" fill="#D0C5C5"/>
<path d="M94.5 6.5H142.687L141.684 16.512L141.182 26.1364V46.2762L141.684 98.6399L142.687 150.5H91.5V98.6399L91.5001 46.2762L92 26L93 15.5L94.5 6.5Z" fill="white"/>
<path d="M142.687 6.5H94.5L93 15.5L92 26L91.5001 46.2762L91.5 98.6399V150.5H142.687M142.687 6.5C145.196 6.94538 147.505 32.4804 142.687 150.5M142.687 6.5L141.684 16.512L141.182 26.1364V46.2762L141.684 98.6399L142.687 150.5" stroke="black"/>
<rect x="92" y="150" width="50" height="1" fill="white"/>
<path d="M1 150L2.5 150.5L26.5 152L91 151V150H39.5H18.5H1Z" fill="#AFA9A9"/>
<path d="M146 40L144 133L146 104L148.5 70.5L150.5 50L152.5 29.5L154.5 14.5L155 8L151.5 7.5L144 7L145 12L145.5 20.5L146 40Z" fill="#9D7A6E"/>
<path d="M38.5 149.5V151.5" stroke="black"/>
<path d="M5.23047 13.9707C5.20312 13.9707 5.16406 13.9199 5.11328 13.8184C5.11328 13.8066 5.18359 13.7559 5.32422 13.666C5.46484 13.5723 5.74414 13.3398 6.16211 12.9688C6.58008 12.5977 6.92578 12.248 7.19922 11.9199H7.52734C7.57812 11.9199 7.60938 11.9277 7.62109 11.9434C7.63281 11.959 7.63867 11.9883 7.63867 12.0312V19.1797C7.63867 19.4258 7.66406 19.5645 7.71484 19.5957C7.90625 19.709 8.29492 19.7656 8.88086 19.7656C8.91211 19.7656 8.92773 19.7812 8.92773 19.8125V19.9531C8.92773 19.9844 8.91211 20 8.88086 20H5.35352C5.32227 20 5.30664 19.9844 5.30664 19.9531V19.8125C5.30664 19.7812 5.32227 19.7656 5.35352 19.7656C5.54883 19.7539 5.71875 19.7461 5.86328 19.7422C6.00781 19.7344 6.16016 19.7227 6.32031 19.707C6.48047 19.6914 6.5918 19.666 6.6543 19.6309C6.7207 19.5957 6.75977 19.543 6.77148 19.4727C6.7832 19.4023 6.78906 19.3105 6.78906 19.1973V12.957C6.79297 12.9492 6.75 12.9805 6.66016 13.0508C6.15234 13.457 5.6875 13.7617 5.26562 13.9648L5.23047 13.9707Z" fill="black"/>
<path d="M4.75586 62.3574L4.61523 62.375C4.57617 62.375 4.55664 62.3633 4.55664 62.3398C4.55664 62.2305 4.62109 61.9902 4.75 61.6191C4.87891 61.2441 5.02734 60.9688 5.19531 60.793C5.76172 60.2109 6.39844 59.9199 7.10547 59.9199C7.8125 59.9199 8.38086 60.1426 8.81055 60.5879C9.24023 61.0293 9.45508 61.5859 9.45508 62.2578C9.45508 62.9258 9.02148 63.6641 8.1543 64.4727C7.88086 64.7305 7.65234 64.9375 7.46875 65.0938C7.23438 65.293 6.82031 65.6816 6.22656 66.2598C5.63672 66.834 5.3418 67.1504 5.3418 67.209H8.64062C8.92578 67.209 9.12695 67.1289 9.24414 66.9688C9.31445 66.875 9.4043 66.627 9.51367 66.2246H9.73633L9.48438 67.8066C9.46484 67.8965 9.41992 67.9609 9.34961 68H4.47461C4.45508 68 4.44531 67.9492 4.44531 67.8477C4.44531 67.75 4.53516 67.5977 4.71484 67.3906C4.89844 67.1836 5.13086 66.9395 5.41211 66.6582C5.69727 66.373 6.08398 65.9844 6.57227 65.4922C7.81445 64.2305 8.43555 63.2207 8.43555 62.4629C8.43555 61.998 8.26562 61.5781 7.92578 61.2031C7.58984 60.8242 7.19727 60.6348 6.74805 60.6348C6.30273 60.6348 5.9043 60.7852 5.55273 61.0859C5.20898 61.3867 4.97656 61.7754 4.85547 62.252C4.83984 62.3223 4.80664 62.3574 4.75586 62.3574Z" fill="black"/>
<path d="M7.45703 108.131C7.50391 108.123 7.57422 108.119 7.66797 108.119C8.12109 108.119 8.53711 108.309 8.91602 108.688C9.29492 109.066 9.48438 109.551 9.48438 110.141C9.48438 110.727 9.32812 111.244 9.01562 111.693C8.70703 112.143 8.32031 112.5 7.85547 112.766C7.39453 113.027 6.94727 113.158 6.51367 113.158C5.56445 113.158 4.91797 112.967 4.57422 112.584C4.48438 112.486 4.41992 112.369 4.38086 112.232C4.38086 111.971 4.54297 111.84 4.86719 111.84C4.94922 111.84 5.11328 111.938 5.35938 112.133C5.60938 112.324 5.84375 112.482 6.0625 112.607C6.28125 112.732 6.52734 112.791 6.80078 112.783C7.3125 112.768 7.72852 112.521 8.04883 112.045C8.37305 111.564 8.53516 111.041 8.53516 110.475C8.53516 109.904 8.39453 109.475 8.11328 109.186C7.83203 108.896 7.49805 108.752 7.11133 108.752C6.9043 108.752 6.73242 108.791 6.5957 108.869C6.45898 108.943 6.37891 108.996 6.35547 109.027C6.33203 109.059 6.31055 109.074 6.29102 109.074C6.27539 109.074 6.25391 109.059 6.22656 109.027C6.19922 108.996 6.18555 108.969 6.18555 108.945C6.18555 108.922 6.19727 108.898 6.2207 108.875C6.24805 108.848 6.2793 108.82 6.31445 108.793C6.34961 108.762 6.38477 108.732 6.41992 108.705C7.39258 107.947 7.87891 107.283 7.87891 106.713C7.87891 106.385 7.75586 106.111 7.50977 105.893C7.26367 105.674 7.00195 105.564 6.72461 105.564C6.00586 105.564 5.42578 105.969 4.98438 106.777C4.98047 106.781 4.96484 106.783 4.9375 106.783C4.91406 106.783 4.87695 106.771 4.82617 106.748C4.77539 106.725 4.75 106.707 4.75 106.695C4.75 106.684 4.75391 106.666 4.76172 106.643C4.77344 106.619 4.80469 106.543 4.85547 106.414C4.90625 106.285 5.01172 106.121 5.17188 105.922C5.33594 105.719 5.51562 105.543 5.71094 105.395C6.12891 105.078 6.50586 104.92 6.8418 104.92C7.45898 104.92 7.92773 105.043 8.24805 105.289C8.56836 105.535 8.72852 105.879 8.72852 106.32C8.72852 106.758 8.49023 107.215 8.01367 107.691C7.93164 107.754 7.81445 107.838 7.66211 107.943C7.51367 108.045 7.43945 108.105 7.43945 108.125V108.131H7.45703Z" fill="black"/>
<path d="M104.881 19.7773C104.861 19.8086 104.812 19.8164 104.734 19.8008C104.66 19.7812 104.572 19.7715 104.471 19.7715C104.369 19.7715 104.225 19.793 104.037 19.8359C103.854 19.875 103.562 19.9375 103.164 20.0234C102.766 20.1133 102.402 20.1582 102.074 20.1582C101.332 20.1582 100.611 19.9844 99.9121 19.6367C99.2168 19.2852 98.6602 18.7891 98.2422 18.1484C97.8242 17.5039 97.6152 16.7578 97.6152 15.9102C97.6152 15.0625 97.8242 14.2949 98.2422 13.6074C98.8516 12.5996 99.7695 11.9434 100.996 11.6387C101.387 11.541 101.777 11.4922 102.168 11.4922C102.703 11.4922 103.338 11.582 104.072 11.7617C104.295 11.8164 104.482 11.873 104.635 11.9316C104.791 11.9902 104.887 12.0195 104.922 12.0195L105.098 11.9727H105.279C105.326 11.9727 105.35 12.0059 105.35 12.0723V13.8945C105.35 13.9336 105.314 13.9531 105.244 13.9531C105.174 13.9531 105.133 13.9453 105.121 13.9297C105.109 13.9102 105.098 13.8887 105.086 13.8652C105.074 13.8379 105.061 13.8105 105.045 13.7832C105.033 13.7559 105.02 13.7305 105.004 13.707C104.992 13.6836 104.984 13.666 104.98 13.6543C104.395 12.4785 103.506 11.8906 102.314 11.8906C101.24 11.8906 100.4 12.2324 99.7949 12.916C99.1895 13.5996 98.8867 14.5059 98.8867 15.6348C98.8867 16.7598 99.2188 17.7266 99.8828 18.5352C100.551 19.3438 101.457 19.748 102.602 19.748C103.227 19.748 103.795 19.5625 104.307 19.1914C104.822 18.8203 105.227 18.3652 105.52 17.8262C105.527 17.8027 105.551 17.791 105.59 17.791H105.666C105.705 17.791 105.725 17.8145 105.725 17.8613C105.725 17.9082 105.713 17.9531 105.689 17.9961L104.881 19.7773Z" fill="black"/>
</svg>
