<svg width="217" height="221" viewBox="0 0 217 221" fill="none" xmlns="http://www.w3.org/2000/svg">
<path d="M3.0918 149.046C3.0918 188.233 34.859 220 74.0459 220C113.233 220 145 188.233 145 149.046V7H3.0918L3.0918 149.046Z" fill="white" stroke="black" stroke-width="2"/>
<path d="M2.5918 149.046C2.5918 188.509 34.5829 220.5 74.0459 220.5C113.509 220.5 145.5 188.509 145.5 149.046V6.5H2.5918L2.5918 149.046Z" fill="white" stroke="black"/>
<path d="M51.0215 149L51.0215 6.00001" stroke="black"/>
<path d="M96.5 149.69L96.5 6.68995" stroke="black"/>
<path d="M145.046 7.0918C184.233 7.0918 216 38.859 216 78.0459C216 117.233 184.233 149 145.046 149H3V7.0918L145.046 7.0918Z" fill="#BC9284" stroke="black" stroke-width="2"/>
<path d="M145.046 6.5918C184.509 6.5918 216.5 38.5829 216.5 78.0459C216.5 117.509 184.509 149.5 145.046 149.5H2.5V6.5918L145.046 6.5918Z" fill="#BC9284" stroke="black"/>
<path d="M145 55.0205L2.00001 55.0205" stroke="black"/>
<path d="M145.691 100.5L2.69141 100.5" stroke="black"/>
<mask id="path-9-inside-1_389_2969" fill="white">
<path d="M95 6H146V150H95V6Z"/>
</mask>
<path d="M95 6H146V150H95V6Z" fill="white"/>
<path d="M95 6H146V150H95V6Z" fill="white"/>
<path d="M95 6H146V150H95V6Z" fill="white"/>
<path d="M95 6H146V150H95V6Z" fill="white"/>
<path d="M95 6V5H94V6H95ZM146 6H147V5H146V6ZM95 7H146V5H95V7ZM145 6V150H147V6H145ZM96 150V6H94V150H96Z" fill="#372316" mask="url(#path-9-inside-1_389_2969)"/>
<path d="M3.0918 149.046C3.0918 188.233 34.859 220 74.0459 220C113.233 220 145 188.233 145 149.046V7H3.0918L3.0918 149.046Z" fill="white" stroke="black" stroke-width="2"/>
<path d="M2.5918 149.046C2.5918 188.509 34.5829 220.5 74.0459 220.5C113.509 220.5 145.5 188.509 145.5 149.046V6.5H2.5918L2.5918 149.046Z" fill="white" stroke="black"/>
<path d="M51.0215 149L51.0215 6.00001" stroke="black"/>
<path d="M96.5 149.69L96.5 6.68995" stroke="black"/>
<path d="M145.046 7.0918C184.233 7.0918 216 38.859 216 78.0459C216 117.233 184.233 149 145.046 149H3V7.0918L145.046 7.0918Z" fill="#BC9284" stroke="black" stroke-width="2"/>
<path d="M145.046 6.5918C184.509 6.5918 216.5 38.5829 216.5 78.0459C216.5 117.509 184.509 149.5 145.046 149.5H2.5V6.5918L145.046 6.5918Z" fill="#BC9284" stroke="black"/>
<path d="M145 55.0205L2.00001 55.0205" stroke="black"/>
<path d="M145.691 100.5L2.69141 100.5" stroke="black"/>
<path d="M145.998 44.7343C145.998 15.3413 146.092 7.1655 144.893 7C143.933 11.3692 143.294 21.7296 143.094 26.3636C142.614 33.9105 144.093 111.266 144.893 149C146.332 117.224 145.399 66.4149 145.998 44.7343Z" fill="#DAD3D3"/>
<path d="M97 7H144.694L143.7 16.9424L143.203 26.5001V47.2188L143.7 98.5001L144.694 150H94V47.2188L94.5 27L95.5 15.5L97 7Z" fill="white"/>
<path d="M144.694 7H97L95.5 15.5L94.5 27L94 47.2188V150H144.694M144.694 7C147.179 7.44229 145.499 32.8194 144.694 150M144.694 7L143.7 16.9424L143.203 26.5001V47.2188L143.7 98.5001L144.694 150" stroke="black"/>
<rect x="94" y="150" width="50" height="1" fill="white"/>
<path d="M40.0039 149.5C9.50391 149 2.67407 151.121 2.50391 148.5C22.0039 142 36.5039 141 64.5039 139.5C93.5039 140 102.004 141 140.504 148.5C107.504 149.5 63.5039 149 40.0039 149.5Z" fill="#DAD1D1"/>
<path d="M38.1276 150.049C7.79981 150.049 4.50921 149.057 3.00391 149.553C4.50391 152.5 17.5 152.5 46.5 153.5C140.5 148 145.004 152.5 145.004 149.553C113.393 148.066 61.2089 150.049 38.1276 150.049Z" fill="#AFA9A9"/>
<path d="M1.00391 97.3127V148.5L10.5039 145.891L17.5039 144L27.0039 142L38.5039 140.5L64.0039 139L95.0039 140.5L145.004 148.5V97.3127L96.0039 92L67.0039 90L41.5039 91L18.5039 94L1.00391 97.3127Z" fill="#BC9284"/>
<path d="M1.00391 148.5V97.3127L18.5039 94L41.5039 91L67.0039 90L96.0039 92L145.004 97.3127V148.5M1.00391 148.5C1.44929 151.009 27.0039 150 145.004 148.5M1.00391 148.5L10.5039 145.891L17.5039 144L27.0039 142L38.5039 140.5L64.0039 139L95.0039 140.5L145.004 148.5" stroke="black"/>
<path d="M94.5 140.5V152" stroke="black"/>
<rect x="146" y="98" width="50" height="2" transform="rotate(90 146 98)" fill="#BC9284"/>
<path d="M95 141V150H118H132H145V149L139 148L95 141Z" fill="#DAD1D1"/>
<path d="M146 55L145.5 97L147 91.5L152.5 59L157.5 33L159.5 18.5L160 8.5L157 8L153 7.5L146 7L146.5 21.5L146 55Z" fill="#9D7A6E"/>
<path d="M40 150L40 152" stroke="black"/>
<path d="M119.707 31.2929C119.317 30.9024 118.683 30.9024 118.293 31.2929L111.929 37.6569C111.538 38.0474 111.538 38.6806 111.929 39.0711C112.319 39.4616 112.953 39.4616 113.343 39.0711L119 33.4142L124.657 39.0711C125.047 39.4616 125.681 39.4616 126.071 39.0711C126.462 38.6806 126.462 38.0474 126.071 37.6569L119.707 31.2929ZM120 94V92.0625H118V94H120ZM120 88.1875V84.3125H118V88.1875H120ZM120 80.4375V76.5625H118V80.4375H120ZM120 72.6875V68.8125H118V72.6875H120ZM120 64.9375V61.0625H118V64.9375H120ZM120 57.1875L120 53.3125H118L118 57.1875H120ZM120 49.4375V45.5625H118V49.4375H120ZM120 41.6875V37.8125H118V41.6875H120ZM120 33.9375V32H118V33.9375H120ZM119.707 31.2929C119.317 30.9024 118.683 30.9024 118.293 31.2929L111.929 37.6569C111.538 38.0474 111.538 38.6806 111.929 39.0711C112.319 39.4616 112.953 39.4616 113.343 39.0711L119 33.4142L124.657 39.0711C125.047 39.4616 125.681 39.4616 126.071 39.0711C126.462 38.6806 126.462 38.0474 126.071 37.6569L119.707 31.2929ZM120 94V92.0625H118V94H120ZM120 88.1875V84.3125H118V88.1875H120ZM120 80.4375V76.5625H118V80.4375H120ZM120 72.6875V68.8125H118V72.6875H120ZM120 64.9375V61.0625H118V64.9375H120ZM120 57.1875L120 53.3125H118L118 57.1875H120ZM120 49.4375V45.5625H118V49.4375H120ZM120 41.6875V37.8125H118V41.6875H120ZM120 33.9375V32H118V33.9375H120Z" fill="black"/>
<path d="M118.511 144L118.508 165.5" stroke="black" stroke-width="2" stroke-dasharray="4 4"/>
<path d="M7.23047 13.9707C7.20312 13.9707 7.16406 13.9199 7.11328 13.8184C7.11328 13.8066 7.18359 13.7559 7.32422 13.666C7.46484 13.5723 7.74414 13.3398 8.16211 12.9688C8.58008 12.5977 8.92578 12.248 9.19922 11.9199H9.52734C9.57812 11.9199 9.60938 11.9277 9.62109 11.9434C9.63281 11.959 9.63867 11.9883 9.63867 12.0312V19.1797C9.63867 19.4258 9.66406 19.5645 9.71484 19.5957C9.90625 19.709 10.2949 19.7656 10.8809 19.7656C10.9121 19.7656 10.9277 19.7812 10.9277 19.8125V19.9531C10.9277 19.9844 10.9121 20 10.8809 20H7.35352C7.32227 20 7.30664 19.9844 7.30664 19.9531V19.8125C7.30664 19.7812 7.32227 19.7656 7.35352 19.7656C7.54883 19.7539 7.71875 19.7461 7.86328 19.7422C8.00781 19.7344 8.16016 19.7227 8.32031 19.707C8.48047 19.6914 8.5918 19.666 8.6543 19.6309C8.7207 19.5957 8.75977 19.543 8.77148 19.4727C8.7832 19.4023 8.78906 19.3105 8.78906 19.1973V12.957C8.79297 12.9492 8.75 12.9805 8.66016 13.0508C8.15234 13.457 7.6875 13.7617 7.26562 13.9648L7.23047 13.9707Z" fill="black"/>
<path d="M6.75586 61.3574L6.61523 61.375C6.57617 61.375 6.55664 61.3633 6.55664 61.3398C6.55664 61.2305 6.62109 60.9902 6.75 60.6191C6.87891 60.2441 7.02734 59.9688 7.19531 59.793C7.76172 59.2109 8.39844 58.9199 9.10547 58.9199C9.8125 58.9199 10.3809 59.1426 10.8105 59.5879C11.2402 60.0293 11.4551 60.5859 11.4551 61.2578C11.4551 61.9258 11.0215 62.6641 10.1543 63.4727C9.88086 63.7305 9.65234 63.9375 9.46875 64.0938C9.23438 64.293 8.82031 64.6816 8.22656 65.2598C7.63672 65.834 7.3418 66.1504 7.3418 66.209H10.6406C10.9258 66.209 11.127 66.1289 11.2441 65.9688C11.3145 65.875 11.4043 65.627 11.5137 65.2246H11.7363L11.4844 66.8066C11.4648 66.8965 11.4199 66.9609 11.3496 67H6.47461C6.45508 67 6.44531 66.9492 6.44531 66.8477C6.44531 66.75 6.53516 66.5977 6.71484 66.3906C6.89844 66.1836 7.13086 65.9395 7.41211 65.6582C7.69727 65.373 8.08398 64.9844 8.57227 64.4922C9.81445 63.2305 10.4355 62.2207 10.4355 61.4629C10.4355 60.998 10.2656 60.5781 9.92578 60.2031C9.58984 59.8242 9.19727 59.6348 8.74805 59.6348C8.30273 59.6348 7.9043 59.7852 7.55273 60.0859C7.20898 60.3867 6.97656 60.7754 6.85547 61.252C6.83984 61.3223 6.80664 61.3574 6.75586 61.3574Z" fill="black"/>
<path d="M7.45703 104.131C7.50391 104.123 7.57422 104.119 7.66797 104.119C8.12109 104.119 8.53711 104.309 8.91602 104.688C9.29492 105.066 9.48438 105.551 9.48438 106.141C9.48438 106.727 9.32812 107.244 9.01562 107.693C8.70703 108.143 8.32031 108.5 7.85547 108.766C7.39453 109.027 6.94727 109.158 6.51367 109.158C5.56445 109.158 4.91797 108.967 4.57422 108.584C4.48438 108.486 4.41992 108.369 4.38086 108.232C4.38086 107.971 4.54297 107.84 4.86719 107.84C4.94922 107.84 5.11328 107.938 5.35938 108.133C5.60938 108.324 5.84375 108.482 6.0625 108.607C6.28125 108.732 6.52734 108.791 6.80078 108.783C7.3125 108.768 7.72852 108.521 8.04883 108.045C8.37305 107.564 8.53516 107.041 8.53516 106.475C8.53516 105.904 8.39453 105.475 8.11328 105.186C7.83203 104.896 7.49805 104.752 7.11133 104.752C6.9043 104.752 6.73242 104.791 6.5957 104.869C6.45898 104.943 6.37891 104.996 6.35547 105.027C6.33203 105.059 6.31055 105.074 6.29102 105.074C6.27539 105.074 6.25391 105.059 6.22656 105.027C6.19922 104.996 6.18555 104.969 6.18555 104.945C6.18555 104.922 6.19727 104.898 6.2207 104.875C6.24805 104.848 6.2793 104.82 6.31445 104.793C6.34961 104.762 6.38477 104.732 6.41992 104.705C7.39258 103.947 7.87891 103.283 7.87891 102.713C7.87891 102.385 7.75586 102.111 7.50977 101.893C7.26367 101.674 7.00195 101.564 6.72461 101.564C6.00586 101.564 5.42578 101.969 4.98438 102.777C4.98047 102.781 4.96484 102.783 4.9375 102.783C4.91406 102.783 4.87695 102.771 4.82617 102.748C4.77539 102.725 4.75 102.707 4.75 102.695C4.75 102.684 4.75391 102.666 4.76172 102.643C4.77344 102.619 4.80469 102.543 4.85547 102.414C4.90625 102.285 5.01172 102.121 5.17188 101.922C5.33594 101.719 5.51562 101.543 5.71094 101.395C6.12891 101.078 6.50586 100.92 6.8418 100.92C7.45898 100.92 7.92773 101.043 8.24805 101.289C8.56836 101.535 8.72852 101.879 8.72852 102.32C8.72852 102.758 8.49023 103.215 8.01367 103.691C7.93164 103.754 7.81445 103.838 7.66211 103.943C7.51367 104.045 7.43945 104.105 7.43945 104.125V104.131H7.45703Z" fill="black"/>
<path d="M106.881 19.7773C106.861 19.8086 106.812 19.8164 106.734 19.8008C106.66 19.7812 106.572 19.7715 106.471 19.7715C106.369 19.7715 106.225 19.793 106.037 19.8359C105.854 19.875 105.562 19.9375 105.164 20.0234C104.766 20.1133 104.402 20.1582 104.074 20.1582C103.332 20.1582 102.611 19.9844 101.912 19.6367C101.217 19.2852 100.66 18.7891 100.242 18.1484C99.8242 17.5039 99.6152 16.7578 99.6152 15.9102C99.6152 15.0625 99.8242 14.2949 100.242 13.6074C100.852 12.5996 101.77 11.9434 102.996 11.6387C103.387 11.541 103.777 11.4922 104.168 11.4922C104.703 11.4922 105.338 11.582 106.072 11.7617C106.295 11.8164 106.482 11.873 106.635 11.9316C106.791 11.9902 106.887 12.0195 106.922 12.0195L107.098 11.9727H107.279C107.326 11.9727 107.35 12.0059 107.35 12.0723V13.8945C107.35 13.9336 107.314 13.9531 107.244 13.9531C107.174 13.9531 107.133 13.9453 107.121 13.9297C107.109 13.9102 107.098 13.8887 107.086 13.8652C107.074 13.8379 107.061 13.8105 107.045 13.7832C107.033 13.7559 107.02 13.7305 107.004 13.707C106.992 13.6836 106.984 13.666 106.98 13.6543C106.395 12.4785 105.506 11.8906 104.314 11.8906C103.24 11.8906 102.4 12.2324 101.795 12.916C101.189 13.5996 100.887 14.5059 100.887 15.6348C100.887 16.7598 101.219 17.7266 101.883 18.5352C102.551 19.3438 103.457 19.748 104.602 19.748C105.227 19.748 105.795 19.5625 106.307 19.1914C106.822 18.8203 107.227 18.3652 107.52 17.8262C107.527 17.8027 107.551 17.791 107.59 17.791H107.666C107.705 17.791 107.725 17.8145 107.725 17.8613C107.725 17.9082 107.713 17.9531 107.689 17.9961L106.881 19.7773Z" fill="black"/>
</svg>
