<svg width="215" height="221" viewBox="0 0 215 221" fill="none" xmlns="http://www.w3.org/2000/svg">
<path d="M143 149.046V7H1.0918L1.0918 149.046C1.0918 188.233 32.859 220 72.0459 220C111.233 220 143 188.233 143 149.046Z" fill="white" stroke="black" stroke-width="2"/>
<path d="M143.5 149.046V6.5H0.591797L0.591797 149.046C0.591797 188.509 32.5829 220.5 72.0459 220.5C111.509 220.5 143.5 188.509 143.5 149.046Z" fill="white" stroke="black"/>
<path d="M49.0215 149L49.0215 6.00001" stroke="black"/>
<path d="M94.5 149.69L94.5 6.68995" stroke="black"/>
<path d="M143.046 149H1V7.0918L143.046 7.0918C182.233 7.0918 214 38.859 214 78.0459C214 117.233 182.233 149 143.046 149Z" fill="#BC9284" stroke="black" stroke-width="2"/>
<path d="M143.046 149.5H0.5V6.5918L143.046 6.5918C182.509 6.5918 214.5 38.5829 214.5 78.0459C214.5 117.509 182.509 149.5 143.046 149.5Z" fill="#BC9284" stroke="black"/>
<path d="M143 55.0205L6.4373e-06 55.0205" stroke="black"/>
<path d="M143.691 100.5L0.691413 100.5" stroke="black"/>
<mask id="path-9-inside-1_274_13532" fill="white">
<path d="M93 6H144V150H93V6Z"/>
</mask>
<path d="M93 6H144V150H93V6Z" fill="white"/>
<path d="M93 6H144V150H93V6Z" fill="white"/>
<path d="M93 6H144V150H93V6Z" fill="white"/>
<path d="M93 6H144V150H93V6Z" fill="white"/>
<path d="M93 6V5H92V6H93ZM144 6H145V5H144V6ZM93 7H144V5H93V7ZM143 6V150H145V6H143ZM94 150V6H92V150H94Z" fill="#372316" mask="url(#path-9-inside-1_274_13532)"/>
<path d="M143 149.046V7H1.0918L1.0918 149.046C1.0918 188.233 32.859 220 72.0459 220C111.233 220 143 188.233 143 149.046Z" fill="white" stroke="black" stroke-width="2"/>
<path d="M143.5 149.046V6.5H0.591797L0.591797 149.046C0.591797 188.509 32.5829 220.5 72.0459 220.5C111.509 220.5 143.5 188.509 143.5 149.046Z" fill="white" stroke="black"/>
<path d="M49.0215 149L49.0215 6.00001" stroke="black"/>
<path d="M94.5 149.69L94.5 6.68995" stroke="black"/>
<path d="M143.046 149H1V7.0918L143.046 7.0918C182.233 7.0918 214 38.859 214 78.0459C214 117.233 182.233 149 143.046 149Z" fill="#BC9284" stroke="black" stroke-width="2"/>
<path d="M143.046 149.5H0.5V6.5918L143.046 6.5918C182.509 6.5918 214.5 38.5829 214.5 78.0459C214.5 117.509 182.509 149.5 143.046 149.5Z" fill="#BC9284" stroke="black"/>
<path d="M143 55.0205L6.4373e-06 55.0205" stroke="black"/>
<path d="M143.691 100.5L0.691413 100.5" stroke="black"/>
<path d="M144.501 43.5002C144.501 14.1072 144.03 6.66575 142.501 6.50024C139 14.0002 136.73 18.5002 136.001 27.5002C135.389 35.0471 140.394 110.266 141.414 148C143.248 116.224 143.736 65.1809 144.501 43.5002Z" fill="#E3DDDD"/>
<path d="M93 7.00024L142.687 6.49512L138.5 13.5002L136.5 20.0002L135.5 28.5002L136.5 38.5002L137.5 47.0002L138.5 56.0002L139.5 71.0002L140.5 97.5002L142.687 149H91.5V75.5002L90.5 65.5002L90 57.0002L88.5 40.0002V30.0002V20.5002L90 13.5002L93 7.00024Z" fill="white"/>
<path d="M142.687 6.49512L93 7.00024L90 13.5002L88.5 20.5002V30.0002V40.0002L90 57.0002L90.5 65.5002L91.5 75.5002V149H142.687M142.687 6.49512C145.196 6.93587 145.5 32.5002 142.687 149M142.687 6.49512L138.5 13.5002L136.5 20.0002L135.5 28.5002L136.5 38.5002L137.5 47.0002L138.5 56.0002L139.5 71.0002L140.5 97.5002L142.687 149" stroke="black"/>
<rect x="92" y="150" width="50" height="1" fill="white"/>
<path d="M38.2378 152C8.84476 152 1.1655 149.816 1 148.724C5.36923 147.85 15.7296 147.267 20.3636 147.085C27.9105 146.648 105.266 147.995 143 148.724C111.224 150.034 59.9184 151.454 38.2378 152Z" fill="#E3DDDD"/>
<path d="M0.5 100.5V149.499L10.512 148.528L20.1364 148.043H40.2762L93 148L144.5 149.499V100L40 99L22.5 99.5L12 100L0.5 100.5Z" fill="#BC9284"/>
<path d="M0.5 149.499V100.5L12 100L22.5 99.5L40 99L144.5 100V149.499M0.5 149.499C2 151.251 26.5 151.735 144.5 149.499M0.5 149.499L10.512 148.528L20.1364 148.043H40.2762L93 148L144.5 149.499" stroke="black"/>
<path d="M92 148.5V151.5H115.5L129.23 151L143 150.833V149.833L136.5 149.5L114 149L93 148.5H92Z" fill="white"/>
<path d="M140 56H146L145.5 76L145 87.39V99.5H143H141L140 74.5L139 56H140Z" fill="#BC9284"/>
<path d="M147 100.5L146.643 122.609L146.286 134.916L145.5 149H143.5L142.714 120.989L142.5 100.5H142.714H144.857H147Z" fill="#BC9284"/>
<line x1="91.5" y1="148" x2="91.5" y2="152" stroke="black"/>
<path d="M141 99.5H142L143.8 82.4L146.5 56H139L139.533 65.6288L141 99.5Z" fill="#9D7A6E"/>
<path d="M1 150.5L6.5 152L27 153.5L91 152V151L39.5 151.5H18.5L1 150.5Z" fill="#AFA9A9"/>
<path d="M92 148.5V152L143 151.5V149.5L124 149L94.5 148.5H92Z" fill="#AFA9A9"/>
<path d="M145 56H146.5L149 38.5L150.5 22.5L152 7.5L144 7L145 19.25V35.5833V45.7917V56Z" fill="#9D7A6E"/>
<line x1="146" y1="55.5" x2="139" y2="55.5" stroke="black"/>
<path d="M41.0156 151L41.0156 152.5" stroke="black"/>
<path d="M29.2929 76.2929C28.9024 76.6834 28.9024 77.3166 29.2929 77.7071L35.6569 84.0711C36.0474 84.4616 36.6806 84.4616 37.0711 84.0711C37.4616 83.6805 37.4616 83.0474 37.0711 82.6569L31.4142 77L37.0711 71.3431C37.4616 70.9526 37.4616 70.3195 37.0711 69.9289C36.6806 69.5384 36.0474 69.5384 35.6569 69.9289L29.2929 76.2929ZM91 76H89.0938V78H91V76ZM85.2813 76H81.4688V78H85.2813V76ZM77.6563 76H73.8438V78H77.6563V76ZM70.0313 76L66.2188 76V78L70.0313 78V76ZM62.4063 76H58.5938V78H62.4063V76ZM54.7813 76H50.9688V78H54.7813V76ZM47.1563 76H43.3438V78H47.1563V76ZM39.5313 76H35.7188V78H39.5313V76ZM31.9063 76H30V78H31.9063V76ZM29.2929 76.2929C28.9024 76.6834 28.9024 77.3166 29.2929 77.7071L35.6569 84.0711C36.0474 84.4616 36.6806 84.4616 37.0711 84.0711C37.4616 83.6805 37.4616 83.0474 37.0711 82.6569L31.4142 77L37.0711 71.3431C37.4616 70.9526 37.4616 70.3195 37.0711 69.9289C36.6806 69.5384 36.0474 69.5384 35.6569 69.9289L29.2929 76.2929ZM91 76H89.0938V78H91V76ZM85.2813 76H81.4688V78H85.2813V76ZM77.6563 76H73.8438V78H77.6563V76ZM70.0313 76L66.2188 76V78L70.0313 78V76ZM62.4063 76H58.5938V78H62.4063V76ZM54.7813 76H50.9688V78H54.7813V76ZM47.1563 76H43.3438V78H47.1563V76ZM39.5313 76H35.7188V78H39.5313V76ZM31.9063 76H30V78H31.9063V76Z" fill="black"/>
<path d="M140.006 76.0085L161.5 75.5" stroke="black" stroke-width="2" stroke-dasharray="4 4"/>
<path d="M6.23047 13.9707C6.20312 13.9707 6.16406 13.9199 6.11328 13.8184C6.11328 13.8066 6.18359 13.7559 6.32422 13.666C6.46484 13.5723 6.74414 13.3398 7.16211 12.9688C7.58008 12.5977 7.92578 12.248 8.19922 11.9199H8.52734C8.57812 11.9199 8.60938 11.9277 8.62109 11.9434C8.63281 11.959 8.63867 11.9883 8.63867 12.0312V19.1797C8.63867 19.4258 8.66406 19.5645 8.71484 19.5957C8.90625 19.709 9.29492 19.7656 9.88086 19.7656C9.91211 19.7656 9.92773 19.7812 9.92773 19.8125V19.9531C9.92773 19.9844 9.91211 20 9.88086 20H6.35352C6.32227 20 6.30664 19.9844 6.30664 19.9531V19.8125C6.30664 19.7812 6.32227 19.7656 6.35352 19.7656C6.54883 19.7539 6.71875 19.7461 6.86328 19.7422C7.00781 19.7344 7.16016 19.7227 7.32031 19.707C7.48047 19.6914 7.5918 19.666 7.6543 19.6309C7.7207 19.5957 7.75977 19.543 7.77148 19.4727C7.7832 19.4023 7.78906 19.3105 7.78906 19.1973V12.957C7.79297 12.9492 7.75 12.9805 7.66016 13.0508C7.15234 13.457 6.6875 13.7617 6.26562 13.9648L6.23047 13.9707Z" fill="black"/>
<path d="M5.75586 62.3574L5.61523 62.375C5.57617 62.375 5.55664 62.3633 5.55664 62.3398C5.55664 62.2305 5.62109 61.9902 5.75 61.6191C5.87891 61.2441 6.02734 60.9688 6.19531 60.793C6.76172 60.2109 7.39844 59.9199 8.10547 59.9199C8.8125 59.9199 9.38086 60.1426 9.81055 60.5879C10.2402 61.0293 10.4551 61.5859 10.4551 62.2578C10.4551 62.9258 10.0215 63.6641 9.1543 64.4727C8.88086 64.7305 8.65234 64.9375 8.46875 65.0938C8.23438 65.293 7.82031 65.6816 7.22656 66.2598C6.63672 66.834 6.3418 67.1504 6.3418 67.209H9.64062C9.92578 67.209 10.127 67.1289 10.2441 66.9688C10.3145 66.875 10.4043 66.627 10.5137 66.2246H10.7363L10.4844 67.8066C10.4648 67.8965 10.4199 67.9609 10.3496 68H5.47461C5.45508 68 5.44531 67.9492 5.44531 67.8477C5.44531 67.75 5.53516 67.5977 5.71484 67.3906C5.89844 67.1836 6.13086 66.9395 6.41211 66.6582C6.69727 66.373 7.08398 65.9844 7.57227 65.4922C8.81445 64.2305 9.43555 63.2207 9.43555 62.4629C9.43555 61.998 9.26562 61.5781 8.92578 61.2031C8.58984 60.8242 8.19727 60.6348 7.74805 60.6348C7.30273 60.6348 6.9043 60.7852 6.55273 61.0859C6.20898 61.3867 5.97656 61.7754 5.85547 62.252C5.83984 62.3223 5.80664 62.3574 5.75586 62.3574Z" fill="black"/>
<path d="M8.45703 109.131C8.50391 109.123 8.57422 109.119 8.66797 109.119C9.12109 109.119 9.53711 109.309 9.91602 109.688C10.2949 110.066 10.4844 110.551 10.4844 111.141C10.4844 111.727 10.3281 112.244 10.0156 112.693C9.70703 113.143 9.32031 113.5 8.85547 113.766C8.39453 114.027 7.94727 114.158 7.51367 114.158C6.56445 114.158 5.91797 113.967 5.57422 113.584C5.48438 113.486 5.41992 113.369 5.38086 113.232C5.38086 112.971 5.54297 112.84 5.86719 112.84C5.94922 112.84 6.11328 112.938 6.35938 113.133C6.60938 113.324 6.84375 113.482 7.0625 113.607C7.28125 113.732 7.52734 113.791 7.80078 113.783C8.3125 113.768 8.72852 113.521 9.04883 113.045C9.37305 112.564 9.53516 112.041 9.53516 111.475C9.53516 110.904 9.39453 110.475 9.11328 110.186C8.83203 109.896 8.49805 109.752 8.11133 109.752C7.9043 109.752 7.73242 109.791 7.5957 109.869C7.45898 109.943 7.37891 109.996 7.35547 110.027C7.33203 110.059 7.31055 110.074 7.29102 110.074C7.27539 110.074 7.25391 110.059 7.22656 110.027C7.19922 109.996 7.18555 109.969 7.18555 109.945C7.18555 109.922 7.19727 109.898 7.2207 109.875C7.24805 109.848 7.2793 109.82 7.31445 109.793C7.34961 109.762 7.38477 109.732 7.41992 109.705C8.39258 108.947 8.87891 108.283 8.87891 107.713C8.87891 107.385 8.75586 107.111 8.50977 106.893C8.26367 106.674 8.00195 106.564 7.72461 106.564C7.00586 106.564 6.42578 106.969 5.98438 107.777C5.98047 107.781 5.96484 107.783 5.9375 107.783C5.91406 107.783 5.87695 107.771 5.82617 107.748C5.77539 107.725 5.75 107.707 5.75 107.695C5.75 107.684 5.75391 107.666 5.76172 107.643C5.77344 107.619 5.80469 107.543 5.85547 107.414C5.90625 107.285 6.01172 107.121 6.17188 106.922C6.33594 106.719 6.51562 106.543 6.71094 106.395C7.12891 106.078 7.50586 105.92 7.8418 105.92C8.45898 105.92 8.92773 106.043 9.24805 106.289C9.56836 106.535 9.72852 106.879 9.72852 107.32C9.72852 107.758 9.49023 108.215 9.01367 108.691C8.93164 108.754 8.81445 108.838 8.66211 108.943C8.51367 109.045 8.43945 109.105 8.43945 109.125V109.131H8.45703Z" fill="black"/>
<path d="M102.881 19.7773C102.861 19.8086 102.812 19.8164 102.734 19.8008C102.66 19.7812 102.572 19.7715 102.471 19.7715C102.369 19.7715 102.225 19.793 102.037 19.8359C101.854 19.875 101.562 19.9375 101.164 20.0234C100.766 20.1133 100.402 20.1582 100.074 20.1582C99.332 20.1582 98.6113 19.9844 97.9121 19.6367C97.2168 19.2852 96.6602 18.7891 96.2422 18.1484C95.8242 17.5039 95.6152 16.7578 95.6152 15.9102C95.6152 15.0625 95.8242 14.2949 96.2422 13.6074C96.8516 12.5996 97.7695 11.9434 98.9961 11.6387C99.3867 11.541 99.7773 11.4922 100.168 11.4922C100.703 11.4922 101.338 11.582 102.072 11.7617C102.295 11.8164 102.482 11.873 102.635 11.9316C102.791 11.9902 102.887 12.0195 102.922 12.0195L103.098 11.9727H103.279C103.326 11.9727 103.35 12.0059 103.35 12.0723V13.8945C103.35 13.9336 103.314 13.9531 103.244 13.9531C103.174 13.9531 103.133 13.9453 103.121 13.9297C103.109 13.9102 103.098 13.8887 103.086 13.8652C103.074 13.8379 103.061 13.8105 103.045 13.7832C103.033 13.7559 103.02 13.7305 103.004 13.707C102.992 13.6836 102.984 13.666 102.98 13.6543C102.395 12.4785 101.506 11.8906 100.314 11.8906C99.2402 11.8906 98.4004 12.2324 97.7949 12.916C97.1895 13.5996 96.8867 14.5059 96.8867 15.6348C96.8867 16.7598 97.2188 17.7266 97.8828 18.5352C98.5508 19.3438 99.457 19.748 100.602 19.748C101.227 19.748 101.795 19.5625 102.307 19.1914C102.822 18.8203 103.227 18.3652 103.52 17.8262C103.527 17.8027 103.551 17.791 103.59 17.791H103.666C103.705 17.791 103.725 17.8145 103.725 17.8613C103.725 17.9082 103.713 17.9531 103.689 17.9961L102.881 19.7773Z" fill="black"/>
</svg>
