<svg width="216" height="247" viewBox="0 0 216 247" fill="none" xmlns="http://www.w3.org/2000/svg">
<path d="M143.514 175.046V33H1.60547L1.60547 175.046C1.60547 214.233 33.3727 246 72.5596 246C111.746 246 143.514 214.233 143.514 175.046Z" fill="white" stroke="black" stroke-width="2"/>
<path d="M144.014 175.046V32.5H1.10547L1.10547 175.046C1.10547 214.509 33.0966 246.5 72.5596 246.5C112.023 246.5 144.014 214.509 144.014 175.046Z" fill="white" stroke="black"/>
<path d="M49.5352 175L49.5352 32" stroke="black"/>
<path d="M95.0137 175.69L95.0137 32.6899" stroke="black"/>
<path d="M143.56 175H1.51367V33.0918L143.56 33.0918C182.746 33.0918 214.514 64.859 214.514 104.046C214.514 143.233 182.746 175 143.56 175Z" fill="#BC9284" stroke="black" stroke-width="2"/>
<path d="M143.56 175.5H1.01367V32.5918L143.56 32.5918C183.023 32.5918 215.014 64.5829 215.014 104.046C215.014 143.509 183.023 175.5 143.56 175.5Z" fill="#BC9284" stroke="black"/>
<path d="M143.514 81.0205L0.513678 81.0205" stroke="black"/>
<path d="M144.203 126.5L1.20313 126.5" stroke="black"/>
<mask id="path-9-inside-1_279_13692" fill="white">
<path d="M93.5137 32H144.514V176H93.5137V32Z"/>
</mask>
<path d="M93.5137 32H144.514V176H93.5137V32Z" fill="white"/>
<path d="M93.5137 32H144.514V176H93.5137V32Z" fill="white"/>
<path d="M93.5137 32H144.514V176H93.5137V32Z" fill="white"/>
<path d="M93.5137 32H144.514V176H93.5137V32Z" fill="white"/>
<path d="M93.5137 32V31H92.5137V32H93.5137ZM144.514 32H145.514V31H144.514V32ZM93.5137 33H144.514V31H93.5137V33ZM143.514 32V176H145.514V32H143.514ZM94.5137 176V32H92.5137V176H94.5137Z" fill="#372316" mask="url(#path-9-inside-1_279_13692)"/>
<path d="M143.514 175.046V33H1.60547L1.60547 175.046C1.60547 214.233 33.3727 246 72.5596 246C111.746 246 143.514 214.233 143.514 175.046Z" fill="white" stroke="black" stroke-width="2"/>
<path d="M144.014 175.046V32.5H1.10547L1.10547 175.046C1.10547 214.509 33.0966 246.5 72.5596 246.5C112.023 246.5 144.014 214.509 144.014 175.046Z" fill="white" stroke="black"/>
<path d="M49.5352 175L49.5352 32" stroke="black"/>
<path d="M95.0137 175.69L95.0137 32.6899" stroke="black"/>
<path d="M143.56 175H1.51367V33.0918L143.56 33.0918C182.746 33.0918 214.514 64.859 214.514 104.046C214.514 143.233 182.746 175 143.56 175Z" fill="#BC9284" stroke="black" stroke-width="2"/>
<path d="M144 175.5H1.00174L1.49409 33.7022C1.4964 33.0376 2.03584 32.5 2.70049 32.5L144 32.5C183.488 32.5 215.5 64.5116 215.5 104C215.5 143.488 183.488 175.5 144 175.5Z" fill="#BC9284" stroke="black"/>
<path d="M143.514 81.0205L0.513678 81.0205" stroke="black"/>
<path d="M144.203 126.5L1.20313 126.5" stroke="black"/>
<path d="M92.0137 79L144.014 81V85V87.5V90L143.773 96V121L143.375 140.807L143.201 175H92.0137V79Z" fill="white"/>
<path d="M144.014 81L92.0137 79V175H143.201M144.014 81C144.014 84.5 143.501 97 143.201 175M144.014 81V85V87.5V90L143.773 96V121L143.375 140.807L143.201 175" stroke="black"/>
<path d="M92.0137 79L144.014 81V85V87.5V90L143.773 96V121L143.375 140.807L143.201 175H92.0137V79Z" fill="white"/>
<path d="M144.014 81L92.0137 79V175H143.201M144.014 81C144.014 84.5 143.501 97 143.201 175M144.014 81V85V87.5V90L143.773 96V121L143.375 140.807L143.201 175" stroke="black"/>
<rect x="92.5137" y="176" width="50" height="1" fill="white"/>
<path d="M92.5137 174.5V177.5H116.014L129.744 177L143.514 176.833V175.833V175H114.514L93.5137 174.5H92.5137Z" fill="white"/>
<path d="M92.5137 83V79.0008L92.5 79H92.5137V79.0008L118.5 80.5L137.014 81.6667L143.514 81.8889V82.5556L129.744 82.6667L116.014 83H92.5137Z" fill="white"/>
<path d="M92.0137 174L92 177.5" stroke="black"/>
<path d="M146.514 81.5H144.014" stroke="black"/>
<path d="M146.014 127L92.5137 126.5" stroke="black"/>
<path d="M144.514 175.5L91.5131 175.519" stroke="black"/>
<path d="M89.5137 127L145.208 127.5L145.514 149.5L143.716 175H127.803H91.0055L90.5082 148.5L89.5137 127.495V127Z" fill="#BC9284"/>
<path d="M1 33H145V55.5L144.904 81H144.055H142.09L142.063 54.5L1 35.5V33Z" fill="#BC9284"/>
<path d="M92.0001 78.4997L91.9861 84.1721" stroke="black"/>
<path d="M1.5 82.5344L3.5 83.5011L23 85H46.5L91.5 84.5011V83L42.5 83.5011H18.5L1.5 82.5344Z" fill="#9D7A6E"/>
<path d="M144.5 82V82.7064L145.673 82.6196L146.5 82H144.5Z" fill="#9D7A6E"/>
<path d="M1.5 176L12 177L27.5 177.5H91.5V176H18H1.5Z" fill="#AFA9A9"/>
<path d="M92.5 177.5V176H143.5V176.5L92.5 177.5Z" fill="#AFA9A9"/>
<path d="M92.5 79V83.5L143.5 82.5V82L138 81.5L131 81L95.5 79H92.5Z" fill="#AFA9A9"/>
<path d="M41.4805 174.997L41.4805 177.5" stroke="black"/>
<path d="M23.5141 83C-5.87894 83 0.67998 81.2525 0.514479 80.3788C4.88371 79.6798 13.866 77.1456 18.5 77C63.5 74 90.5 77.9999 142.5 80.9999C92.9855 82.6212 69.0137 82.5 23.5141 83Z" fill="#E3DDDD"/>
<path d="M0.5 32.5481V81.4997L7 79L13.5 77.3942L24.5 76L39.5 75L66.5 76L93 77.3942L145 81.4997V32.5481L89.4863 30.5096L64.4863 30H32.4863L14.9863 31.0192L0.5 32.5481Z" fill="#BC9284"/>
<path d="M0.5 81.4997V32.5481L14.9863 31.0192L32.4863 30H64.4863L89.4863 30.5096L145 32.5481V81.4997M0.5 81.4997C2 83.2513 27 83.7344 145 81.4997M0.5 81.4997L7 79L13.5 77.3942L24.5 76L39.5 75L66.5 76L93 77.3942L145 81.4997" stroke="black"/>
<path d="M144 33H145.936L146 55.5L145.936 81H145.367H144.053L144.036 54.5L144 33.4948V33Z" fill="#BC9284"/>
<path d="M92 78V82.5" stroke="black"/>
<path d="M143.5 82L143 81.6466L104.621 78.6L95.0288 78H92.5V81V84L143.5 82Z" fill="#AFA9A9"/>
<path d="M118.707 0.292893C118.317 -0.0976311 117.683 -0.0976311 117.293 0.292893L110.929 6.65685C110.538 7.04738 110.538 7.68054 110.929 8.07107C111.319 8.46159 111.953 8.46159 112.343 8.07107L118 2.41421L123.657 8.07107C124.047 8.46159 124.681 8.46159 125.071 8.07107C125.462 7.68054 125.462 7.04738 125.071 6.65685L118.707 0.292893ZM119 31V29.125H117V31H119ZM119 25.375V21.625H117V25.375H119ZM119 17.875V14.125H117V17.875H119ZM119 10.375V6.625H117V10.375H119ZM119 2.875V1H117V2.875H119ZM118.707 0.292893C118.317 -0.0976311 117.683 -0.0976311 117.293 0.292893L110.929 6.65685C110.538 7.04738 110.538 7.68054 110.929 8.07107C111.319 8.46159 111.953 8.46159 112.343 8.07107L118 2.41421L123.657 8.07107C124.047 8.46159 124.681 8.46159 125.071 8.07107C125.462 7.68054 125.462 7.04738 125.071 6.65685L118.707 0.292893ZM119 31V29.125H117V31H119ZM119 25.375V21.625H117V25.375H119ZM119 17.875V14.125H117V17.875H119ZM119 10.375V6.625H117V10.375H119ZM119 2.875V1H117V2.875H119Z" fill="black"/>
<path d="M116.511 79.0001L116.15 115.512" stroke="black" stroke-width="2" stroke-dasharray="4 4"/>
<path d="M5.81885 90.8872L5.6665 90.9062C5.62419 90.9062 5.60303 90.8936 5.60303 90.8682C5.60303 90.7497 5.67285 90.4894 5.8125 90.0874C5.95215 89.6812 6.11296 89.3828 6.29492 89.1924C6.90853 88.5618 7.59831 88.2466 8.36426 88.2466C9.13021 88.2466 9.74593 88.4878 10.2114 88.9702C10.6769 89.4484 10.9097 90.0514 10.9097 90.7793C10.9097 91.5029 10.4399 92.3027 9.50049 93.1787C9.20426 93.458 8.95671 93.6823 8.75781 93.8516C8.50391 94.0674 8.05534 94.4884 7.41211 95.1147C6.77311 95.7368 6.45361 96.0796 6.45361 96.1431H10.0273C10.3363 96.1431 10.5542 96.0563 10.6812 95.8828C10.7573 95.7812 10.8547 95.5125 10.9731 95.0767H11.2144L10.9414 96.7905C10.9202 96.8879 10.8716 96.9577 10.7954 97H5.51416C5.493 97 5.48242 96.945 5.48242 96.835C5.48242 96.7292 5.57975 96.5641 5.77441 96.3398C5.97331 96.1156 6.2251 95.8511 6.52979 95.5464C6.8387 95.2375 7.25765 94.8164 7.78662 94.2832C9.13232 92.9163 9.80518 91.8224 9.80518 91.0015C9.80518 90.4979 9.62109 90.043 9.25293 89.6367C8.889 89.2262 8.4637 89.021 7.97705 89.021C7.49463 89.021 7.06299 89.1839 6.68213 89.5098C6.30973 89.8356 6.05794 90.2567 5.92676 90.7729C5.90983 90.8491 5.87386 90.8872 5.81885 90.8872Z" fill="black"/>
<path d="M6.33301 39.4683C6.30339 39.4683 6.26107 39.4132 6.20605 39.3032C6.20605 39.2905 6.28223 39.2355 6.43457 39.1382C6.58691 39.0366 6.88949 38.7848 7.34229 38.3828C7.79508 37.9808 8.1696 37.6021 8.46582 37.2466H8.82129C8.8763 37.2466 8.91016 37.255 8.92285 37.272C8.93555 37.2889 8.94189 37.3206 8.94189 37.3672V45.1113C8.94189 45.3779 8.9694 45.5282 9.02441 45.562C9.23177 45.6847 9.65283 45.7461 10.2876 45.7461C10.3215 45.7461 10.3384 45.763 10.3384 45.7969V45.9492C10.3384 45.9831 10.3215 46 10.2876 46H6.46631C6.43245 46 6.41553 45.9831 6.41553 45.9492V45.7969C6.41553 45.763 6.43245 45.7461 6.46631 45.7461C6.6779 45.7334 6.86198 45.7249 7.01855 45.7207C7.17513 45.7122 7.34017 45.6995 7.51367 45.6826C7.68717 45.6657 7.80778 45.6382 7.87549 45.6001C7.94743 45.562 7.98975 45.5049 8.00244 45.4287C8.01514 45.3525 8.02148 45.2531 8.02148 45.1304V38.3701C8.02572 38.3617 7.97917 38.3955 7.88184 38.4717C7.33171 38.9118 6.82812 39.2419 6.37109 39.4619L6.33301 39.4683Z" fill="black"/>
<path d="M8.74512 136.725C8.7959 136.717 8.87207 136.712 8.97363 136.712C9.46452 136.712 9.9152 136.918 10.3257 137.328C10.7362 137.739 10.9414 138.263 10.9414 138.902C10.9414 139.537 10.7721 140.098 10.4336 140.584C10.0993 141.071 9.68034 141.458 9.17676 141.746C8.67741 142.03 8.19287 142.171 7.72314 142.171C6.69482 142.171 5.99447 141.964 5.62207 141.549C5.52474 141.444 5.45492 141.317 5.4126 141.168C5.4126 140.885 5.58822 140.743 5.93945 140.743C6.02832 140.743 6.20605 140.849 6.47266 141.061C6.74349 141.268 6.9974 141.439 7.23438 141.575C7.47135 141.71 7.73796 141.774 8.03418 141.765C8.58854 141.748 9.03923 141.482 9.38623 140.965C9.73747 140.445 9.91309 139.878 9.91309 139.264C9.91309 138.646 9.76074 138.181 9.45605 137.868C9.15137 137.555 8.78955 137.398 8.37061 137.398C8.14632 137.398 7.96012 137.44 7.81201 137.525C7.6639 137.605 7.57715 137.662 7.55176 137.696C7.52637 137.73 7.50309 137.747 7.48193 137.747C7.46501 137.747 7.44173 137.73 7.41211 137.696C7.38249 137.662 7.36768 137.633 7.36768 137.607C7.36768 137.582 7.38037 137.557 7.40576 137.531C7.43538 137.502 7.46924 137.472 7.50732 137.442C7.54541 137.409 7.5835 137.377 7.62158 137.347C8.67529 136.526 9.20215 135.807 9.20215 135.189C9.20215 134.833 9.06885 134.537 8.80225 134.3C8.53564 134.063 8.25212 133.945 7.95166 133.945C7.17301 133.945 6.5446 134.383 6.06641 135.259C6.06217 135.263 6.04525 135.265 6.01562 135.265C5.99023 135.265 5.95003 135.252 5.89502 135.227C5.84001 135.202 5.8125 135.183 5.8125 135.17C5.8125 135.157 5.81673 135.138 5.8252 135.113C5.83789 135.087 5.87174 135.005 5.92676 134.865C5.98177 134.726 6.09603 134.548 6.26953 134.332C6.44727 134.112 6.64193 133.922 6.85352 133.761C7.30632 133.418 7.71468 133.247 8.07861 133.247C8.74723 133.247 9.25505 133.38 9.60205 133.646C9.94906 133.913 10.1226 134.285 10.1226 134.764C10.1226 135.238 9.86442 135.733 9.34814 136.249C9.25928 136.317 9.13232 136.408 8.96729 136.522C8.80648 136.632 8.72607 136.698 8.72607 136.719V136.725H8.74512Z" fill="black"/>
</svg>
