<svg width="216" height="220" viewBox="0 0 216 220" fill="none" xmlns="http://www.w3.org/2000/svg">
<path d="M144 148.046V6H2.0918L2.0918 148.046C2.0918 187.233 33.859 219 73.0459 219C112.233 219 144 187.233 144 148.046Z" fill="white" stroke="black" stroke-width="2"/>
<path d="M144.5 148.046V5.5H1.5918L1.5918 148.046C1.5918 187.509 33.5829 219.5 73.0459 219.5C112.509 219.5 144.5 187.509 144.5 148.046Z" fill="white" stroke="black"/>
<path d="M50.0215 148L50.0215 5.00001" stroke="black"/>
<path d="M95.5 148.69L95.5 5.68995" stroke="black"/>
<path d="M144.046 148H2V6.0918L144.046 6.0918C183.233 6.0918 215 37.859 215 77.0459C215 116.233 183.233 148 144.046 148Z" fill="#BC9284" stroke="black" stroke-width="2"/>
<path d="M144.046 148.5H1.5V5.5918L144.046 5.5918C183.509 5.5918 215.5 37.5829 215.5 77.0459C215.5 116.509 183.509 148.5 144.046 148.5Z" fill="#BC9284" stroke="black"/>
<path d="M144 54.0205L1.00001 54.0205" stroke="black"/>
<path d="M144.691 99.4998L1.69141 99.4998" stroke="black"/>
<mask id="path-9-inside-1_274_13537" fill="white">
<path d="M94 5H145V149H94V5Z"/>
</mask>
<path d="M94 5H145V149H94V5Z" fill="white"/>
<path d="M94 5H145V149H94V5Z" fill="white"/>
<path d="M94 5H145V149H94V5Z" fill="white"/>
<path d="M94 5H145V149H94V5Z" fill="white"/>
<path d="M94 5V4H93V5H94ZM145 5H146V4H145V5ZM94 6H145V4H94V6ZM144 5V149H146V5H144ZM95 149V5H93V149H95Z" fill="#372316" mask="url(#path-9-inside-1_274_13537)"/>
<path d="M144 148.046V6H2.0918L2.0918 148.046C2.0918 187.233 33.859 219 73.0459 219C112.233 219 144 187.233 144 148.046Z" fill="white" stroke="black" stroke-width="2"/>
<path d="M144.5 148.046V5.5H1.5918L1.5918 148.046C1.5918 187.509 33.5829 219.5 73.0459 219.5C112.509 219.5 144.5 187.509 144.5 148.046Z" fill="white" stroke="black"/>
<path d="M50.0215 148L50.0215 5.00001" stroke="black"/>
<path d="M95.5 148.69L95.5 5.68995" stroke="black"/>
<path d="M144.046 148H2V6.0918L144.046 6.0918C183.233 6.0918 215 37.859 215 77.0459C215 116.233 183.233 148 144.046 148Z" fill="#BC9284" stroke="black" stroke-width="2"/>
<path d="M144 148.5H1.5V5.5L144 5.5C183.488 5.5 215.5 37.5116 215.5 77C215.5 116.488 183.488 148.5 144 148.5Z" fill="#BC9284" stroke="black"/>
<path d="M144 54.0205L1.00001 54.0205" stroke="black"/>
<path d="M144.691 99.4998L1.69141 99.4998" stroke="black"/>
<path d="M92.5 52L144.5 54V58V60.5V63L144.259 69V94L143.861 113.807L143.687 148H92.5V52Z" fill="white"/>
<path d="M144.5 54L92.5 52V148H143.687M144.5 54C144.5 57.5 143.987 70 143.687 148M144.5 54V58V60.5V63L144.259 69V94L143.861 113.807L143.687 148" stroke="black"/>
<rect x="93" y="149" width="50" height="1" fill="white"/>
<path d="M1.48633 6V54.528H11.4389H20.9068H41.3376H68.2464H94.1586H145V6H1.48633Z" fill="#BC9284"/>
<path d="M1.48633 54.528V6H145V54.528M1.48633 54.528C4.46257 54 27.3849 55 145 54.528M1.48633 54.528H11.4389H20.9068H41.3376H68.2464H94.1586H145" stroke="black"/>
<path d="M93 147.5V150.5H116.5L130.23 150L144 149.833V148.833V148H115L94 147.5H93Z" fill="white"/>
<line x1="92.5" y1="147" x2="92.5" y2="151" stroke="black"/>
<path d="M147 54.5H144.5" stroke="black"/>
<path d="M146.5 99.9996L93 99.4998" stroke="black"/>
<path d="M145 148.5L91.9994 148.519" stroke="black"/>
<path d="M90 100L145.694 100.5L146 122.5L144.202 148H128.29H91.4918L90.9945 121.5L90 100.495V100Z" fill="#BC9284"/>
<path d="M2 6H146V28.5L145.904 54H145.055H143.09L143.063 27.5L2 8.5V6Z" fill="#BC9284"/>
<mask id="path-31-inside-2_274_13537" fill="white">
<path d="M47 5H93V150H47V5Z"/>
</mask>
<path d="M47 5H93V150H47V5Z" fill="white"/>
<path d="M47 5H93V150H47V5Z" fill="white"/>
<path d="M47 5H93V150H47V5Z" fill="white"/>
<path d="M47 5H93V150H47V5Z" fill="white"/>
<path d="M47 5V4H46V5H47ZM93 5H94V4H93V5ZM47 6H93V4H47V6ZM92 5V150H94V5H92ZM48 150V5H46V150H48Z" fill="black" mask="url(#path-31-inside-2_274_13537)"/>
<path d="M6.23047 13.9707C6.20312 13.9707 6.16406 13.9199 6.11328 13.8184C6.11328 13.8066 6.18359 13.7559 6.32422 13.666C6.46484 13.5723 6.74414 13.3398 7.16211 12.9688C7.58008 12.5977 7.92578 12.248 8.19922 11.9199H8.52734C8.57812 11.9199 8.60938 11.9277 8.62109 11.9434C8.63281 11.959 8.63867 11.9883 8.63867 12.0312V19.1797C8.63867 19.4258 8.66406 19.5645 8.71484 19.5957C8.90625 19.709 9.29492 19.7656 9.88086 19.7656C9.91211 19.7656 9.92773 19.7812 9.92773 19.8125V19.9531C9.92773 19.9844 9.91211 20 9.88086 20H6.35352C6.32227 20 6.30664 19.9844 6.30664 19.9531V19.8125C6.30664 19.7812 6.32227 19.7656 6.35352 19.7656C6.54883 19.7539 6.71875 19.7461 6.86328 19.7422C7.00781 19.7344 7.16016 19.7227 7.32031 19.707C7.48047 19.6914 7.5918 19.666 7.6543 19.6309C7.7207 19.5957 7.75977 19.543 7.77148 19.4727C7.7832 19.4023 7.78906 19.3105 7.78906 19.1973V12.957C7.79297 12.9492 7.75 12.9805 7.66016 13.0508C7.15234 13.457 6.6875 13.7617 6.26562 13.9648L6.23047 13.9707Z" fill="black"/>
<path d="M5.75586 62.3574L5.61523 62.375C5.57617 62.375 5.55664 62.3633 5.55664 62.3398C5.55664 62.2305 5.62109 61.9902 5.75 61.6191C5.87891 61.2441 6.02734 60.9688 6.19531 60.793C6.76172 60.2109 7.39844 59.9199 8.10547 59.9199C8.8125 59.9199 9.38086 60.1426 9.81055 60.5879C10.2402 61.0293 10.4551 61.5859 10.4551 62.2578C10.4551 62.9258 10.0215 63.6641 9.1543 64.4727C8.88086 64.7305 8.65234 64.9375 8.46875 65.0938C8.23438 65.293 7.82031 65.6816 7.22656 66.2598C6.63672 66.834 6.3418 67.1504 6.3418 67.209H9.64062C9.92578 67.209 10.127 67.1289 10.2441 66.9688C10.3145 66.875 10.4043 66.627 10.5137 66.2246H10.7363L10.4844 67.8066C10.4648 67.8965 10.4199 67.9609 10.3496 68H5.47461C5.45508 68 5.44531 67.9492 5.44531 67.8477C5.44531 67.75 5.53516 67.5977 5.71484 67.3906C5.89844 67.1836 6.13086 66.9395 6.41211 66.6582C6.69727 66.373 7.08398 65.9844 7.57227 65.4922C8.81445 64.2305 9.43555 63.2207 9.43555 62.4629C9.43555 61.998 9.26562 61.5781 8.92578 61.2031C8.58984 60.8242 8.19727 60.6348 7.74805 60.6348C7.30273 60.6348 6.9043 60.7852 6.55273 61.0859C6.20898 61.3867 5.97656 61.7754 5.85547 62.252C5.83984 62.3223 5.80664 62.3574 5.75586 62.3574Z" fill="black"/>
<path d="M8.45703 110.131C8.50391 110.123 8.57422 110.119 8.66797 110.119C9.12109 110.119 9.53711 110.309 9.91602 110.688C10.2949 111.066 10.4844 111.551 10.4844 112.141C10.4844 112.727 10.3281 113.244 10.0156 113.693C9.70703 114.143 9.32031 114.5 8.85547 114.766C8.39453 115.027 7.94727 115.158 7.51367 115.158C6.56445 115.158 5.91797 114.967 5.57422 114.584C5.48438 114.486 5.41992 114.369 5.38086 114.232C5.38086 113.971 5.54297 113.84 5.86719 113.84C5.94922 113.84 6.11328 113.938 6.35938 114.133C6.60938 114.324 6.84375 114.482 7.0625 114.607C7.28125 114.732 7.52734 114.791 7.80078 114.783C8.3125 114.768 8.72852 114.521 9.04883 114.045C9.37305 113.564 9.53516 113.041 9.53516 112.475C9.53516 111.904 9.39453 111.475 9.11328 111.186C8.83203 110.896 8.49805 110.752 8.11133 110.752C7.9043 110.752 7.73242 110.791 7.5957 110.869C7.45898 110.943 7.37891 110.996 7.35547 111.027C7.33203 111.059 7.31055 111.074 7.29102 111.074C7.27539 111.074 7.25391 111.059 7.22656 111.027C7.19922 110.996 7.18555 110.969 7.18555 110.945C7.18555 110.922 7.19727 110.898 7.2207 110.875C7.24805 110.848 7.2793 110.82 7.31445 110.793C7.34961 110.762 7.38477 110.732 7.41992 110.705C8.39258 109.947 8.87891 109.283 8.87891 108.713C8.87891 108.385 8.75586 108.111 8.50977 107.893C8.26367 107.674 8.00195 107.564 7.72461 107.564C7.00586 107.564 6.42578 107.969 5.98438 108.777C5.98047 108.781 5.96484 108.783 5.9375 108.783C5.91406 108.783 5.87695 108.771 5.82617 108.748C5.77539 108.725 5.75 108.707 5.75 108.695C5.75 108.684 5.75391 108.666 5.76172 108.643C5.77344 108.619 5.80469 108.543 5.85547 108.414C5.90625 108.285 6.01172 108.121 6.17188 107.922C6.33594 107.719 6.51562 107.543 6.71094 107.395C7.12891 107.078 7.50586 106.92 7.8418 106.92C8.45898 106.92 8.92773 107.043 9.24805 107.289C9.56836 107.535 9.72852 107.879 9.72852 108.32C9.72852 108.758 9.49023 109.215 9.01367 109.691C8.93164 109.754 8.81445 109.838 8.66211 109.943C8.51367 110.045 8.43945 110.105 8.43945 110.125V110.131H8.45703Z" fill="black"/>
<path d="M50.1055 20C50.0742 20 50.0586 19.9844 50.0586 19.9531V19.8125C50.0586 19.7812 50.0859 19.7656 50.1406 19.7656C50.3242 19.7656 50.5273 19.7461 50.75 19.707C51.4648 19.5859 51.8223 19.3398 51.8223 18.9688V12.7871C51.7832 12.2871 51.5547 12.0156 51.1367 11.9727C51.0117 11.957 50.873 11.9492 50.7207 11.9492H50.3867C50.3555 11.9492 50.3398 11.9336 50.3398 11.9023V11.7559C50.3398 11.7246 50.3555 11.709 50.3867 11.709L50.6445 11.7031L51.6523 11.6973L53.7383 11.6328C55.9727 11.6328 57.0898 12.293 57.0898 13.6133C57.0898 14.1719 56.8008 14.6367 56.2227 15.0078C56.1328 15.0664 56.0547 15.1094 55.9883 15.1367C55.9258 15.1641 55.8906 15.1797 55.8828 15.1836C56.3984 15.4727 56.8027 15.7969 57.0957 16.1562C57.3926 16.5156 57.541 16.9453 57.541 17.4453C57.541 18.5117 57.0371 19.2539 56.0293 19.6719C55.5098 19.8906 54.9453 20 54.3359 20H50.1055ZM53.0703 15.4297C53.0195 15.4297 52.9941 15.4512 52.9941 15.4941V18.7051C52.9941 18.9824 53.123 19.2051 53.3809 19.373C53.6426 19.541 53.9238 19.625 54.2246 19.625C54.8027 19.625 55.2949 19.4199 55.7012 19.0098C56.1074 18.5957 56.3105 18.0879 56.3105 17.4863C56.3105 16.8809 56.0918 16.3867 55.6543 16.0039C55.2207 15.6211 54.6699 15.4297 54.002 15.4297H53.0703ZM52.9824 14.9551C52.9824 15.0293 53.0273 15.0664 53.1172 15.0664H54.5586C54.9336 15.0664 55.248 14.9277 55.502 14.6504C55.7598 14.373 55.8887 14.0625 55.8887 13.7188C55.8887 13.1055 55.7148 12.6621 55.3672 12.3887C55.0195 12.1113 54.5566 11.9727 53.9785 11.9727C53.8027 11.9844 53.6797 11.9902 53.6094 11.9902C53.543 11.9902 53.4727 11.9902 53.3984 11.9902C53.3242 11.9863 53.25 11.9902 53.1758 12.002C53.1016 12.0137 53.0508 12.0391 53.0234 12.0781C52.9961 12.1172 52.9824 12.1816 52.9824 12.2715V14.9551Z" fill="black"/>
</svg>
