<svg width="239" height="223" viewBox="0 0 239 223" fill="none" xmlns="http://www.w3.org/2000/svg">
<path d="M167 151.046V9H25.0918L25.0918 151.046C25.0918 190.233 56.859 222 96.0459 222C135.233 222 167 190.233 167 151.046Z" fill="white" stroke="black" stroke-width="2"/>
<path d="M167.5 151.046V8.5H24.5918L24.5918 151.046C24.5918 190.509 56.5829 222.5 96.0459 222.5C135.509 222.5 167.5 190.509 167.5 151.046Z" fill="white" stroke="black"/>
<path d="M73.0215 151L73.0215 8.00001" stroke="black"/>
<path d="M118.5 151.69L118.5 8.68995" stroke="black"/>
<path d="M167.046 151H25V9.0918L167.046 9.0918C206.233 9.0918 238 40.859 238 80.0459C238 119.233 206.233 151 167.046 151Z" fill="#BC9284" stroke="black" stroke-width="2"/>
<path d="M167.046 151.5H24.5V8.5918L167.046 8.5918C206.509 8.5918 238.5 40.5829 238.5 80.0459C238.5 119.509 206.509 151.5 167.046 151.5Z" fill="#BC9284" stroke="black"/>
<path d="M167 57.0205L24 57.0205" stroke="black"/>
<path d="M167.691 102.5L24.6914 102.5" stroke="black"/>
<mask id="path-9-inside-1_274_13536" fill="white">
<path d="M117 8H168V152H117V8Z"/>
</mask>
<path d="M117 8H168V152H117V8Z" fill="white"/>
<path d="M117 8H168V152H117V8Z" fill="white"/>
<path d="M117 8H168V152H117V8Z" fill="white"/>
<path d="M117 8H168V152H117V8Z" fill="white"/>
<path d="M117 8V7H116V8H117ZM168 8H169V7H168V8ZM117 9H168V7H117V9ZM167 8V152H169V8H167ZM118 152V8H116V152H118Z" fill="#372316" mask="url(#path-9-inside-1_274_13536)"/>
<path d="M167 151.046V9H25.0918L25.0918 151.046C25.0918 190.233 56.859 222 96.0459 222C135.233 222 167 190.233 167 151.046Z" fill="white" stroke="black" stroke-width="2"/>
<path d="M167.5 151.046V8.5H24.5918L24.5918 151.046C24.5918 190.509 56.5829 222.5 96.0459 222.5C135.509 222.5 167.5 190.509 167.5 151.046Z" fill="white" stroke="black"/>
<path d="M73.0215 151L73.0215 8.00001" stroke="black"/>
<path d="M118.5 151.69L118.5 8.68995" stroke="black"/>
<path d="M167.046 151H25V9.0918L167.046 9.0918C206.233 9.0918 238 40.859 238 80.0459C238 119.233 206.233 151 167.046 151Z" fill="#BC9284" stroke="black" stroke-width="2"/>
<path d="M167 151.5H24.5V8.5L167 8.5C206.488 8.5 238.5 40.5116 238.5 80C238.5 119.488 206.488 151.5 167 151.5Z" fill="#BC9284" stroke="black"/>
<path d="M167 57.0205L24 57.0205" stroke="black"/>
<path d="M167.691 102.5L24.6914 102.5" stroke="black"/>
<path d="M115.5 55L167.5 57V61V63.5V66L167.259 72V97L166.861 116.807L166.687 151H115.5V55Z" fill="white"/>
<path d="M167.5 57L115.5 55V151H166.687M167.5 57C167.5 60.5 166.987 73 166.687 151M167.5 57V61V63.5V66L167.259 72V97L166.861 116.807L166.687 151" stroke="black"/>
<rect x="116" y="152" width="50" height="1" fill="white"/>
<path d="M24.4863 9V57.528H34.4389H43.9068H64.3376H91.2464H117.159H168V9H24.4863Z" fill="#BC9284"/>
<path d="M24.4863 57.528V9H168V57.528M24.4863 57.528C27.4626 57 50.3849 58 168 57.528M24.4863 57.528H34.4389H43.9068H64.3376H91.2464H117.159H168" stroke="black"/>
<path d="M116 150.5V153.5H139.5L153.23 153L167 152.833V151.833V151H138L117 150.5H116Z" fill="white"/>
<line x1="115.5" y1="150" x2="115.5" y2="154" stroke="black"/>
<path d="M170 57.5H167.5" stroke="black"/>
<path d="M168 151.5L114.999 151.519" stroke="black"/>
<path d="M113 103L168.694 103.5L169 125.5L167.202 151H151.29H114.492L113.995 124.5L113 103.495V103Z" fill="#BC9284"/>
<path d="M25 9H169V31.5L168.904 57H168.055H166.09L166.063 30.5L25 11.5V9Z" fill="#BC9284"/>
<path d="M116.847 45.9125C116.847 15.7987 116.458 8.17469 115.193 8.00513C111.47 24.9098 111.71 37.7523 111.5 42.5C110.994 50.2319 113.45 114.316 114.293 152.975C115.811 120.42 116.215 68.1249 116.847 45.9125Z" fill="#998888"/>
<path d="M117.5 58.0001C124.034 58.3439 125.837 57.9783 126.164 57.8791C126.231 57.8445 126.255 57.8515 126.164 57.8791C126.121 57.901 126.061 57.9395 126 58.0001C119.499 112.5 125.5 102 116.499 102.5C115.6 73.4453 116.961 63.8111 117.5 58.0001Z" fill="#E3DDDD"/>
<path d="M73 8H115.348L113.538 16.7137L112.297 24.3976L111 41.5L111.5 59L112.711 74.0871L113.538 101.237L115.348 154H73L71.5 103L71 85.5L70.5 72L69.5 58.7192L68.5 39.8023L70 21.5L73 8Z" fill="white"/>
<path d="M115.348 8H73L70 21.5L68.5 39.8023L69.5 58.7192L70.5 72L71 85.5L71.5 103L73 154H115.348M115.348 8C117.423 8.45157 117.675 34.6429 115.348 154M115.348 8L113.538 16.7137L112.297 24.3976L111 41.5L111.5 59L112.711 74.0871L113.538 101.237L115.348 154" stroke="black"/>
<path d="M115 154.5L114.5 146.5L96.14 150.524L85.07 150L73.5 151.5V155H79L115 154.5Z" fill="white"/>
<path d="M115.5 151H116.5L118.5 132L121.5 103.5H114L114.5 113.895L115.5 151Z" fill="#9D7A6E"/>
<path d="M117.5 57H120H126L129.5 35.5L131 22.5L131.5 13.5L123.5 11.5L116.5 9.5L117.5 23.3947V57Z" fill="#9D7A6E"/>
<path d="M169.501 103L113.001 103" stroke="black"/>
<path d="M0.292893 126.293C-0.0976311 126.683 -0.0976311 127.317 0.292893 127.707L6.65685 134.071C7.04738 134.462 7.68054 134.462 8.07107 134.071C8.46159 133.681 8.46159 133.047 8.07107 132.657L2.41421 127L8.07107 121.343C8.46159 120.953 8.46159 120.319 8.07107 119.929C7.68054 119.538 7.04738 119.538 6.65685 119.929L0.292893 126.293ZM72 126H70.0278V128H72V126ZM66.0833 126H62.1389V128H66.0833V126ZM58.1944 126H54.25V128H58.1944V126ZM50.3056 126L46.3611 126V128L50.3056 128V126ZM42.4167 126H38.4722V128H42.4167V126ZM34.5278 126H30.5833V128H34.5278V126ZM26.6389 126H22.6945V128H26.6389V126ZM18.75 126H14.8056V128H18.75V126ZM10.8611 126H6.91668V128H10.8611V126ZM2.97224 126H1V128H2.97224V126ZM0.292893 126.293C-0.0976311 126.683 -0.0976311 127.317 0.292893 127.707L6.65685 134.071C7.04738 134.462 7.68054 134.462 8.07107 134.071C8.46159 133.681 8.46159 133.047 8.07107 132.657L2.41421 127L8.07107 121.343C8.46159 120.953 8.46159 120.319 8.07107 119.929C7.68054 119.538 7.04738 119.538 6.65685 119.929L0.292893 126.293ZM72 126H70.0278V128H72V126ZM66.0833 126H62.1389V128H66.0833V126ZM58.1944 126H54.25V128H58.1944V126ZM50.3056 126L46.3611 126V128L50.3056 128V126ZM42.4167 126H38.4722V128H42.4167V126ZM34.5278 126H30.5833V128H34.5278V126ZM26.6389 126H22.6945V128H26.6389V126ZM18.75 126H14.8056V128H18.75V126ZM10.8611 126H6.91668V128H10.8611V126ZM2.97224 126H1V128H2.97224V126Z" fill="black"/>
<path d="M115 128L163 127" stroke="black" stroke-width="2" stroke-dasharray="4 4"/>
<path d="M27.2305 13.9707C27.2031 13.9707 27.1641 13.9199 27.1133 13.8184C27.1133 13.8066 27.1836 13.7559 27.3242 13.666C27.4648 13.5723 27.7441 13.3398 28.1621 12.9688C28.5801 12.5977 28.9258 12.248 29.1992 11.9199H29.5273C29.5781 11.9199 29.6094 11.9277 29.6211 11.9434C29.6328 11.959 29.6387 11.9883 29.6387 12.0312V19.1797C29.6387 19.4258 29.6641 19.5645 29.7148 19.5957C29.9062 19.709 30.2949 19.7656 30.8809 19.7656C30.9121 19.7656 30.9277 19.7812 30.9277 19.8125V19.9531C30.9277 19.9844 30.9121 20 30.8809 20H27.3535C27.3223 20 27.3066 19.9844 27.3066 19.9531V19.8125C27.3066 19.7812 27.3223 19.7656 27.3535 19.7656C27.5488 19.7539 27.7188 19.7461 27.8633 19.7422C28.0078 19.7344 28.1602 19.7227 28.3203 19.707C28.4805 19.6914 28.5918 19.666 28.6543 19.6309C28.7207 19.5957 28.7598 19.543 28.7715 19.4727C28.7832 19.4023 28.7891 19.3105 28.7891 19.1973V12.957C28.793 12.9492 28.75 12.9805 28.6602 13.0508C28.1523 13.457 27.6875 13.7617 27.2656 13.9648L27.2305 13.9707Z" fill="black"/>
<path d="M26.7559 62.3574L26.6152 62.375C26.5762 62.375 26.5566 62.3633 26.5566 62.3398C26.5566 62.2305 26.6211 61.9902 26.75 61.6191C26.8789 61.2441 27.0273 60.9688 27.1953 60.793C27.7617 60.2109 28.3984 59.9199 29.1055 59.9199C29.8125 59.9199 30.3809 60.1426 30.8105 60.5879C31.2402 61.0293 31.4551 61.5859 31.4551 62.2578C31.4551 62.9258 31.0215 63.6641 30.1543 64.4727C29.8809 64.7305 29.6523 64.9375 29.4688 65.0938C29.2344 65.293 28.8203 65.6816 28.2266 66.2598C27.6367 66.834 27.3418 67.1504 27.3418 67.209H30.6406C30.9258 67.209 31.127 67.1289 31.2441 66.9688C31.3145 66.875 31.4043 66.627 31.5137 66.2246H31.7363L31.4844 67.8066C31.4648 67.8965 31.4199 67.9609 31.3496 68H26.4746C26.4551 68 26.4453 67.9492 26.4453 67.8477C26.4453 67.75 26.5352 67.5977 26.7148 67.3906C26.8984 67.1836 27.1309 66.9395 27.4121 66.6582C27.6973 66.373 28.084 65.9844 28.5723 65.4922C29.8145 64.2305 30.4355 63.2207 30.4355 62.4629C30.4355 61.998 30.2656 61.5781 29.9258 61.2031C29.5898 60.8242 29.1973 60.6348 28.748 60.6348C28.3027 60.6348 27.9043 60.7852 27.5527 61.0859C27.209 61.3867 26.9766 61.7754 26.8555 62.252C26.8398 62.3223 26.8066 62.3574 26.7559 62.3574Z" fill="black"/>
<path d="M29.457 110.131C29.5039 110.123 29.5742 110.119 29.668 110.119C30.1211 110.119 30.5371 110.309 30.916 110.688C31.2949 111.066 31.4844 111.551 31.4844 112.141C31.4844 112.727 31.3281 113.244 31.0156 113.693C30.707 114.143 30.3203 114.5 29.8555 114.766C29.3945 115.027 28.9473 115.158 28.5137 115.158C27.5645 115.158 26.918 114.967 26.5742 114.584C26.4844 114.486 26.4199 114.369 26.3809 114.232C26.3809 113.971 26.543 113.84 26.8672 113.84C26.9492 113.84 27.1133 113.938 27.3594 114.133C27.6094 114.324 27.8438 114.482 28.0625 114.607C28.2812 114.732 28.5273 114.791 28.8008 114.783C29.3125 114.768 29.7285 114.521 30.0488 114.045C30.373 113.564 30.5352 113.041 30.5352 112.475C30.5352 111.904 30.3945 111.475 30.1133 111.186C29.832 110.896 29.498 110.752 29.1113 110.752C28.9043 110.752 28.7324 110.791 28.5957 110.869C28.459 110.943 28.3789 110.996 28.3555 111.027C28.332 111.059 28.3105 111.074 28.291 111.074C28.2754 111.074 28.2539 111.059 28.2266 111.027C28.1992 110.996 28.1855 110.969 28.1855 110.945C28.1855 110.922 28.1973 110.898 28.2207 110.875C28.248 110.848 28.2793 110.82 28.3145 110.793C28.3496 110.762 28.3848 110.732 28.4199 110.705C29.3926 109.947 29.8789 109.283 29.8789 108.713C29.8789 108.385 29.7559 108.111 29.5098 107.893C29.2637 107.674 29.002 107.564 28.7246 107.564C28.0059 107.564 27.4258 107.969 26.9844 108.777C26.9805 108.781 26.9648 108.783 26.9375 108.783C26.9141 108.783 26.877 108.771 26.8262 108.748C26.7754 108.725 26.75 108.707 26.75 108.695C26.75 108.684 26.7539 108.666 26.7617 108.643C26.7734 108.619 26.8047 108.543 26.8555 108.414C26.9062 108.285 27.0117 108.121 27.1719 107.922C27.3359 107.719 27.5156 107.543 27.7109 107.395C28.1289 107.078 28.5059 106.92 28.8418 106.92C29.459 106.92 29.9277 107.043 30.248 107.289C30.5684 107.535 30.7285 107.879 30.7285 108.32C30.7285 108.758 30.4902 109.215 30.0137 109.691C29.9316 109.754 29.8145 109.838 29.6621 109.943C29.5137 110.045 29.4395 110.105 29.4395 110.125V110.131H29.457Z" fill="black"/>
<path d="M75.1055 21C75.0742 21 75.0586 20.9844 75.0586 20.9531V20.8125C75.0586 20.7812 75.0859 20.7656 75.1406 20.7656C75.3242 20.7656 75.5273 20.7461 75.75 20.707C76.4648 20.5859 76.8223 20.3398 76.8223 19.9688V13.7871C76.7832 13.2871 76.5547 13.0156 76.1367 12.9727C76.0117 12.957 75.873 12.9492 75.7207 12.9492H75.3867C75.3555 12.9492 75.3398 12.9336 75.3398 12.9023V12.7559C75.3398 12.7246 75.3555 12.709 75.3867 12.709L75.6445 12.7031L76.6523 12.6973L78.7383 12.6328C80.9727 12.6328 82.0898 13.293 82.0898 14.6133C82.0898 15.1719 81.8008 15.6367 81.2227 16.0078C81.1328 16.0664 81.0547 16.1094 80.9883 16.1367C80.9258 16.1641 80.8906 16.1797 80.8828 16.1836C81.3984 16.4727 81.8027 16.7969 82.0957 17.1562C82.3926 17.5156 82.541 17.9453 82.541 18.4453C82.541 19.5117 82.0371 20.2539 81.0293 20.6719C80.5098 20.8906 79.9453 21 79.3359 21H75.1055ZM78.0703 16.4297C78.0195 16.4297 77.9941 16.4512 77.9941 16.4941V19.7051C77.9941 19.9824 78.123 20.2051 78.3809 20.373C78.6426 20.541 78.9238 20.625 79.2246 20.625C79.8027 20.625 80.2949 20.4199 80.7012 20.0098C81.1074 19.5957 81.3105 19.0879 81.3105 18.4863C81.3105 17.8809 81.0918 17.3867 80.6543 17.0039C80.2207 16.6211 79.6699 16.4297 79.002 16.4297H78.0703ZM77.9824 15.9551C77.9824 16.0293 78.0273 16.0664 78.1172 16.0664H79.5586C79.9336 16.0664 80.248 15.9277 80.502 15.6504C80.7598 15.373 80.8887 15.0625 80.8887 14.7188C80.8887 14.1055 80.7148 13.6621 80.3672 13.3887C80.0195 13.1113 79.5566 12.9727 78.9785 12.9727C78.8027 12.9844 78.6797 12.9902 78.6094 12.9902C78.543 12.9902 78.4727 12.9902 78.3984 12.9902C78.3242 12.9863 78.25 12.9902 78.1758 13.002C78.1016 13.0137 78.0508 13.0391 78.0234 13.0781C77.9961 13.1172 77.9824 13.1816 77.9824 13.2715V15.9551Z" fill="black"/>
</svg>
