<svg width="215" height="230" viewBox="0 0 215 230" fill="none" xmlns="http://www.w3.org/2000/svg">
<path d="M143 158.046V16H1.0918L1.0918 158.046C1.0918 197.233 32.859 229 72.0459 229C111.233 229 143 197.233 143 158.046Z" fill="white" stroke="black" stroke-width="2"/>
<path d="M143.5 158.046V15.5H0.591797L0.591797 158.046C0.591797 197.509 32.5829 229.5 72.0459 229.5C111.509 229.5 143.5 197.509 143.5 158.046Z" fill="white" stroke="black"/>
<path d="M49.0215 158L49.0215 15" stroke="black"/>
<path d="M94.5 158.69L94.5 15.6899" stroke="black"/>
<path d="M143.046 158H1V16.0918L143.046 16.0918C182.233 16.0918 214 47.859 214 87.0459C214 126.233 182.233 158 143.046 158Z" fill="#BC9284" stroke="black" stroke-width="2"/>
<path d="M143.046 158.5H0.5V15.5918L143.046 15.5918C182.509 15.5918 214.5 47.5829 214.5 87.0459C214.5 126.509 182.509 158.5 143.046 158.5Z" fill="#BC9284" stroke="black"/>
<path d="M143 64.0205L6.4373e-06 64.0205" stroke="black"/>
<path d="M143.691 109.5L0.691413 109.5" stroke="black"/>
<mask id="path-9-inside-1_274_13535" fill="white">
<path d="M93 15H144V159H93V15Z"/>
</mask>
<path d="M93 15H144V159H93V15Z" fill="white"/>
<path d="M93 15H144V159H93V15Z" fill="white"/>
<path d="M93 15H144V159H93V15Z" fill="white"/>
<path d="M93 15H144V159H93V15Z" fill="white"/>
<path d="M93 15V14H92V15H93ZM144 15H145V14H144V15ZM93 16H144V14H93V16ZM143 15V159H145V15H143ZM94 159V15H92V159H94Z" fill="#372316" mask="url(#path-9-inside-1_274_13535)"/>
<path d="M143 158.046V16H1.0918L1.0918 158.046C1.0918 197.233 32.859 229 72.0459 229C111.233 229 143 197.233 143 158.046Z" fill="white" stroke="black" stroke-width="2"/>
<path d="M143.5 158.046V15.5H0.591797L0.591797 158.046C0.591797 197.509 32.5829 229.5 72.0459 229.5C111.509 229.5 143.5 197.509 143.5 158.046Z" fill="white" stroke="black"/>
<path d="M49.0215 158L49.0215 15" stroke="black"/>
<path d="M94.5 158.69L94.5 15.6899" stroke="black"/>
<path d="M143.046 158H1V16.0918L143.046 16.0918C182.233 16.0918 214 47.859 214 87.0459C214 126.233 182.233 158 143.046 158Z" fill="#BC9284" stroke="black" stroke-width="2"/>
<path d="M143 158.5H0.5V15.5L143 15.5C182.488 15.5 214.5 47.5116 214.5 87C214.5 126.488 182.488 158.5 143 158.5Z" fill="#BC9284" stroke="black"/>
<path d="M143 64.5L93.9998 63.5L44.9998 62L33.4998 61.5H19.9998L6.99985 62.5L0.499847 63.5" stroke="black"/>
<path d="M143 109H104.083L66.3484 107.4L54.4323 107H40.5302L19.1806 107.4L8.75399 108.2L0.999998 109" stroke="black"/>
<path d="M91.5 63.5L143 64.9792V68.9375V71.4115V73.8854L142.764 79.8229V104.562L142.374 124.163L142.203 158H92L91.5 63.5Z" fill="white"/>
<path d="M143 64.9792L91.5 63.5L92 158H142.203M143 64.9792C143 68.4427 142.497 80.8125 142.203 158M143 64.9792V68.9375V71.4115V73.8854L142.764 79.8229V104.562L142.374 124.163L142.203 158" stroke="black"/>
<rect x="92" y="159" width="50" height="1" fill="white"/>
<path d="M92 157.5V160.5H115.5L129.23 160L143 159.833V158.833V158H114L93 157.5H92Z" fill="white"/>
<path d="M145 64.5H142.5H143.5" stroke="black"/>
<path d="M145.5 110L92 109.5" stroke="black"/>
<path d="M90.9988 109.519L46.4992 110.5L16.5 110.5L0.996659 109.518" stroke="black"/>
<path d="M144 158.5L90.9994 158.519" stroke="black"/>
<path d="M89 110L144.694 110.5L145 132.5L143.202 158H127.29H90.4918L89.9945 131.5L89 110.495V110Z" fill="#BC9284"/>
<path d="M1 16H145V38.5L144.904 64H144.055H142.09L142.063 37.5L1 18.5V16Z" fill="#BC9284"/>
<path d="M46.5 158.5V110.47L91.5 109.511V158.5H46.5Z" fill="white"/>
<path d="M46.5 158.5V110.47L91.5 109.511V158.5H46.5Z" fill="white"/>
<path d="M46.5 158.5V110.47L91.5 109.511V158.5H46.5Z" fill="white"/>
<path d="M46.5 158.5V110.47L91.5 109.511V158.5H46.5Z" fill="white"/>
<path d="M46.5 158.5V110.47L91.5 109.511V158.5H46.5Z" stroke="black"/>
<path d="M46.5 15.5H91.5V63.4834L46.5 62.016V15.5Z" fill="white"/>
<path d="M46.5 15.5H91.5V63.4834L46.5 62.016V15.5Z" fill="white"/>
<path d="M46.5 15.5H91.5V63.4834L46.5 62.016V15.5Z" fill="white"/>
<path d="M46.5 15.5H91.5V63.4834L46.5 62.016V15.5Z" fill="white"/>
<path d="M46.5 15.5H91.5V63.4834L46.5 62.016V15.5Z" stroke="black"/>
<path d="M91 110V109.024L57.5 107.5H55H47V111L91 110Z" fill="#998888"/>
<path d="M18 108L5.5 109.5L15.5 110H47V109V107.5L18 108Z" fill="#9D7A6E"/>
<path d="M91 158.5H47" stroke="white"/>
<path d="M46.5 107.5V110" stroke="black"/>
<path d="M69.7071 0.292916C69.3166 -0.0976082 68.6834 -0.0976082 68.2929 0.292916L61.9289 6.65688C61.5384 7.0474 61.5384 7.68057 61.9289 8.07109C62.3195 8.46161 62.9526 8.46161 63.3431 8.07109L69 2.41424L74.6569 8.07109C75.0474 8.46161 75.6805 8.46161 76.0711 8.07109C76.4616 7.68057 76.4616 7.0474 76.0711 6.65688L69.7071 0.292916ZM70 63V61.0625H68V63H70ZM70 57.1875V53.3125H68V57.1875H70ZM70 49.4375V45.5625H68V49.4375H70ZM70 41.6875V37.8125H68V41.6875H70ZM70 33.9375V30.0625H68V33.9375H70ZM70 26.1875L70 22.3125H68L68 26.1875H70ZM70 18.4375V14.5625H68V18.4375H70ZM70 10.6875V6.81252H68V10.6875H70ZM70 2.93751V1.00002H68V2.93751H70ZM69.7071 0.292916C69.3166 -0.0976082 68.6834 -0.0976082 68.2929 0.292916L61.9289 6.65688C61.5384 7.0474 61.5384 7.68057 61.9289 8.07109C62.3195 8.46161 62.9526 8.46161 63.3431 8.07109L69 2.41424L74.6569 8.07109C75.0474 8.46161 75.6805 8.46161 76.0711 8.07109C76.4616 7.68057 76.4616 7.0474 76.0711 6.65688L69.7071 0.292916ZM70 63V61.0625H68V63H70ZM70 57.1875V53.3125H68V57.1875H70ZM70 49.4375V45.5625H68V49.4375H70ZM70 41.6875V37.8125H68V41.6875H70ZM70 33.9375V30.0625H68V33.9375H70ZM70 26.1875L70 22.3125H68L68 26.1875H70ZM70 18.4375V14.5625H68V18.4375H70ZM70 10.6875V6.81252H68V10.6875H70ZM70 2.93751V1.00002H68V2.93751H70Z" fill="black"/>
<path d="M69.7071 0.292916C69.3166 -0.0976082 68.6834 -0.0976082 68.2929 0.292916L61.9289 6.65688C61.5384 7.0474 61.5384 7.68057 61.9289 8.07109C62.3195 8.46161 62.9526 8.46161 63.3431 8.07109L69 2.41424L74.6569 8.07109C75.0474 8.46161 75.6805 8.46161 76.0711 8.07109C76.4616 7.68057 76.4616 7.0474 76.0711 6.65688L69.7071 0.292916ZM70 63V61.0625H68V63H70ZM70 57.1875V53.3125H68V57.1875H70ZM70 49.4375V45.5625H68V49.4375H70ZM70 41.6875V37.8125H68V41.6875H70ZM70 33.9375V30.0625H68V33.9375H70ZM70 26.1875L70 22.3125H68L68 26.1875H70ZM70 18.4375V14.5625H68V18.4375H70ZM70 10.6875V6.81252H68V10.6875H70ZM70 2.93751V1.00002H68V2.93751H70ZM69.7071 0.292916C69.3166 -0.0976082 68.6834 -0.0976082 68.2929 0.292916L61.9289 6.65688C61.5384 7.0474 61.5384 7.68057 61.9289 8.07109C62.3195 8.46161 62.9526 8.46161 63.3431 8.07109L69 2.41424L74.6569 8.07109C75.0474 8.46161 75.6805 8.46161 76.0711 8.07109C76.4616 7.68057 76.4616 7.0474 76.0711 6.65688L69.7071 0.292916ZM70 63V61.0625H68V63H70ZM70 57.1875V53.3125H68V57.1875H70ZM70 49.4375V45.5625H68V49.4375H70ZM70 41.6875V37.8125H68V41.6875H70ZM70 33.9375V30.0625H68V33.9375H70ZM70 26.1875L70 22.3125H68L68 26.1875H70ZM70 18.4375V14.5625H68V18.4375H70ZM70 10.6875V6.81252H68V10.6875H70ZM70 2.93751V1.00002H68V2.93751H70Z" fill="black"/>
<path d="M68.5112 108L68.5079 129.5" stroke="black" stroke-width="2" stroke-dasharray="4 4"/>
<path d="M5.23047 22.9707C5.20312 22.9707 5.16406 22.9199 5.11328 22.8184C5.11328 22.8066 5.18359 22.7559 5.32422 22.666C5.46484 22.5723 5.74414 22.3398 6.16211 21.9688C6.58008 21.5977 6.92578 21.248 7.19922 20.9199H7.52734C7.57812 20.9199 7.60938 20.9277 7.62109 20.9434C7.63281 20.959 7.63867 20.9883 7.63867 21.0312V28.1797C7.63867 28.4258 7.66406 28.5645 7.71484 28.5957C7.90625 28.709 8.29492 28.7656 8.88086 28.7656C8.91211 28.7656 8.92773 28.7812 8.92773 28.8125V28.9531C8.92773 28.9844 8.91211 29 8.88086 29H5.35352C5.32227 29 5.30664 28.9844 5.30664 28.9531V28.8125C5.30664 28.7812 5.32227 28.7656 5.35352 28.7656C5.54883 28.7539 5.71875 28.7461 5.86328 28.7422C6.00781 28.7344 6.16016 28.7227 6.32031 28.707C6.48047 28.6914 6.5918 28.666 6.6543 28.6309C6.7207 28.5957 6.75977 28.543 6.77148 28.4727C6.7832 28.4023 6.78906 28.3105 6.78906 28.1973V21.957C6.79297 21.9492 6.75 21.9805 6.66016 22.0508C6.15234 22.457 5.6875 22.7617 5.26562 22.9648L5.23047 22.9707Z" fill="black"/>
<path d="M4.75586 71.3574L4.61523 71.375C4.57617 71.375 4.55664 71.3633 4.55664 71.3398C4.55664 71.2305 4.62109 70.9902 4.75 70.6191C4.87891 70.2441 5.02734 69.9688 5.19531 69.793C5.76172 69.2109 6.39844 68.9199 7.10547 68.9199C7.8125 68.9199 8.38086 69.1426 8.81055 69.5879C9.24023 70.0293 9.45508 70.5859 9.45508 71.2578C9.45508 71.9258 9.02148 72.6641 8.1543 73.4727C7.88086 73.7305 7.65234 73.9375 7.46875 74.0938C7.23438 74.293 6.82031 74.6816 6.22656 75.2598C5.63672 75.834 5.3418 76.1504 5.3418 76.209H8.64062C8.92578 76.209 9.12695 76.1289 9.24414 75.9688C9.31445 75.875 9.4043 75.627 9.51367 75.2246H9.73633L9.48438 76.8066C9.46484 76.8965 9.41992 76.9609 9.34961 77H4.47461C4.45508 77 4.44531 76.9492 4.44531 76.8477C4.44531 76.75 4.53516 76.5977 4.71484 76.3906C4.89844 76.1836 5.13086 75.9395 5.41211 75.6582C5.69727 75.373 6.08398 74.9844 6.57227 74.4922C7.81445 73.2305 8.43555 72.2207 8.43555 71.4629C8.43555 70.998 8.26562 70.5781 7.92578 70.2031C7.58984 69.8242 7.19727 69.6348 6.74805 69.6348C6.30273 69.6348 5.9043 69.7852 5.55273 70.0859C5.20898 70.3867 4.97656 70.7754 4.85547 71.252C4.83984 71.3223 4.80664 71.3574 4.75586 71.3574Z" fill="black"/>
<path d="M7.45703 119.131C7.50391 119.123 7.57422 119.119 7.66797 119.119C8.12109 119.119 8.53711 119.309 8.91602 119.688C9.29492 120.066 9.48438 120.551 9.48438 121.141C9.48438 121.727 9.32812 122.244 9.01562 122.693C8.70703 123.143 8.32031 123.5 7.85547 123.766C7.39453 124.027 6.94727 124.158 6.51367 124.158C5.56445 124.158 4.91797 123.967 4.57422 123.584C4.48438 123.486 4.41992 123.369 4.38086 123.232C4.38086 122.971 4.54297 122.84 4.86719 122.84C4.94922 122.84 5.11328 122.938 5.35938 123.133C5.60938 123.324 5.84375 123.482 6.0625 123.607C6.28125 123.732 6.52734 123.791 6.80078 123.783C7.3125 123.768 7.72852 123.521 8.04883 123.045C8.37305 122.564 8.53516 122.041 8.53516 121.475C8.53516 120.904 8.39453 120.475 8.11328 120.186C7.83203 119.896 7.49805 119.752 7.11133 119.752C6.9043 119.752 6.73242 119.791 6.5957 119.869C6.45898 119.943 6.37891 119.996 6.35547 120.027C6.33203 120.059 6.31055 120.074 6.29102 120.074C6.27539 120.074 6.25391 120.059 6.22656 120.027C6.19922 119.996 6.18555 119.969 6.18555 119.945C6.18555 119.922 6.19727 119.898 6.2207 119.875C6.24805 119.848 6.2793 119.82 6.31445 119.793C6.34961 119.762 6.38477 119.732 6.41992 119.705C7.39258 118.947 7.87891 118.283 7.87891 117.713C7.87891 117.385 7.75586 117.111 7.50977 116.893C7.26367 116.674 7.00195 116.564 6.72461 116.564C6.00586 116.564 5.42578 116.969 4.98438 117.777C4.98047 117.781 4.96484 117.783 4.9375 117.783C4.91406 117.783 4.87695 117.771 4.82617 117.748C4.77539 117.725 4.75 117.707 4.75 117.695C4.75 117.684 4.75391 117.666 4.76172 117.643C4.77344 117.619 4.80469 117.543 4.85547 117.414C4.90625 117.285 5.01172 117.121 5.17188 116.922C5.33594 116.719 5.51562 116.543 5.71094 116.395C6.12891 116.078 6.50586 115.92 6.8418 115.92C7.45898 115.92 7.92773 116.043 8.24805 116.289C8.56836 116.535 8.72852 116.879 8.72852 117.32C8.72852 117.758 8.49023 118.215 8.01367 118.691C7.93164 118.754 7.81445 118.838 7.66211 118.943C7.51367 119.045 7.43945 119.105 7.43945 119.125V119.131H7.45703Z" fill="black"/>
<path d="M49.1055 28C49.0742 28 49.0586 27.9844 49.0586 27.9531V27.8125C49.0586 27.7812 49.0859 27.7656 49.1406 27.7656C49.3242 27.7656 49.5273 27.7461 49.75 27.707C50.4648 27.5859 50.8223 27.3398 50.8223 26.9688V20.7871C50.7832 20.2871 50.5547 20.0156 50.1367 19.9727C50.0117 19.957 49.873 19.9492 49.7207 19.9492H49.3867C49.3555 19.9492 49.3398 19.9336 49.3398 19.9023V19.7559C49.3398 19.7246 49.3555 19.709 49.3867 19.709L49.6445 19.7031L50.6523 19.6973L52.7383 19.6328C54.9727 19.6328 56.0898 20.293 56.0898 21.6133C56.0898 22.1719 55.8008 22.6367 55.2227 23.0078C55.1328 23.0664 55.0547 23.1094 54.9883 23.1367C54.9258 23.1641 54.8906 23.1797 54.8828 23.1836C55.3984 23.4727 55.8027 23.7969 56.0957 24.1562C56.3926 24.5156 56.541 24.9453 56.541 25.4453C56.541 26.5117 56.0371 27.2539 55.0293 27.6719C54.5098 27.8906 53.9453 28 53.3359 28H49.1055ZM52.0703 23.4297C52.0195 23.4297 51.9941 23.4512 51.9941 23.4941V26.7051C51.9941 26.9824 52.123 27.2051 52.3809 27.373C52.6426 27.541 52.9238 27.625 53.2246 27.625C53.8027 27.625 54.2949 27.4199 54.7012 27.0098C55.1074 26.5957 55.3105 26.0879 55.3105 25.4863C55.3105 24.8809 55.0918 24.3867 54.6543 24.0039C54.2207 23.6211 53.6699 23.4297 53.002 23.4297H52.0703ZM51.9824 22.9551C51.9824 23.0293 52.0273 23.0664 52.1172 23.0664H53.5586C53.9336 23.0664 54.248 22.9277 54.502 22.6504C54.7598 22.373 54.8887 22.0625 54.8887 21.7188C54.8887 21.1055 54.7148 20.6621 54.3672 20.3887C54.0195 20.1113 53.5566 19.9727 52.9785 19.9727C52.8027 19.9844 52.6797 19.9902 52.6094 19.9902C52.543 19.9902 52.4727 19.9902 52.3984 19.9902C52.3242 19.9863 52.25 19.9902 52.1758 20.002C52.1016 20.0137 52.0508 20.0391 52.0234 20.0781C51.9961 20.1172 51.9824 20.1816 51.9824 20.2715V22.9551Z" fill="black"/>
</svg>
