<svg width="216" height="222" viewBox="0 0 216 222" fill="none" xmlns="http://www.w3.org/2000/svg">
<path d="M144 150.046V8H2.0918L2.0918 150.046C2.0918 189.233 33.859 221 73.0459 221C112.233 221 144 189.233 144 150.046Z" fill="white" stroke="black" stroke-width="2"/>
<path d="M144.5 150.046V7.5H1.5918L1.5918 150.046C1.5918 189.509 33.5829 221.5 73.0459 221.5C112.509 221.5 144.5 189.509 144.5 150.046Z" fill="white" stroke="black"/>
<path d="M50.0215 150L50.0215 7.00001" stroke="black"/>
<path d="M95.5 150.69L95.5 7.68995" stroke="black"/>
<path d="M144.046 150H2V8.0918L144.046 8.0918C183.233 8.0918 215 39.859 215 79.0459C215 118.233 183.233 150 144.046 150Z" fill="#BC9284" stroke="black" stroke-width="2"/>
<path d="M144.046 150.5H1.5V7.5918L144.046 7.5918C183.509 7.5918 215.5 39.5829 215.5 79.0459C215.5 118.509 183.509 150.5 144.046 150.5Z" fill="#BC9284" stroke="black"/>
<path d="M144 56.0205L1.00001 56.0205" stroke="black"/>
<path d="M144.691 101.5L1.69141 101.5" stroke="black"/>
<mask id="path-9-inside-1_274_13534" fill="white">
<path d="M94 7H145V151H94V7Z"/>
</mask>
<path d="M94 7H145V151H94V7Z" fill="white"/>
<path d="M94 7H145V151H94V7Z" fill="white"/>
<path d="M94 7H145V151H94V7Z" fill="white"/>
<path d="M94 7H145V151H94V7Z" fill="white"/>
<path d="M94 7V6H93V7H94ZM145 7H146V6H145V7ZM94 8H145V6H94V8ZM144 7V151H146V7H144ZM95 151V7H93V151H95Z" fill="#372316" mask="url(#path-9-inside-1_274_13534)"/>
<path d="M144 150.046V8H2.0918L2.0918 150.046C2.0918 189.233 33.859 221 73.0459 221C112.233 221 144 189.233 144 150.046Z" fill="white" stroke="black" stroke-width="2"/>
<path d="M144.5 150.046V7.5H1.5918L1.5918 150.046C1.5918 189.509 33.5829 221.5 73.0459 221.5C112.509 221.5 144.5 189.509 144.5 150.046Z" fill="white" stroke="black"/>
<path d="M50.0215 150L50.0215 7.00001" stroke="black"/>
<path d="M95.5 150.69L95.5 7.68995" stroke="black"/>
<path d="M144.046 150H2V8.0918L144.046 8.0918C183.233 8.0918 215 39.859 215 79.0459C215 118.233 183.233 150 144.046 150Z" fill="#BC9284" stroke="black" stroke-width="2"/>
<path d="M144 150.5H1.5V7.5L144 7.5C183.488 7.5 215.5 39.5116 215.5 79C215.5 118.488 183.488 150.5 144 150.5Z" fill="#BC9284" stroke="black"/>
<path d="M144 56.0205L1.00001 56.0205" stroke="black"/>
<path d="M144.691 101.5L1.69141 101.5" stroke="black"/>
<path d="M92.5 54L144.5 56V60V62.5V65L144.259 71V96L143.861 115.807L143.687 150H92.5V54Z" fill="white"/>
<path d="M144.5 56L92.5 54V150H143.687M144.5 56C144.5 59.5 143.987 72 143.687 150M144.5 56V60V62.5V65L144.259 71V96L143.861 115.807L143.687 150" stroke="black"/>
<rect x="93" y="151" width="50" height="1" fill="white"/>
<path d="M1.48633 8V56.528H11.4389H20.9068H41.3376H68.2464H94.1586H145V8H1.48633Z" fill="#BC9284"/>
<path d="M1.48633 56.528V8H145V56.528M1.48633 56.528C4.46257 56 27.3849 57 145 56.528M1.48633 56.528H11.4389H20.9068H41.3376H68.2464H94.1586H145" stroke="black"/>
<path d="M93 149.5V152.5H116.5L130.23 152L144 151.833V150.833V150H115L94 149.5H93Z" fill="white"/>
<line x1="92.5" y1="149" x2="92.5" y2="153" stroke="black"/>
<path d="M147 56.5H144.5" stroke="black"/>
<path d="M146.5 102L93 101.5" stroke="black"/>
<path d="M145 150.5L91.9994 150.519" stroke="black"/>
<path d="M90 102L145.694 102.5L146 124.5L144.202 150H128.29H91.4918L90.9945 123.5L90 102.495V102Z" fill="#BC9284"/>
<path d="M2 8H145.665L146 31.0313L145.905 56H145.068H143.13L143.104 30.0521L2 10V8Z" fill="#BC9284"/>
<mask id="path-31-inside-2_274_13534" fill="white">
<path d="M47 101H93V152H47V101Z"/>
</mask>
<path d="M47 101H93V152H47V101Z" fill="white"/>
<path d="M47 101H93V152H47V101Z" fill="white"/>
<path d="M47 101H93V152H47V101Z" fill="white"/>
<path d="M47 101H93V152H47V101Z" fill="white"/>
<path d="M47 101V100H46V101H47ZM93 101H94V100H93V101ZM47 102H93V100H47V102ZM92 101V152H94V101H92ZM48 152V101H46V152H48Z" fill="black" mask="url(#path-31-inside-2_274_13534)"/>
<mask id="path-33-inside-3_274_13534" fill="white">
<path d="M47 7H93V56H47V7Z"/>
</mask>
<path d="M47 7H93V56H47V7Z" fill="white"/>
<path d="M47 7H93V56H47V7Z" fill="white"/>
<path d="M47 7H93V56H47V7Z" fill="white"/>
<path d="M47 7H93V56H47V7Z" fill="white"/>
<path d="M47 7V6H46V7H47ZM93 7H94V6H93V7ZM47 8H93V6H47V8ZM92 7V56H94V7H92ZM48 56V7H46V56H48Z" fill="black" mask="url(#path-33-inside-3_274_13534)"/>
<mask id="path-35-inside-4_274_13534" fill="white">
<path d="M1 56H48V101H1V56Z"/>
</mask>
<path d="M1 56H48V101H1V56Z" fill="white"/>
<path d="M1 56H48V101H1V56Z" fill="white"/>
<path d="M1 56H48V101H1V56Z" fill="white"/>
<path d="M1 56H48V101H1V56Z" fill="white"/>
<path d="M1 56V55H0V56H1ZM48 56H49V55H48V56ZM1 57H48V55H1V57ZM47 56V101H49V56H47ZM2 101V56H0V101H2Z" fill="black" mask="url(#path-35-inside-4_274_13534)"/>
<path d="M6.33301 13.4683C6.30339 13.4683 6.26107 13.4132 6.20605 13.3032C6.20605 13.2905 6.28223 13.2355 6.43457 13.1382C6.58691 13.0366 6.88949 12.7848 7.34229 12.3828C7.79508 11.9808 8.1696 11.6021 8.46582 11.2466H8.82129C8.8763 11.2466 8.91016 11.255 8.92285 11.272C8.93555 11.2889 8.94189 11.3206 8.94189 11.3672V19.1113C8.94189 19.3779 8.9694 19.5282 9.02441 19.562C9.23177 19.6847 9.65283 19.7461 10.2876 19.7461C10.3215 19.7461 10.3384 19.763 10.3384 19.7969V19.9492C10.3384 19.9831 10.3215 20 10.2876 20H6.46631C6.43245 20 6.41553 19.9831 6.41553 19.9492V19.7969C6.41553 19.763 6.43245 19.7461 6.46631 19.7461C6.6779 19.7334 6.86198 19.7249 7.01855 19.7207C7.17513 19.7122 7.34017 19.6995 7.51367 19.6826C7.68717 19.6657 7.80778 19.6382 7.87549 19.6001C7.94743 19.562 7.98975 19.5049 8.00244 19.4287C8.01514 19.3525 8.02148 19.2531 8.02148 19.1304V12.3701C8.02572 12.3617 7.97917 12.3955 7.88184 12.4717C7.33171 12.9118 6.82812 13.2419 6.37109 13.4619L6.33301 13.4683Z" fill="black"/>
<path d="M8.74512 108.725C8.7959 108.717 8.87207 108.712 8.97363 108.712C9.46452 108.712 9.9152 108.918 10.3257 109.328C10.7362 109.739 10.9414 110.263 10.9414 110.902C10.9414 111.537 10.7721 112.098 10.4336 112.584C10.0993 113.071 9.68034 113.458 9.17676 113.746C8.67741 114.03 8.19287 114.171 7.72314 114.171C6.69482 114.171 5.99447 113.964 5.62207 113.549C5.52474 113.444 5.45492 113.317 5.4126 113.168C5.4126 112.885 5.58822 112.743 5.93945 112.743C6.02832 112.743 6.20605 112.849 6.47266 113.061C6.74349 113.268 6.9974 113.439 7.23438 113.575C7.47135 113.71 7.73796 113.774 8.03418 113.765C8.58854 113.748 9.03923 113.482 9.38623 112.965C9.73747 112.445 9.91309 111.878 9.91309 111.264C9.91309 110.646 9.76074 110.181 9.45605 109.868C9.15137 109.555 8.78955 109.398 8.37061 109.398C8.14632 109.398 7.96012 109.44 7.81201 109.525C7.6639 109.605 7.57715 109.662 7.55176 109.696C7.52637 109.73 7.50309 109.747 7.48193 109.747C7.46501 109.747 7.44173 109.73 7.41211 109.696C7.38249 109.662 7.36768 109.633 7.36768 109.607C7.36768 109.582 7.38037 109.557 7.40576 109.531C7.43538 109.502 7.46924 109.472 7.50732 109.442C7.54541 109.409 7.5835 109.377 7.62158 109.347C8.67529 108.526 9.20215 107.807 9.20215 107.189C9.20215 106.833 9.06885 106.537 8.80225 106.3C8.53564 106.063 8.25212 105.945 7.95166 105.945C7.17301 105.945 6.5446 106.383 6.06641 107.259C6.06217 107.263 6.04525 107.265 6.01562 107.265C5.99023 107.265 5.95003 107.252 5.89502 107.227C5.84001 107.202 5.8125 107.183 5.8125 107.17C5.8125 107.157 5.81673 107.138 5.8252 107.113C5.83789 107.087 5.87174 107.005 5.92676 106.865C5.98177 106.726 6.09603 106.548 6.26953 106.332C6.44727 106.112 6.64193 105.922 6.85352 105.761C7.30632 105.418 7.71468 105.247 8.07861 105.247C8.74723 105.247 9.25505 105.38 9.60205 105.646C9.94906 105.913 10.1226 106.285 10.1226 106.764C10.1226 107.238 9.86442 107.733 9.34814 108.249C9.25928 108.317 9.13232 108.408 8.96729 108.522C8.80648 108.632 8.72607 108.698 8.72607 108.719V108.725H8.74512Z" fill="black"/>
<path d="M51.1055 20C51.0742 20 51.0586 19.9844 51.0586 19.9531V19.8125C51.0586 19.7812 51.0859 19.7656 51.1406 19.7656C51.3242 19.7656 51.5273 19.7461 51.75 19.707C52.4648 19.5859 52.8223 19.3398 52.8223 18.9688V12.7871C52.7832 12.2871 52.5547 12.0156 52.1367 11.9727C52.0117 11.957 51.873 11.9492 51.7207 11.9492H51.3867C51.3555 11.9492 51.3398 11.9336 51.3398 11.9023V11.7559C51.3398 11.7246 51.3555 11.709 51.3867 11.709L51.6445 11.7031L52.6523 11.6973L54.7383 11.6328C56.9727 11.6328 58.0898 12.293 58.0898 13.6133C58.0898 14.1719 57.8008 14.6367 57.2227 15.0078C57.1328 15.0664 57.0547 15.1094 56.9883 15.1367C56.9258 15.1641 56.8906 15.1797 56.8828 15.1836C57.3984 15.4727 57.8027 15.7969 58.0957 16.1562C58.3926 16.5156 58.541 16.9453 58.541 17.4453C58.541 18.5117 58.0371 19.2539 57.0293 19.6719C56.5098 19.8906 55.9453 20 55.3359 20H51.1055ZM54.0703 15.4297C54.0195 15.4297 53.9941 15.4512 53.9941 15.4941V18.7051C53.9941 18.9824 54.123 19.2051 54.3809 19.373C54.6426 19.541 54.9238 19.625 55.2246 19.625C55.8027 19.625 56.2949 19.4199 56.7012 19.0098C57.1074 18.5957 57.3105 18.0879 57.3105 17.4863C57.3105 16.8809 57.0918 16.3867 56.6543 16.0039C56.2207 15.6211 55.6699 15.4297 55.002 15.4297H54.0703ZM53.9824 14.9551C53.9824 15.0293 54.0273 15.0664 54.1172 15.0664H55.5586C55.9336 15.0664 56.248 14.9277 56.502 14.6504C56.7598 14.373 56.8887 14.0625 56.8887 13.7188C56.8887 13.1055 56.7148 12.6621 56.3672 12.3887C56.0195 12.1113 55.5566 11.9727 54.9785 11.9727C54.8027 11.9844 54.6797 11.9902 54.6094 11.9902C54.543 11.9902 54.4727 11.9902 54.3984 11.9902C54.3242 11.9863 54.25 11.9902 54.1758 12.002C54.1016 12.0137 54.0508 12.0391 54.0234 12.0781C53.9961 12.1172 53.9824 12.1816 53.9824 12.2715V14.9551Z" fill="black"/>
</svg>
