<svg xmlns="http://www.w3.org/2000/svg" fill="none" viewBox="-2.81 -3 156 220.31">
<mask id="path-1-inside-1_295_2251" fill="white">
<path d="M0.19165 75C0.19165 33.5786 33.7703 0 75.1917 0V0C116.613 0 150.192 33.5786 150.192 75V115L0.19165 115L0.19165 75Z"/>
</mask>
<path d="M-2.80835 75C-2.80835 31.9218 32.1134 -3 75.1917 -3C118.27 -3 153.192 31.9218 153.192 75H147.192C147.192 35.2355 114.956 3 75.1917 3C35.4271 3 3.19165 35.2355 3.19165 75H-2.80835ZM150.192 115L0.19165 115L150.192 115ZM-2.80835 115L-2.80835 75C-2.80835 31.9218 32.1134 -3 75.1917 -3V3C35.4271 3 3.19165 35.2355 3.19165 75L3.19165 115H-2.80835ZM75.1917 -3C118.27 -3 153.192 31.9218 153.192 75V115H147.192V75C147.192 35.2355 114.956 3 75.1917 3V-3Z" fill="#CBC1BB" mask="url(#path-1-inside-1_295_2251)"/>
<path d="M1.5 114.809L1.5 214.809" stroke="#CBC1BB" stroke-width="3"/>
<path d="M51.5 75.8086L51.5 215.809" stroke="#CBC1BB" stroke-width="3"/>
<path d="M0 214.809H150" stroke="#CBC1BB" stroke-width="3"/>
<path d="M98.5 74.8086L98.5 214.809" stroke="#CBC1BB" stroke-width="3"/>
<path d="M148.5 114.809V214.809" stroke="#CBC1BB" stroke-width="3"/>
</svg>