<svg xmlns="http://www.w3.org/2000/svg" fill="none" viewBox="31.83 31.94 310.09 266.43">
<path d="M159.866 55.1511L186.647 81.9323L81.8174 186.762L55.0362 159.981C26.0883 131.033 26.0884 84.099 55.0362 55.1511C83.9841 26.2032 130.918 26.2032 159.866 55.1511Z" stroke="#CBC1BB" stroke-width="3"/>
<path d="M318.6 160.728L292.066 187.262L186.742 81.9384L213.277 55.4042C242.361 26.3199 289.516 26.3199 318.6 55.4042C347.684 84.4885 347.684 131.643 318.6 160.728Z" stroke="#CBC1BB" stroke-width="3"/>
<mask id="path-3-inside-1_295_2249" fill="white">
<path d="M81 188.066L116.355 152.711L151.711 188.066L116.355 223.422L81 188.066Z"/>
</mask>
<path d="M81 188.066L80.2929 187.359L78.1716 189.481L78.8787 190.188L81 188.066ZM116.355 152.711L117.77 151.297L117.062 150.59L115.648 152.004L116.355 152.711ZM151.711 188.066L153.125 189.481L154.539 188.066L153.125 186.652L151.711 188.066ZM116.355 223.422L114.234 225.543L115.648 226.957L117.77 224.836L116.355 223.422ZM81.7071 188.774L117.062 153.418L115.648 152.004L80.2929 187.359L81.7071 188.774ZM114.941 154.125L150.296 189.481L153.125 186.652L117.77 151.297L114.941 154.125ZM150.296 186.652L114.941 222.008L117.77 224.836L153.125 189.481L150.296 186.652ZM118.477 221.3L83.1213 185.945L78.8787 190.188L114.234 225.543L118.477 221.3Z" fill="#CBC1BB" mask="url(#path-3-inside-1_295_2249)"/>
<mask id="path-5-inside-2_295_2249" fill="white">
<path d="M116.355 152.711L151.711 117.356L187.066 152.711L151.711 188.066L116.355 152.711Z"/>
</mask>
<path d="M116.355 152.711L115.648 152.004L114.234 153.418L114.941 154.125L116.355 152.711ZM151.711 117.356L153.125 115.941L152.418 115.234L151.004 116.648L151.711 117.356ZM187.066 152.711L188.48 154.125L189.894 152.711L188.48 151.297L187.066 152.711ZM151.711 188.066L150.296 189.48L151.711 190.895L153.125 189.48L151.711 188.066ZM117.062 153.418L152.418 118.063L151.004 116.648L115.648 152.004L117.062 153.418ZM150.296 118.77L185.652 154.125L188.48 151.297L153.125 115.941L150.296 118.77ZM185.652 151.297L150.296 186.652L153.125 189.48L188.48 154.125L185.652 151.297ZM153.125 186.652L117.77 151.297L114.941 154.125L150.296 189.48L153.125 186.652Z" fill="#CBC1BB" mask="url(#path-5-inside-2_295_2249)"/>
<mask id="path-7-inside-3_295_2249" fill="white">
<path d="M151.711 117.356L187.066 82.0006L222.421 117.356L187.066 152.711L151.711 117.356Z"/>
</mask>
<path d="M151.711 117.356L151.004 116.649L149.589 118.063L150.296 118.77L151.711 117.356ZM187.066 82.0006L187.773 81.2935L187.066 80.5864L186.359 81.2935L187.066 82.0006ZM222.421 117.356L223.836 118.77L224.543 118.063L223.128 116.649L222.421 117.356ZM187.066 152.711L185.652 154.126L187.066 155.54L188.48 154.126L187.066 152.711ZM152.418 118.063L187.773 82.7077L186.359 81.2935L151.004 116.649L152.418 118.063ZM186.359 82.7077L221.714 118.063L223.128 116.649L187.773 81.2935L186.359 82.7077ZM221.007 115.942L185.652 151.297L188.48 154.126L223.836 118.77L221.007 115.942ZM188.48 151.297L153.125 115.942L150.296 118.77L185.652 154.126L188.48 151.297Z" fill="#CBC1BB" mask="url(#path-7-inside-3_295_2249)"/>
<mask id="path-9-inside-4_295_2249" fill="white">
<path d="M116.355 223.422L151.711 188.067L187.066 223.422L151.711 258.777L116.355 223.422Z"/>
</mask>
<path d="M116.355 223.422L114.941 222.008L112.82 224.129L114.234 225.543L116.355 223.422ZM151.711 188.067L153.125 186.652L151.711 185.238L150.296 186.652L151.711 188.067ZM187.066 223.422L188.48 224.836L189.894 223.422L188.48 222.008L187.066 223.422ZM151.711 258.777L149.589 260.899L151.004 262.313L153.125 260.191L151.711 258.777ZM117.77 224.836L153.125 189.481L150.296 186.652L114.941 222.008L117.77 224.836ZM150.296 189.481L185.652 224.836L188.48 222.008L153.125 186.652L150.296 189.481ZM185.652 222.008L150.296 257.363L153.125 260.191L188.48 224.836L185.652 222.008ZM153.832 256.656L118.477 221.301L114.234 225.543L149.589 260.899L153.832 256.656Z" fill="#CBC1BB" mask="url(#path-9-inside-4_295_2249)"/>
<rect x="153.125" y="188.066" width="48" height="48" transform="rotate(-45 153.125 188.066)" stroke="#CBC1BB" stroke-width="2"/>
<mask id="path-12-inside-5_295_2249" fill="white">
<path d="M187.066 152.711L222.421 117.356L257.777 152.711L222.421 188.066L187.066 152.711Z"/>
</mask>
<path d="M187.066 152.711L185.652 151.297L184.238 152.711L185.652 154.125L187.066 152.711ZM222.421 117.356L223.128 116.648L221.714 115.234L221.007 115.941L222.421 117.356ZM257.777 152.711L258.484 153.418L259.191 152.711L258.484 152.004L257.777 152.711ZM222.421 188.066L221.007 189.48L221.714 190.188L223.128 188.773L222.421 188.066ZM188.48 154.125L223.836 118.77L221.007 115.941L185.652 151.297L188.48 154.125ZM221.714 118.063L257.07 153.418L258.484 152.004L223.128 116.648L221.714 118.063ZM257.07 152.004L221.714 187.359L223.128 188.773L258.484 153.418L257.07 152.004ZM223.836 186.652L188.48 151.297L185.652 154.125L221.007 189.48L223.836 186.652Z" fill="#CBC1BB" mask="url(#path-12-inside-5_295_2249)"/>
<mask id="path-14-inside-6_295_2249" fill="white">
<path d="M151.711 258.777L187.066 223.422L222.421 258.777L187.066 294.132L151.711 258.777Z"/>
</mask>
<path d="M151.711 258.777L150.296 257.363L148.175 259.484L149.589 260.898L151.711 258.777ZM187.066 223.422L188.48 222.007L187.066 220.593L185.652 222.007L187.066 223.422ZM222.421 258.777L224.543 260.898L225.957 259.484L223.836 257.363L222.421 258.777ZM187.066 294.132L184.945 296.254L187.066 298.375L189.187 296.254L187.066 294.132ZM153.125 260.191L188.48 224.836L185.652 222.007L150.296 257.363L153.125 260.191ZM185.652 224.836L221.007 260.191L223.836 257.363L188.48 222.007L185.652 224.836ZM220.3 256.656L184.945 292.011L189.187 296.254L224.543 260.898L220.3 256.656ZM189.187 292.011L153.832 256.656L149.589 260.898L184.945 296.254L189.187 292.011Z" fill="#CBC1BB" mask="url(#path-14-inside-6_295_2249)"/>
<mask id="path-16-inside-7_295_2249" fill="white">
<path d="M187.066 223.422L222.421 188.067L257.777 223.422L222.421 258.777L187.066 223.422Z"/>
</mask>
<path d="M187.066 223.422L185.652 222.008L184.238 223.422L185.652 224.836L187.066 223.422ZM222.421 188.067L223.836 186.652L222.421 185.238L221.007 186.652L222.421 188.067ZM257.777 223.422L259.898 225.543L261.312 224.129L259.191 222.008L257.777 223.422ZM222.421 258.777L221.007 260.191L223.128 262.313L224.543 260.899L222.421 258.777ZM188.48 224.836L223.836 189.481L221.007 186.652L185.652 222.008L188.48 224.836ZM221.007 189.481L256.363 224.836L259.191 222.008L223.836 186.652L221.007 189.481ZM255.655 221.301L220.3 256.656L224.543 260.899L259.898 225.543L255.655 221.301ZM223.836 257.363L188.48 222.008L185.652 224.836L221.007 260.191L223.836 257.363Z" fill="#CBC1BB" mask="url(#path-16-inside-7_295_2249)"/>
<mask id="path-18-inside-8_295_2249" fill="white">
<path d="M222.421 188.066L257.777 152.711L293.258 188.193L257.903 223.548L222.421 188.066Z"/>
</mask>
<path d="M222.421 188.066L221.007 186.652L219.593 188.066L221.007 189.481L222.421 188.066ZM257.777 152.711L258.484 152.004L257.07 150.59L256.363 151.297L257.777 152.711ZM293.258 188.193L295.38 190.314L296.087 189.607L293.965 187.486L293.258 188.193ZM257.903 223.548L256.489 224.962L258.61 227.084L260.024 225.669L257.903 223.548ZM223.836 189.481L259.191 154.125L256.363 151.297L221.007 186.652L223.836 189.481ZM257.07 153.418L292.551 188.9L293.965 187.486L258.484 152.004L257.07 153.418ZM291.137 186.071L255.782 221.427L260.024 225.669L295.38 190.314L291.137 186.071ZM259.317 222.134L223.836 186.652L221.007 189.481L256.489 224.962L259.317 222.134Z" fill="#CBC1BB" mask="url(#path-18-inside-8_295_2249)"/>
</svg>