<svg width="258" height="124" viewBox="0 0 258 124" fill="none" xmlns="http://www.w3.org/2000/svg">
<rect width="10.4472" height="122.59" transform="matrix(0.997538 0.0701342 0.0390355 -0.999238 242.793 123.267)" fill="#9D7A6E"/>
<rect x="0.518287" y="-0.464552" width="9.44717" height="121.59" transform="matrix(0.997538 0.0701342 0.0390355 -0.999238 242.812 122.302)" stroke="black" stroke-opacity="0.5"/>
<rect width="125.229" height="124" transform="matrix(1 0 0 -1 128 124)" fill="#BC9284"/>
<rect x="0.5" y="-0.5" width="124.229" height="123" transform="matrix(1 0 0 -1 128 123)" stroke="black" stroke-opacity="0.5"/>
<rect width="8.44915" height="122.558" transform="matrix(0.996233 0.0867192 0.031537 -0.999503 92.7168 123.267)" fill="#E3DDDD"/>
<rect x="0.513885" y="-0.456392" width="7.44915" height="121.558" transform="matrix(0.996233 0.0867192 0.031537 -0.999503 92.7331 122.31)" stroke="black" stroke-opacity="0.5"/>
<rect width="101.146" height="124" transform="matrix(1 0 0 -1 0 124)" fill="white"/>
<rect x="0.5" y="-0.5" width="100.146" height="123" transform="matrix(1 0 0 -1 0 123)" stroke="black" stroke-opacity="0.5"/>
</svg>
