<svg width="321" height="148" viewBox="0 0 321 148" fill="none" xmlns="http://www.w3.org/2000/svg">
<path d="M5.0193 52.3427L9.80572 146.33L100.127 145.002L100.127 49.9225C100.127 23.6423 78.8226 2.33789 52.5423 2.33789C25.3115 2.33789 3.63434 25.1471 5.0193 52.3427Z" fill="#E3DDDD" stroke="black"/>
<path d="M66.3926 50.1704V146.165" stroke="black"/>
<path d="M34.5723 49.708L34.5723 145.702" stroke="black"/>
<path d="M8.6157 53.0481L10.2384 146.015L108.918 144.293L107.295 51.3256C106.819 24.0761 84.3435 2.37163 57.094 2.84728C29.8446 3.32292 8.14006 25.7986 8.6157 53.0481Z" fill="white" stroke="black" stroke-width="2"/>
<path d="M8.11578 53.0568L9.74725 146.524L109.426 144.784L107.795 51.3169C107.314 23.7913 84.6109 1.86689 57.0853 2.34735C29.5597 2.82781 7.63532 25.5312 8.11578 53.0568Z" fill="white" stroke="black"/>
<path d="M74.0273 49.8926L75.7027 145.872" stroke="black"/>
<path d="M42.209 49.9858L43.8843 145.965" stroke="black"/>
<path d="M240.776 49.648V144.171L155.254 144.818L150.315 52.0544C148.936 26.148 169.57 4.38574 195.514 4.38574C220.511 4.38574 240.776 24.6504 240.776 49.648Z" fill="#E3DDDD" stroke="black"/>
<path d="M176.465 51.0342V144.669" stroke="black"/>
<path d="M207.506 50.5815V144.216" stroke="black"/>
<path d="M250.359 52.1462L251.958 143.791L155.771 145.47L154.171 53.8252C153.708 27.2637 174.864 5.35557 201.426 4.89194C227.987 4.42831 249.895 25.5848 250.359 52.1462Z" fill="#BC9284" stroke="black" stroke-width="2"/>
<path d="M250.864 52.1346L252.493 144.824L155.28 145.981L153.671 53.8368C153.203 26.9977 174.581 4.86044 201.42 4.39196C228.257 3.92352 250.393 25.2977 250.864 52.1346Z" fill="#BC9284" stroke="black"/>
<path d="M186.52 51.6289L188.165 145.9" stroke="black"/>
<path d="M217.549 50.6328L219.194 144.904" stroke="black"/>
<path d="M296.636 147.032C288.437 86.0339 285.747 28.0145 286.021 10.9339H299.505H312.666C309.715 72.5881 316.996 130.908 320.002 147.032H296.636Z" fill="#BC9284" stroke="black"/>
<path d="M315.491 13.3935C317.459 25.8555 320.373 111.095 319.963 147.032C310.945 90.8712 311.118 32.1139 312.622 13.3935H315.491Z" fill="#E3DDDD" stroke="black"/>
</svg>
