<svg width="346" height="148" viewBox="0 0 346 148" fill="none" xmlns="http://www.w3.org/2000/svg">
<path d="M295 146L292 57L296 62.0282L297.5 66.0508L299 93.2034V146H295Z" fill="#E3DDDD" stroke="black" stroke-width="0.5"/>
<path d="M294 145.5L291 57L295 62L296.5 66L298 93V145.5H294Z" fill="#9E7669" stroke="black" stroke-width="0.5"/>
<path d="M299.721 67.5L303.001 88.5L305.001 103L322.5 143.5L327 141.5L324 135L315 113.5L311.001 103L309.5 95.5L308 87.5V78V70.5L311.001 20H299.721L299.721 67.5Z" fill="#9D7A6E"/>
<path d="M300.221 20.5H310.47L307.501 70.4703L307.5 70.4852V70.5V78V87.5V87.5465L307.509 87.5921L309.009 95.5921L309.01 95.5981L310.511 103.098L310.519 103.139L310.534 103.178L314.533 113.678L314.536 113.686L314.539 113.693L323.539 135.193L323.542 135.201L323.546 135.21L326.333 141.249L322.759 142.838L305.487 102.864L303.496 88.4317L303.495 88.4228L300.221 67.4612L300.221 20.5Z" stroke="black" stroke-opacity="0.5"/>
<path d="M297.509 63.255L305.856 63.9874L307.425 18.4903L298.517 17.9945L297.509 63.255Z" fill="#E3DDDD"/>
<path d="M299.004 18.5225L298.018 62.7985L305.375 63.4441L306.909 18.9625L299.004 18.5225Z" stroke="black" stroke-opacity="0.5"/>
<path d="M203 71L302 35L304 17H203V71Z" fill="white"/>
<path d="M301.537 34.6362L303.441 17.5H203.5V70.2862L301.537 34.6362Z" stroke="black" stroke-opacity="0.5"/>
<path d="M177.5 146.995L298 146L297 104.5V85.4995L296 65.9995L294.5 61.9995L291.5 55.9995L284.5 46.4995L287 47.4995L292.5 54.9995L297 65.4995L300.5 78.9995L302.5 94.4995L305 106.5L319.5 142.5L323.5 141L309 104.5L306.5 92.9995L302 21.9951H176L177.5 146.995Z" fill="#BC9284"/>
<path d="M301.531 22.4951H176.506L177.994 146.491L297.488 145.504L296.5 104.512L296.5 104.512V104.5V85.5123L295.505 66.1025L294.041 62.1997L291.072 56.2615L284.097 46.7961L283.057 45.3837L284.686 46.0353L287.186 47.0353L287.319 47.0884L287.403 47.2038L292.903 54.7038L292.937 54.75L292.96 54.8026L297.46 65.3026L297.474 65.3374L297.484 65.374L300.984 78.874L300.992 78.9044L300.996 78.9355L302.993 94.4164L305.48 106.354L319.781 141.86L322.847 140.71L308.535 104.684L308.52 104.646L308.511 104.606L306.011 93.1057L306.003 93.0688L306.001 93.0311L301.531 22.4951Z" stroke="black" stroke-opacity="0.5"/>
<path d="M220.22 74.7991C220.209 74.174 220.214 73.5522 220.233 72.934L219.733 72.9186C219.772 71.6476 219.873 70.3917 220.033 69.1539L220.529 69.218C220.69 67.9758 220.911 66.752 221.189 65.5498L220.701 65.4372C220.987 64.2029 221.332 62.991 221.733 61.8047L222.207 61.9649C222.607 60.7825 223.064 59.6257 223.574 58.4981L223.118 58.2919C223.639 57.1411 224.215 56.0202 224.843 54.9326L225.276 55.1825C225.898 54.1039 226.573 53.0584 227.295 52.0496L226.889 51.7585C227.622 50.7336 228.406 49.7461 229.234 48.7994L229.611 49.1287C230.43 48.1934 231.294 47.2985 232.2 46.4474L231.858 46.0829C232.775 45.2215 233.735 44.4044 234.733 43.6351L235.038 44.0312C236.021 43.274 237.043 42.5638 238.099 41.904L237.834 41.48C238.899 40.8147 239.999 40.2 241.131 39.6393L241.353 40.0873C242.462 39.5379 243.602 39.0411 244.77 38.6L244.593 38.1323C245.765 37.6898 246.964 37.3028 248.188 36.9744L248.317 37.4574C249.509 37.1376 250.724 36.8742 251.96 36.6703L251.879 36.177C253.11 35.9738 254.362 35.8289 255.631 35.7454L255.664 36.2443C256.281 36.2037 256.902 36.1777 257.527 36.1668C258.152 36.1559 258.774 36.1602 259.392 36.1792L259.407 35.6795C260.678 35.7187 261.934 35.8198 263.172 35.9798L263.108 36.4757C264.35 36.6363 265.574 36.8571 266.776 37.1352L266.889 36.648C268.123 36.9334 269.335 37.2784 270.521 37.6797L270.361 38.1533C271.544 38.5533 272.7 39.0101 273.828 39.5205L274.034 39.065C275.185 39.5859 276.306 40.1618 277.393 40.7895L277.144 41.2225C278.222 41.8451 279.268 42.5192 280.276 43.2416L280.568 42.8351C281.592 43.569 282.58 44.3521 283.527 45.181L283.197 45.5572C284.133 46.3762 285.028 47.2404 285.879 48.1466L286.243 47.8043C287.105 48.7215 287.922 49.6811 288.691 50.6797L288.295 50.9849C289.052 51.9679 289.762 52.9891 290.422 54.0454L290.846 53.7805C291.511 54.8455 292.126 55.9457 292.687 57.0776L292.239 57.2996C292.788 58.4087 293.285 59.5488 293.726 60.7166L294.194 60.5399C294.636 61.7115 295.023 62.9106 295.352 64.1342L294.869 64.2638C295.189 65.4555 295.452 66.6708 295.656 67.9067L296.149 67.8253C296.352 69.0568 296.497 70.3084 296.581 71.5773L296.082 71.6101C296.122 72.2272 296.148 72.8485 296.159 73.4736L296.194 75.4683L296.694 75.4596L296.764 79.449L296.264 79.4577L296.333 83.4471L296.833 83.4384L296.903 87.4278L296.403 87.4365L296.473 91.426L296.973 91.4172L297.042 95.4067L296.542 95.4154L296.612 99.4048L297.112 99.3961L297.181 103.386L296.682 103.394L296.751 107.384L297.251 107.375L297.321 111.364L296.821 111.373L296.89 115.362L297.39 115.354L297.46 119.343L296.96 119.352L297.03 123.341L297.53 123.333L297.599 127.322L297.099 127.331L297.169 131.32L297.669 131.311L297.739 135.301L297.239 135.31L297.308 139.299L297.808 139.29L297.878 143.28L297.378 143.288L297.404 144.783L295.98 144.808L295.989 145.308L292.142 145.375L292.133 144.875L288.287 144.942L288.295 145.442L284.448 145.509L284.44 145.01L280.593 145.077L280.601 145.577L276.754 145.644L276.746 145.144L272.899 145.211L272.907 145.711L269.061 145.778L269.052 145.278L265.205 145.345L265.214 145.845L261.367 145.912L261.358 145.412L257.511 145.48L257.52 145.979L253.673 146.047L253.664 145.547L249.817 145.614L249.826 146.114L245.979 146.181L245.97 145.681L242.123 145.748L242.132 146.248L238.285 146.315L238.276 145.815L234.429 145.882L234.438 146.382L230.591 146.45L230.582 145.95L226.735 146.017L226.744 146.517L222.897 146.584L222.889 146.084L221.465 146.109L221.439 144.614L220.939 144.623L220.869 140.633L221.369 140.625L221.3 136.635L220.8 136.644L220.73 132.654L221.23 132.646L221.16 128.656L220.66 128.665L220.591 124.676L221.091 124.667L221.021 120.677L220.521 120.686L220.451 116.697L220.951 116.688L220.882 112.699L220.382 112.707L220.312 108.718L220.812 108.709L220.743 104.72L220.243 104.728L220.173 100.739L220.673 100.73L220.603 96.7409L220.103 96.7496L220.034 92.7602L220.534 92.7515L220.464 88.762L219.964 88.7708L219.894 84.7813L220.394 84.7726L220.325 80.7832L219.825 80.7919L219.755 76.8025L220.255 76.7938L220.22 74.7991Z" stroke="black" stroke-dasharray="4 4"/>
<path d="M220.22 74.7991C220.209 74.174 220.214 73.5522 220.233 72.934L219.733 72.9186C219.772 71.6476 219.873 70.3917 220.033 69.1539L220.529 69.218C220.69 67.9758 220.911 66.752 221.189 65.5498L220.701 65.4372C220.987 64.2029 221.332 62.991 221.733 61.8047L222.207 61.9649C222.607 60.7825 223.064 59.6257 223.574 58.4981L223.118 58.2919C223.639 57.1411 224.215 56.0202 224.843 54.9326L225.276 55.1825C225.898 54.1039 226.573 53.0584 227.295 52.0496L226.889 51.7585C227.622 50.7336 228.406 49.7461 229.234 48.7994L229.611 49.1287C230.43 48.1934 231.294 47.2985 232.2 46.4474L231.858 46.0829C232.775 45.2215 233.735 44.4044 234.733 43.6351L235.038 44.0312C236.021 43.274 237.043 42.5638 238.099 41.904L237.834 41.48C238.899 40.8147 239.999 40.2 241.131 39.6393L241.353 40.0873C242.462 39.5379 243.602 39.0411 244.77 38.6L244.593 38.1323C245.765 37.6898 246.964 37.3028 248.188 36.9744L248.317 37.4574C249.509 37.1376 250.724 36.8742 251.96 36.6703L251.879 36.177C253.11 35.9738 254.362 35.8289 255.631 35.7454L255.664 36.2443C256.281 36.2037 256.902 36.1777 257.527 36.1668C258.152 36.1559 258.774 36.1602 259.392 36.1792L259.407 35.6795C260.678 35.7187 261.934 35.8198 263.172 35.9798L263.108 36.4757C264.35 36.6363 265.574 36.8571 266.776 37.1352L266.889 36.648C268.123 36.9334 269.335 37.2784 270.521 37.6797L270.361 38.1533C271.544 38.5533 272.7 39.0101 273.828 39.5205L274.034 39.065C275.185 39.5859 276.306 40.1618 277.393 40.7895L277.144 41.2225C278.222 41.8451 279.268 42.5192 280.276 43.2416L280.568 42.8351C281.592 43.569 282.58 44.3521 283.527 45.181L283.197 45.5572C284.133 46.3762 285.028 47.2404 285.879 48.1466L286.243 47.8043C287.105 48.7215 287.922 49.6811 288.691 50.6797L288.295 50.9849C289.052 51.9679 289.762 52.9891 290.422 54.0454L290.846 53.7805C291.511 54.8455 292.126 55.9457 292.687 57.0776L292.239 57.2996C292.788 58.4087 293.285 59.5488 293.726 60.7166L294.194 60.5399C294.636 61.7115 295.023 62.9106 295.352 64.1342L294.869 64.2638C295.189 65.4555 295.452 66.6708 295.656 67.9067L296.149 67.8253C296.352 69.0568 296.497 70.3084 296.581 71.5773L296.082 71.6101C296.122 72.2272 296.148 72.8485 296.159 73.4736L296.194 75.4683L296.694 75.4596L296.764 79.449L296.264 79.4577L296.333 83.4471L296.833 83.4384L296.903 87.4278L296.403 87.4365L296.473 91.426L296.973 91.4172L297.042 95.4067L296.542 95.4154L296.612 99.4048L297.112 99.3961L297.181 103.386L296.682 103.394L296.751 107.384L297.251 107.375L297.321 111.364L296.821 111.373L296.89 115.362L297.39 115.354L297.46 119.343L296.96 119.352L297.03 123.341L297.53 123.333L297.599 127.322L297.099 127.331L297.169 131.32L297.669 131.311L297.739 135.301L297.239 135.31L297.308 139.299L297.808 139.29L297.878 143.28L297.378 143.288L297.404 144.783L295.98 144.808L295.989 145.308L292.142 145.375L292.133 144.875L288.287 144.942L288.295 145.442L284.448 145.509L284.44 145.01L280.593 145.077L280.601 145.577L276.754 145.644L276.746 145.144L272.899 145.211L272.907 145.711L269.061 145.778L269.052 145.278L265.205 145.345L265.214 145.845L261.367 145.912L261.358 145.412L257.511 145.48L257.52 145.979L253.673 146.047L253.664 145.547L249.817 145.614L249.826 146.114L245.979 146.181L245.97 145.681L242.123 145.748L242.132 146.248L238.285 146.315L238.276 145.815L234.429 145.882L234.438 146.382L230.591 146.45L230.582 145.95L226.735 146.017L226.744 146.517L222.897 146.584L222.889 146.084L221.465 146.109L221.439 144.614L220.939 144.623L220.869 140.633L221.369 140.625L221.3 136.635L220.8 136.644L220.73 132.654L221.23 132.646L221.16 128.656L220.66 128.665L220.591 124.676L221.091 124.667L221.021 120.677L220.521 120.686L220.451 116.697L220.951 116.688L220.882 112.699L220.382 112.707L220.312 108.718L220.812 108.709L220.743 104.72L220.243 104.728L220.173 100.739L220.673 100.73L220.603 96.7409L220.103 96.7496L220.034 92.7602L220.534 92.7515L220.464 88.762L219.964 88.7708L219.894 84.7813L220.394 84.7726L220.325 80.7832L219.825 80.7919L219.755 76.8025L220.255 76.7938L220.22 74.7991Z" stroke="black" stroke-dasharray="4 4"/>
<path d="M245.852 72.8125L247.132 146.16" stroke="black" stroke-dasharray="4 4"/>
<path d="M220.918 146.263L297.856 144.92" stroke="black" stroke-dasharray="4 4"/>
<path d="M270.162 72.0347L271.442 145.382" stroke="black" stroke-dasharray="4 4"/>
<path d="M188.961 146.127L187.041 36.1436L203.039 35.8643L204.958 145.848" stroke="black" stroke-dasharray="2 2"/>
<path d="M315.83 40.6232L308.327 41.6785M315.83 40.6232C316.054 42.2985 316.608 43.9129 317.458 45.3734C318.309 46.834 319.44 48.1118 320.786 49.1335C322.133 50.1551 323.668 50.9003 325.304 51.3262C326.939 51.7521 328.643 51.8502 330.317 51.6149C331.991 51.3797 333.601 50.8157 335.056 49.9554C336.511 49.0952 337.781 47.9556 338.794 46.6024C339.807 45.2492 340.542 43.7091 340.957 42.0706C341.372 40.4322 341.459 38.7278 341.212 37.0557C340.719 33.7076 338.921 30.6904 336.212 28.6627C333.502 26.635 330.101 25.7613 326.749 26.2324C323.398 26.7034 320.369 28.4809 318.323 31.177C316.278 33.8731 315.381 37.2688 315.83 40.6232ZM308.327 41.6785C306.745 41.9022 305.248 42.5308 303.981 43.5034C302.714 44.476 301.719 45.7595 301.094 47.2295C300.503 48.6157 299.772 49.8931 298.901 51.0615M308.327 41.6785L298.181 43.1038M298.901 51.0615C298.715 52.5099 298.353 53.9379 297.815 55.3455C297.244 56.8368 297.069 58.4501 297.305 60.0293C297.541 61.6084 298.181 63.0998 299.163 64.3588M298.901 51.0615C299.248 48.3882 299.002 45.6714 298.181 43.1038M298.181 43.1038C297.093 39.6546 295.011 36.6032 292.197 34.3322L273.71 19.3621C270.911 17.0947 267.532 15.6591 263.957 15.219L260.433 14.7855L283.5 45.3734L292.5 57L299.163 64.3588M303.828 70.3303L299.163 64.3588M303.828 70.3303C302.489 71.362 301.368 72.6483 300.528 74.1152C299.688 75.5821 299.147 77.2006 298.936 78.8774C298.724 80.5543 298.846 82.2565 299.295 83.8859C299.744 85.5154 300.511 87.04 301.552 88.3719C302.592 89.7038 303.886 90.8167 305.358 91.6465C306.831 92.4764 308.453 93.0068 310.131 93.2072C311.809 93.4077 313.511 93.2742 315.137 92.8144C316.763 92.3547 318.283 91.5777 319.608 90.5284C322.261 88.4272 323.975 85.3619 324.376 82.0015C324.778 78.6411 323.834 75.2583 321.75 72.5915C319.667 69.9246 316.613 68.1901 313.255 67.7664C309.897 67.3428 306.508 68.2645 303.828 70.3303Z" stroke="black" stroke-linecap="round" stroke-linejoin="round"/>
<path d="M298.001 54C296.401 57.2 297.001 60.3333 297.501 61.5L293.5 58.5L291 54.5L261 15L266.5 16C269.3 16.4 283.333 27.3333 290 33C294 35 296.667 39.5 297.501 41.5C298.334 44.3333 299.601 50.8 298.001 54Z" fill="#A8A097" stroke="black" stroke-width="0.5"/>
<path d="M119 146.246L129.28 146.996L135 20.9956H123.72L119 146.246Z" fill="#9D7A6E"/>
<path d="M134.477 21.4956L128.804 146.46L119.518 145.783L124.202 21.4956H134.477Z" stroke="black" stroke-opacity="0.5"/>
<path d="M119 144.455L127.418 145.229L131.499 13.5676L122.501 13.5677L119 144.455Z" fill="#E3DDDD"/>
<path d="M122.987 14.0696L119.512 144.001L126.935 144.683L130.985 14.0694L122.987 14.0696Z" stroke="black" stroke-opacity="0.5"/>
<rect width="101.146" height="130.892" transform="matrix(1 0 0 -1 27 142.893)" fill="white"/>
<rect x="0.5" y="-0.5" width="100.146" height="129.892" transform="matrix(1 0 0 -1 27 141.893)" stroke="black" stroke-opacity="0.5"/>
<path d="M1.5 147.995L128.5 146.995L126 22.9951H0L1.5 147.995Z" fill="#BC9284"/>
<path d="M0.506036 23.4951L1.99399 147.491L127.99 146.499L125.51 23.4951H0.506036Z" stroke="black" stroke-opacity="0.5"/>
<path d="M44.2202 75.7991C44.2093 75.174 44.2136 74.5522 44.2327 73.934L43.7329 73.9186C43.7721 72.6476 43.8732 71.3917 44.0333 70.1539L44.5291 70.218C44.6898 68.9758 44.9106 67.752 45.1886 66.5498L44.7014 66.4372C44.9869 65.2029 45.3318 63.991 45.7331 62.8047L46.2067 62.9649C46.6068 61.7825 47.0636 60.6257 47.5739 59.4981L47.1184 59.2919C47.6393 58.1411 48.2152 57.0202 48.8429 55.9326L49.2759 56.1825C49.8985 55.1039 50.5726 54.0584 51.295 53.0496L50.8885 52.7585C51.6224 51.7336 52.4056 50.7461 53.2345 49.7994L53.6106 50.1287C54.4296 49.1934 55.2938 48.2985 56.2 47.4474L55.8577 47.0829C56.7749 46.2215 57.7345 45.4044 58.7332 44.6351L59.0383 45.0312C60.0213 44.274 61.0426 43.5638 62.0988 42.904L61.8339 42.48C62.899 41.8147 63.9991 41.2 65.1311 40.6393L65.353 41.0873C66.4621 40.5379 67.6022 40.0411 68.77 39.6L68.5934 39.1323C69.7649 38.6898 70.964 38.3028 72.1876 37.9744L72.3172 38.4574C73.5089 38.1376 74.7242 37.8742 75.9601 37.6703L75.8787 37.177C77.1102 36.9738 78.3618 36.8289 79.6307 36.7454L79.6635 37.2443C80.2806 37.2037 80.9019 37.1777 81.527 37.1668C82.1521 37.1559 82.7739 37.1602 83.392 37.1792L83.4074 36.6795C84.6784 36.7187 85.9343 36.8198 87.1722 36.9798L87.1081 37.4757C88.3503 37.6363 89.574 37.8571 90.7762 38.1352L90.8889 37.648C92.1232 37.9334 93.3351 38.2784 94.5213 38.6797L94.3611 39.1533C95.5436 39.5533 96.7003 40.0101 97.828 40.5205L98.0341 40.065C99.185 40.5859 100.306 41.1618 101.393 41.7895L101.144 42.2225C102.222 42.8451 103.268 43.5192 104.276 44.2416L104.568 43.8351C105.592 44.569 106.58 45.3521 107.527 46.181L107.197 46.5572C108.133 47.3762 109.028 48.2404 109.879 49.1466L110.243 48.8043C111.105 49.7215 111.922 50.6811 112.691 51.6797L112.295 51.9849C113.052 52.9679 113.762 53.9891 114.422 55.0454L114.846 54.7805C115.511 55.8455 116.126 56.9457 116.687 58.0776L116.239 58.2996C116.788 59.4087 117.285 60.5488 117.726 61.7166L118.194 61.5399C118.636 62.7115 119.023 63.9106 119.352 65.1342L118.869 65.2638C119.189 66.4555 119.452 67.6708 119.656 68.9067L120.149 68.8253C120.352 70.0568 120.497 71.3084 120.581 72.5773L120.082 72.6101C120.122 73.2272 120.148 73.8485 120.159 74.4736L120.194 76.4683L120.694 76.4596L120.764 80.449L120.264 80.4577L120.333 84.4471L120.833 84.4384L120.903 88.4278L120.403 88.4365L120.473 92.426L120.973 92.4172L121.042 96.4067L120.542 96.4154L120.612 100.405L121.112 100.396L121.181 104.386L120.682 104.394L120.751 108.384L121.251 108.375L121.321 112.364L120.821 112.373L120.89 116.362L121.39 116.354L121.46 120.343L120.96 120.352L121.03 124.341L121.53 124.333L121.599 128.322L121.099 128.331L121.169 132.32L121.669 132.311L121.739 136.301L121.239 136.31L121.308 140.299L121.808 140.29L121.878 144.28L121.378 144.288L121.404 145.783L119.98 145.808L119.989 146.308L116.142 146.375L116.133 145.875L112.287 145.942L112.295 146.442L108.448 146.509L108.44 146.01L104.593 146.077L104.601 146.577L100.754 146.644L100.746 146.144L96.8988 146.211L96.9075 146.711L93.0605 146.778L93.0518 146.278L89.2049 146.345L89.2136 146.845L85.3667 146.912L85.3579 146.412L81.511 146.48L81.5197 146.979L77.6728 147.047L77.664 146.547L73.8171 146.614L73.8258 147.114L69.9789 147.181L69.9702 146.681L66.1232 146.748L66.1319 147.248L62.285 147.315L62.2763 146.815L58.4293 146.882L58.4381 147.382L54.5911 147.45L54.5824 146.95L50.7354 147.017L50.7442 147.517L46.8972 147.584L46.8885 147.084L45.465 147.109L45.4389 145.614L44.9389 145.623L44.8693 141.633L45.3692 141.625L45.2996 137.635L44.7997 137.644L44.73 133.654L45.23 133.646L45.1603 129.656L44.6604 129.665L44.5908 125.676L45.0907 125.667L45.021 121.677L44.5211 121.686L44.4515 117.697L44.9514 117.688L44.8818 113.699L44.3819 113.707L44.3122 109.718L44.8121 109.709L44.7425 105.72L44.2426 105.728L44.1729 101.739L44.6729 101.73L44.6032 97.7409L44.1033 97.7496L44.0337 93.7602L44.5336 93.7515L44.464 89.762L43.964 89.7708L43.8944 85.7813L44.3943 85.7726L44.3247 81.7832L43.8248 81.7919L43.7551 77.8025L44.2551 77.7938L44.2202 75.7991Z" stroke="black" stroke-dasharray="4 4"/>
<path d="M44.2202 75.7991C44.2093 75.174 44.2136 74.5522 44.2327 73.934L43.7329 73.9186C43.7721 72.6476 43.8732 71.3917 44.0333 70.1539L44.5291 70.218C44.6898 68.9758 44.9106 67.752 45.1886 66.5498L44.7014 66.4372C44.9869 65.2029 45.3318 63.991 45.7331 62.8047L46.2067 62.9649C46.6068 61.7825 47.0636 60.6257 47.5739 59.4981L47.1184 59.2919C47.6393 58.1411 48.2152 57.0202 48.8429 55.9326L49.2759 56.1825C49.8985 55.1039 50.5726 54.0584 51.295 53.0496L50.8885 52.7585C51.6224 51.7336 52.4056 50.7461 53.2345 49.7994L53.6106 50.1287C54.4296 49.1934 55.2938 48.2985 56.2 47.4474L55.8577 47.0829C56.7749 46.2215 57.7345 45.4044 58.7332 44.6351L59.0383 45.0312C60.0213 44.274 61.0426 43.5638 62.0988 42.904L61.8339 42.48C62.899 41.8147 63.9991 41.2 65.1311 40.6393L65.353 41.0873C66.4621 40.5379 67.6022 40.0411 68.77 39.6L68.5934 39.1323C69.7649 38.6898 70.964 38.3028 72.1876 37.9744L72.3172 38.4574C73.5089 38.1376 74.7242 37.8742 75.9601 37.6703L75.8787 37.177C77.1102 36.9738 78.3618 36.8289 79.6307 36.7454L79.6635 37.2443C80.2806 37.2037 80.9019 37.1777 81.527 37.1668C82.1521 37.1559 82.7739 37.1602 83.392 37.1792L83.4074 36.6795C84.6784 36.7187 85.9343 36.8198 87.1722 36.9798L87.1081 37.4757C88.3503 37.6363 89.574 37.8571 90.7762 38.1352L90.8889 37.648C92.1232 37.9334 93.3351 38.2784 94.5213 38.6797L94.3611 39.1533C95.5436 39.5533 96.7003 40.0101 97.828 40.5205L98.0341 40.065C99.185 40.5859 100.306 41.1618 101.393 41.7895L101.144 42.2225C102.222 42.8451 103.268 43.5192 104.276 44.2416L104.568 43.8351C105.592 44.569 106.58 45.3521 107.527 46.181L107.197 46.5572C108.133 47.3762 109.028 48.2404 109.879 49.1466L110.243 48.8043C111.105 49.7215 111.922 50.6811 112.691 51.6797L112.295 51.9849C113.052 52.9679 113.762 53.9891 114.422 55.0454L114.846 54.7805C115.511 55.8455 116.126 56.9457 116.687 58.0776L116.239 58.2996C116.788 59.4087 117.285 60.5488 117.726 61.7166L118.194 61.5399C118.636 62.7115 119.023 63.9106 119.352 65.1342L118.869 65.2638C119.189 66.4555 119.452 67.6708 119.656 68.9067L120.149 68.8253C120.352 70.0568 120.497 71.3084 120.581 72.5773L120.082 72.6101C120.122 73.2272 120.148 73.8485 120.159 74.4736L120.194 76.4683L120.694 76.4596L120.764 80.449L120.264 80.4577L120.333 84.4471L120.833 84.4384L120.903 88.4278L120.403 88.4365L120.473 92.426L120.973 92.4172L121.042 96.4067L120.542 96.4154L120.612 100.405L121.112 100.396L121.181 104.386L120.682 104.394L120.751 108.384L121.251 108.375L121.321 112.364L120.821 112.373L120.89 116.362L121.39 116.354L121.46 120.343L120.96 120.352L121.03 124.341L121.53 124.333L121.599 128.322L121.099 128.331L121.169 132.32L121.669 132.311L121.739 136.301L121.239 136.31L121.308 140.299L121.808 140.29L121.878 144.28L121.378 144.288L121.404 145.783L119.98 145.808L119.989 146.308L116.142 146.375L116.133 145.875L112.287 145.942L112.295 146.442L108.448 146.509L108.44 146.01L104.593 146.077L104.601 146.577L100.754 146.644L100.746 146.144L96.8988 146.211L96.9075 146.711L93.0605 146.778L93.0518 146.278L89.2049 146.345L89.2136 146.845L85.3667 146.912L85.3579 146.412L81.511 146.48L81.5197 146.979L77.6728 147.047L77.664 146.547L73.8171 146.614L73.8258 147.114L69.9789 147.181L69.9702 146.681L66.1232 146.748L66.1319 147.248L62.285 147.315L62.2763 146.815L58.4293 146.882L58.4381 147.382L54.5911 147.45L54.5824 146.95L50.7354 147.017L50.7442 147.517L46.8972 147.584L46.8885 147.084L45.465 147.109L45.4389 145.614L44.9389 145.623L44.8693 141.633L45.3692 141.625L45.2996 137.635L44.7997 137.644L44.73 133.654L45.23 133.646L45.1603 129.656L44.6604 129.665L44.5908 125.676L45.0907 125.667L45.021 121.677L44.5211 121.686L44.4515 117.697L44.9514 117.688L44.8818 113.699L44.3819 113.707L44.3122 109.718L44.8121 109.709L44.7425 105.72L44.2426 105.728L44.1729 101.739L44.6729 101.73L44.6032 97.7409L44.1033 97.7496L44.0337 93.7602L44.5336 93.7515L44.464 89.762L43.964 89.7708L43.8944 85.7813L44.3943 85.7726L44.3247 81.7832L43.8248 81.7919L43.7551 77.8025L44.2551 77.7938L44.2202 75.7991Z" stroke="black" stroke-dasharray="4 4"/>
<path d="M69.8516 73.8125L71.1319 147.16" stroke="black" stroke-dasharray="4 4"/>
<path d="M44.918 147.263L121.856 145.92" stroke="black" stroke-dasharray="4 4"/>
<path d="M94.1621 73.0347L95.4424 146.382" stroke="black" stroke-dasharray="4 4"/>
<path d="M12.9608 147.127L11.041 37.1436L27.0386 36.8643L28.9583 146.848" stroke="black" stroke-dasharray="2 2"/>
<path d="M46.2202 75.7991C46.2093 75.174 46.2136 74.5522 46.2327 73.934L45.7329 73.9186C45.7721 72.6476 45.8732 71.3917 46.0333 70.1539L46.5291 70.218C46.6898 68.9758 46.9106 67.752 47.1886 66.5498L46.7014 66.4372C46.9869 65.2029 47.3318 63.991 47.7331 62.8047L48.2067 62.9649C48.6068 61.7825 49.0636 60.6257 49.5739 59.4981L49.1184 59.2919C49.6393 58.1411 50.2152 57.0202 50.8429 55.9326L51.2759 56.1825C51.8985 55.1039 52.5726 54.0584 53.295 53.0496L52.8885 52.7585C53.6224 51.7336 54.4056 50.7461 55.2345 49.7994L55.6106 50.1287C56.4296 49.1934 57.2938 48.2985 58.2 47.4474L57.8577 47.0829C58.7749 46.2215 59.7345 45.4044 60.7332 44.6351L61.0383 45.0312C62.0213 44.274 63.0426 43.5638 64.0988 42.904L63.8339 42.48C64.899 41.8147 65.9991 41.2 67.1311 40.6393L67.353 41.0873C68.4621 40.5379 69.6022 40.0411 70.77 39.6L70.5934 39.1323C71.7649 38.6898 72.964 38.3028 74.1876 37.9744L74.3172 38.4574C75.5089 38.1376 76.7242 37.8742 77.9601 37.6703L77.8787 37.177C79.1102 36.9738 80.3618 36.8289 81.6307 36.7454L81.6635 37.2443C82.2806 37.2037 82.9019 37.1777 83.527 37.1668C84.1521 37.1559 84.7739 37.1602 85.392 37.1792L85.4074 36.6795C86.6784 36.7187 87.9343 36.8198 89.1722 36.9798L89.1081 37.4757C90.3503 37.6363 91.574 37.8571 92.7762 38.1352L92.8889 37.648C94.1232 37.9334 95.3351 38.2784 96.5213 38.6797L96.3611 39.1533C97.5436 39.5533 98.7003 40.0101 99.828 40.5205L100.034 40.065C101.185 40.5859 102.306 41.1618 103.393 41.7895L103.144 42.2225C104.222 42.8451 105.268 43.5192 106.276 44.2416L106.568 43.8351C107.592 44.569 108.58 45.3521 109.527 46.181L109.197 46.5572C110.133 47.3762 111.028 48.2404 111.879 49.1466L112.243 48.8043C113.105 49.7215 113.922 50.6811 114.691 51.6797L114.295 51.9849C115.052 52.9679 115.762 53.9891 116.422 55.0454L116.846 54.7805C117.511 55.8455 118.126 56.9457 118.687 58.0776L118.239 58.2996C118.788 59.4087 119.285 60.5488 119.726 61.7166L120.194 61.5399C120.636 62.7115 121.023 63.9106 121.352 65.1342L120.869 65.2638C121.189 66.4555 121.452 67.6708 121.656 68.9067L122.149 68.8253C122.352 70.0568 122.497 71.3084 122.581 72.5773L122.082 72.6101C122.122 73.2272 122.148 73.8485 122.159 74.4736L122.194 76.4683L122.694 76.4596L122.764 80.449L122.264 80.4577L122.333 84.4471L122.833 84.4384L122.903 88.4278L122.403 88.4365L122.473 92.426L122.973 92.4172L123.042 96.4067L122.542 96.4154L122.612 100.405L123.112 100.396L123.181 104.386L122.682 104.394L122.751 108.384L123.251 108.375L123.321 112.364L122.821 112.373L122.89 116.362L123.39 116.354L123.46 120.343L122.96 120.352L123.03 124.341L123.53 124.333L123.599 128.322L123.099 128.331L123.169 132.32L123.669 132.311L123.739 136.301L123.239 136.31L123.308 140.299L123.808 140.29L123.878 144.28L123.378 144.288L123.404 145.783L121.98 145.808L121.989 146.308L118.142 146.375L118.133 145.875L114.287 145.942L114.295 146.442L110.448 146.509L110.44 146.01L106.593 146.077L106.601 146.577L102.754 146.644L102.746 146.144L98.8988 146.211L98.9075 146.711L95.0605 146.778L95.0518 146.278L91.2049 146.345L91.2136 146.845L87.3667 146.912L87.3579 146.412L83.511 146.48L83.5197 146.979L79.6728 147.047L79.664 146.547L75.8171 146.614L75.8258 147.114L71.9789 147.181L71.9702 146.681L68.1232 146.748L68.1319 147.248L64.285 147.315L64.2763 146.815L60.4293 146.882L60.4381 147.382L56.5911 147.45L56.5824 146.95L52.7354 147.017L52.7442 147.517L48.8972 147.584L48.8885 147.084L47.465 147.109L47.4389 145.614L46.9389 145.623L46.8693 141.633L47.3692 141.625L47.2996 137.635L46.7997 137.644L46.73 133.654L47.23 133.646L47.1603 129.656L46.6604 129.665L46.5908 125.676L47.0907 125.667L47.021 121.677L46.5211 121.686L46.4515 117.697L46.9514 117.688L46.8818 113.699L46.3819 113.707L46.3122 109.718L46.8121 109.709L46.7425 105.72L46.2426 105.728L46.1729 101.739L46.6729 101.73L46.6032 97.7409L46.1033 97.7496L46.0337 93.7602L46.5336 93.7515L46.464 89.762L45.964 89.7708L45.8944 85.7813L46.3943 85.7726L46.3247 81.7832L45.8248 81.7919L45.7551 77.8025L46.2551 77.7938L46.2202 75.7991Z" stroke="black" stroke-opacity="0.1" stroke-dasharray="4 4"/>
<path d="M46.2202 75.7991C46.2093 75.174 46.2136 74.5522 46.2327 73.934L45.7329 73.9186C45.7721 72.6476 45.8732 71.3917 46.0333 70.1539L46.5291 70.218C46.6898 68.9758 46.9106 67.752 47.1886 66.5498L46.7014 66.4372C46.9869 65.2029 47.3318 63.991 47.7331 62.8047L48.2067 62.9649C48.6068 61.7825 49.0636 60.6257 49.5739 59.4981L49.1184 59.2919C49.6393 58.1411 50.2152 57.0202 50.8429 55.9326L51.2759 56.1825C51.8985 55.1039 52.5726 54.0584 53.295 53.0496L52.8885 52.7585C53.6224 51.7336 54.4056 50.7461 55.2345 49.7994L55.6106 50.1287C56.4296 49.1934 57.2938 48.2985 58.2 47.4474L57.8577 47.0829C58.7749 46.2215 59.7345 45.4044 60.7332 44.6351L61.0383 45.0312C62.0213 44.274 63.0426 43.5638 64.0988 42.904L63.8339 42.48C64.899 41.8147 65.9991 41.2 67.1311 40.6393L67.353 41.0873C68.4621 40.5379 69.6022 40.0411 70.77 39.6L70.5934 39.1323C71.7649 38.6898 72.964 38.3028 74.1876 37.9744L74.3172 38.4574C75.5089 38.1376 76.7242 37.8742 77.9601 37.6703L77.8787 37.177C79.1102 36.9738 80.3618 36.8289 81.6307 36.7454L81.6635 37.2443C82.2806 37.2037 82.9019 37.1777 83.527 37.1668C84.1521 37.1559 84.7739 37.1602 85.392 37.1792L85.4074 36.6795C86.6784 36.7187 87.9343 36.8198 89.1722 36.9798L89.1081 37.4757C90.3503 37.6363 91.574 37.8571 92.7762 38.1352L92.8889 37.648C94.1232 37.9334 95.3351 38.2784 96.5213 38.6797L96.3611 39.1533C97.5436 39.5533 98.7003 40.0101 99.828 40.5205L100.034 40.065C101.185 40.5859 102.306 41.1618 103.393 41.7895L103.144 42.2225C104.222 42.8451 105.268 43.5192 106.276 44.2416L106.568 43.8351C107.592 44.569 108.58 45.3521 109.527 46.181L109.197 46.5572C110.133 47.3762 111.028 48.2404 111.879 49.1466L112.243 48.8043C113.105 49.7215 113.922 50.6811 114.691 51.6797L114.295 51.9849C115.052 52.9679 115.762 53.9891 116.422 55.0454L116.846 54.7805C117.511 55.8455 118.126 56.9457 118.687 58.0776L118.239 58.2996C118.788 59.4087 119.285 60.5488 119.726 61.7166L120.194 61.5399C120.636 62.7115 121.023 63.9106 121.352 65.1342L120.869 65.2638C121.189 66.4555 121.452 67.6708 121.656 68.9067L122.149 68.8253C122.352 70.0568 122.497 71.3084 122.581 72.5773L122.082 72.6101C122.122 73.2272 122.148 73.8485 122.159 74.4736L122.194 76.4683L122.694 76.4596L122.764 80.449L122.264 80.4577L122.333 84.4471L122.833 84.4384L122.903 88.4278L122.403 88.4365L122.473 92.426L122.973 92.4172L123.042 96.4067L122.542 96.4154L122.612 100.405L123.112 100.396L123.181 104.386L122.682 104.394L122.751 108.384L123.251 108.375L123.321 112.364L122.821 112.373L122.89 116.362L123.39 116.354L123.46 120.343L122.96 120.352L123.03 124.341L123.53 124.333L123.599 128.322L123.099 128.331L123.169 132.32L123.669 132.311L123.739 136.301L123.239 136.31L123.308 140.299L123.808 140.29L123.878 144.28L123.378 144.288L123.404 145.783L121.98 145.808L121.989 146.308L118.142 146.375L118.133 145.875L114.287 145.942L114.295 146.442L110.448 146.509L110.44 146.01L106.593 146.077L106.601 146.577L102.754 146.644L102.746 146.144L98.8988 146.211L98.9075 146.711L95.0605 146.778L95.0518 146.278L91.2049 146.345L91.2136 146.845L87.3667 146.912L87.3579 146.412L83.511 146.48L83.5197 146.979L79.6728 147.047L79.664 146.547L75.8171 146.614L75.8258 147.114L71.9789 147.181L71.9702 146.681L68.1232 146.748L68.1319 147.248L64.285 147.315L64.2763 146.815L60.4293 146.882L60.4381 147.382L56.5911 147.45L56.5824 146.95L52.7354 147.017L52.7442 147.517L48.8972 147.584L48.8885 147.084L47.465 147.109L47.4389 145.614L46.9389 145.623L46.8693 141.633L47.3692 141.625L47.2996 137.635L46.7997 137.644L46.73 133.654L47.23 133.646L47.1603 129.656L46.6604 129.665L46.5908 125.676L47.0907 125.667L47.021 121.677L46.5211 121.686L46.4515 117.697L46.9514 117.688L46.8818 113.699L46.3819 113.707L46.3122 109.718L46.8121 109.709L46.7425 105.72L46.2426 105.728L46.1729 101.739L46.6729 101.73L46.6032 97.7409L46.1033 97.7496L46.0337 93.7602L46.5336 93.7515L46.464 89.762L45.964 89.7708L45.8944 85.7813L46.3943 85.7726L46.3247 81.7832L45.8248 81.7919L45.7551 77.8025L46.2551 77.7938L46.2202 75.7991Z" stroke="black" stroke-opacity="0.1" stroke-dasharray="4 4"/>
<path d="M71.8516 73.8125L73.1319 147.16" stroke="black" stroke-opacity="0.1" stroke-dasharray="4 4"/>
<path d="M46.918 147.263L123.856 145.92" stroke="black" stroke-opacity="0.1" stroke-dasharray="4 4"/>
<path d="M96.1621 73.0347L97.4424 146.382" stroke="black" stroke-opacity="0.1" stroke-dasharray="4 4"/>
</svg>
