<svg width="260" height="125" viewBox="0 0 260 125" fill="none" xmlns="http://www.w3.org/2000/svg">
<rect width="10.4472" height="122.59" transform="matrix(0.997538 0.0701342 0.0390355 -0.999238 244.793 124.267)" fill="#9D7A6E"/>
<rect x="0.518287" y="-0.464552" width="9.44717" height="121.59" transform="matrix(0.997538 0.0701342 0.0390355 -0.999238 244.812 123.302)" stroke="black" stroke-opacity="0.5"/>
<rect width="125.229" height="124" transform="matrix(1 0 0 -1 130 125)" fill="#BC9284"/>
<rect x="0.5" y="-0.5" width="124.229" height="123" transform="matrix(1 0 0 -1 130 124)" stroke="black" stroke-opacity="0.5"/>
<rect width="8.44915" height="122.558" transform="matrix(0.996233 0.0867192 0.031537 -0.999503 92.7168 123.267)" fill="#E3DDDD"/>
<rect x="0.513885" y="-0.456392" width="7.44915" height="121.558" transform="matrix(0.996233 0.0867192 0.031537 -0.999503 92.7331 122.31)" stroke="black" stroke-opacity="0.5"/>
<rect width="101.146" height="124" transform="matrix(1 0 0 -1 0 124)" fill="white"/>
<rect x="0.5" y="-0.5" width="100.146" height="123" transform="matrix(1 0 0 -1 0 123)" stroke="black" stroke-opacity="0.5"/>
<path d="M11.5488 50.9753C11.5488 50.3501 11.5639 49.7285 11.5938 49.1107L11.0944 49.0866C11.1558 47.8165 11.2787 46.5625 11.4604 45.3277L11.9551 45.4004C12.1374 44.1612 12.3795 42.9415 12.6784 41.7443L12.1933 41.6232C12.5003 40.3941 12.8663 39.1884 13.2882 38.0093L13.759 38.1778C14.1796 37.0024 14.6565 35.8539 15.1865 34.7353L14.7346 34.5212C15.2755 33.3797 15.8709 32.269 16.5175 31.1925L16.9461 31.4499C17.5874 30.3823 18.2797 29.3488 19.0196 28.3527L18.6182 28.0546C19.3699 27.0427 20.1701 26.0689 21.0154 25.1368L21.3858 25.4727C22.221 24.5518 23.1007 23.6721 24.0216 22.837L23.6857 22.4666C24.6178 21.6213 25.5915 20.8211 26.6034 20.0694L26.9016 20.4707C27.8976 19.7308 28.9312 19.0385 29.9988 18.3973L29.7413 17.9687C30.8178 17.3221 31.9285 16.7267 33.0701 16.1858L33.2842 16.6377C34.4027 16.1077 35.5513 15.6308 36.7266 15.2102L36.5582 14.7394C37.7373 14.3175 38.943 13.9514 40.1721 13.6445L40.2932 14.1296C41.4904 13.8307 42.7101 13.5885 43.9493 13.4062L43.8765 12.9116C45.1114 12.7299 46.3653 12.6069 47.6354 12.5455L47.6596 13.045C48.2773 13.0151 48.8989 13 49.5241 13C50.1493 13 50.7709 13.0151 51.3887 13.045L51.4128 12.5455C52.6829 12.6069 53.9369 12.7299 55.1717 12.9116L55.099 13.4062C56.3382 13.5885 57.5579 13.8307 58.7551 14.1296L58.8762 13.6445C60.1053 13.9514 61.311 14.3175 62.4901 14.7394L62.3216 15.2102C63.497 15.6308 64.6455 16.1077 65.7641 16.6377L65.9782 16.1858C67.1197 16.7267 68.2304 17.3221 69.3069 17.9687L69.0495 18.3973C70.1171 19.0386 71.1506 19.7308 72.1467 20.4708L72.4448 20.0694C73.4567 20.8211 74.4305 21.6213 75.3626 22.4666L75.0267 22.837C75.9476 23.6721 76.8273 24.5519 77.6624 25.4727L78.0328 25.1369C78.8781 26.0689 79.6783 27.0427 80.43 28.0546L80.0287 28.3528C80.7686 29.3488 81.4609 30.3824 82.1021 31.45L82.5307 31.1925C83.1773 32.269 83.7727 33.3797 84.3136 34.5213L83.8617 34.7353C84.3917 35.8539 84.8686 37.0025 85.2892 38.1778L85.76 38.0093C86.1819 39.1884 86.548 40.3941 86.8549 41.6232L86.3698 41.7444C86.6688 42.9415 86.9109 44.1612 87.0932 45.4005L87.5879 45.3277C87.7695 46.5626 87.8925 47.8165 87.9539 49.0866L87.4545 49.1108C87.4843 49.7285 87.4994 50.3501 87.4994 50.9753V52.9703H87.9994V56.9603H87.4994V60.9504H87.9994V64.9404H87.4994V68.9304H87.9994V72.9205H87.4994V76.9105H87.9994V80.9005H87.4994V84.8905H87.9994V88.8806H87.4994V92.8706H87.9994V96.8606H87.4994V100.851H87.9994V104.841H87.4994V108.831H87.9994V112.821H87.4994V116.811H87.9994V120.801H87.4994V122.296H86.0756V122.796H82.2281V122.296H78.3806V122.796H74.5331V122.296H70.6855V122.796H66.838V122.296H62.9905V122.796H59.1429V122.296H55.2954V122.796H51.4479V122.296H47.6004V122.796H43.7528V122.296H39.9053V122.796H36.0578V122.296H32.2102V122.796H28.3627V122.296H24.5152V122.796H20.6676V122.296H16.8201V122.796H12.9726L12.9726 122.296H11.5488V120.801H11.0488V116.811H11.5488V112.821H11.0488V108.831H11.5488V104.841H11.0488V100.851H11.5488V96.8606H11.0488V92.8706H11.5488V88.8806H11.0488V84.8905H11.5488V80.9005H11.0488V76.9105H11.5488V72.9204H11.0488V68.9304H11.5488V64.9404H11.0488V60.9503H11.5488L11.5488 56.9603H11.0488V52.9703H11.5488V50.9753Z" stroke="black" stroke-dasharray="4 4"/>
<path d="M11.5488 50.9753C11.5488 50.3501 11.5639 49.7285 11.5938 49.1107L11.0944 49.0866C11.1558 47.8165 11.2787 46.5625 11.4604 45.3277L11.9551 45.4004C12.1374 44.1612 12.3795 42.9415 12.6784 41.7443L12.1933 41.6232C12.5003 40.3941 12.8663 39.1884 13.2882 38.0093L13.759 38.1778C14.1796 37.0024 14.6565 35.8539 15.1865 34.7353L14.7346 34.5212C15.2755 33.3797 15.8709 32.269 16.5175 31.1925L16.9461 31.4499C17.5874 30.3823 18.2797 29.3488 19.0196 28.3527L18.6182 28.0546C19.3699 27.0427 20.1701 26.0689 21.0154 25.1368L21.3858 25.4727C22.221 24.5518 23.1007 23.6721 24.0216 22.837L23.6857 22.4666C24.6178 21.6213 25.5915 20.8211 26.6034 20.0694L26.9016 20.4707C27.8976 19.7308 28.9312 19.0385 29.9988 18.3973L29.7413 17.9687C30.8178 17.3221 31.9285 16.7267 33.0701 16.1858L33.2842 16.6377C34.4027 16.1077 35.5513 15.6308 36.7266 15.2102L36.5582 14.7394C37.7373 14.3175 38.943 13.9514 40.1721 13.6445L40.2932 14.1296C41.4904 13.8307 42.7101 13.5885 43.9493 13.4062L43.8765 12.9116C45.1114 12.7299 46.3653 12.6069 47.6354 12.5455L47.6596 13.045C48.2773 13.0151 48.8989 13 49.5241 13C50.1493 13 50.7709 13.0151 51.3887 13.045L51.4128 12.5455C52.6829 12.6069 53.9369 12.7299 55.1717 12.9116L55.099 13.4062C56.3382 13.5885 57.5579 13.8307 58.7551 14.1296L58.8762 13.6445C60.1053 13.9514 61.311 14.3175 62.4901 14.7394L62.3216 15.2102C63.497 15.6308 64.6455 16.1077 65.7641 16.6377L65.9782 16.1858C67.1197 16.7267 68.2304 17.3221 69.3069 17.9687L69.0495 18.3973C70.1171 19.0386 71.1506 19.7308 72.1467 20.4708L72.4448 20.0694C73.4567 20.8211 74.4305 21.6213 75.3626 22.4666L75.0267 22.837C75.9476 23.6721 76.8273 24.5519 77.6624 25.4727L78.0328 25.1369C78.8781 26.0689 79.6783 27.0427 80.43 28.0546L80.0287 28.3528C80.7686 29.3488 81.4609 30.3824 82.1021 31.45L82.5307 31.1925C83.1773 32.269 83.7727 33.3797 84.3136 34.5213L83.8617 34.7353C84.3917 35.8539 84.8686 37.0025 85.2892 38.1778L85.76 38.0093C86.1819 39.1884 86.548 40.3941 86.8549 41.6232L86.3698 41.7444C86.6688 42.9415 86.9109 44.1612 87.0932 45.4005L87.5879 45.3277C87.7695 46.5626 87.8925 47.8165 87.9539 49.0866L87.4545 49.1108C87.4843 49.7285 87.4994 50.3501 87.4994 50.9753V52.9703H87.9994V56.9603H87.4994V60.9504H87.9994V64.9404H87.4994V68.9304H87.9994V72.9205H87.4994V76.9105H87.9994V80.9005H87.4994V84.8905H87.9994V88.8806H87.4994V92.8706H87.9994V96.8606H87.4994V100.851H87.9994V104.841H87.4994V108.831H87.9994V112.821H87.4994V116.811H87.9994V120.801H87.4994V122.296H86.0756V122.796H82.2281V122.296H78.3806V122.796H74.5331V122.296H70.6855V122.796H66.838V122.296H62.9905V122.796H59.1429V122.296H55.2954V122.796H51.4479V122.296H47.6004V122.796H43.7528V122.296H39.9053V122.796H36.0578V122.296H32.2102V122.796H28.3627V122.296H24.5152V122.796H20.6676V122.296H16.8201V122.796H12.9726L12.9726 122.296H11.5488V120.801H11.0488V116.811H11.5488V112.821H11.0488V108.831H11.5488V104.841H11.0488V100.851H11.5488V96.8606H11.0488V92.8706H11.5488V88.8806H11.0488V84.8905H11.5488V80.9005H11.0488V76.9105H11.5488V72.9204H11.0488V68.9304H11.5488V64.9404H11.0488V60.9503H11.5488L11.5488 56.9603H11.0488V52.9703H11.5488V50.9753Z" stroke="black" stroke-dasharray="4 4"/>
<path d="M37.2109 49.4365L37.2109 122.795" stroke="black" stroke-dasharray="4 4"/>
<path d="M11 122.44H87.9499" stroke="black" stroke-dasharray="4 4"/>
<path d="M61.5312 49.083L61.5313 122.442" stroke="black" stroke-dasharray="4 4"/>
<path d="M169.549 52.4753C169.549 51.8501 169.564 51.2285 169.594 50.6107L169.094 50.5866C169.156 49.3165 169.279 48.0625 169.46 46.8277L169.955 46.9004C170.137 45.6612 170.379 44.4415 170.678 43.2443L170.193 43.1232C170.5 41.8941 170.866 40.6884 171.288 39.5093L171.759 39.6778C172.18 38.5024 172.657 37.3539 173.186 36.2353L172.735 36.0212C173.276 34.8797 173.871 33.769 174.517 32.6925L174.946 32.9499C175.587 31.8823 176.28 30.8488 177.02 29.8527L176.618 29.5546C177.37 28.5427 178.17 27.5689 179.015 26.6368L179.386 26.9727C180.221 26.0518 181.101 25.1721 182.022 24.337L181.686 23.9666C182.618 23.1213 183.592 22.3211 184.603 21.5694L184.902 21.9707C185.898 21.2308 186.931 20.5385 187.999 19.8973L187.741 19.4687C188.818 18.8221 189.929 18.2267 191.07 17.6858L191.284 18.1377C192.403 17.6077 193.551 17.1308 194.727 16.7102L194.558 16.2394C195.737 15.8175 196.943 15.4514 198.172 15.1445L198.293 15.6296C199.49 15.3307 200.71 15.0885 201.949 14.9062L201.877 14.4116C203.111 14.2299 204.365 14.1069 205.635 14.0455L205.66 14.545C206.277 14.5151 206.899 14.5 207.524 14.5C208.149 14.5 208.771 14.5151 209.389 14.545L209.413 14.0455C210.683 14.1069 211.937 14.2299 213.172 14.4116L213.099 14.9062C214.338 15.0885 215.558 15.3307 216.755 15.6296L216.876 15.1445C218.105 15.4514 219.311 15.8175 220.49 16.2394L220.322 16.7102C221.497 17.1308 222.646 17.6077 223.764 18.1377L223.978 17.6858C225.12 18.2267 226.23 18.8221 227.307 19.4687L227.049 19.8973C228.117 20.5386 229.151 21.2308 230.147 21.9708L230.445 21.5694C231.457 22.3211 232.43 23.1213 233.363 23.9666L233.027 24.337C233.948 25.1721 234.827 26.0519 235.662 26.9727L236.033 26.6369C236.878 27.5689 237.678 28.5427 238.43 29.5546L238.029 29.8528C238.769 30.8488 239.461 31.8824 240.102 32.95L240.531 32.6925C241.177 33.769 241.773 34.8797 242.314 36.0213L241.862 36.2353C242.392 37.3539 242.869 38.5025 243.289 39.6778L243.76 39.5093C244.182 40.6884 244.548 41.8941 244.855 43.1232L244.37 43.2444C244.669 44.4415 244.911 45.6612 245.093 46.9005L245.588 46.8277C245.769 48.0626 245.892 49.3165 245.954 50.5866L245.454 50.6108C245.484 51.2285 245.499 51.8501 245.499 52.4753V54.4703H245.999V58.4603H245.499V62.4504H245.999V66.4404H245.499V70.4304H245.999V74.4205H245.499V78.4105H245.999V82.4005H245.499V86.3905H245.999V90.3806H245.499V94.3706H245.999V98.3606H245.499V102.351H245.999V106.341H245.499V110.331H245.999V114.321H245.499V118.311H245.999V122.301H245.499V123.796H244.076V124.296H240.228V123.796H236.381V124.296H232.533V123.796H228.686V124.296H224.838V123.796H220.99V124.296H217.143V123.796H213.295V124.296H209.448V123.796H205.6V124.296H201.753V123.796H197.905V124.296H194.058V123.796H190.21V124.296H186.363V123.796H182.515V124.296H178.668V123.796H174.82V124.296H170.973V123.796H169.549V122.301H169.049V118.311H169.549V114.321H169.049V110.331H169.549V106.341H169.049V102.351H169.549V98.3606H169.049V94.3706H169.549V90.3806H169.049V86.3905H169.549V82.4005H169.049V78.4105H169.549V74.4204H169.049V70.4304H169.549V66.4404H169.049V62.4503H169.549V58.4603H169.049V54.4703H169.549V52.4753Z" stroke="black" stroke-dasharray="4 4"/>
<path d="M169.549 52.4753C169.549 51.8501 169.564 51.2285 169.594 50.6107L169.094 50.5866C169.156 49.3165 169.279 48.0625 169.46 46.8277L169.955 46.9004C170.137 45.6612 170.379 44.4415 170.678 43.2443L170.193 43.1232C170.5 41.8941 170.866 40.6884 171.288 39.5093L171.759 39.6778C172.18 38.5024 172.657 37.3539 173.186 36.2353L172.735 36.0212C173.276 34.8797 173.871 33.769 174.517 32.6925L174.946 32.9499C175.587 31.8823 176.28 30.8488 177.02 29.8527L176.618 29.5546C177.37 28.5427 178.17 27.5689 179.015 26.6368L179.386 26.9727C180.221 26.0518 181.101 25.1721 182.022 24.337L181.686 23.9666C182.618 23.1213 183.592 22.3211 184.603 21.5694L184.902 21.9707C185.898 21.2308 186.931 20.5385 187.999 19.8973L187.741 19.4687C188.818 18.8221 189.929 18.2267 191.07 17.6858L191.284 18.1377C192.403 17.6077 193.551 17.1308 194.727 16.7102L194.558 16.2394C195.737 15.8175 196.943 15.4514 198.172 15.1445L198.293 15.6296C199.49 15.3307 200.71 15.0885 201.949 14.9062L201.877 14.4116C203.111 14.2299 204.365 14.1069 205.635 14.0455L205.66 14.545C206.277 14.5151 206.899 14.5 207.524 14.5C208.149 14.5 208.771 14.5151 209.389 14.545L209.413 14.0455C210.683 14.1069 211.937 14.2299 213.172 14.4116L213.099 14.9062C214.338 15.0885 215.558 15.3307 216.755 15.6296L216.876 15.1445C218.105 15.4514 219.311 15.8175 220.49 16.2394L220.322 16.7102C221.497 17.1308 222.646 17.6077 223.764 18.1377L223.978 17.6858C225.12 18.2267 226.23 18.8221 227.307 19.4687L227.049 19.8973C228.117 20.5386 229.151 21.2308 230.147 21.9708L230.445 21.5694C231.457 22.3211 232.43 23.1213 233.363 23.9666L233.027 24.337C233.948 25.1721 234.827 26.0519 235.662 26.9727L236.033 26.6369C236.878 27.5689 237.678 28.5427 238.43 29.5546L238.029 29.8528C238.769 30.8488 239.461 31.8824 240.102 32.95L240.531 32.6925C241.177 33.769 241.773 34.8797 242.314 36.0213L241.862 36.2353C242.392 37.3539 242.869 38.5025 243.289 39.6778L243.76 39.5093C244.182 40.6884 244.548 41.8941 244.855 43.1232L244.37 43.2444C244.669 44.4415 244.911 45.6612 245.093 46.9005L245.588 46.8277C245.769 48.0626 245.892 49.3165 245.954 50.5866L245.454 50.6108C245.484 51.2285 245.499 51.8501 245.499 52.4753V54.4703H245.999V58.4603H245.499V62.4504H245.999V66.4404H245.499V70.4304H245.999V74.4205H245.499V78.4105H245.999V82.4005H245.499V86.3905H245.999V90.3806H245.499V94.3706H245.999V98.3606H245.499V102.351H245.999V106.341H245.499V110.331H245.999V114.321H245.499V118.311H245.999V122.301H245.499V123.796H244.076V124.296H240.228V123.796H236.381V124.296H232.533V123.796H228.686V124.296H224.838V123.796H220.99V124.296H217.143V123.796H213.295V124.296H209.448V123.796H205.6V124.296H201.753V123.796H197.905V124.296H194.058V123.796H190.21V124.296H186.363V123.796H182.515V124.296H178.668V123.796H174.82V124.296H170.973V123.796H169.549V122.301H169.049V118.311H169.549V114.321H169.049V110.331H169.549V106.341H169.049V102.351H169.549V98.3606H169.049V94.3706H169.549V90.3806H169.049V86.3905H169.549V82.4005H169.049V78.4105H169.549V74.4204H169.049V70.4304H169.549V66.4404H169.049V62.4503H169.549V58.4603H169.049V54.4703H169.549V52.4753Z" stroke="black" stroke-dasharray="4 4"/>
<path d="M195.211 50.9365V124.295" stroke="black" stroke-dasharray="4 4"/>
<path d="M169 123.94H245.95" stroke="black" stroke-dasharray="4 4"/>
<path d="M219.531 50.583V123.942" stroke="black" stroke-dasharray="4 4"/>
<path d="M142 124V14H158V124" stroke="black" stroke-dasharray="2 2"/>
</svg>
