<svg width="158" height="31" viewBox="0 0 158 31" fill="none" xmlns="http://www.w3.org/2000/svg">
<path d="M0.74 23.36L0.92 21.98C1.86 21.8 2.48 21.54 2.78 21.2C3.1 20.84 3.26 20.24 3.26 19.4L3.29 6.8C3.29 6.16 3.22 5.73 3.08 5.51C2.94 5.29 2.64 5.18 2.18 5.18C2.06 5.18 1.9 5.19 1.7 5.21C1.5 5.21 1.32 5.22 1.16 5.24L1.1 5.12L1.31 3.8C1.77 3.82 2.33 3.84 2.99 3.86C3.67 3.88 4.22 3.89 4.64 3.89C5.02 3.89 5.51 3.87 6.11 3.83C6.73 3.77 7.31 3.7 7.85 3.62L7.73 4.97C7.17 5.05 6.75 5.17 6.47 5.33C6.21 5.47 6.03 5.72 5.93 6.08C5.85 6.42 5.79 6.95 5.75 7.67L5.57 12.53L10.61 12.56C11.27 12.56 11.92 12.54 12.56 12.5C13.2 12.46 14.03 12.38 15.05 12.26L15.08 6.8C15.08 6.16 15.01 5.73 14.87 5.51C14.73 5.29 14.43 5.18 13.97 5.18C13.83 5.18 13.66 5.19 13.46 5.21C13.28 5.21 13.11 5.22 12.95 5.24L12.89 5.12L13.1 3.8C13.1 3.8 13.28 3.81 13.64 3.83C14 3.85 14.41 3.87 14.87 3.89C15.33 3.89 15.72 3.89 16.04 3.89C16.48 3.89 17.04 3.87 17.72 3.83C18.4 3.77 19.04 3.7 19.64 3.62L19.52 4.97C18.78 5.07 18.28 5.24 18.02 5.48C17.78 5.7 17.64 6.1 17.6 6.68C17.54 7.84 17.48 9.06 17.42 10.34C17.38 11.6 17.34 12.84 17.3 14.06C17.26 15.26 17.23 16.36 17.21 17.36C17.19 18.36 17.18 19.18 17.18 19.82C17.18 20.56 17.27 21.06 17.45 21.32C17.63 21.56 17.98 21.68 18.5 21.68C18.72 21.68 18.96 21.67 19.22 21.65C19.48 21.63 19.69 21.61 19.85 21.59L19.91 21.71L19.64 23.09C19.14 23.07 18.52 23.05 17.78 23.03C17.04 23.01 16.43 23 15.95 23C15.71 23 15.38 23 14.96 23C14.56 23.02 14.14 23.03 13.7 23.03C13.26 23.03 12.86 23.04 12.5 23.06L12.77 21.71C13.41 21.69 13.89 21.6 14.21 21.44C14.53 21.28 14.75 20.97 14.87 20.51C14.99 20.05 15.05 19.38 15.05 18.5V13.97C14.59 13.97 14.07 13.97 13.49 13.97C12.91 13.95 12.35 13.94 11.81 13.94C11.27 13.94 10.83 13.94 10.49 13.94C10.29 13.94 9.92 13.96 9.38 14C8.86 14.02 8.25 14.06 7.55 14.12C6.87 14.16 6.19 14.21 5.51 14.27L5.39 19.64C5.39 20.44 5.48 20.98 5.66 21.26C5.84 21.54 6.19 21.68 6.71 21.68C6.93 21.68 7.17 21.67 7.43 21.65C7.69 21.63 7.9 21.61 8.06 21.59L8.12 21.71L7.85 23.09C7.85 23.07 7.7 23.05 7.4 23.03C7.1 23.03 6.75 23.02 6.35 23C5.95 23 5.6 23 5.3 23C4.7 23 4.04 23.02 3.32 23.06C2.62 23.1 2.02 23.14 1.52 23.18C1.02 23.24 0.76 23.3 0.74 23.36ZM22.6072 30.23L22.0672 29.66L22.1272 29.42C22.7072 28.84 23.1572 28.23 23.4772 27.59C23.7972 26.95 24.0172 26.17 24.1372 25.25C24.2772 24.35 24.3472 23.22 24.3472 21.86V12.56C24.3472 11.94 24.2572 11.52 24.0772 11.3C23.9172 11.06 23.6072 10.94 23.1472 10.94C22.9872 10.94 22.8072 10.96 22.6072 11C22.4272 11.02 22.3372 11.03 22.3372 11.03L22.4572 9.92C22.9172 9.86 23.3972 9.79 23.8972 9.71C24.3972 9.61 24.8672 9.51 25.3072 9.41C25.7472 9.31 26.0972 9.23 26.3572 9.17C26.6372 9.11 26.7772 9.08 26.7772 9.08L26.9272 9.44C26.7672 9.72 26.6372 11.06 26.5372 13.46C26.4572 15.86 26.4172 19.18 26.4172 23.42C26.4172 24.86 26.0872 26.16 25.4272 27.32C24.7872 28.5 23.8472 29.47 22.6072 30.23ZM25.2472 4.94C24.8072 4.94 24.4472 4.8 24.1672 4.52C23.9072 4.22 23.7772 3.85 23.7772 3.41C23.7772 2.91 23.9472 2.49 24.2872 2.15C24.6272 1.81 25.0472 1.64 25.5472 1.64C25.9672 1.64 26.3172 1.78 26.5972 2.06C26.8772 2.34 27.0172 2.71 27.0172 3.17C27.0172 3.67 26.8472 4.09 26.5072 4.43C26.1672 4.77 25.7472 4.94 25.2472 4.94ZM36.4972 23.36C35.2372 23.36 34.1372 23.08 33.1972 22.52C32.2572 21.96 31.5172 21.19 30.9772 20.21C30.4572 19.21 30.1972 18.05 30.1972 16.73C30.1972 15.71 30.3672 14.74 30.7072 13.82C31.0672 12.9 31.5572 12.09 32.1772 11.39C32.7972 10.67 33.4972 10.11 34.2772 9.71C35.0772 9.29 35.9272 9.08 36.8272 9.08C39.8072 9.08 41.2972 10.53 41.2972 13.43C41.2972 13.69 41.2772 13.96 41.2372 14.24C41.1972 14.52 41.1572 14.74 41.1172 14.9L40.7272 15.26H32.4472C32.4272 17.04 32.7472 18.45 33.4072 19.49C34.0872 20.51 35.0372 21.11 36.2572 21.29C37.4772 21.45 38.9172 21.15 40.5772 20.39L40.7572 20.45L41.0872 21.32C40.6872 21.6 40.2072 21.9 39.6472 22.22C39.1072 22.54 38.5572 22.81 37.9972 23.03C37.4372 23.25 36.9372 23.36 36.4972 23.36ZM32.5672 14.15L37.9972 13.88C38.2972 13.84 38.4972 13.77 38.5972 13.67C38.6972 13.57 38.7472 13.37 38.7472 13.07C38.7472 12.27 38.5272 11.66 38.0872 11.24C37.6672 10.82 37.0572 10.61 36.2572 10.61C35.3372 10.61 34.5372 10.93 33.8572 11.57C33.1772 12.19 32.7472 13.05 32.5672 14.15ZM44.3345 21.92C44.9345 21.86 45.3345 21.67 45.5345 21.35C45.7345 21.01 45.8345 20.37 45.8345 19.43V12.83C45.8345 12.17 45.7445 11.7 45.5645 11.42C45.3845 11.14 45.0945 11 44.6945 11C44.5345 11 44.3845 11.02 44.2445 11.06C44.1245 11.08 44.0645 11.09 44.0645 11.09L43.9145 10.88L44.0045 9.95C44.6245 9.83 45.2445 9.7 45.8645 9.56C46.4845 9.42 47.0045 9.3 47.4245 9.2C47.8445 9.1 48.0545 9.05 48.0545 9.05L48.2645 9.23C48.2645 9.23 48.2345 9.39 48.1745 9.71C48.1345 10.03 48.0945 10.43 48.0545 10.91C48.0145 11.37 47.9945 11.84 47.9945 12.32L48.1145 12.41C48.7345 11.47 49.4445 10.7 50.2445 10.1C51.0445 9.5 51.7445 9.2 52.3445 9.2C52.6845 9.2 52.9245 9.22 53.0645 9.26C53.2045 9.3 53.2745 9.32 53.2745 9.32L53.3645 9.44C53.3645 9.44 53.3445 9.58 53.3045 9.86C53.2645 10.12 53.2145 10.47 53.1545 10.91C53.0945 11.33 53.0345 11.79 52.9745 12.29C52.9345 12.79 52.9045 13.27 52.8845 13.73L51.7145 13.82C51.7145 13 51.6645 12.46 51.5645 12.2C51.4645 11.92 51.2445 11.78 50.9045 11.78C50.4645 11.78 49.9945 11.96 49.4945 12.32C48.9945 12.68 48.5345 13.18 48.1145 13.82C48.1145 13.82 48.1045 14.01 48.0845 14.39C48.0645 14.75 48.0445 15.21 48.0245 15.77C48.0045 16.33 47.9845 16.91 47.9645 17.51C47.9445 18.09 47.9245 18.61 47.9045 19.07C47.8845 19.51 47.8745 19.8 47.8745 19.94C47.8745 20.62 47.9745 21.08 48.1745 21.32C48.3745 21.56 48.7545 21.68 49.3145 21.68C49.5345 21.68 49.8045 21.67 50.1245 21.65C50.4645 21.63 50.6345 21.62 50.6345 21.62L50.6645 21.74L50.3945 23.06C50.3945 23.06 50.2945 23.05 50.0945 23.03C49.8945 23.03 49.6345 23.03 49.3145 23.03C48.9945 23.03 48.6545 23.02 48.2945 23C47.9545 23 47.6345 23 47.3345 23C46.7545 23 46.2245 23.01 45.7445 23.03C45.2645 23.05 44.8845 23.07 44.6045 23.09C44.3245 23.11 44.1845 23.12 44.1845 23.12L44.3345 21.92ZM60.2288 23.36C58.8688 23.36 57.9088 23.09 57.3488 22.55C56.7888 21.99 56.5088 21.05 56.5088 19.73V12.35C56.5088 11.81 56.3888 11.43 56.1488 11.21C55.9088 10.99 55.4588 10.87 54.7988 10.85L54.6788 10.67L54.8288 9.77C55.3088 9.53 55.7688 9.26 56.2088 8.96C56.6688 8.64 57.0688 8.34 57.4088 8.06C57.7688 7.76 58.0488 7.52 58.2488 7.34C58.4488 7.14 58.5488 7.04 58.5488 7.04L59.1488 7.28C59.1488 7.28 59.1188 7.47 59.0588 7.85C59.0188 8.23 58.9688 8.79 58.9088 9.53L63.3188 9.44L63.4088 9.53L63.1388 11.12L58.7888 11.03C58.7288 11.97 58.6788 13.07 58.6388 14.33C58.5988 15.59 58.5788 16.99 58.5788 18.53C58.5788 19.55 58.7488 20.27 59.0888 20.69C59.4488 21.11 60.0588 21.32 60.9188 21.32C61.4188 21.32 61.8788 21.23 62.2988 21.05C62.7388 20.87 62.9588 20.78 62.9588 20.78L63.2588 21.56C63.2588 21.56 63.1388 21.65 62.8988 21.83C62.6588 22.01 62.3588 22.22 61.9988 22.46C61.6588 22.7 61.3188 22.91 60.9788 23.09C60.6588 23.27 60.4088 23.36 60.2288 23.36ZM71.3312 23.36C70.0712 23.36 68.9712 23.08 68.0312 22.52C67.0912 21.96 66.3512 21.19 65.8112 20.21C65.2912 19.21 65.0312 18.05 65.0312 16.73C65.0312 15.71 65.2012 14.74 65.5412 13.82C65.9012 12.9 66.3912 12.09 67.0112 11.39C67.6312 10.67 68.3312 10.11 69.1112 9.71C69.9112 9.29 70.7612 9.08 71.6612 9.08C74.6412 9.08 76.1312 10.53 76.1312 13.43C76.1312 13.69 76.1112 13.96 76.0712 14.24C76.0312 14.52 75.9912 14.74 75.9512 14.9L75.5612 15.26H67.2812C67.2612 17.04 67.5812 18.45 68.2412 19.49C68.9212 20.51 69.8712 21.11 71.0912 21.29C72.3112 21.45 73.7512 21.15 75.4112 20.39L75.5912 20.45L75.9212 21.32C75.5212 21.6 75.0412 21.9 74.4812 22.22C73.9412 22.54 73.3912 22.81 72.8312 23.03C72.2712 23.25 71.7712 23.36 71.3312 23.36ZM67.4012 14.15L72.8312 13.88C73.1312 13.84 73.3312 13.77 73.4312 13.67C73.5312 13.57 73.5812 13.37 73.5812 13.07C73.5812 12.27 73.3612 11.66 72.9212 11.24C72.5012 10.82 71.8912 10.61 71.0912 10.61C70.1712 10.61 69.3712 10.93 68.6912 11.57C68.0112 12.19 67.5812 13.05 67.4012 14.15ZM78.4184 21.95C78.9584 21.87 79.3384 21.73 79.5584 21.53C79.7784 21.31 79.9084 20.99 79.9484 20.57C79.9884 20.15 80.0084 19.61 80.0084 18.95V4.22C80.0084 3.14 79.6384 2.6 78.8984 2.6C78.7384 2.6 78.5684 2.62 78.3884 2.66C78.2284 2.7 78.1484 2.72 78.1484 2.72C78.1484 2.62 78.1484 2.53 78.1484 2.45C78.1684 2.35 78.1884 2.26 78.2084 2.18L78.2684 1.61C78.7884 1.55 79.3084 1.47 79.8284 1.37C80.3484 1.27 80.8284 1.17 81.2684 1.07C81.7084 0.969999 82.0584 0.889999 82.3184 0.829999C82.5784 0.769999 82.7084 0.739999 82.7084 0.739999L82.8884 1.13C82.8084 1.27 82.7284 1.72 82.6484 2.48C82.5684 3.24 82.4884 4.24 82.4084 5.48C82.3484 6.72 82.2884 8.13 82.2284 9.71C82.1684 11.27 82.1184 12.94 82.0784 14.72C82.0584 16.48 82.0484 18.26 82.0484 20.06C82.0484 20.68 82.1284 21.12 82.2884 21.38C82.4684 21.62 82.7484 21.74 83.1284 21.74C83.3084 21.74 83.5284 21.73 83.7884 21.71C84.0484 21.69 84.1784 21.68 84.1784 21.68L84.2384 21.8L83.9684 23.09C83.9684 23.09 83.8784 23.08 83.6984 23.06C83.5184 23.06 83.2884 23.05 83.0084 23.03C82.7284 23.03 82.4284 23.02 82.1084 23C81.8084 23 81.5184 23 81.2384 23C80.8184 23 80.3784 23.01 79.9184 23.03C79.4584 23.07 79.0684 23.1 78.7484 23.12C78.4284 23.16 78.2684 23.18 78.2684 23.18L78.4184 21.95ZM82.7984 15.98L82.8584 15.5L86.4284 12.08C86.7084 11.82 86.8984 11.62 86.9984 11.48C87.0984 11.32 87.1484 11.17 87.1484 11.03C87.1484 10.81 87.0184 10.65 86.7584 10.55C86.4984 10.45 86.0784 10.4 85.4984 10.4L85.4084 10.25L85.6784 9.38C85.6784 9.38 85.8584 9.39 86.2184 9.41C86.5784 9.41 86.9884 9.42 87.4484 9.44C87.9284 9.44 88.3484 9.44 88.7084 9.44C89.0884 9.44 89.4984 9.43 89.9384 9.41C90.3784 9.37 90.7584 9.34 91.0784 9.32C91.3984 9.28 91.5584 9.26 91.5584 9.26L91.6484 9.41L91.4084 10.34C90.6884 10.54 89.9584 10.93 89.2184 11.51C88.4984 12.07 87.7784 12.7 87.0584 13.4C86.3584 14.1 85.6784 14.77 85.0184 15.41L88.1684 19.46C88.8684 20.34 89.4884 20.97 90.0284 21.35C90.5884 21.73 91.1784 21.92 91.7984 21.92L91.8884 22.07L91.7084 22.94C91.7084 22.94 91.5484 22.98 91.2284 23.06C90.9284 23.14 90.5984 23.22 90.2384 23.3C89.8984 23.38 89.6484 23.42 89.4884 23.42C89.2884 23.42 89.0984 23.39 88.9184 23.33C88.7584 23.27 88.5984 23.2 88.4384 23.12C88.1184 22.96 87.7984 22.71 87.4784 22.37C87.1784 22.01 86.7984 21.51 86.3384 20.87L82.7984 15.98ZM95.0105 12.59C95.0105 12.07 94.9205 11.67 94.7405 11.39C94.5605 11.11 94.2805 10.97 93.9005 10.97C93.7405 10.97 93.5705 10.99 93.3905 11.03C93.2305 11.07 93.1505 11.09 93.1505 11.09L93.2705 9.98C93.7305 9.9 94.2105 9.81 94.7105 9.71C95.2105 9.61 95.6705 9.51 96.0905 9.41C96.5305 9.31 96.8805 9.23 97.1405 9.17C97.4205 9.11 97.5605 9.08 97.5605 9.08L97.7405 9.44C97.6405 9.7 97.5405 10.15 97.4405 10.79C97.3605 11.41 97.2805 12.14 97.2005 12.98C97.1205 13.82 97.0605 14.71 97.0205 15.65C96.9805 16.57 96.9605 17.47 96.9605 18.35C96.9605 20.31 97.7605 21.29 99.3605 21.29C100.061 21.29 100.711 21.1 101.311 20.72C101.931 20.32 102.491 19.94 102.991 19.58V12.62C102.991 12.02 102.881 11.6 102.661 11.36C102.441 11.12 102.051 11 101.491 11C101.411 11 101.271 11.01 101.071 11.03C100.871 11.03 100.771 11.03 100.771 11.03L100.891 9.95C101.431 9.87 101.971 9.78 102.511 9.68C103.051 9.58 103.541 9.49 103.981 9.41C104.441 9.31 104.811 9.23 105.091 9.17C105.371 9.11 105.511 9.08 105.511 9.08L105.691 9.44C105.571 9.74 105.461 10.41 105.361 11.45C105.261 12.49 105.181 13.75 105.121 15.23C105.061 16.71 105.031 18.25 105.031 19.85C105.031 20.29 105.141 20.63 105.361 20.87C105.581 21.11 105.881 21.23 106.261 21.23C106.581 21.23 106.871 21.17 107.131 21.05C107.411 20.91 107.631 20.78 107.791 20.66C107.971 20.54 108.061 20.48 108.061 20.48L108.481 20.96C108.481 20.96 108.391 21.08 108.211 21.32C108.051 21.56 107.831 21.84 107.551 22.16C107.291 22.48 107.011 22.76 106.711 23C106.411 23.24 106.131 23.36 105.871 23.36C104.251 23.36 103.361 22.55 103.201 20.93L103.051 20.87C102.091 21.61 101.221 22.21 100.441 22.67C99.6805 23.13 99.1605 23.36 98.8805 23.36C97.6005 23.36 96.6105 23.06 95.9105 22.46C95.2305 21.86 94.8905 21 94.8905 19.88L95.0105 12.59ZM110.311 21.92C110.911 21.86 111.311 21.67 111.511 21.35C111.711 21.01 111.811 20.37 111.811 19.43V12.83C111.811 12.17 111.721 11.7 111.541 11.42C111.361 11.14 111.071 11 110.671 11C110.511 11 110.361 11.02 110.221 11.06C110.101 11.08 110.041 11.09 110.041 11.09L109.891 10.88L109.981 9.95C110.601 9.83 111.221 9.7 111.841 9.56C112.461 9.42 112.981 9.3 113.401 9.2C113.821 9.1 114.031 9.05 114.031 9.05L114.241 9.23C114.241 9.23 114.211 9.39 114.151 9.71C114.111 10.03 114.071 10.43 114.031 10.91C113.991 11.37 113.971 11.84 113.971 12.32L114.091 12.41C114.711 11.47 115.421 10.7 116.221 10.1C117.021 9.5 117.721 9.2 118.321 9.2C118.661 9.2 118.901 9.22 119.041 9.26C119.181 9.3 119.251 9.32 119.251 9.32L119.341 9.44C119.341 9.44 119.321 9.58 119.281 9.86C119.241 10.12 119.191 10.47 119.131 10.91C119.071 11.33 119.011 11.79 118.951 12.29C118.911 12.79 118.881 13.27 118.861 13.73L117.691 13.82C117.691 13 117.641 12.46 117.541 12.2C117.441 11.92 117.221 11.78 116.881 11.78C116.441 11.78 115.971 11.96 115.471 12.32C114.971 12.68 114.511 13.18 114.091 13.82C114.091 13.82 114.081 14.01 114.061 14.39C114.041 14.75 114.021 15.21 114.001 15.77C113.981 16.33 113.961 16.91 113.941 17.51C113.921 18.09 113.901 18.61 113.881 19.07C113.861 19.51 113.851 19.8 113.851 19.94C113.851 20.62 113.951 21.08 114.151 21.32C114.351 21.56 114.731 21.68 115.291 21.68C115.511 21.68 115.781 21.67 116.101 21.65C116.441 21.63 116.611 21.62 116.611 21.62L116.641 21.74L116.371 23.06C116.371 23.06 116.271 23.05 116.071 23.03C115.871 23.03 115.611 23.03 115.291 23.03C114.971 23.03 114.631 23.02 114.271 23C113.931 23 113.611 23 113.311 23C112.731 23 112.201 23.01 111.721 23.03C111.241 23.05 110.861 23.07 110.581 23.09C110.301 23.11 110.161 23.12 110.161 23.12L110.311 21.92ZM125.925 23.51C125.925 23.51 125.855 23.29 125.715 22.85C125.575 22.41 125.395 21.83 125.175 21.11C124.955 20.39 124.705 19.6 124.425 18.74C124.145 17.88 123.865 17.02 123.585 16.16C123.325 15.28 123.075 14.48 122.835 13.76C122.595 13.02 122.405 12.44 122.265 12.02C121.925 11.06 121.245 10.56 120.225 10.52L120.165 10.4L120.345 9.41C120.345 9.41 120.505 9.41 120.825 9.41C121.145 9.41 121.505 9.42 121.905 9.44C122.305 9.44 122.615 9.44 122.835 9.44C123.455 9.44 124.035 9.42 124.575 9.38C125.115 9.34 125.555 9.31 125.895 9.29C126.255 9.25 126.435 9.23 126.435 9.23L126.495 9.38L126.315 10.31C125.635 10.33 125.165 10.4 124.905 10.52C124.665 10.62 124.545 10.81 124.545 11.09C124.545 11.23 124.605 11.56 124.725 12.08C124.845 12.58 125.005 13.19 125.205 13.91C125.405 14.61 125.605 15.34 125.805 16.1C126.025 16.84 126.235 17.54 126.435 18.2C126.635 18.86 126.795 19.4 126.915 19.82C127.035 20.22 127.095 20.42 127.095 20.42H127.215C127.955 18.58 128.585 17.02 129.105 15.74C129.645 14.46 130.055 13.45 130.335 12.71C130.615 11.97 130.755 11.48 130.755 11.24C130.755 10.96 130.655 10.77 130.455 10.67C130.275 10.57 129.945 10.52 129.465 10.52H128.325L128.205 10.34L128.355 9.41C128.355 9.41 128.515 9.41 128.835 9.41C129.175 9.41 129.595 9.42 130.095 9.44C130.595 9.44 131.085 9.44 131.565 9.44C131.925 9.44 132.295 9.44 132.675 9.44C133.055 9.42 133.375 9.41 133.635 9.41C133.895 9.41 134.025 9.41 134.025 9.41L133.815 10.52C133.395 10.58 133.065 10.75 132.825 11.03C132.585 11.31 132.275 11.89 131.895 12.77L127.605 23L125.925 23.51ZM140.735 23.36C139.475 23.36 138.375 23.08 137.435 22.52C136.495 21.96 135.755 21.19 135.215 20.21C134.695 19.21 134.435 18.05 134.435 16.73C134.435 15.71 134.605 14.74 134.945 13.82C135.305 12.9 135.795 12.09 136.415 11.39C137.035 10.67 137.735 10.11 138.515 9.71C139.315 9.29 140.165 9.08 141.065 9.08C144.045 9.08 145.535 10.53 145.535 13.43C145.535 13.69 145.515 13.96 145.475 14.24C145.435 14.52 145.395 14.74 145.355 14.9L144.965 15.26H136.685C136.665 17.04 136.985 18.45 137.645 19.49C138.325 20.51 139.275 21.11 140.495 21.29C141.715 21.45 143.155 21.15 144.815 20.39L144.995 20.45L145.325 21.32C144.925 21.6 144.445 21.9 143.885 22.22C143.345 22.54 142.795 22.81 142.235 23.03C141.675 23.25 141.175 23.36 140.735 23.36ZM136.805 14.15L142.235 13.88C142.535 13.84 142.735 13.77 142.835 13.67C142.935 13.57 142.985 13.37 142.985 13.07C142.985 12.27 142.765 11.66 142.325 11.24C141.905 10.82 141.295 10.61 140.495 10.61C139.575 10.61 138.775 10.93 138.095 11.57C137.415 12.19 136.985 13.05 136.805 14.15ZM148.573 21.92C149.173 21.86 149.573 21.67 149.773 21.35C149.973 21.01 150.073 20.37 150.073 19.43V12.83C150.073 12.17 149.983 11.7 149.803 11.42C149.623 11.14 149.333 11 148.933 11C148.773 11 148.623 11.02 148.483 11.06C148.363 11.08 148.303 11.09 148.303 11.09L148.153 10.88L148.243 9.95C148.863 9.83 149.483 9.7 150.103 9.56C150.723 9.42 151.243 9.3 151.663 9.2C152.083 9.1 152.293 9.05 152.293 9.05L152.503 9.23C152.503 9.23 152.473 9.39 152.413 9.71C152.373 10.03 152.333 10.43 152.293 10.91C152.253 11.37 152.233 11.84 152.233 12.32L152.353 12.41C152.973 11.47 153.683 10.7 154.483 10.1C155.283 9.5 155.983 9.2 156.583 9.2C156.923 9.2 157.163 9.22 157.303 9.26C157.443 9.3 157.513 9.32 157.513 9.32L157.603 9.44C157.603 9.44 157.583 9.58 157.543 9.86C157.503 10.12 157.453 10.47 157.393 10.91C157.333 11.33 157.273 11.79 157.213 12.29C157.173 12.79 157.143 13.27 157.123 13.73L155.953 13.82C155.953 13 155.903 12.46 155.803 12.2C155.703 11.92 155.483 11.78 155.143 11.78C154.703 11.78 154.233 11.96 153.733 12.32C153.233 12.68 152.773 13.18 152.353 13.82C152.353 13.82 152.343 14.01 152.323 14.39C152.303 14.75 152.283 15.21 152.263 15.77C152.243 16.33 152.223 16.91 152.203 17.51C152.183 18.09 152.163 18.61 152.143 19.07C152.123 19.51 152.113 19.8 152.113 19.94C152.113 20.62 152.213 21.08 152.413 21.32C152.613 21.56 152.993 21.68 153.553 21.68C153.773 21.68 154.043 21.67 154.363 21.65C154.703 21.63 154.873 21.62 154.873 21.62L154.903 21.74L154.633 23.06C154.633 23.06 154.533 23.05 154.333 23.03C154.133 23.03 153.873 23.03 153.553 23.03C153.233 23.03 152.893 23.02 152.533 23C152.193 23 151.873 23 151.573 23C150.993 23 150.463 23.01 149.983 23.03C149.503 23.05 149.123 23.07 148.843 23.09C148.563 23.11 148.423 23.12 148.423 23.12L148.573 21.92Z" fill="#372316"/>
</svg>
