<svg width="638" height="638" viewBox="0 0 638 638" fill="none" xmlns="http://www.w3.org/2000/svg">
<path d="M311.834 616.597C307.929 620.502 307.929 626.834 311.834 630.739C315.739 634.645 322.071 634.645 325.976 630.739L311.834 616.597ZM325.976 630.739L531.037 425.678L516.895 411.536L311.834 616.597L325.976 630.739Z" fill="#BC9284"/>
<path d="M196.576 350.018C192.67 346.113 186.339 346.113 182.434 350.018C178.528 353.923 178.528 360.255 182.434 364.16L196.576 350.018ZM182.434 364.16L373.352 555.079L387.495 540.937L196.576 350.018L182.434 364.16Z" fill="#BC9284"/>
<path d="M453.255 362.039C457.161 358.133 457.161 351.802 453.255 347.897C449.35 343.991 443.019 343.991 439.113 347.897L453.255 362.039ZM439.113 347.897L248.194 538.815L262.337 552.958L453.255 362.039L439.113 347.897Z" fill="#BC9284"/>
<path d="M127.986 418.607L120.915 411.536L106.773 425.678L113.844 432.749L127.986 418.607ZM311.834 630.739C315.739 634.644 322.071 634.644 325.976 630.739C329.881 626.834 329.881 620.502 325.976 616.597L311.834 630.739ZM113.844 432.749L311.834 630.739L325.976 616.597L127.986 418.607L113.844 432.749Z" fill="#BC9284"/>
<path d="M267.286 279.307C263.381 275.402 257.05 275.402 253.144 279.307C249.239 283.212 249.239 289.544 253.144 293.449L267.286 279.307ZM253.144 293.449L444.063 484.368L458.205 470.226L267.286 279.307L253.144 293.449Z" fill="#BC9284"/>
<path d="M383.252 292.035C387.157 288.13 387.157 281.798 383.252 277.893C379.347 273.988 373.015 273.988 369.11 277.893L383.252 292.035ZM369.11 277.893L178.191 468.812L192.333 482.954L383.252 292.035L369.11 277.893Z" fill="#BC9284"/>
<mask id="path-7-inside-1_156_619" fill="white">
<path d="M318.905 213.546C377.484 154.968 473.166 154.261 531.744 212.839V212.839C590.323 271.418 589.616 367.1 531.037 425.678V425.678L318.905 213.546V213.546Z"/>
</mask>
<path d="M305.47 198.697C371.859 132.308 479.497 132.308 545.886 198.697C612.276 265.086 612.276 372.724 545.886 439.113L517.602 410.829C568.37 360.061 568.37 277.75 517.602 226.981C466.834 176.213 384.522 176.213 333.754 226.981L305.47 198.697ZM531.037 425.678L318.905 213.546L531.037 425.678ZM304.763 199.404L305.47 198.697C371.859 132.308 479.497 132.308 545.886 198.697L517.602 226.981C466.834 176.213 384.522 176.213 333.754 226.981L333.047 227.688L304.763 199.404ZM545.886 198.697C612.276 265.086 612.276 372.724 545.886 439.113L545.179 439.82L516.895 411.536L517.602 410.829C568.37 360.061 568.37 277.75 517.602 226.981L545.886 198.697Z" fill="#BC9284" mask="url(#path-7-inside-1_156_619)"/>
<mask id="path-9-inside-2_156_619" fill="white">
<path d="M106.773 425.678C48.1945 367.1 47.4874 271.418 106.066 212.839V212.839C164.645 154.26 260.327 154.968 318.905 213.546V213.546L106.773 425.678V425.678Z"/>
</mask>
<path d="M91.9239 439.113C25.5348 372.724 25.5348 265.086 91.9239 198.697C158.313 132.308 265.951 132.308 332.34 198.697L304.056 226.981C253.288 176.213 170.976 176.213 120.208 226.981C69.44 277.749 69.44 360.061 120.208 410.829L91.9239 439.113ZM318.905 213.546L106.773 425.678L318.905 213.546ZM92.631 439.82L91.9239 439.113C25.5348 372.724 25.5348 265.086 91.9239 198.697L120.208 226.981C69.44 277.749 69.44 360.061 120.208 410.829L120.915 411.536L92.631 439.82ZM91.9239 198.697C158.313 132.308 265.951 132.308 332.34 198.697L333.047 199.404L304.763 227.688L304.056 226.981C253.288 176.213 170.976 176.213 120.208 226.981L91.9239 198.697Z" fill="#BC9284" mask="url(#path-9-inside-2_156_619)"/>
<path d="M318.905 213.546L333.047 227.688L325.976 234.759C322.071 238.665 315.739 238.665 311.834 234.759L304.763 227.688L318.905 213.546Z" fill="#BC9284"/>
</svg>
