<svg width="130" height="130" viewBox="0 0 130 130" fill="none" xmlns="http://www.w3.org/2000/svg">
<path d="M129.571 48.967C129.064 47.3046 128.088 45.8386 126.769 44.7592C125.45 43.6798 123.848 43.0369 122.173 42.9139L86.5717 39.9272L72.8514 5.46089C72.2112 3.84537 71.123 2.46373 69.7248 1.49142C68.3266 0.519113 66.6815 0 64.9985 0C63.3155 0 61.6704 0.519113 60.2722 1.49142C58.874 2.46373 57.7857 3.84537 57.1456 5.46089L43.4252 39.915L7.8243 42.9139C6.14721 43.0378 4.54482 43.6825 3.22547 44.7642C1.90611 45.8459 0.930824 47.3146 0.426398 48.9793C-0.099419 50.6395 -0.139841 52.4241 0.310226 54.1082C0.760294 55.7922 1.6807 57.3003 2.95539 58.4422L30.1362 82.7342L21.8638 119.071C21.4756 120.772 21.5822 122.553 22.1702 124.191C22.7582 125.828 23.8011 127.248 25.1668 128.27C26.5157 129.307 28.135 129.898 29.8125 129.963C31.49 130.029 33.1475 129.567 34.5678 128.638L64.9985 109.222L95.4764 128.669C96.8967 129.598 98.5542 130.06 100.232 129.994C101.909 129.928 103.529 129.338 104.877 128.301C106.243 127.279 107.286 125.859 107.874 124.222C108.462 122.584 108.569 120.802 108.18 119.102L99.9081 82.7649L127.042 58.4422C128.319 57.2993 129.24 55.7892 129.691 54.1026C130.141 52.4161 130.099 50.6289 129.571 48.967ZM122.397 52.8736L93.6269 78.6314C93.136 79.071 92.7707 79.6419 92.5707 80.282C92.3707 80.9222 92.3436 81.607 92.4924 82.262L101.285 120.77C101.362 121.06 101.349 121.369 101.248 121.652C101.148 121.934 100.964 122.177 100.723 122.346C100.505 122.521 100.24 122.621 99.9648 122.632C99.6894 122.643 99.4175 122.564 99.1872 122.407L66.8539 101.789C66.2957 101.433 65.6535 101.245 64.9985 101.245C64.3435 101.245 63.7013 101.433 63.1431 101.789L30.8098 122.401C30.5794 122.558 30.3076 122.637 30.0322 122.626C29.7568 122.615 29.4915 122.515 29.2735 122.34C29.0275 122.175 28.838 121.934 28.7319 121.651C28.6258 121.368 28.6085 121.058 28.6826 120.764L37.475 82.2558C37.6238 81.6008 37.5968 80.916 37.3967 80.2759C37.1967 79.6358 36.8314 79.0648 36.3405 78.6252L7.57022 52.8674C7.3445 52.6767 7.18166 52.4177 7.10436 52.1264C7.02705 51.8351 7.03911 51.5261 7.13887 51.2423C7.21594 50.9625 7.3752 50.7146 7.59446 50.5332C7.81371 50.3518 8.08203 50.2459 8.36201 50.2303L46.1315 47.0658C46.7823 47.011 47.4059 46.7706 47.9335 46.3713C48.461 45.972 48.8721 45.4292 49.1214 44.8028L63.6749 8.25132C63.7764 7.98074 63.9542 7.74829 64.1851 7.58439C64.416 7.42049 64.6892 7.3328 64.9689 7.3328C65.2487 7.3328 65.5219 7.42049 65.7528 7.58439C65.9837 7.74829 66.1615 7.98074 66.263 8.25132L80.8165 44.8028C81.0658 45.4292 81.4768 45.972 82.0044 46.3713C82.532 46.7706 83.1556 47.011 83.8064 47.0658L121.576 50.2303C121.856 50.2459 122.124 50.3518 122.343 50.5332C122.563 50.7146 122.722 50.9625 122.799 51.2423C122.903 51.5238 122.921 51.8321 122.849 52.1245C122.777 52.4168 122.619 52.6786 122.397 52.8736Z" fill="#B0BFB4" fill-opacity="0.74"/>
</svg>
