<svg width="130" height="130" viewBox="0 0 130 130" fill="none" xmlns="http://www.w3.org/2000/svg">
<path d="M126.723 59.4957L100.592 82.8694L108.553 117.825C108.993 119.722 108.879 121.712 108.228 123.543C107.577 125.374 106.417 126.964 104.895 128.112C103.372 129.259 101.556 129.914 99.6747 129.992C97.7937 130.07 95.9325 129.569 94.3263 128.551L65.0012 109.843L35.6587 128.551C34.0526 129.563 32.1937 130.06 30.3159 129.979C28.4381 129.897 26.6255 129.242 25.1063 128.095C23.587 126.948 22.4291 125.361 21.7783 123.534C21.1275 121.706 21.013 119.72 21.4491 117.825L29.4394 82.8694L3.30815 59.4957C1.88717 58.2227 0.859502 56.5439 0.35347 54.669C-0.152562 52.7941 -0.114525 50.8062 0.46283 48.9536C1.04018 47.101 2.13127 45.4658 3.59982 44.2521C5.06838 43.0385 6.84931 42.3002 8.72022 42.1295L42.9812 39.2643L56.1978 6.10894C56.9132 4.302 58.1308 2.75638 59.6958 1.6686C61.2607 0.580813 63.1024 0 64.9866 0C66.8709 0 68.7126 0.580813 70.2775 1.6686C71.8425 2.75638 73.0601 4.302 73.7755 6.10894L86.9863 39.2643L121.247 42.1295C123.122 42.2939 124.908 43.028 126.382 44.24C127.856 45.452 128.952 47.0879 129.533 48.9427C130.114 50.7976 130.154 52.7889 129.648 54.6672C129.142 56.5455 128.112 58.2273 126.688 59.5018L126.723 59.4957Z" fill="#B0BFB4" fill-opacity="0.74"/>
</svg>
