<svg width="131" height="130" viewBox="0 0 131 130" fill="none" xmlns="http://www.w3.org/2000/svg">
<path d="M129.76 48.9731C129.254 47.3108 128.278 45.8447 126.959 44.7654C125.639 43.686 124.038 43.0431 122.362 42.9201L86.7615 39.9334L73.0411 5.46704C72.401 3.85152 71.3127 2.46988 69.9145 1.49757C68.5163 0.525264 66.8713 0.00614929 65.1883 0.00614929C63.5052 0.00614929 61.8602 0.525264 60.462 1.49757C59.0638 2.46988 57.9755 3.85152 57.3354 5.46704L43.615 39.9211L8.01407 42.9201C6.33698 43.044 4.73459 43.6887 3.41524 44.7704C2.09589 45.8521 1.1206 47.3207 0.616172 48.9854C0.0903547 50.6456 0.0499323 52.4303 0.5 54.1143C0.950068 55.7984 1.87047 57.3064 3.14517 58.4483L30.326 82.7403L22.0535 119.077C21.6654 120.778 21.772 122.559 22.36 124.197C22.948 125.835 23.9908 127.254 25.3566 128.276C26.7055 129.314 28.3247 129.904 30.0023 129.969C31.6798 130.035 33.3373 129.573 34.7576 128.644L65.1883 109.228L95.6662 128.675C97.0865 129.604 98.744 130.066 100.422 130C102.099 129.934 103.718 129.344 105.067 128.307C106.433 127.285 107.476 125.865 108.064 124.228C108.652 122.59 108.758 120.808 108.37 119.108L100.098 82.771L127.231 58.4483C128.508 57.3055 129.43 55.7953 129.88 54.1088C130.33 52.4223 130.289 50.635 129.76 48.9731ZM122.587 52.8797L93.8167 78.6375C93.3258 79.0771 92.9605 79.6481 92.7605 80.2882C92.5604 80.9283 92.5334 81.6131 92.6822 82.2681L101.475 120.776C101.552 121.067 101.539 121.375 101.438 121.658C101.337 121.94 101.154 122.183 100.913 122.352C100.695 122.527 100.43 122.627 100.155 122.638C99.8792 122.649 99.6073 122.57 99.377 122.413L67.0436 101.795C66.4855 101.439 65.8433 101.251 65.1883 101.251C64.5332 101.251 63.891 101.439 63.3329 101.795L30.9996 122.407C30.7692 122.564 30.4974 122.643 30.2219 122.632C29.9465 122.621 29.6813 122.521 29.4633 122.346C29.2173 122.181 29.0278 121.94 28.9216 121.657C28.8155 121.374 28.7983 121.064 28.8724 120.77L37.6648 82.262C37.8136 81.607 37.7865 80.9222 37.5865 80.2821C37.3865 79.6419 37.0212 79.071 36.5303 78.6314L8.55178 50.2365C8.32606 50.0457 7.86154 50.8306 7.78423 50.5393C7.70692 50.2481 7.22889 51.5322 7.32864 51.2484C7.40572 50.9686 7.56498 50.7207 7.78423 50.5393C7.32864 51.2484 8.2718 50.2521 8.55178 50.2365L36.5303 78.6314C37.1811 78.5765 24.829 128.676 25.3566 128.276C25.8842 127.877 64.939 101.877 65.1883 101.251L65.1587 7.33895C65.2602 7.06838 64.144 7.75443 64.3749 7.59054C64.6058 7.42664 64.879 7.33895 65.1587 7.33895C65.4385 7.33895 65.7117 7.42664 65.9426 7.59054C66.1735 7.75443 66.3513 7.98689 66.4528 8.25746L81.0063 44.809C81.2555 45.4354 81.6666 45.9781 82.1942 46.3775C82.7218 46.7768 83.3454 47.0171 83.9962 47.072L121.766 50.2365C122.046 50.2521 122.314 50.358 122.533 50.5393C122.752 50.7207 122.912 50.9686 122.989 51.2484C123.093 51.53 123.111 51.8383 123.039 52.1306C122.967 52.4229 122.809 52.6847 122.587 52.8797Z" fill="#B0BFB4" fill-opacity="0.74"/>
</svg>
