<svg width="14" height="13" viewBox="0 0 14 13" fill="none" xmlns="http://www.w3.org/2000/svg">
<path d="M5.74 2.87C5.74 2.30237 5.57168 1.74748 5.25632 1.27551C4.94096 0.803546 4.49273 0.435691 3.9683 0.218467C3.44388 0.00124356 2.86682 -0.0555921 2.31009 0.0551475C1.75337 0.165887 1.24198 0.439228 0.840605 0.840605C0.439228 1.24198 0.165887 1.75337 0.0551475 2.31009C-0.055592 2.86682 0.00124349 3.44388 0.218467 3.9683C0.43569 4.49273 0.803545 4.94096 1.27551 5.25632C1.74748 5.57168 2.30237 5.74 2.87 5.74C3.58618 5.73819 4.27551 5.46724 4.80122 4.98089L6.22222 6.293L6.23156 6.3L6.22845 6.30233L4.80044 7.61911C4.27493 7.13294 3.58591 6.862 2.87 6.86C2.30237 6.86 1.74748 7.02832 1.27551 7.34368C0.803545 7.65904 0.43569 8.10727 0.218467 8.6317C0.00124349 9.15612 -0.055592 9.73318 0.0551475 10.2899C0.165887 10.8466 0.439228 11.358 0.840605 11.7594C1.24198 12.1608 1.75337 12.4341 2.31009 12.5449C2.86682 12.6556 3.44388 12.5988 3.9683 12.3815C4.49273 12.1643 4.94096 11.7965 5.25632 11.3245C5.57168 10.8525 5.74 10.2976 5.74 9.73C5.74 9.499 5.70578 9.27733 5.65367 9.06267L7.86567 7.51411L11.0756 9.898C12.796 11.1028 14 9.38233 14 9.38233L5.65367 3.53733C5.705 3.32267 5.74 3.101 5.74 2.87ZM2.87 4.27C2.4987 4.27 2.1426 4.1225 1.88005 3.85995C1.6175 3.5974 1.47 3.2413 1.47 2.87C1.47 2.4987 1.6175 2.1426 1.88005 1.88005C2.1426 1.6175 2.4987 1.47 2.87 1.47C3.2413 1.47 3.5974 1.6175 3.85995 1.88005C4.1225 2.1426 4.27 2.4987 4.27 2.87C4.27 3.2413 4.1225 3.5974 3.85995 3.85995C3.5974 4.1225 3.2413 4.27 2.87 4.27ZM2.87 11.13C2.4987 11.13 2.1426 10.9825 1.88005 10.7199C1.6175 10.4574 1.47 10.1013 1.47 9.73C1.47 9.3587 1.6175 9.0026 1.88005 8.74005C2.1426 8.4775 2.4987 8.33 2.87 8.33C3.2413 8.33 3.5974 8.4775 3.85995 8.74005C4.1225 9.0026 4.27 9.3587 4.27 9.73C4.27 10.1013 4.1225 10.4574 3.85995 10.7199C3.5974 10.9825 3.2413 11.13 2.87 11.13ZM14 3.21845C14 3.21845 12.796 1.498 11.0756 2.70278L8.58278 4.44111L10.4137 5.72289L14 3.21845Z" fill="#BC9284"/>
</svg>
