<svg width="14" height="13" viewBox="0 0 14 13" fill="none" xmlns="http://www.w3.org/2000/svg">
<path d="M4.9369 4.83395L4.80109 4.70855L4.6654 4.83408C4.17657 5.28631 3.53562 5.53827 2.86969 5.54C2.34172 5.53994 1.82562 5.38335 1.38663 5.09002C0.947549 4.79664 0.605329 4.37964 0.403243 3.89177C0.201157 3.40389 0.148282 2.86704 0.251305 2.34911C0.354327 1.83118 0.60862 1.35543 0.982026 0.982026C1.35543 0.60862 1.83118 0.354327 2.34911 0.251305C2.86704 0.148282 3.40389 0.201157 3.89177 0.403243C4.37964 0.605329 4.79664 0.947549 5.09002 1.38663C5.38341 1.82571 5.54 2.34192 5.54 2.87C5.54 3.08081 5.50807 3.28624 5.45915 3.49082L5.42751 3.62312L5.53894 3.70116L13.7083 9.42225C13.6885 9.44412 13.6664 9.46761 13.6422 9.49227C13.5118 9.62525 13.3232 9.78856 13.0877 9.9161C12.853 10.0432 12.5755 10.1329 12.2629 10.1257C11.9524 10.1186 11.5931 10.0157 11.1925 9.73573L7.98491 7.35355L7.86912 7.26755L7.75097 7.35027L5.53897 8.89882L5.4271 8.97714L5.45931 9.10985C5.50873 9.31344 5.54 9.51884 5.54 9.73C5.54 10.2581 5.38341 10.7743 5.09002 11.2134C4.79664 11.6524 4.37964 11.9947 3.89177 12.1968C3.40389 12.3988 2.86704 12.4517 2.34911 12.3487C1.83118 12.2457 1.35543 11.9914 0.982026 11.618C0.60862 11.2446 0.354327 10.7688 0.251305 10.2509C0.148282 9.73296 0.201157 9.19611 0.403243 8.70823C0.605329 8.22036 0.947549 7.80336 1.38663 7.50997C1.82565 7.21663 2.34178 7.06004 2.86978 7.06C3.5354 7.06194 4.17601 7.31389 4.66463 7.76592L4.80022 7.89136L4.93602 7.76614L6.35657 6.45624L6.56488 6.29998L6.35155 6.14L6.35039 6.13913L4.9369 4.83395ZM13.7082 3.17831L10.4138 5.47885L8.93197 4.44143L11.19 2.86683L11.1903 2.8666C11.5917 2.58548 11.9518 2.48216 12.2629 2.47503C12.5755 2.46787 12.853 2.55756 13.0877 2.68468C13.3232 2.81222 13.5118 2.97552 13.6422 3.10851C13.6663 3.13309 13.6883 3.15651 13.7082 3.17831ZM1.73863 4.00137C2.03869 4.30143 2.44565 4.47 2.87 4.47C3.29435 4.47 3.70131 4.30143 4.00137 4.00137C4.30143 3.70131 4.47 3.29435 4.47 2.87C4.47 2.44565 4.30143 2.03869 4.00137 1.73863C3.70131 1.43857 3.29435 1.27 2.87 1.27C2.44565 1.27 2.03869 1.43857 1.73863 1.73863C1.43857 2.03869 1.27 2.44565 1.27 2.87C1.27 3.29435 1.43857 3.70131 1.73863 4.00137ZM1.73863 10.8614C2.03869 11.1614 2.44566 11.33 2.87 11.33C3.29435 11.33 3.70131 11.1614 4.00137 10.8614C4.30143 10.5613 4.47 10.1543 4.47 9.73C4.47 9.30565 4.30143 8.89869 4.00137 8.59863C3.70131 8.29857 3.29435 8.13 2.87 8.13C2.44565 8.13 2.03869 8.29857 1.73863 8.59863C1.43857 8.89869 1.27 9.30565 1.27 9.73C1.27 10.1543 1.43857 10.5613 1.73863 10.8614Z" stroke="#BC9284" stroke-width="0.4"/>
<path d="M5.00013 4L4.30103 4.4M5.00013 4L5.5 5L7 6L7.5 5.5L5.00013 4ZM4.30103 4.4C6.29944 2.4 3.50103 -0.5 1.5012 1.3C-0.499871 3 2.00043 6.5 4.30103 4.4Z" stroke="#BC9284" stroke-width="0.8"/>
<path d="M4.99915 8.59998L4.30005 8.19998M4.99915 8.59998L5.49902 7.59998L6.99902 6.59998L7 7.5L4.99915 8.59998ZM4.30005 8.19998C6.29846 10.2 3.50005 13.1 1.50022 11.3C-0.500848 9.59998 1.99946 6.09998 4.30005 8.19998Z" stroke="#BC9284" stroke-width="0.8"/>
</svg>
