<svg width="187" height="294" viewBox="0 0 187 294" fill="none" xmlns="http://www.w3.org/2000/svg">
<path d="M33.5 293.502C34.1667 283.335 36.9 261.402 42.5 255.002L21.5 230.502C34.5 213 67.3 183.802 70.5 185.002C68.6667 181.001 64.9 172.4 64.5 170C64 167 16.5 155 22.5 99.5M158 293.502C154.833 286.835 148.9 272 150.5 266C150.667 256.501 152.1 236.104 156.5 230.502L165.5 207C166.5 203.167 167.3 195.1 162.5 193.5C157.7 191.9 148.5 190.167 144.5 189.5C141.5 188 135.9 183.9 137.5 179.5M138 179C147.5 183 150.5 182.5 150.5 182C150.5 181.6 151.5 178.167 152 176.5L154.5 171.5L158 165.5L160 159.5C160.333 155.167 160.1 145 156.5 139M155.5 138.5C160.5 133.5 169.7 119.1 166.5 101.5M2.5 293.502L1 99.5V95C2.16667 63.8333 22.9 1.4 96.5 1C124 1.5 180.2 20.2 185 91L186.5 293.502H2.5Z" stroke="black"/>
</svg>
